<?xml version="1.0" standalone="no"?>
<!DOCTYPE svg PUBLIC "-//W3C//DTD SVG 1.1//EN" "http://www.w3.org/Graphics/SVG/1.1/DTD/svg11.dtd" >
<svg>
<metadata>
Created by FontForge 20120731 at Tue Jul  8 08:44:25 2014
 By World Wide Web Server
Digitized data (C) 2004 Monotype Imaging Inc. All rights reserved. GE Inspira is a trademark of the General Electric Company.
</metadata>
<defs>
<font id="GEInspira-Bold" horiz-adv-x="791" >
  <font-face 
    font-family="GE Inspira"
    font-weight="700"
    font-stretch="normal"
    units-per-em="2048"
    panose-1="2 15 8 3 3 4 0 2 2 3"
    ascent="1638"
    descent="-410"
    x-height="1044"
    cap-height="1393"
    bbox="-373 -520 2687 2019"
    underline-thickness="198"
    underline-position="-164"
    unicode-range="U+0020-FB04"
  />
<missing-glyph horiz-adv-x="1024" 
d="M51 0v1536h922v-1536h-922zM179 128h666v1280h-666v-1280zM508 -525zM508 2029z" />
    <glyph glyph-name=".notdef" horiz-adv-x="1024" 
d="M51 0v1536h922v-1536h-922zM179 128h666v1280h-666v-1280zM508 -525zM508 2029z" />
    <glyph glyph-name=".null" horiz-adv-x="0" 
 />
    <glyph glyph-name="nonmarkingreturn" horiz-adv-x="485" 
 />
    <glyph glyph-name="space" unicode=" " horiz-adv-x="475" 
 />
    <glyph glyph-name="exclam" unicode="!" horiz-adv-x="557" 
d="M391 451q0 -107 -112 -107q-113 0 -113 107v852q0 106 113 106q112 0 112 -106v-852zM279 -20q-60 0 -98 37.5t-38 95.5q0 59 37.5 97t98.5 38q59 0 97 -39t38 -96q0 -56 -38 -94.5t-97 -38.5z" />
    <glyph glyph-name="quotedbl" unicode="&#x22;" horiz-adv-x="823" 
d="M324 981q0 -107 -109 -107t-109 107v324q0 104 109 104t109 -104v-324zM717 981q0 -107 -109 -107q-108 0 -108 107v324q0 104 108 104q109 0 109 -104v-324z" />
    <glyph glyph-name="numbersign" unicode="#" horiz-adv-x="1296" 
d="M1026 862l-51 -325h129q98 0 98 -78q0 -54 -29 -85.5t-86 -31.5h-143q-36 -230 -46.5 -275t-38.5 -66t-79 -21q-96 0 -96 88q0 23 45 274h-244q-31 -203 -43.5 -262t-39.5 -79.5t-76 -20.5q-101 0 -101 88q0 11 45 274h-129q-52 0 -76 18.5t-24 59.5q0 117 117 117h141
l51 325h-129q-98 0 -98 76q0 60 27 89.5t90 29.5h141l32 186q6 35 10 66.5t16.5 54.5t37.5 34t64 11q52 0 75 -19.5t23 -62.5q0 -25 -20 -137l-23 -133h244l35 215q11 60 15.5 75.5t17.5 30.5t34.5 23t52.5 8q103 0 103 -82q0 -20 -43 -270h131q98 0 98 -78q0 -56 -30 -86.5
t-85 -30.5h-143zM565 862l-51 -325h246l51 325h-246z" />
    <glyph glyph-name="dollar" unicode="$" horiz-adv-x="1085" 
d="M633 -12v-78q0 -54 -21 -74t-67 -20q-47 0 -66.5 17t-19.5 77v78q-107 10 -196 56t-131 84.5t-42 84.5q0 35 29.5 69.5t66.5 34.5q42 0 93 -38q78 -60 180 -89v433q-197 54 -281 147.5t-84 243.5q0 148 99.5 255.5t265.5 135.5v65q0 95 88 95q86 0 86 -95v-63
q124 -11 231 -80.5t107 -134.5q0 -39 -35.5 -77t-67.5 -38q-37 0 -68 28q-88 80 -167 93v-401q199 -63 287 -160.5t88 -245.5q0 -160 -104 -273.5t-271 -129.5zM459 856v342q-65 -12 -101 -62t-36 -116q0 -59 34 -100t103 -64zM633 565v-375q71 15 111 67.5t40 125.5
q0 60 -38 105.5t-113 76.5z" />
    <glyph glyph-name="percent" unicode="%" horiz-adv-x="1960" 
d="M459 602q-157 0 -259 110t-102 298t102 295.5t259 107.5q162 0 262 -106.5t100 -296.5q0 -185 -98.5 -296.5t-263.5 -111.5zM459 1249q-81 0 -121.5 -66t-40.5 -173q0 -108 41.5 -177t120.5 -69t122.5 66t43.5 180q0 107 -41 173t-125 66zM1479 1264l-824 -1221
q-26 -38 -44.5 -50.5t-41.5 -12.5q-40 0 -71 26t-31 62q0 34 27 69l833 1233q30 43 76 43q43 0 71.5 -24.5t28.5 -59.5q0 -30 -24 -65zM1511 -20q-157 0 -258.5 109.5t-101.5 297.5t101 296t259 108q163 0 263 -107.5t100 -296.5q0 -184 -97.5 -295.5t-265.5 -111.5z
M1511 627q-78 0 -119.5 -65t-41.5 -175q0 -108 42 -177t119 -69q79 0 122.5 65.5t43.5 180.5q0 109 -41.5 174.5t-124.5 65.5z" />
    <glyph glyph-name="ampersand" unicode="&#x26;" horiz-adv-x="1274" 
d="M903 492q11 44 17 104t6 135q0 105 112 105q107 0 107 -105t-17.5 -201.5t-52.5 -183.5l189 -168q36 -32 36 -72q0 -45 -31.5 -80.5t-78.5 -35.5q-25 0 -42.5 8.5t-43.5 30.5l-146 129q-75 -92 -173 -134t-238 -42q-205 0 -333 120.5t-128 303.5q0 113 54.5 205.5
t154.5 142.5q-63 65 -94 134t-31 142q0 169 116.5 277t297.5 108q156 0 274.5 -72t118.5 -137q0 -42 -34 -78t-75 -36q-31 0 -61 23q-70 55 -114.5 75t-104.5 20q-92 0 -141.5 -45t-49.5 -129q0 -30 25 -84t78 -100zM805 291q-79 75 -365 321q-60 -26 -93.5 -81t-33.5 -123
q0 -93 69.5 -158.5t178.5 -65.5q78 0 139 26.5t105 80.5z" />
    <glyph glyph-name="quotesingle" unicode="'" horiz-adv-x="430" 
d="M324 981q0 -107 -109 -107t-109 107v324q0 104 109 104t109 -104v-324z" />
    <glyph glyph-name="parenleft" unicode="(" horiz-adv-x="504" 
d="M315 -162q-52 0 -83 41.5t-68.5 178.5t-59.5 302.5t-22 317.5q0 250 51 489.5t88.5 294t95.5 54.5q47 0 76 -24.5t29 -66.5q0 -34 -23 -92q-46 -127 -71 -303t-25 -350q0 -165 25.5 -348.5t74.5 -321.5q19 -41 19 -80t-29 -65.5t-78 -26.5zM292 1393z" />
    <glyph glyph-name="parenright" unicode=")" horiz-adv-x="504" 
d="M201 680q0 176 -26 352.5t-71 300.5q-22 63 -22 92q0 33 25 62t79 29q57 0 95 -53t89.5 -293.5t51.5 -491.5q0 -195 -30.5 -373.5t-64.5 -292.5t-66 -144t-73 -30q-48 0 -77 26.5t-29 65.5q0 35 18 80q45 126 73 313.5t28 356.5zM192 1393z" />
    <glyph glyph-name="asterisk" unicode="*" horiz-adv-x="885" 
d="M339 760q-7 -11 -26 -27.5t-42 -16.5q-31 0 -68.5 30.5t-37.5 62.5q0 28 27 57l124 134l-174 38q-19 4 -43 22.5t-24 50.5q0 34 20 73t59 39q20 0 43 -11l166 -77l-22 188q0 84 95 84q92 0 92 -76l-22 -196l166 80q19 8 42 8q39 0 59.5 -40t20.5 -74q0 -53 -67 -68
l-174 -41l127 -136q24 -27 24 -58q0 -34 -39 -64.5t-69 -30.5q-38 0 -64 47l-97 160z" />
    <glyph glyph-name="plus" unicode="+" horiz-adv-x="1208" 
d="M711 422v-296q0 -53 -24.5 -78.5t-82.5 -25.5t-82 25.5t-24 78.5v296h-285q-115 0 -115 100q0 103 115 103h285v296q0 57 25.5 80.5t80.5 23.5q57 0 82 -24t25 -80v-296h285q115 0 115 -103q0 -100 -115 -100h-285z" />
    <glyph glyph-name="comma" unicode="," horiz-adv-x="492" 
d="M205 -287q-45 0 -72 25t-27 65q0 44 10 77q16 49 20.5 69.5t4.5 60.5q0 33 -3 63q-3 31 -3 66q0 64 28 96.5t85 32.5q72 0 100.5 -56t28.5 -163q0 -127 -51.5 -231.5t-120.5 -104.5zM246 -20z" />
    <glyph glyph-name="hyphen" unicode="-" horiz-adv-x="750" 
d="M575 448h-401q-113 0 -113 107q0 106 113 106h401q113 0 113 -106q0 -107 -113 -107z" />
    <glyph glyph-name="hyphen" unicode="&#x2010;" horiz-adv-x="750" 
d="M575 448h-401q-113 0 -113 107q0 106 113 106h401q113 0 113 -106q0 -107 -113 -107z" />
    <glyph glyph-name="period" unicode="." horiz-adv-x="494" 
d="M246 -20q-64 0 -104 40t-40 103q0 64 39.5 104.5t104.5 40.5q63 0 104 -41t41 -104q0 -61 -41 -102t-104 -41z" />
    <glyph glyph-name="slash" unicode="/" horiz-adv-x="795" 
d="M545 1473q25 73 98 73q50 0 85.5 -30t35.5 -72q0 -19 -6 -37l-508 -1483q-24 -69 -98 -69q-50 0 -85.5 28t-35.5 68q0 19 8 43z" />
    <glyph glyph-name="zero" unicode="0" horiz-adv-x="1085" 
d="M1022 688q0 -321 -125 -514.5t-354 -193.5q-232 0 -357 195t-125 521q0 330 124.5 523.5t357.5 193.5q169 0 277.5 -97.5t155 -270.5t46.5 -357zM543 1208q-125 0 -189.5 -135.5t-64.5 -376.5q0 -225 65.5 -368.5t188.5 -143.5t187.5 139t64.5 373q0 256 -63 384
t-189 128z" />
    <glyph glyph-name="one" unicode="1" horiz-adv-x="1085" 
d="M489 1145l-129 -76q-53 -31 -90 -31t-65.5 33t-28.5 74q0 52 68 92l254 152q43 26 94 26q125 0 125 -123v-1089h168q114 0 114 -101q0 -102 -114 -102h-584q-115 0 -115 102q0 101 115 101h188v942z" />
    <glyph glyph-name="two" unicode="2" horiz-adv-x="1085" 
d="M365 211h471q114 0 114 -105q0 -106 -114 -106h-521q-95 0 -144.5 48.5t-49.5 133.5q0 140 95 274t304 279q138 96 181.5 159t43.5 134q0 81 -49.5 130.5t-138.5 49.5q-99 0 -201 -78q-51 -40 -94 -40q-37 0 -69.5 33.5t-32.5 72.5q0 72 127 144.5t274 72.5
q195 0 303.5 -103.5t108.5 -277.5q0 -117 -64 -217t-268 -248q-147 -106 -223 -195.5t-76 -138.5q0 -22 23 -22z" />
    <glyph glyph-name="three" unicode="3" horiz-adv-x="1085" 
d="M621 829q157 -24 240 -126t83 -269q0 -190 -128.5 -322t-342.5 -132q-141 0 -263 60t-122 132q0 43 32 81t68 38q21 0 36 -6t44 -25q111 -76 207 -76q114 0 178 68.5t64 173.5q0 119 -72 178.5t-215 59.5q-104 0 -104 90q0 45 51 104l246 279q10 11 10 26q0 23 -23 23
h-401q-56 0 -83.5 23t-27.5 77q0 107 111 107h516q188 0 188 -156q0 -82 -92 -180z" />
    <glyph glyph-name="four" unicode="4" horiz-adv-x="1085" 
d="M891 289v-199q0 -106 -113 -106q-112 0 -112 106v199h-426q-97 0 -146 41t-49 116q0 64 35 136l377 755q20 40 43 56t59 16q49 0 85 -29.5t36 -72.5q0 -22 -18 -60l-349 -698q-10 -20 -10 -33q0 -24 41 -24h322v464q0 105 112 105q113 0 113 -105v-462h63q55 0 79 -24.5
t24 -78.5t-23 -78t-80 -24h-63z" />
    <glyph glyph-name="five" unicode="5" horiz-adv-x="1085" 
d="M381 866q79 25 170 25q202 0 312 -117.5t110 -333.5q0 -192 -134.5 -326t-334.5 -134q-161 0 -276 63.5t-115 128.5q0 48 32 84.5t72 36.5q39 0 80 -31q105 -78 207 -78q112 0 176.5 69.5t64.5 180.5q0 120 -63 186t-180 66q-56 0 -133 -18q-78 -19 -109 -19
q-44 0 -71 27t-27 76q0 25 6 94l41 399q8 79 49.5 113.5t124.5 34.5h453q56 0 81 -24t25 -81q0 -53 -23.5 -75.5t-82.5 -22.5h-404q-19 0 -22 -21z" />
    <glyph glyph-name="six" unicode="6" horiz-adv-x="1085" 
d="M328 754q101 141 297 141q178 0 283.5 -117t105.5 -321q0 -202 -126 -339.5t-329 -137.5q-221 0 -343 151.5t-122 435.5q0 418 149.5 632t442.5 214q90 0 172 -27t82 -86q0 -46 -27 -82t-63 -36q-20 0 -70 13q-51 13 -106 13q-153 0 -242 -114.5t-104 -339.5zM571 694
q-103 0 -169 -68t-66 -167q0 -121 58 -199t165 -78q103 0 165 76t62 197q0 111 -58.5 175t-156.5 64z" />
    <glyph glyph-name="seven" unicode="7" horiz-adv-x="1085" 
d="M694 1190h-454q-59 0 -86 23t-27 77t27 78.5t86 24.5h587q80 0 125 -43t45 -113q0 -34 -11.5 -68t-53.5 -100q-158 -226 -276.5 -506t-137.5 -485q-6 -94 -106 -94q-55 0 -87 28.5t-32 81.5q0 46 20 140.5t75.5 245t130 303.5t123.5 235l76 128q7 12 7 25q0 19 -31 19z
" />
    <glyph glyph-name="eight" unicode="8" horiz-adv-x="1085" 
d="M291 745q-76 47 -117.5 123t-41.5 160q0 167 116.5 276t292.5 109q178 0 295 -107.5t117 -275.5q0 -87 -42.5 -164t-117.5 -121q100 -44 154 -133t54 -204q0 -187 -130 -307.5t-330 -120.5q-201 0 -329 115.5t-128 305.5q0 109 55 202t152 142zM541 1208q-80 0 -132 -51
t-52 -133q0 -79 49.5 -129.5t134.5 -50.5t135 51t50 129q0 83 -52 133.5t-133 50.5zM541 635q-105 0 -167.5 -64.5t-62.5 -160.5q0 -105 60.5 -165.5t169.5 -60.5t171 62.5t62 171.5q0 95 -62.5 156t-170.5 61z" />
    <glyph glyph-name="nine" unicode="9" horiz-adv-x="1085" 
d="M782 639q-101 -139 -288 -139q-177 0 -287.5 116t-110.5 320q0 203 126.5 340t328.5 137q221 0 343 -151.5t122 -436.5q0 -845 -592 -845q-93 0 -172.5 27.5t-79.5 88.5q0 48 25 81.5t61 33.5q19 0 35 -4q88 -23 143 -23q154 0 243 116.5t103 338.5zM539 698
q102 0 168.5 68t66.5 168q0 121 -58 198.5t-165 77.5q-103 0 -165 -76t-62 -196q0 -111 58 -175.5t157 -64.5z" />
    <glyph glyph-name="colon" unicode=":" horiz-adv-x="453" 
d="M225 700q-63 0 -103 40t-40 104q0 65 39.5 105t103.5 40t105 -41.5t41 -103.5q0 -61 -41.5 -102.5t-104.5 -41.5zM225 -20q-64 0 -103.5 40t-39.5 103q0 65 39.5 105t103.5 40t105 -41.5t41 -103.5q0 -60 -41 -101.5t-105 -41.5zM225 1044z" />
    <glyph glyph-name="semicolon" unicode=";" horiz-adv-x="494" 
d="M246 700q-64 0 -104 40.5t-40 103.5q0 64 39.5 104.5t104.5 40.5q63 0 104 -41t41 -104q0 -61 -41 -102.5t-104 -41.5zM205 -287q-45 0 -72 25t-27 65q0 44 10 77q16 49 20.5 69.5t4.5 60.5q0 33 -3 63q-3 31 -3 66q0 129 113 129q72 0 100.5 -56t28.5 -163
q0 -127 -51.5 -231.5t-120.5 -104.5zM245 1044zM245 -20z" />
    <glyph glyph-name="less" unicode="&#x3c;" horiz-adv-x="1208" 
d="M440 522l578 -308q63 -33 63 -86q0 -35 -25.5 -70.5t-64.5 -35.5q-40 0 -78 18l-716 388q-70 38 -70 88q0 69 72 102l698 377q50 27 90 27q38 0 66 -33t28 -71q0 -55 -63 -89z" />
    <glyph glyph-name="equal" unicode="=" horiz-adv-x="1208" 
d="M995 624h-782q-115 0 -115 101q0 53 27.5 77.5t87.5 24.5h782q60 0 87.5 -24.5t27.5 -77.5q0 -101 -115 -101zM995 219h-782q-115 0 -115 100q0 103 115 103h782q115 0 115 -103q0 -100 -115 -100z" />
    <glyph glyph-name="greater" unicode="&#x3e;" horiz-adv-x="1208" 
d="M770 522l-577 307q-64 34 -64 86q0 35 26 71t64 36q42 0 78 -19l717 -387q69 -37 69 -88q0 -66 -71 -102l-699 -377q-50 -27 -90 -27q-38 0 -66 33.5t-28 71.5q0 54 64 88z" />
    <glyph glyph-name="question" unicode="?" horiz-adv-x="903" 
d="M397 369q-112 0 -112 96q0 99 13 157.5t55.5 114.5t135.5 115q90 58 119 101t29 104q0 68 -48 111.5t-128 43.5q-68 0 -114.5 -23.5t-105.5 -77.5q-32 -30 -71 -30t-70.5 33t-31.5 74q0 74 121 150.5t270 76.5q189 0 297 -93t108 -255q0 -113 -54 -200.5t-173 -164.5
q-80 -51 -103.5 -93t-23.5 -144q0 -96 -113 -96zM401 -20q-64 0 -103.5 40t-39.5 103q0 65 39.5 105t103.5 40t105 -41.5t41 -103.5q0 -60 -41 -101.5t-105 -41.5z" />
    <glyph glyph-name="at" unicode="@" horiz-adv-x="1681" 
d="M981 373q-32 -61 -87.5 -95t-117.5 -34q-143 0 -231 115.5t-88 308.5q0 176 91.5 288.5t223.5 112.5q143 0 197 -100v22q0 78 102 78q107 0 107 -96v-463q0 -80 57 -80q48 0 85.5 80.5t37.5 224.5q0 219 -139.5 354.5t-366.5 135.5q-232 0 -379 -156t-147 -414
q0 -244 138 -390t357 -146q96 0 160 22t77 29q37 18 66 18q39 0 66 -29t27 -69q0 -75 -127 -119.5t-275 -44.5q-310 0 -507 204t-197 527q0 331 207 544.5t536 213.5q320 0 518.5 -189.5t198.5 -492.5q0 -213 -100 -351t-275 -138q-163 0 -215 129zM969 752q0 69 -34 109
t-93 40q-82 0 -126 -64.5t-44 -179.5q0 -114 38.5 -170.5t116.5 -56.5q62 0 102 43t40 111v168z" />
    <glyph glyph-name="A" unicode="A" horiz-adv-x="1235" 
d="M879 381h-514q-36 -109 -95 -311q-11 -48 -31.5 -67t-60.5 -19q-64 0 -100.5 23t-36.5 61q0 39 28.5 144.5t86.5 276.5q57 171 113 319.5t110 275.5q108 254 144.5 289.5t103.5 35.5q62 0 93 -31q44 -43 165 -341q107 -264 220 -618q89 -281 89 -341q0 -45 -39 -69.5
t-102 -24.5q-33 0 -52.5 16.5t-33.5 69.5q-33 130 -88 311zM623 1124q-90 -207 -195 -530h387q-91 305 -192 530z" />
    <glyph glyph-name="B" unicode="B" horiz-adv-x="1190" 
d="M842 743q122 -33 189 -123t67 -212q0 -194 -123.5 -301t-339.5 -107h-285q-87 0 -134.5 45t-47.5 127v1030q0 191 194 191h236q223 0 334.5 -92t111.5 -275q0 -90 -54.5 -170t-147.5 -113zM397 834h224q87 0 140.5 48t53.5 128q0 92 -51.5 131t-167.5 39h-164
q-15 0 -25 -11t-10 -28v-307zM397 625v-379q0 -33 29 -33h215q113 0 170 50t57 151q0 103 -64.5 157t-182.5 54h-224z" />
    <glyph glyph-name="C" unicode="C" horiz-adv-x="1233" 
d="M713 -20q-288 0 -454.5 189t-166.5 517q0 334 181 530.5t464 196.5q94 0 177.5 -20.5t148.5 -63t85.5 -69.5t20.5 -60q0 -41 -33 -78t-71 -37q-37 0 -88 35q-61 46 -118 63t-130 17q-180 0 -293.5 -137.5t-113.5 -372.5q0 -242 107 -369.5t308 -127.5q74 0 133.5 23
t144.5 80q32 21 68 21q39 0 70 -33.5t31 -68.5q0 -83 -146 -159t-325 -76z" />
    <glyph glyph-name="D" unicode="D" horiz-adv-x="1382" 
d="M350 0q-87 0 -134.5 45t-47.5 127v1030q0 95 48.5 143t145.5 48h277q301 0 476 -184.5t175 -489.5q0 -329 -173.5 -524t-477.5 -195h-289zM397 246q0 -33 29 -33h201q207 0 320.5 131.5t113.5 366.5q0 220 -114 344.5t-320 124.5h-195q-15 0 -25 -11t-10 -28v-895z" />
    <glyph glyph-name="E" unicode="E" horiz-adv-x="1075" 
d="M397 831h410q61 0 92 -19.5t31 -84.5q0 -62 -27 -85.5t-96 -23.5h-410v-372q0 -33 29 -33h442q66 0 95.5 -21t29.5 -83t-27 -85.5t-98 -23.5h-518q-86 0 -134 45.5t-48 126.5v1030q0 191 194 191h510q66 0 93.5 -21t27.5 -84q0 -66 -28.5 -87t-92.5 -21h-440
q-15 0 -25 -11t-10 -28v-310z" />
    <glyph glyph-name="F" unicode="F" horiz-adv-x="1024" 
d="M397 84q0 -52 -27.5 -76t-88.5 -24q-62 0 -87.5 23.5t-25.5 76.5v1118q0 191 194 191h500q65 0 92 -21t27 -84q0 -61 -29 -84.5t-90 -23.5h-430q-15 0 -25 -11t-10 -28v-330h377q67 0 94 -22.5t27 -81.5q0 -60 -29 -84.5t-92 -24.5h-377v-514z" />
    <glyph glyph-name="G" unicode="G" horiz-adv-x="1354" 
d="M1217 258q0 -81 -44 -133t-164 -98.5t-284 -46.5q-290 0 -461.5 190.5t-171.5 515.5q0 333 183.5 530t467.5 197q157 0 257.5 -37t147 -74t46.5 -79q0 -43 -30 -81t-68 -38q-33 0 -74 22q-145 74 -272 74q-191 0 -309.5 -136t-118.5 -374q0 -237 113.5 -367t318.5 -130
q72 0 136 19t80.5 36t16.5 49v264h-229q-53 0 -78 22.5t-25 86.5q0 56 25 80t82 24h342q113 0 113 -104v-412z" />
    <glyph glyph-name="H" unicode="H" horiz-adv-x="1362" 
d="M1194 84q0 -55 -29 -77.5t-86 -22.5q-60 0 -87 23t-27 77v524h-568v-524q0 -52 -27.5 -76t-88.5 -24q-62 0 -87.5 23.5t-25.5 76.5v1229q0 51 24.5 73.5t90.5 22.5q65 0 89.5 -23t24.5 -73v-492h568v492q0 52 24.5 74t89.5 22q66 0 90.5 -22.5t24.5 -73.5v-1229z" />
    <glyph glyph-name="I" unicode="I" horiz-adv-x="565" 
d="M397 84q0 -52 -27.5 -76t-88.5 -24q-62 0 -87.5 23.5t-25.5 76.5v1229q0 51 24.5 73.5t90.5 22.5q65 0 89.5 -23t24.5 -73v-1229z" />
    <glyph glyph-name="J" unicode="J" horiz-adv-x="961" 
d="M805 479q0 -233 -114 -366t-333 -133q-119 0 -229.5 54t-110.5 126q0 43 32.5 77.5t72.5 34.5q15 0 25 -3t49 -21q95 -55 168 -55q106 0 158 72.5t52 226.5v821q0 52 25 74t90 22q64 0 89.5 -22.5t25.5 -73.5v-834z" />
    <glyph glyph-name="K" unicode="K" horiz-adv-x="1180" 
d="M485 621q-46 -42 -88 -72v-465q0 -54 -28 -77t-88 -23t-86.5 23.5t-26.5 76.5v1229q0 51 24.5 73.5t90.5 22.5q62 0 88 -22.5t26 -73.5v-496q117 97 244 245t225 298q36 51 86 51q51 0 91 -33.5t40 -74.5q0 -19 -8 -40.5t-69.5 -108t-156.5 -192.5t-192 -194
q124 -130 220 -253.5t164.5 -227t87 -135.5t18.5 -64q0 -43 -41 -74.5t-88 -31.5q-31 0 -49.5 12.5t-40.5 46.5q-127 194 -237.5 339t-205.5 241z" />
    <glyph glyph-name="L" unicode="L" horiz-adv-x="1001" 
d="M397 246q0 -33 29 -33h422q67 0 96 -22t29 -82q0 -63 -28 -86t-97 -23h-496q-86 0 -135 45.5t-49 126.5v1131q0 56 27 81t88 25q63 0 88.5 -24t25.5 -82v-1057z" />
    <glyph glyph-name="M" unicode="M" horiz-adv-x="1612" 
d="M1444 82q0 -51 -23.5 -74.5t-89.5 -23.5q-60 0 -82 22.5t-22 75.5v936l-295 -504q-30 -46 -59.5 -58t-67.5 -12q-39 0 -69 12.5t-58 55.5l-293 498v-928q0 -52 -22 -75t-84 -23q-65 0 -88 23.5t-23 74.5v1188q0 139 133 139q45 0 71.5 -18t51.5 -66l381 -666l389 681
q18 34 44 51.5t75 17.5q65 0 98 -32.5t33 -106.5v-1188z" />
    <glyph glyph-name="N" unicode="N" horiz-adv-x="1407" 
d="M1239 104q0 -120 -129 -120q-43 0 -66.5 16.5t-52.5 60.5l-602 961v-940q0 -51 -25 -74.5t-83 -23.5q-62 0 -87.5 22.5t-25.5 75.5v1180q0 74 33.5 110.5t111.5 36.5q41 0 68 -17t49 -61l588 -950v928q0 52 24 76t84 24q63 0 88 -23.5t25 -76.5v-1205z" />
    <glyph glyph-name="O" unicode="O" horiz-adv-x="1427" 
d="M717 -20q-289 0 -457 204t-168 514t168.5 512.5t456.5 202.5q287 0 452.5 -202.5t165.5 -512.5q0 -312 -165.5 -515t-452.5 -203zM717 1200q-184 0 -289.5 -146.5t-105.5 -355.5q0 -211 105.5 -358t289.5 -147q180 0 284.5 148t104.5 357q0 210 -104 356t-285 146z" />
    <glyph glyph-name="P" unicode="P" horiz-adv-x="1108" 
d="M393 502v-420q0 -52 -26.5 -75t-87.5 -23t-88 23t-27 75v1118q0 93 50 143t144 50h246q215 0 335 -118.5t120 -332.5q0 -195 -129 -317.5t-340 -122.5h-197zM393 715h205q105 0 168 63.5t63 163.5q0 119 -57.5 178.5t-171.5 59.5h-172q-17 0 -26 -12t-9 -27v-426z" />
    <glyph glyph-name="Q" unicode="Q" horiz-adv-x="1427" 
d="M616 -12q-249 36 -386.5 234.5t-137.5 475.5q0 310 168.5 512.5t456.5 202.5q287 0 452.5 -202.5t165.5 -512.5q0 -268 -127.5 -463.5t-359.5 -242.5q2 -46 33.5 -75.5t70.5 -33.5q59 -7 87 -24.5t28 -71.5q0 -117 -102 -117q-163 0 -256 86t-93 232zM717 1200
q-182 0 -288.5 -148t-106.5 -354q0 -211 105.5 -358t289.5 -147q180 0 284.5 148t104.5 357t-104 355.5t-285 146.5z" />
    <glyph glyph-name="R" unicode="R" horiz-adv-x="1188" 
d="M397 575v-493q0 -51 -24.5 -74.5t-89.5 -23.5t-90 23.5t-25 74.5v1120q0 191 194 191h240q230 0 349.5 -97t119.5 -286q0 -133 -85.5 -236.5t-237.5 -130.5q60 -29 109.5 -77.5t91 -119.5t77.5 -154l58 -137q22 -52 22 -81q0 -39 -40.5 -68t-102.5 -29q-27 0 -47 11.5
t-37 54.5q-118 302 -212.5 417t-220.5 115h-49zM397 788h193q123 0 187.5 51.5t64.5 149.5q0 103 -58 151t-178 48h-174q-14 0 -24.5 -11t-10.5 -28v-361z" />
    <glyph glyph-name="S" unicode="S" horiz-adv-x="1034" 
d="M514 -20q-167 0 -305.5 67t-138.5 143q0 46 32.5 83.5t67.5 37.5q23 0 41.5 -8t52.5 -33q110 -77 250 -77q104 0 162.5 50.5t58.5 141.5q0 73 -47.5 125.5t-206.5 99.5q-227 69 -308 166t-81 238q0 179 120.5 289t309.5 110q183 0 304.5 -70t121.5 -147q0 -43 -32.5 -82
t-73.5 -39q-30 0 -67 26q-80 58 -128 78.5t-117 20.5q-100 0 -154 -46.5t-54 -129.5q0 -51 25 -89t69 -61.5t135 -52.5q226 -67 320 -168.5t94 -261.5q0 -188 -124 -299.5t-327 -111.5z" />
    <glyph glyph-name="T" unicode="T" horiz-adv-x="1065" 
d="M952 1393q53 0 75 -23.5t22 -83.5q0 -61 -22.5 -83.5t-74.5 -22.5h-305v-1096q0 -53 -28 -76.5t-89 -23.5t-86.5 23.5t-25.5 76.5v1096h-301q-55 0 -78 26t-23 80q0 57 23 82t78 25h835z" />
    <glyph glyph-name="U" unicode="U" horiz-adv-x="1333" 
d="M1169 453q0 -216 -139.5 -344.5t-365.5 -128.5q-225 0 -362.5 128t-137.5 345v856q0 53 28 76.5t87 23.5q114 0 114 -100v-848q0 -125 72.5 -196.5t198.5 -71.5q124 0 200 72t76 196v848q0 53 29 76.5t88 23.5q58 0 85 -23.5t27 -76.5v-856z" />
    <glyph glyph-name="V" unicode="V" horiz-adv-x="1155" 
d="M551 262q93 200 178.5 462.5t163.5 588.5q13 56 31 77t59 21q65 0 102 -24t37 -64q0 -74 -108 -429q-54 -177 -108 -327.5t-108 -273.5q-108 -246 -147.5 -277.5t-99.5 -31.5q-57 0 -85 16t-44 44q-78 139 -170.5 400.5t-156.5 527.5t-64 345q0 43 39.5 68.5t105.5 25.5
q35 0 54.5 -16.5t29.5 -79.5q54 -299 127 -562.5t164 -490.5z" />
    <glyph glyph-name="W" unicode="W" horiz-adv-x="1884" 
d="M930 961q-42 -193 -102.5 -387t-103 -296t-82 -182.5t-67 -96t-63.5 -15.5q-47 0 -71.5 14t-47.5 54q-64 113 -146 367q-41 127 -77 259t-67 269t-46.5 231t-15.5 145q0 42 40 65t103 23q39 0 57.5 -20.5t26.5 -75.5q28 -171 60 -328t68 -301q71 -308 120 -435
q81 188 161 467q53 210 90 372.5t52 234.5q17 86 121 86q54 0 82 -21.5t35 -68.5q13 -89 41.5 -225.5t75.5 -321.5q95 -390 149 -523q79 201 152 477q36 129 71 276t68 311q10 53 31 74.5t63 21.5q65 0 100 -23.5t35 -62.5q0 -33 -6 -57q-39 -178 -83.5 -345t-95.5 -323
t-100 -279t-94.5 -212t-73.5 -107t-73 -18q-58 0 -95 34q-19 17 -51.5 97t-79 219.5t-87 295.5t-74.5 331z" />
    <glyph glyph-name="X" unicode="X" horiz-adv-x="1110" 
d="M729 684q163 -153 244.5 -298t81.5 -282q0 -68 -27 -94t-86 -26q-58 0 -83 21.5t-34 84.5q-14 110 -66.5 210t-193.5 241q-146 -141 -206 -242.5t-76 -208.5q-12 -69 -37 -87.5t-80 -18.5q-58 0 -85.5 27.5t-27.5 92.5q0 133 87.5 279t262.5 305q-141 149 -221 310.5
t-80 297.5q0 59 28 86t91 27q52 0 77 -19t32 -73q14 -124 73.5 -245.5t163.5 -240.5q133 144 189.5 255t72.5 231q6 49 31.5 70.5t77.5 21.5q64 0 91.5 -25t27.5 -88q0 -129 -84.5 -287.5t-243.5 -324.5z" />
    <glyph glyph-name="Y" unicode="Y" horiz-adv-x="1053" 
d="M629 537v-453q0 -53 -28 -76.5t-89 -23.5q-62 0 -87.5 23.5t-25.5 76.5v453q-148 148 -253 375.5t-105 396.5q0 53 25 76.5t92 23.5q58 0 82 -20.5t28 -67.5q22 -196 80 -334.5t166 -259.5q116 131 183 276.5t85 305.5q7 56 31 78t84 22q63 0 89 -23.5t26 -76.5
q0 -167 -110.5 -388.5t-272.5 -383.5z" />
    <glyph glyph-name="Z" unicode="Z" horiz-adv-x="1083" 
d="M313 229h578q117 0 117 -114q0 -115 -117 -115h-703q-61 0 -98 33.5t-37 89.5q0 90 63.5 218.5t205 290.5t251.5 275q177 180 205 256h-561q-119 0 -119 113q0 117 119 117h657q76 0 116 -35.5t40 -100.5q0 -92 -52 -188t-275 -333q-216 -229 -294 -339.5t-96 -167.5z
" />
    <glyph glyph-name="bracketleft" unicode="[" horiz-adv-x="584" 
d="M340 1307v-1260h88q115 0 115 -104q0 -105 -115 -105h-133q-83 0 -128.5 48t-45.5 134v1317q0 86 44.5 132.5t129.5 46.5h133q115 0 115 -105q0 -54 -27 -79t-88 -25h-88zM332 1393z" />
    <glyph glyph-name="backslash" unicode="\" horiz-adv-x="795" 
d="M756 -18q8 -23 8 -43q0 -40 -35.5 -68.5t-85.5 -28.5q-71 0 -98 70l-508 1483q-6 18 -6 37q0 42 35.5 72t85.5 30q68 0 98 -74z" />
    <glyph glyph-name="bracketright" unicode="]" horiz-adv-x="584" 
d="M244 47v1260h-88q-61 0 -88 25t-27 79q0 105 115 105h133q85 0 129.5 -46.5t44.5 -132.5v-1317q0 -86 -45.5 -134t-128.5 -48h-133q-115 0 -115 105q0 104 115 104h88zM242 1393z" />
    <glyph glyph-name="asciicircum" unicode="^" horiz-adv-x="1208" 
d="M604 1122l-262 -366q-43 -60 -60.5 -80t-34 -26.5t-38.5 -6.5q-39 0 -76 30.5t-37 69.5q0 23 18 55q28 50 168 247l206 290q38 53 60 65.5t56 12.5q33 0 54.5 -10.5t43.5 -42.5l381 -547q29 -42 29 -74q0 -33 -34 -64.5t-79 -31.5q-25 0 -38.5 5.5t-25 16.5t-65.5 87z
" />
    <glyph glyph-name="underscore" unicode="_" horiz-adv-x="1024" 
d="M1020 -362h-1016q-84 0 -84 100q0 98 84 98h1016q84 0 84 -98q0 -100 -84 -100z" />
    <glyph glyph-name="grave" unicode="`" horiz-adv-x="530" 
d="M233 1554l183 -143q55 -43 55 -88q0 -34 -25.5 -64t-62.5 -30q-38 0 -84 35l-201 143q-57 41 -57 86q0 44 28.5 74t69.5 30q39 0 94 -43z" />
    <glyph glyph-name="a" unicode="a" horiz-adv-x="1139" 
d="M770 131q-82 -151 -281 -151q-187 0 -301 147t-114 397q0 246 118.5 393.5t317.5 147.5q172 0 260 -135v37q0 94 115 94q58 0 84 -22.5t26 -71.5v-889q0 -50 -24 -72t-90 -22q-111 0 -111 88v59zM770 606q0 110 -61.5 182t-163.5 72q-116 0 -180 -91t-64 -245
q0 -161 65 -250.5t179 -89.5q104 0 164.5 73t60.5 181v168z" />
    <glyph glyph-name="b" unicode="b" horiz-adv-x="1139" 
d="M369 125v-53q0 -88 -117 -88q-62 0 -85.5 22.5t-23.5 71.5v1364q0 49 25.5 71.5t85.5 22.5q62 0 88.5 -22.5t26.5 -71.5v-512q95 135 260 135q199 0 317.5 -148t118.5 -393q0 -250 -114 -397t-302 -147q-194 0 -280 145zM369 438q0 -107 60.5 -180.5t164.5 -73.5
q114 0 179 90.5t65 249.5q0 155 -64 245.5t-180 90.5q-102 0 -163.5 -71.5t-61.5 -182.5v-168z" />
    <glyph glyph-name="c" unicode="c" horiz-adv-x="987" 
d="M940 864q0 -38 -33.5 -73t-72.5 -35q-43 0 -86 37q-84 67 -189 67q-118 0 -188 -88t-70 -248q0 -155 72 -247.5t186 -92.5q101 0 191 70q46 33 81 33q44 0 77.5 -34t33.5 -69q0 -71 -112 -137.5t-275 -66.5q-214 0 -347.5 151t-133.5 393q0 251 135 396t356 145
q151 0 263 -65.5t112 -135.5z" />
    <glyph glyph-name="d" unicode="d" horiz-adv-x="1139" 
d="M770 127q-82 -147 -281 -147q-187 0 -301 147t-114 397q0 246 118.5 393.5t317.5 147.5q85 0 153.5 -35.5t106.5 -99.5v512q0 48 26.5 71t88.5 23q60 0 85 -23t25 -71v-1364q0 -49 -23.5 -71.5t-84.5 -22.5q-117 0 -117 88v55zM770 606q0 110 -61.5 182t-163.5 72
q-116 0 -180 -91t-64 -245q0 -159 65 -249.5t179 -90.5q104 0 164.5 73t60.5 181v168z" />
    <glyph glyph-name="e" unicode="e" horiz-adv-x="1059" 
d="M307 440q20 -135 86.5 -200.5t179.5 -65.5q69 0 111 14.5t107 55.5q36 22 65 22q37 0 67.5 -30t30.5 -62q0 -72 -119.5 -133t-265.5 -61q-229 0 -361 144.5t-132 389.5q0 251 128 401t351 150q200 0 321 -129t121 -342q0 -81 -32 -117.5t-99 -36.5h-559zM770 617
q-8 128 -66.5 192.5t-148.5 64.5q-96 0 -161 -62.5t-83 -194.5h459z" />
    <glyph glyph-name="f" unicode="f" horiz-adv-x="647" 
d="M422 854v-776q0 -48 -26 -71t-87 -23t-86.5 22.5t-25.5 71.5v776h-68q-55 0 -78.5 21.5t-23.5 74.5q0 52 22.5 73t79.5 21h68v132q0 173 88.5 266.5t249.5 93.5q78 0 143 -28.5t65 -82.5q0 -39 -22 -72.5t-57 -33.5q-14 0 -26 4q-65 20 -99 20q-59 0 -88 -41t-29 -122
v-136h125q56 0 77 -21.5t21 -72.5t-22 -73.5t-76 -22.5h-125z" />
    <glyph glyph-name="g" unicode="g" horiz-adv-x="1139" 
d="M995 94q0 -250 -129.5 -388t-367.5 -138q-114 0 -238.5 44.5t-124.5 124.5q0 35 28.5 68.5t65.5 33.5q29 0 61 -17q71 -38 117.5 -53.5t102.5 -15.5q128 0 194 83t66 244v97q-86 -177 -281 -177q-187 0 -301 142t-114 382q0 246 118.5 393.5t317.5 147.5q170 0 260 -135
v37q0 94 115 94q110 0 110 -94v-873zM770 606q0 114 -61.5 189t-163.5 75q-116 0 -180 -93.5t-64 -252.5q0 -156 65 -243t179 -87q104 0 164.5 70t60.5 174v168z" />
    <glyph glyph-name="h" unicode="h" horiz-adv-x="1155" 
d="M1016 80q0 -96 -111 -96q-62 0 -88 23.5t-26 72.5v569q0 94 -50 149.5t-137 55.5q-110 0 -172.5 -77.5t-62.5 -213.5v-483q0 -96 -115 -96q-111 0 -111 96v1362q0 48 26.5 71t88.5 23q60 0 85.5 -22.5t25.5 -71.5v-537q107 160 301 160q158 0 252 -103.5t94 -281.5v-600z
" />
    <glyph glyph-name="i" unicode="i" horiz-adv-x="512" 
d="M256 1475q52 0 89.5 -37.5t37.5 -89.5t-37.5 -88.5t-89.5 -36.5t-88.5 36.5t-36.5 88.5t37 89.5t88 37.5zM369 78q0 -94 -115 -94q-111 0 -111 94v893q0 47 25.5 68.5t87.5 21.5q61 0 87 -22t26 -68v-893z" />
    <glyph glyph-name="j" unicode="j" horiz-adv-x="512" 
d="M256 1475q52 0 89.5 -37.5t37.5 -89.5t-37.5 -88.5t-89.5 -36.5t-88.5 36.5t-36.5 88.5t37 89.5t88 37.5zM369 -61q0 -183 -83 -277t-245 -94q-79 0 -140 24.5t-61 83.5q0 45 23 78t59 33q14 0 50 -7q35 -7 57 -7q58 0 86 39t28 135v1024q0 46 25.5 68t87.5 22
q61 0 87 -22t26 -68v-1032z" />
    <glyph glyph-name="k" unicode="k" horiz-adv-x="1006" 
d="M369 640q91 79 172 172t151 200q21 28 39 39.5t45 11.5q46 0 82.5 -30t36.5 -66q0 -34 -21.5 -73.5t-93 -123t-172.5 -170.5q72 -68 157.5 -181t130 -185t55 -100t10.5 -48q0 -43 -35 -73.5t-86 -30.5q-30 0 -53 12.5t-44 52.5q-70 133 -146.5 239.5t-160.5 186.5
q-56 -42 -67 -47v-348q0 -94 -115 -94q-111 0 -111 94v1368q0 48 26 69t87 21q60 0 86.5 -21.5t26.5 -68.5v-806z" />
    <glyph glyph-name="l" unicode="l" horiz-adv-x="512" 
d="M369 78q0 -94 -115 -94q-111 0 -111 94v1368q0 48 26 69t87 21q60 0 86.5 -21.5t26.5 -68.5v-1368z" />
    <glyph glyph-name="m" unicode="m" horiz-adv-x="1737" 
d="M936 883q100 182 326 182q153 0 244 -102.5t91 -284.5v-600q0 -94 -110 -94q-63 0 -89 23.5t-26 70.5v567q0 97 -45 153t-127 56q-102 0 -159.5 -71.5t-57.5 -209.5v-495q0 -94 -111 -94q-62 0 -88 23t-26 71v567q0 97 -45.5 153t-126.5 56q-102 0 -159.5 -71.5
t-57.5 -209.5v-495q0 -94 -115 -94q-111 0 -111 94v893q0 47 25.5 68.5t87.5 21.5q61 0 87 -22t26 -68v-66q100 160 284 160q203 0 283 -182z" />
    <glyph glyph-name="n" unicode="n" horiz-adv-x="1155" 
d="M1016 78q0 -47 -28 -70.5t-83 -23.5q-62 0 -88 23t-26 71v563q0 98 -49 155.5t-140 57.5q-110 0 -171.5 -75t-61.5 -216v-485q0 -47 -29 -70.5t-86 -23.5q-56 0 -83.5 23.5t-27.5 70.5v893q0 47 25.5 68.5t87.5 21.5q61 0 87 -22t26 -68v-68q102 162 301 162
q158 0 252 -104.5t94 -282.5v-600z" />
    <glyph glyph-name="o" unicode="o" horiz-adv-x="1120" 
d="M559 -20q-224 0 -354.5 151.5t-130.5 392.5q0 243 130 392t355 149q228 0 358 -148t130 -393q0 -244 -131 -394t-357 -150zM559 860q-125 0 -191.5 -92t-66.5 -244q0 -150 67.5 -245t190.5 -95q128 0 194 90t66 250q0 168 -65 252t-195 84z" />
    <glyph glyph-name="p" unicode="p" horiz-adv-x="1139" 
d="M369 -344q0 -44 -30 -66t-89 -22q-62 0 -84.5 23t-22.5 71v1305q0 47 28 70.5t85 23.5q56 0 84.5 -23.5t28.5 -70.5v-37q38 64 106.5 99.5t153.5 35.5q199 0 317.5 -148t118.5 -393q0 -250 -114 -397t-302 -147q-203 0 -280 149v-473zM369 438q0 -108 60 -181t165 -73
q115 0 179.5 90t64.5 250q0 155 -64 245.5t-180 90.5q-102 0 -163.5 -71.5t-61.5 -182.5v-168z" />
    <glyph glyph-name="q" unicode="q" horiz-adv-x="1139" 
d="M770 129q-78 -149 -281 -149q-187 0 -301 147t-114 397q0 246 118.5 393.5t317.5 147.5q166 0 260 -137v30q0 103 115 103q58 0 84 -22.5t26 -71.5v-1305q0 -48 -24.5 -71t-85.5 -23q-115 0 -115 88v473zM770 606q0 110 -61.5 182t-163.5 72q-116 0 -180 -91t-64 -245
q0 -159 65 -249.5t179 -90.5q104 0 164.5 73t60.5 181v168z" />
    <glyph glyph-name="r" unicode="r" horiz-adv-x="797" 
d="M369 911q82 154 249 154q71 0 119.5 -26.5t48.5 -77.5q0 -55 -26.5 -90t-59.5 -35q-14 0 -48 9q-35 9 -68 9q-99 0 -157 -80.5t-58 -222.5v-471q0 -50 -24 -73t-89 -23q-113 0 -113 96v889q0 46 26 69t89 23q111 0 111 -90v-60z" />
    <glyph glyph-name="s" unicode="s" horiz-adv-x="936" 
d="M457 -20q-128 0 -212.5 30t-125.5 62.5t-41 77.5q0 33 29 66t69 33q26 0 74 -29q42 -23 103 -39.5t110 -16.5q74 0 117 33t43 96q0 40 -39.5 67.5t-139.5 51.5q-100 23 -159.5 44.5t-104 60t-68.5 93.5t-24 127q0 151 108 239.5t287 88.5q137 0 244 -49.5t107 -104.5
q0 -44 -28.5 -77.5t-70.5 -33.5q-32 0 -68 23q-60 33 -99.5 45t-102.5 12q-69 0 -109.5 -37.5t-40.5 -88.5q0 -39 20.5 -64.5t52 -38t122.5 -33.5q211 -49 275.5 -124.5t64.5 -188.5q0 -141 -110.5 -233t-282.5 -92z" />
    <glyph glyph-name="t" unicode="t" horiz-adv-x="739" 
d="M422 854v-549q0 -54 23 -84.5t67 -30.5q29 0 61 12q50 19 72 19q34 0 59 -34.5t25 -75.5q0 -46 -38.5 -72.5t-94 -42.5t-115.5 -16q-144 0 -214 78.5t-70 242.5v553h-72q-54 0 -76 17.5t-22 78.5q0 59 21 76.5t77 17.5h72v213q0 52 25 73.5t85 21.5q65 0 90 -21.5
t25 -73.5v-213h188q52 0 71 -19.5t19 -74.5q0 -53 -20 -74.5t-70 -21.5h-188z" />
    <glyph glyph-name="u" unicode="u" horiz-adv-x="1157" 
d="M1012 76q0 -48 -26.5 -70t-88.5 -22q-59 0 -85 22t-26 70v67q-100 -163 -301 -163q-156 0 -251 105.5t-95 285.5v596q0 94 113 94q61 0 87 -22t26 -72v-570q0 -97 50.5 -155t139.5 -58q109 0 170 75.5t61 215.5v492q0 94 115 94q59 0 85 -22.5t26 -71.5v-891z" />
    <glyph glyph-name="v" unicode="v" horiz-adv-x="1024" 
d="M506 230q52 117 103 244.5t67 178t37 131.5t53 209q9 39 30.5 54.5t63.5 15.5q51 0 89 -24t38 -62q0 -45 -20.5 -124t-61 -192t-90.5 -226.5t-107.5 -222.5t-84.5 -151t-42 -54q-31 -23 -83 -23q-76 0 -103 30q-13 15 -38 62.5t-79.5 166t-100.5 243t-72 209.5t-45 165
t-19 115q0 39 37 63.5t90 24.5q45 0 68.5 -17.5t31.5 -62.5q23 -104 46 -202t53 -190q60 -193 139 -361z" />
    <glyph glyph-name="w" unicode="w" horiz-adv-x="1522" 
d="M759 729q-54 -285 -106 -433.5t-77.5 -209t-42.5 -74.5q-35 -28 -84 -28q-39 0 -65 11.5t-54.5 59.5t-72.5 148t-77.5 203.5t-76 268t-52.5 222t-10 82.5q0 39 37 63.5t88 24.5q47 0 70 -18.5t30 -61.5q27 -182 48 -285.5t58 -239t81 -259.5q39 107 77 258.5t66.5 275
t50.5 244.5q14 86 117 86q96 0 115 -86q19 -111 47 -239.5t145 -538.5q45 137 95 359q23 87 44.5 192t46.5 227q13 55 36 70.5t65 15.5q52 0 89.5 -24.5t37.5 -61.5q0 -21 -10.5 -72t-31.5 -132.5t-59.5 -211.5t-77.5 -239q-78 -218 -126 -290q-13 -20 -42 -36t-69 -16
q-68 0 -90.5 31.5t-46.5 97t-76.5 224.5t-96.5 392z" />
    <glyph glyph-name="x" unicode="x" horiz-adv-x="965" 
d="M655 530q134 -117 201.5 -227.5t67.5 -214.5t-115 -104q-52 0 -76.5 20.5t-34.5 71.5q-17 92 -69.5 173t-139.5 152q-100 -78 -157.5 -159t-71.5 -166q-10 -55 -35.5 -73.5t-81.5 -18.5q-108 0 -108 108q0 99 72 210t217 233q-114 108 -180 219t-66 204q0 103 112 103
q55 0 80.5 -21.5t36.5 -76.5q14 -72 52.5 -139.5t134.5 -161.5q104 95 149 164t57 137q11 55 36.5 76.5t80.5 21.5q113 0 113 -105q0 -91 -69 -197.5t-206 -228.5z" />
    <glyph glyph-name="y" unicode="y" horiz-adv-x="1024" 
d="M393 37q-111 203 -188.5 395t-121.5 372l-17 64q-15 51 -15 107q0 41 33 64.5t84 23.5q43 0 65.5 -15t32.5 -63q32 -177 92 -364t148 -383q103 224 168.5 412.5t93.5 340.5q15 72 92 72q51 0 84 -23.5t33 -62.5q0 -79 -89 -349.5t-246.5 -549t-300.5 -395.5t-261 -117
q-40 0 -64 33.5t-24 81.5q0 32 20.5 47t65.5 28q78 25 166.5 101t148.5 180z" />
    <glyph glyph-name="z" unicode="z" horiz-adv-x="874" 
d="M264 195h461q61 0 87 -21.5t26 -71.5q0 -102 -113 -102h-596q-59 0 -93 34t-34 91q0 81 85.5 210.5t270.5 282.5q170 139 224 232h-418q-113 0 -113 98q0 96 113 96h571q73 0 100 -22.5t27 -73.5q0 -85 -86 -203t-231 -243q-221 -196 -281 -307z" />
    <glyph glyph-name="braceleft" unicode="{" horiz-adv-x="688" 
d="M283 675q84 -33 126 -117t42 -249v-135q0 -61 21.5 -93.5t77.5 -45.5q47 -12 64.5 -32.5t17.5 -61.5q0 -103 -117 -103q-147 0 -214.5 87.5t-67.5 258.5v166q0 103 -24 152.5t-80 67.5q-49 17 -64.5 40.5t-15.5 60.5q0 42 21 66.5t71 42.5q92 35 92 221v168
q0 173 68.5 260t206.5 87q63 0 93.5 -22.5t30.5 -74.5q0 -42 -16.5 -66.5t-75.5 -35.5q-89 -14 -89 -135v-140q0 -146 -42 -238.5t-126 -128.5zM452 1393z" />
    <glyph glyph-name="bar" unicode="|" horiz-adv-x="504" 
d="M358 1530v-1890q0 -71 -26 -93t-84 -22q-55 0 -79 22.5t-24 92.5v1890q0 58 20.5 85t88.5 27q64 0 84 -26t20 -86z" />
    <glyph glyph-name="braceright" unicode="}" horiz-adv-x="688" 
d="M406 676q-83 31 -125.5 114.5t-42.5 253.5v136q0 60 -20.5 92.5t-78.5 46.5q-50 13 -66 34t-16 60q0 103 117 103q147 0 214 -88t67 -259v-165q0 -106 23.5 -155t80.5 -69q45 -15 62.5 -38t17.5 -62q0 -40 -19.5 -65t-72.5 -46q-43 -15 -67.5 -70.5t-24.5 -146.5v-168
q0 -173 -69 -259.5t-206 -86.5q-123 0 -123 96q0 48 19.5 71.5t73.5 31.5q88 16 88 135v139q0 146 42 237.5t126 127.5zM232 1393z" />
    <glyph glyph-name="asciitilde" unicode="~" horiz-adv-x="1208" 
d="M780 338q-58 0 -107.5 19.5t-125.5 72.5q-78 57 -125 57q-33 0 -55 -15.5t-43 -55.5q-31 -60 -88 -60q-41 0 -73 28t-32 69q0 83 81 165t218 82q56 0 108.5 -20.5t135.5 -75.5q73 -53 119 -53q27 0 44 13.5t37 49.5q21 38 39 52t56 14q46 0 77 -25t31 -67q0 -84 -83 -167
t-214 -83z" />
    <glyph glyph-name="Adieresis" unicode="&#xc4;" horiz-adv-x="1235" 
d="M879 381h-514q-36 -109 -95 -311q-11 -48 -31.5 -67t-60.5 -19q-64 0 -100.5 23t-36.5 61q0 39 28.5 144.5t86.5 276.5q57 171 113 319.5t110 275.5q108 254 144.5 289.5t103.5 35.5q62 0 93 -31q44 -43 165 -341q107 -264 220 -618q89 -281 89 -341q0 -45 -39 -69.5
t-102 -24.5q-33 0 -52.5 16.5t-33.5 69.5q-33 130 -88 311zM623 1124q-90 -207 -195 -530h387q-91 305 -192 530zM428 1792q52 0 89.5 -37.5t37.5 -89.5t-37.5 -88.5t-89.5 -36.5t-88.5 36.5t-36.5 88.5t37 89.5t88 37.5zM821 1792q52 0 89.5 -37.5t37.5 -89.5t-37.5 -88.5
t-89.5 -36.5t-88.5 36.5t-36.5 88.5t37 89.5t88 37.5z" />
    <glyph glyph-name="Aring" unicode="&#xc5;" horiz-adv-x="1235" 
d="M879 381h-514q-36 -109 -95 -311q-11 -48 -31.5 -67t-60.5 -19q-64 0 -100.5 23t-36.5 61q0 49 40 187.5t120 367.5q80 228 154 405.5t141 304.5q-49 36 -73 82t-24 103q0 91 67 158t159 67q91 0 158 -66.5t67 -158.5q0 -58 -24.5 -105t-73.5 -82q70 -133 142.5 -313.5
t148.5 -409.5q75 -229 113 -361.5t38 -168.5q0 -45 -39 -69.5t-102 -24.5q-33 0 -52.5 16.5t-33.5 69.5q-33 130 -88 311zM623 1124q-90 -207 -195 -530h387q-91 305 -192 530zM625 1618q-42 0 -71.5 -29.5t-29.5 -70.5q0 -42 29.5 -71.5t71.5 -29.5q41 0 70.5 29.5
t29.5 71.5q0 41 -29.5 70.5t-70.5 29.5z" />
    <glyph glyph-name="Ccedilla" unicode="&#xc7;" horiz-adv-x="1233" 
d="M647 -16q-263 21 -409 208t-146 494q0 334 181 530.5t464 196.5q94 0 177.5 -20.5t148.5 -63t85.5 -69.5t20.5 -60q0 -41 -33 -78t-71 -37q-37 0 -88 35q-61 46 -118 63t-130 17q-180 0 -293.5 -137.5t-113.5 -372.5q0 -242 107 -369.5t308 -127.5q74 0 133.5 23
t144.5 80q32 21 68 21q39 0 70 -33.5t31 -68.5q0 -78 -129.5 -150.5t-280.5 -80.5l-22 -60q21 4 41 4q75 0 115 -41.5t40 -119.5q0 -91 -63.5 -152t-171.5 -61q-92 0 -138.5 24t-46.5 60q0 29 17 53t43 24q14 0 49 -11t70 -11q33 0 53 19t20 48q0 62 -71 62q-13 0 -31 -1
q-17 -1 -35 -1q-55 0 -55 51q0 23 28 66z" />
    <glyph glyph-name="Eacute" unicode="&#xc9;" horiz-adv-x="1075" 
d="M397 831h410q61 0 92 -19.5t31 -84.5q0 -62 -27 -85.5t-96 -23.5h-410v-372q0 -33 29 -33h442q66 0 95.5 -21t29.5 -83t-27 -85.5t-98 -23.5h-518q-86 0 -134 45.5t-48 126.5v1030q0 191 194 191h510q66 0 93.5 -21t27.5 -84q0 -66 -28.5 -87t-92.5 -21h-440
q-15 0 -25 -11t-10 -28v-310zM811 1714l-201 -143q-49 -35 -84 -35q-37 0 -62.5 30t-25.5 64q0 24 11.5 43t43.5 45l183 143q55 43 94 43q41 0 69.5 -30t28.5 -74t-57 -86z" />
    <glyph glyph-name="Ntilde" unicode="&#xd1;" horiz-adv-x="1407" 
d="M1239 104q0 -120 -129 -120q-43 0 -66.5 16.5t-52.5 60.5l-602 961v-940q0 -51 -25 -74.5t-83 -23.5q-62 0 -87.5 22.5t-25.5 75.5v1180q0 74 33.5 110.5t111.5 36.5q41 0 68 -17t49 -61l588 -950v928q0 52 24 76t84 24q63 0 88 -23.5t25 -76.5v-1205zM870 1546
q-69 0 -137 41q-69 41 -103 41q-27 0 -44 -11t-47 -42t-60 -31q-28 0 -51 25.5t-23 60.5q0 60 68 113t151 53q84 0 155 -41q45 -26 62.5 -33.5t36.5 -7.5q39 0 66 43q22 37 55 37q35 0 58.5 -21t23.5 -57q0 -60 -62 -115t-149 -55z" />
    <glyph glyph-name="Odieresis" unicode="&#xd6;" horiz-adv-x="1427" 
d="M717 -20q-289 0 -457 204t-168 514t168.5 512.5t456.5 202.5q287 0 452.5 -202.5t165.5 -512.5q0 -312 -165.5 -515t-452.5 -203zM717 1200q-184 0 -289.5 -146.5t-105.5 -355.5q0 -211 105.5 -358t289.5 -147q180 0 284.5 148t104.5 357q0 210 -104 356t-285 146z
M520 1792q52 0 89.5 -37.5t37.5 -89.5t-37.5 -88.5t-89.5 -36.5t-88.5 36.5t-36.5 88.5t37 89.5t88 37.5zM913 1792q52 0 89.5 -37.5t37.5 -89.5t-37.5 -88.5t-89.5 -36.5t-88.5 36.5t-36.5 88.5t37 89.5t88 37.5z" />
    <glyph glyph-name="Udieresis" unicode="&#xdc;" horiz-adv-x="1333" 
d="M1169 453q0 -216 -139.5 -344.5t-365.5 -128.5q-225 0 -362.5 128t-137.5 345v856q0 53 28 76.5t87 23.5q114 0 114 -100v-848q0 -125 72.5 -196.5t198.5 -71.5q124 0 200 72t76 196v848q0 53 29 76.5t88 23.5q58 0 85 -23.5t27 -76.5v-856zM473 1792q52 0 89.5 -37.5
t37.5 -89.5t-37.5 -88.5t-89.5 -36.5t-88.5 36.5t-36.5 88.5t37 89.5t88 37.5zM866 1792q52 0 89.5 -37.5t37.5 -89.5t-37.5 -88.5t-89.5 -36.5t-88.5 36.5t-36.5 88.5t37 89.5t88 37.5z" />
    <glyph glyph-name="aacute" unicode="&#xe1;" horiz-adv-x="1139" 
d="M770 131q-82 -151 -281 -151q-187 0 -301 147t-114 397q0 246 118.5 393.5t317.5 147.5q172 0 260 -135v37q0 94 115 94q58 0 84 -22.5t26 -71.5v-889q0 -50 -24 -72t-90 -22q-111 0 -111 88v59zM770 606q0 110 -61.5 182t-163.5 72q-116 0 -180 -91t-64 -245
q0 -161 65 -250.5t179 -89.5q104 0 164.5 73t60.5 181v168zM754 1407l-201 -143q-49 -35 -84 -35q-37 0 -62.5 30t-25.5 64q0 24 11.5 43t43.5 45l183 143q55 43 94 43q41 0 69.5 -30t28.5 -74t-57 -86z" />
    <glyph glyph-name="agrave" unicode="&#xe0;" horiz-adv-x="1139" 
d="M770 131q-82 -151 -281 -151q-187 0 -301 147t-114 397q0 246 118.5 393.5t317.5 147.5q172 0 260 -135v37q0 94 115 94q58 0 84 -22.5t26 -71.5v-889q0 -50 -24 -72t-90 -22q-111 0 -111 88v59zM770 606q0 110 -61.5 182t-163.5 72q-116 0 -180 -91t-64 -245
q0 -161 65 -250.5t179 -89.5q104 0 164.5 73t60.5 181v168zM526 1554l183 -143q55 -43 55 -88q0 -34 -25.5 -64t-62.5 -30q-38 0 -84 35l-201 143q-57 41 -57 86q0 44 28.5 74t69.5 30q39 0 94 -43z" />
    <glyph glyph-name="acircumflex" unicode="&#xe2;" horiz-adv-x="1139" 
d="M770 131q-82 -151 -281 -151q-187 0 -301 147t-114 397q0 246 118.5 393.5t317.5 147.5q172 0 260 -135v37q0 94 115 94q58 0 84 -22.5t26 -71.5v-889q0 -50 -24 -72t-90 -22q-111 0 -111 88v59zM770 606q0 110 -61.5 182t-163.5 72q-116 0 -180 -91t-64 -245
q0 -161 65 -250.5t179 -89.5q104 0 164.5 73t60.5 181v168zM563 1368l-164 -104q-29 -19 -45 -26t-37 -7q-35 0 -60.5 29.5t-25.5 66.5q0 28 14 47.5t52 42.5l174 105q50 30 92 30q38 0 90 -30l166 -97q42 -25 58 -44t16 -50q0 -36 -27.5 -68t-60.5 -32q-42 0 -86 33z" />
    <glyph glyph-name="adieresis" unicode="&#xe4;" horiz-adv-x="1139" 
d="M770 131q-82 -151 -281 -151q-187 0 -301 147t-114 397q0 246 118.5 393.5t317.5 147.5q172 0 260 -135v37q0 94 115 94q58 0 84 -22.5t26 -71.5v-889q0 -50 -24 -72t-90 -22q-111 0 -111 88v59zM770 606q0 110 -61.5 182t-163.5 72q-116 0 -180 -91t-64 -245
q0 -161 65 -250.5t179 -89.5q104 0 164.5 73t60.5 181v168zM361 1485q52 0 89.5 -37.5t37.5 -89.5t-37.5 -88.5t-89.5 -36.5t-88.5 36.5t-36.5 88.5t37 89.5t88 37.5zM754 1485q52 0 89.5 -37.5t37.5 -89.5t-37.5 -88.5t-89.5 -36.5t-88.5 36.5t-36.5 88.5t37 89.5t88 37.5z
" />
    <glyph glyph-name="atilde" unicode="&#xe3;" horiz-adv-x="1139" 
d="M770 131q-82 -151 -281 -151q-187 0 -301 147t-114 397q0 246 118.5 393.5t317.5 147.5q172 0 260 -135v37q0 94 115 94q58 0 84 -22.5t26 -71.5v-889q0 -50 -24 -72t-90 -22q-111 0 -111 88v59zM770 606q0 110 -61.5 182t-163.5 72q-116 0 -180 -91t-64 -245
q0 -161 65 -250.5t179 -89.5q104 0 164.5 73t60.5 181v168zM696 1239q-69 0 -137 41q-69 41 -103 41q-27 0 -44 -11t-47 -42t-60 -31q-28 0 -51 25.5t-23 60.5q0 60 68 113t151 53q84 0 155 -41q45 -26 62.5 -33.5t36.5 -7.5q39 0 66 43q22 37 55 37q35 0 58.5 -21t23.5 -57
q0 -60 -62 -115t-149 -55z" />
    <glyph glyph-name="aring" unicode="&#xe5;" horiz-adv-x="1139" 
d="M770 131q-82 -151 -281 -151q-187 0 -301 147t-114 397q0 246 118.5 393.5t317.5 147.5q172 0 260 -135v37q0 94 115 94q58 0 84 -22.5t26 -71.5v-889q0 -50 -24 -72t-90 -22q-111 0 -111 88v59zM770 606q0 110 -61.5 182t-163.5 72q-116 0 -180 -91t-64 -245
q0 -161 65 -250.5t179 -89.5q104 0 164.5 73t60.5 181v168zM551 1233q-93 0 -159.5 67t-66.5 158t66.5 158t159.5 67q92 0 158.5 -66.5t66.5 -158.5t-66.5 -158.5t-158.5 -66.5zM551 1559q-42 0 -71.5 -30t-29.5 -71t29.5 -70.5t71.5 -29.5q41 0 70.5 29.5t29.5 70.5
t-29.5 71t-70.5 30z" />
    <glyph glyph-name="ccedilla" unicode="&#xe7;" horiz-adv-x="987" 
d="M481 -14q-188 26 -297.5 174t-109.5 364q0 251 135 396t356 145q150 0 262.5 -65.5t112.5 -137.5q0 -42 -31.5 -73t-77.5 -31q-42 0 -83 35q-84 67 -189 67q-118 0 -188 -88t-70 -248q0 -155 72 -247.5t186 -92.5q101 0 191 70q46 33 84 33q46 0 77 -32t31 -71
q0 -68 -100.5 -131.5t-235.5 -70.5l-22 -58q21 4 41 4q75 0 115 -41.5t40 -119.5q0 -90 -63 -151.5t-172 -61.5q-92 0 -138.5 24t-46.5 60q0 29 17 53t43 24q14 0 49 -11t70 -11q33 0 53 19t20 48q0 62 -71 62q-13 0 -31 -1q-17 -1 -35 -1q-55 0 -55 51q0 26 29 66z" />
    <glyph glyph-name="eacute" unicode="&#xe9;" horiz-adv-x="1059" 
d="M307 440q20 -135 86.5 -200.5t179.5 -65.5q69 0 111 14.5t107 55.5q36 22 65 22q37 0 67.5 -30t30.5 -62q0 -72 -119.5 -133t-265.5 -61q-229 0 -361 144.5t-132 389.5q0 251 128 401t351 150q200 0 321 -129t121 -342q0 -81 -32 -117.5t-99 -36.5h-559zM770 617
q-8 128 -66.5 192.5t-148.5 64.5q-96 0 -161 -62.5t-83 -194.5h459zM756 1407l-201 -143q-49 -35 -84 -35q-37 0 -62.5 30t-25.5 64q0 24 11.5 43t43.5 45l183 143q55 43 94 43q41 0 69.5 -30t28.5 -74t-57 -86z" />
    <glyph glyph-name="egrave" unicode="&#xe8;" horiz-adv-x="1059" 
d="M307 440q20 -135 86.5 -200.5t179.5 -65.5q69 0 111 14.5t107 55.5q36 22 65 22q37 0 67.5 -30t30.5 -62q0 -72 -119.5 -133t-265.5 -61q-229 0 -361 144.5t-132 389.5q0 251 128 401t351 150q200 0 321 -129t121 -342q0 -81 -32 -117.5t-99 -36.5h-559zM770 617
q-8 128 -66.5 192.5t-148.5 64.5q-96 0 -161 -62.5t-83 -194.5h459zM483 1554l183 -143q55 -43 55 -88q0 -34 -25.5 -64t-62.5 -30q-38 0 -84 35l-201 143q-57 41 -57 86q0 44 28.5 74t69.5 30q39 0 94 -43z" />
    <glyph glyph-name="ecircumflex" unicode="&#xea;" horiz-adv-x="1059" 
d="M307 440q20 -135 86.5 -200.5t179.5 -65.5q69 0 111 14.5t107 55.5q36 22 65 22q37 0 67.5 -30t30.5 -62q0 -72 -119.5 -133t-265.5 -61q-229 0 -361 144.5t-132 389.5q0 251 128 401t351 150q200 0 321 -129t121 -342q0 -81 -32 -117.5t-99 -36.5h-559zM770 617
q-8 128 -66.5 192.5t-148.5 64.5q-96 0 -161 -62.5t-83 -194.5h459zM557 1368l-164 -104q-29 -19 -45 -26t-37 -7q-35 0 -60.5 29.5t-25.5 66.5q0 28 14 47.5t52 42.5l174 105q50 30 92 30q38 0 90 -30l166 -97q42 -25 58 -44t16 -50q0 -36 -27.5 -68t-60.5 -32
q-42 0 -86 33z" />
    <glyph glyph-name="edieresis" unicode="&#xeb;" horiz-adv-x="1059" 
d="M307 440q20 -135 86.5 -200.5t179.5 -65.5q69 0 111 14.5t107 55.5q36 22 65 22q37 0 67.5 -30t30.5 -62q0 -72 -119.5 -133t-265.5 -61q-229 0 -361 144.5t-132 389.5q0 251 128 401t351 150q200 0 321 -129t121 -342q0 -81 -32 -117.5t-99 -36.5h-559zM770 617
q-8 128 -66.5 192.5t-148.5 64.5q-96 0 -161 -62.5t-83 -194.5h459zM363 1485q52 0 89.5 -37.5t37.5 -89.5t-37.5 -88.5t-89.5 -36.5t-88.5 36.5t-36.5 88.5t37 89.5t88 37.5zM756 1485q52 0 89.5 -37.5t37.5 -89.5t-37.5 -88.5t-89.5 -36.5t-88.5 36.5t-36.5 88.5t37 89.5
t88 37.5z" />
    <glyph glyph-name="iacute" unicode="&#xed;" horiz-adv-x="512" 
d="M369 78q0 -94 -115 -94q-111 0 -111 94v893q0 47 25.5 68.5t87.5 21.5q61 0 87 -22t26 -68v-893zM414 1407l-201 -143q-49 -35 -84 -35q-37 0 -62.5 30t-25.5 64q0 24 11.5 43t43.5 45l183 143q55 43 94 43q41 0 69.5 -30t28.5 -74t-57 -86z" />
    <glyph glyph-name="igrave" unicode="&#xec;" horiz-adv-x="512" 
d="M369 78q0 -94 -115 -94q-111 0 -111 94v893q0 47 25.5 68.5t87.5 21.5q61 0 87 -22t26 -68v-893zM233 1554l183 -143q55 -43 55 -88q0 -34 -25.5 -64t-62.5 -30q-38 0 -84 35l-201 143q-57 41 -57 86q0 44 28.5 74t69.5 30q39 0 94 -43z" />
    <glyph glyph-name="icircumflex" unicode="&#xee;" horiz-adv-x="512" 
d="M369 78q0 -94 -115 -94q-111 0 -111 94v893q0 47 25.5 68.5t87.5 21.5q61 0 87 -22t26 -68v-893zM259 1368l-164 -104q-29 -19 -45 -26t-37 -7q-35 0 -60.5 29.5t-25.5 66.5q0 28 14 47.5t52 42.5l174 105q50 30 92 30q38 0 90 -30l166 -97q42 -25 58 -44t16 -50
q0 -36 -27.5 -68t-60.5 -32q-42 0 -86 33z" />
    <glyph glyph-name="idieresis" unicode="&#xef;" horiz-adv-x="512" 
d="M369 78q0 -94 -115 -94q-111 0 -111 94v893q0 47 25.5 68.5t87.5 21.5q61 0 87 -22t26 -68v-893zM60 1485q52 0 89.5 -37.5t37.5 -89.5t-37.5 -88.5t-89.5 -36.5t-88.5 36.5t-36.5 88.5t37 89.5t88 37.5zM453 1485q52 0 89.5 -37.5t37.5 -89.5t-37.5 -88.5t-89.5 -36.5
t-88.5 36.5t-36.5 88.5t37 89.5t88 37.5z" />
    <glyph glyph-name="ntilde" unicode="&#xf1;" horiz-adv-x="1155" 
d="M1016 78q0 -47 -28 -70.5t-83 -23.5q-62 0 -88 23t-26 71v563q0 98 -49 155.5t-140 57.5q-110 0 -171.5 -75t-61.5 -216v-485q0 -47 -29 -70.5t-86 -23.5q-56 0 -83.5 23.5t-27.5 70.5v893q0 47 25.5 68.5t87.5 21.5q61 0 87 -22t26 -68v-68q102 162 301 162
q158 0 252 -104.5t94 -282.5v-600zM721 1239q-69 0 -137 41q-69 41 -103 41q-27 0 -44 -11t-47 -42t-60 -31q-28 0 -51 25.5t-23 60.5q0 60 68 113t151 53q84 0 155 -41q45 -26 62.5 -33.5t36.5 -7.5q39 0 66 43q22 37 55 37q35 0 58.5 -21t23.5 -57q0 -60 -62 -115
t-149 -55z" />
    <glyph glyph-name="oacute" unicode="&#xf3;" horiz-adv-x="1120" 
d="M559 -20q-224 0 -354.5 151.5t-130.5 392.5q0 243 130 392t355 149q228 0 358 -148t130 -393q0 -244 -131 -394t-357 -150zM559 860q-125 0 -191.5 -92t-66.5 -244q0 -150 67.5 -245t190.5 -95q128 0 194 90t66 250q0 168 -65 252t-195 84zM725 1407l-201 -143
q-49 -35 -84 -35q-37 0 -62.5 30t-25.5 64q0 24 11.5 43t43.5 45l183 143q55 43 94 43q41 0 69.5 -30t28.5 -74t-57 -86z" />
    <glyph glyph-name="ograve" unicode="&#xf2;" horiz-adv-x="1120" 
d="M559 -20q-224 0 -354.5 151.5t-130.5 392.5q0 243 130 392t355 149q228 0 358 -148t130 -393q0 -244 -131 -394t-357 -150zM559 860q-125 0 -191.5 -92t-66.5 -244q0 -150 67.5 -245t190.5 -95q128 0 194 90t66 250q0 168 -65 252t-195 84zM516 1554l183 -143
q55 -43 55 -88q0 -34 -25.5 -64t-62.5 -30q-38 0 -84 35l-201 143q-57 41 -57 86q0 44 28.5 74t69.5 30q39 0 94 -43z" />
    <glyph glyph-name="ocircumflex" unicode="&#xf4;" horiz-adv-x="1120" 
d="M559 -20q-224 0 -354.5 151.5t-130.5 392.5q0 243 130 392t355 149q228 0 358 -148t130 -393q0 -244 -131 -394t-357 -150zM559 860q-125 0 -191.5 -92t-66.5 -244q0 -150 67.5 -245t190.5 -95q128 0 194 90t66 250q0 168 -65 252t-195 84zM563 1368l-164 -104
q-29 -19 -45 -26t-37 -7q-35 0 -60.5 29.5t-25.5 66.5q0 28 14 47.5t52 42.5l174 105q50 30 92 30q38 0 90 -30l166 -97q42 -25 58 -44t16 -50q0 -36 -27.5 -68t-60.5 -32q-42 0 -86 33z" />
    <glyph glyph-name="odieresis" unicode="&#xf6;" horiz-adv-x="1120" 
d="M559 -20q-224 0 -354.5 151.5t-130.5 392.5q0 243 130 392t355 149q228 0 358 -148t130 -393q0 -244 -131 -394t-357 -150zM559 860q-125 0 -191.5 -92t-66.5 -244q0 -150 67.5 -245t190.5 -95q128 0 194 90t66 250q0 168 -65 252t-195 84zM363 1485q52 0 89.5 -37.5
t37.5 -89.5t-37.5 -88.5t-89.5 -36.5t-88.5 36.5t-36.5 88.5t37 89.5t88 37.5zM756 1485q52 0 89.5 -37.5t37.5 -89.5t-37.5 -88.5t-89.5 -36.5t-88.5 36.5t-36.5 88.5t37 89.5t88 37.5z" />
    <glyph glyph-name="otilde" unicode="&#xf5;" horiz-adv-x="1120" 
d="M559 -20q-224 0 -354.5 151.5t-130.5 392.5q0 243 130 392t355 149q228 0 358 -148t130 -393q0 -244 -131 -394t-357 -150zM559 860q-125 0 -191.5 -92t-66.5 -244q0 -150 67.5 -245t190.5 -95q128 0 194 90t66 250q0 168 -65 252t-195 84zM692 1239q-69 0 -137 41
q-69 41 -103 41q-27 0 -44 -11t-47 -42t-60 -31q-28 0 -51 25.5t-23 60.5q0 60 68 113t151 53q84 0 155 -41q45 -26 62.5 -33.5t36.5 -7.5q39 0 66 43q22 37 55 37q35 0 58.5 -21t23.5 -57q0 -60 -62 -115t-149 -55z" />
    <glyph glyph-name="uacute" unicode="&#xfa;" horiz-adv-x="1157" 
d="M1012 76q0 -48 -26.5 -70t-88.5 -22q-59 0 -85 22t-26 70v67q-100 -163 -301 -163q-156 0 -251 105.5t-95 285.5v596q0 94 113 94q61 0 87 -22t26 -72v-570q0 -97 50.5 -155t139.5 -58q109 0 170 75.5t61 215.5v492q0 94 115 94q59 0 85 -22.5t26 -71.5v-891zM797 1407
l-201 -143q-49 -35 -84 -35q-37 0 -62.5 30t-25.5 64q0 24 11.5 43t43.5 45l183 143q55 43 94 43q41 0 69.5 -30t28.5 -74t-57 -86z" />
    <glyph glyph-name="ugrave" unicode="&#xf9;" horiz-adv-x="1157" 
d="M1012 76q0 -48 -26.5 -70t-88.5 -22q-59 0 -85 22t-26 70v67q-100 -163 -301 -163q-156 0 -251 105.5t-95 285.5v596q0 94 113 94q61 0 87 -22t26 -72v-570q0 -97 50.5 -155t139.5 -58q109 0 170 75.5t61 215.5v492q0 94 115 94q59 0 85 -22.5t26 -71.5v-891zM512 1554
l183 -143q55 -43 55 -88q0 -34 -25.5 -64t-62.5 -30q-38 0 -84 35l-201 143q-57 41 -57 86q0 44 28.5 74t69.5 30q39 0 94 -43z" />
    <glyph glyph-name="ucircumflex" unicode="&#xfb;" horiz-adv-x="1157" 
d="M1012 76q0 -48 -26.5 -70t-88.5 -22q-59 0 -85 22t-26 70v67q-100 -163 -301 -163q-156 0 -251 105.5t-95 285.5v596q0 94 113 94q61 0 87 -22t26 -72v-570q0 -97 50.5 -155t139.5 -58q109 0 170 75.5t61 215.5v492q0 94 115 94q59 0 85 -22.5t26 -71.5v-891zM590 1368
l-164 -104q-29 -19 -45 -26t-37 -7q-35 0 -60.5 29.5t-25.5 66.5q0 28 14 47.5t52 42.5l174 105q50 30 92 30q38 0 90 -30l166 -97q42 -25 58 -44t16 -50q0 -36 -27.5 -68t-60.5 -32q-42 0 -86 33z" />
    <glyph glyph-name="udieresis" unicode="&#xfc;" horiz-adv-x="1157" 
d="M1012 76q0 -48 -26.5 -70t-88.5 -22q-59 0 -85 22t-26 70v67q-100 -163 -301 -163q-156 0 -251 105.5t-95 285.5v596q0 94 113 94q61 0 87 -22t26 -72v-570q0 -97 50.5 -155t139.5 -58q109 0 170 75.5t61 215.5v492q0 94 115 94q59 0 85 -22.5t26 -71.5v-891zM373 1485
q52 0 89.5 -37.5t37.5 -89.5t-37.5 -88.5t-89.5 -36.5t-88.5 36.5t-36.5 88.5t37 89.5t88 37.5zM766 1485q52 0 89.5 -37.5t37.5 -89.5t-37.5 -88.5t-89.5 -36.5t-88.5 36.5t-36.5 88.5t37 89.5t88 37.5z" />
    <glyph glyph-name="dagger" unicode="&#x2020;" horiz-adv-x="987" 
d="M600 877v-1004q0 -57 -25.5 -81.5t-80.5 -24.5q-58 0 -82.5 26t-24.5 80v1004h-190q-115 0 -115 100q0 102 115 102h190v332q0 54 24.5 79.5t82.5 25.5q56 0 81 -24.5t25 -80.5v-332h191q114 0 114 -102q0 -100 -114 -100h-191z" />
    <glyph glyph-name="degree" unicode="&#xb0;" horiz-adv-x="731" 
d="M367 793q-125 0 -215.5 91.5t-90.5 217.5t90.5 218.5t215.5 92.5q122 0 212.5 -92.5t90.5 -218.5q0 -125 -90 -217t-213 -92zM367 1227q-49 0 -84 -36.5t-35 -88.5t35 -87.5t84 -35.5q48 0 82 35.5t34 87.5t-34 88.5t-82 36.5z" />
    <glyph glyph-name="cent" unicode="&#xa2;" horiz-adv-x="973" 
d="M657 1059q95 -14 158 -49.5t94 -69t31 -74.5q0 -36 -32 -71t-70 -35q-34 0 -80 37q-55 39 -101 51v-653q59 15 111 57q28 19 42.5 25t37.5 6q37 0 65.5 -30.5t28.5 -72.5q0 -64 -88.5 -122.5t-196.5 -71.5v-129q0 -55 -22.5 -71.5t-67.5 -16.5t-63.5 19.5t-18.5 68.5v129
q-190 25 -300.5 172.5t-110.5 365.5q0 223 108 364.5t303 170.5v106q0 47 19 67.5t67 20.5q49 0 67.5 -19.5t18.5 -68.5v-106zM485 195v653q-94 -27 -141 -108t-47 -216q0 -128 49 -214t139 -115z" />
    <glyph glyph-name="sterling" unicode="&#xa3;" horiz-adv-x="1085" 
d="M528 588q11 -43 11 -99q0 -78 -30.5 -149.5t-90.5 -136.5h465q59 0 83.5 -23.5t24.5 -75.5q0 -104 -112 -104h-617q-61 0 -93 31t-32 82q0 29 13.5 58.5t68.5 88.5q98 107 98 225q0 48 -14 103h-98q-61 0 -87 23t-26 75q0 53 26 75.5t87 22.5h39q-43 132 -43 217
q0 183 121 297.5t315 114.5q143 0 252.5 -68.5t109.5 -138.5q0 -39 -34 -75.5t-72 -36.5q-20 0 -35.5 8t-44.5 33q-89 75 -178 75q-95 0 -151 -57t-56 -149q0 -83 53 -220h260q60 0 87.5 -23t27.5 -75t-27.5 -75t-87.5 -23h-213z" />
    <glyph glyph-name="section" unicode="&#xa7;" horiz-adv-x="1018" 
d="M813 258q92 -85 92 -221q0 -158 -118 -262.5t-328 -104.5q-137 0 -267.5 55t-130.5 123q0 41 33.5 80t65.5 39q26 0 76 -26q124 -66 231 -66q105 0 158 42.5t53 111.5q0 55 -47.5 96t-175.5 92q-214 82 -279 164t-65 194q0 164 145 271q-111 88 -111 237q0 138 111 238
t293 100q129 0 234.5 -45.5t105.5 -107.5q0 -47 -29.5 -85t-71.5 -38q-16 0 -29.5 4.5t-60.5 30.5q-71 37 -151 37q-82 0 -128 -36t-46 -91q0 -54 34.5 -88t124.5 -70q170 -69 249.5 -114.5t120 -112t40.5 -170.5q0 -70 -33.5 -144t-95.5 -133zM434 745q-98 -55 -98 -149
q0 -43 24 -77.5t67 -58t152 -65.5q41 -16 66 -28q76 60 76 147q0 45 -17 76t-43 49t-113.5 59t-113.5 47z" />
    <glyph glyph-name="bullet" unicode="&#x2022;" horiz-adv-x="965" 
d="M483 338q-134 0 -230.5 95.5t-96.5 230.5q0 134 96.5 230.5t230.5 96.5t230 -96.5t96 -230.5t-95.5 -230t-230.5 -96z" />
    <glyph glyph-name="paragraph" unicode="&#xb6;" horiz-adv-x="1266" 
d="M1014 1190v-1274q0 -109 -115 -109q-113 0 -113 109v1272h-204v-1272q0 -109 -113 -109t-113 109v870q-131 21 -206.5 103.5t-75.5 204.5q0 138 92.5 222.5t222.5 84.5h715q113 0 113 -105q0 -106 -113 -106h-90z" />
    <glyph glyph-name="germandbls" unicode="&#xdf;" horiz-adv-x="1118" 
d="M797 805q135 -38 202.5 -134t67.5 -249q0 -190 -123 -315t-323 -125q-101 0 -159.5 29t-58.5 86q0 32 22.5 70.5t68.5 38.5q20 0 58 -11q40 -11 64 -11q106 0 165 65.5t59 176.5q0 104 -61 168t-179 82q-52 8 -77 31.5t-25 70.5q0 75 84 103q89 29 133.5 89t44.5 152
q0 88 -55 145.5t-138 57.5q-102 0 -158.5 -65.5t-56.5 -182.5v-975q0 -108 -114 -108q-113 0 -113 108v985q0 198 118 320.5t324 122.5q198 0 309 -106t111 -287q0 -102 -51.5 -194.5t-138.5 -137.5z" />
    <glyph glyph-name="registered" unicode="&#xae;" horiz-adv-x="1591" 
d="M795 1413q192 0 357.5 -95.5t261 -261t95.5 -358.5q0 -190 -95 -355.5t-260.5 -261t-358.5 -95.5t-358.5 96t-260 260.5t-94.5 355.5q0 194 95.5 359.5t260.5 260.5t357 95zM795 139q233 0 397 164.5t164 394.5q0 233 -164.5 397.5t-396.5 164.5t-395.5 -164.5
t-163.5 -397.5q0 -230 163.5 -394.5t395.5 -164.5zM682 608v-256q0 -67 -80 -67q-84 0 -84 67v645q0 54 32.5 86.5t96.5 32.5h144q137 0 213.5 -67t76.5 -187q0 -71 -42 -128.5t-119 -78.5q62 -24 118 -141.5t56 -165.5q0 -27 -32 -45t-77 -18q-41 0 -57 47
q-50 147 -90.5 211.5t-108.5 64.5h-47zM682 977v-234h92q71 0 107.5 31t36.5 84q0 59 -34 89t-102 30h-100z" />
    <glyph glyph-name="copyright" unicode="&#xa9;" horiz-adv-x="1591" 
d="M795 1413q192 0 357.5 -95.5t261 -261t95.5 -358.5q0 -190 -95 -355.5t-260.5 -261t-358.5 -95.5t-358.5 96t-260 260.5t-94.5 355.5q0 194 95.5 359.5t260.5 260.5t357 95zM795 139q233 0 397 164.5t164 394.5q0 233 -164.5 397.5t-396.5 164.5t-395.5 -164.5
t-163.5 -397.5q0 -230 163.5 -394.5t395.5 -164.5zM801 281q-158 0 -267.5 111.5t-109.5 307.5q0 178 106 299t287 121q108 0 191.5 -52t83.5 -99q0 -31 -25.5 -61.5t-50.5 -30.5q-14 0 -24.5 4t-39.5 24q-39 30 -67.5 41.5t-67.5 11.5q-103 0 -158 -69.5t-55 -188.5
q0 -123 57 -194.5t160 -71.5q77 0 156 66q25 20 49 20q26 0 51 -29.5t25 -54.5q0 -52 -92.5 -103.5t-208.5 -51.5z" />
    <glyph glyph-name="trademark" unicode="&#x2122;" horiz-adv-x="1663" 
d="M1548 639q0 -38 -17.5 -55t-66.5 -17q-46 0 -62 16.5t-16 55.5v487l-131 -233q-29 -51 -90 -51q-62 0 -90 51l-129 225v-479q0 -41 -17 -56.5t-63 -15.5q-47 0 -64.5 16.5t-17.5 55.5v666q0 96 95 96q35 0 55.5 -12.5t38.5 -42.5l192 -330l193 327q19 32 40.5 45t55.5 13
q94 0 94 -96v-666zM596 1397q41 0 58.5 -14.5t17.5 -61.5q0 -43 -18 -59.5t-58 -16.5h-152v-606q0 -72 -86 -72q-46 0 -65 16.5t-19 55.5v606h-149q-80 0 -80 76q0 41 18.5 58.5t61.5 17.5h471z" />
    <glyph glyph-name="acute" unicode="&#xb4;" horiz-adv-x="530" 
d="M414 1407l-201 -143q-49 -35 -84 -35q-37 0 -62.5 30t-25.5 64q0 24 11.5 43t43.5 45l183 143q55 43 94 43q41 0 69.5 -30t28.5 -74t-57 -86z" />
    <glyph glyph-name="dieresis" unicode="&#xa8;" horiz-adv-x="813" 
d="M209 1485q52 0 89.5 -37.5t37.5 -89.5t-37.5 -88.5t-89.5 -36.5t-88.5 36.5t-36.5 88.5t37 89.5t88 37.5zM602 1485q52 0 89.5 -37.5t37.5 -89.5t-37.5 -88.5t-89.5 -36.5t-88.5 36.5t-36.5 88.5t37 89.5t88 37.5z" />
    <glyph glyph-name="notequal" unicode="&#x2260;" horiz-adv-x="1124" 
d="M495 417l-194 -445h-136l195 445h-282v168h356l122 277h-478v168h551l196 444h134l-195 -444h282v-168h-356l-121 -277h477v-168h-551z" />
    <glyph glyph-name="AE" unicode="&#xc6;" horiz-adv-x="1802" 
d="M1599 1393q66 0 93.5 -21t27.5 -84q0 -66 -28.5 -87t-92.5 -21h-440q-15 0 -25 -11t-10 -28v-310h410q61 0 92 -19.5t31 -84.5q0 -62 -27 -85.5t-96 -23.5h-410v-372q0 -33 29 -33h442q66 0 95.5 -21t29.5 -83t-27 -85.5t-98 -23.5h-518q-86 0 -134 45.5t-48 126.5v209
h-500q-80 -137 -176 -311q-28 -53 -49 -71.5t-57 -18.5q-57 0 -92 34t-35 78q0 32 21 78q37 80 216 371q146 235 288 445q185 272 251 347q27 32 59 46t94 14h684zM895 1180q-217 -315 -379 -586h379v586z" />
    <glyph glyph-name="Oslash" unicode="&#xd8;" horiz-adv-x="1427" 
d="M1149 1235q90 -98 138 -237.5t48 -299.5q0 -312 -165.5 -515t-452.5 -203q-166 0 -287 65l-55 -92q-41 -68 -84 -68q-40 0 -72.5 26.5t-32.5 61.5q0 31 27 76l66 111q-90 98 -138.5 238t-48.5 300q0 310 168.5 512.5t456.5 202.5q156 0 282 -65l72 120q30 50 76 50
q43 0 73.5 -26t30.5 -58q0 -24 -26 -72zM403 365l484 798q-80 41 -170 41q-184 0 -292 -147t-108 -359q0 -191 86 -333zM1024 1028l-481 -797q82 -43 174 -43q181 0 287 149.5t106 360.5q0 188 -86 330z" />
    <glyph glyph-name="infinity" unicode="&#x221e;" horiz-adv-x="1460" 
d="M689 812q105 132 164 174q80 58 169 58q105 0 196.5 -76t91.5 -245q0 -118 -34 -185.5t-106 -108.5t-148 -41q-89 0 -169 57q-59 43 -164 175q-136 -171 -289 -171q-101 0 -173.5 76.5t-72.5 190.5q0 113 72.5 190t173.5 77q153 0 289 -171zM758 717q87 -135 159 -185
q46 -33 103 -33q76 0 127.5 56t51.5 158q0 106 -52.5 162t-130.5 56q-49 0 -92 -28q-58 -39 -166 -186zM620 716q-80 100 -128 128.5t-92 28.5q-58 0 -96.5 -41t-38.5 -113q0 -71 40 -113.5t97 -42.5q101 0 218 153z" />
    <glyph glyph-name="plusminus" unicode="&#xb1;" horiz-adv-x="1208" 
d="M711 575v-186q0 -53 -24.5 -78.5t-82.5 -25.5t-82 25.5t-24 78.5v186h-285q-115 0 -115 101q0 53 27.5 77.5t87.5 24.5h285v180q0 58 25.5 81.5t80.5 23.5q58 0 82.5 -25.5t24.5 -79.5v-180h284q60 0 87.5 -24.5t27.5 -77.5q0 -101 -115 -101h-284zM995 0h-782
q-115 0 -115 100q0 103 115 103h782q115 0 115 -103q0 -100 -115 -100z" />
    <glyph glyph-name="lessequal" unicode="&#x2264;" horiz-adv-x="1124" 
d="M77 762v168l971 410v-180l-770 -315l770 -319v-179zM1046 106h-968v167h968v-167z" />
    <glyph glyph-name="greaterequal" unicode="&#x2265;" horiz-adv-x="1124" 
d="M1048 762l-971 -415v179l769 319l-769 315v180l971 -410v-168zM1046 106h-968v167h968v-167z" />
    <glyph glyph-name="yen" unicode="&#xa5;" horiz-adv-x="1085" 
d="M629 248v-164q0 -53 -28 -76.5t-89 -23.5q-62 0 -87.5 23.5t-25.5 76.5v164h-231q-53 0 -80 21t-27 73q0 48 24.5 70t82.5 22h231v180h-231q-53 0 -80 21.5t-27 73.5q0 94 107 94h94q-96 148 -148.5 282t-52.5 224q0 53 25 76.5t92 23.5q53 0 76.5 -18t34.5 -70
q25 -137 82.5 -265.5t146.5 -248.5q97 132 158 257.5t86 244.5q13 61 36.5 80.5t78.5 19.5q63 0 88.5 -23.5t25.5 -76.5q0 -81 -59.5 -219t-161.5 -287h115q106 0 106 -94q0 -95 -106 -95h-256v-180h256q57 0 81.5 -22.5t24.5 -69.5q0 -94 -106 -94h-256z" />
    <glyph glyph-name="uni00B5" unicode="&#xb5;" horiz-adv-x="1159" 
d="M369 -317q0 -28 -8.5 -46t-23.5 -29t-36 -15.5t-47 -4.5q-53 0 -82 19.5t-29 73.5v1286q0 53 31 73.5t82 20.5q53 0 83 -19t30 -75v-541q0 -48 12.5 -90.5t37.5 -74t63.5 -50t90.5 -18.5q53 0 93.5 17.5t68 49.5t42 77t14.5 99v531q0 55 32 74.5t82 19.5q53 0 82 -19.5
t29 -74.5v-891q0 -54 -31 -73t-84 -19q-51 0 -80.5 19t-29.5 73v41q-36 -63 -91.5 -98t-134.5 -35q-66 0 -117 28t-79 68v-397z" />
    <glyph glyph-name="partialdiff" unicode="&#x2202;" horiz-adv-x="1012" 
d="M426 1138l-135 60q70 157 168 225t192 68q76 0 137.5 -39.5t92.5 -90.5q47 -79 69.5 -187t22.5 -248q0 -288 -86.5 -512.5t-233.5 -331.5t-289 -107q-137 0 -222.5 91t-85.5 256q0 226 153 387q197 207 649 215q-4 168 -24 256t-68 135.5t-113 47.5q-62 0 -121 -49.5
t-106 -175.5zM854 796q-244 -14 -357.5 -68t-187 -176.5t-73.5 -248.5q0 -83 51 -137t119 -54q75 0 160 55q117 76 190.5 234.5t97.5 394.5z" />
    <glyph glyph-name="summation" unicode="&#x2211;" horiz-adv-x="1460" 
d="M139 1491h1237v-164h-988l607 -775l-649 -822h1040v-161h-1264v187l620 788l-603 772v175z" />
    <glyph glyph-name="product" unicode="&#x220f;" horiz-adv-x="1686" 
d="M161 1491h1362v-1922h-191v1748h-978v-1748h-193v1922z" />
    <glyph glyph-name="uniF006" unicode="&#xf006;" horiz-adv-x="1343" 
d="M1303 100q0 -32 -20.5 -55t-52 -37.5t-69.5 -21t-74 -6.5q-139 0 -209.5 81t-70.5 240v549h-268v-510q0 -89 -19 -156.5t-54 -112.5t-84.5 -68t-111.5 -23q-18 0 -36 6t-32.5 19.5t-23 34.5t-8.5 50q0 25 10.5 37.5t26.5 21.5t34.5 18.5t34.5 28.5t26.5 52t10.5 88v514
q-56 0 -89.5 -8t-61.5 -31q-19 -15 -31 -25t-35 -10q-21 0 -39 10.5t-31.5 26t-21.5 33.5t-8 33q0 23 9.5 41t31.5 36q18 15 42 31t59.5 28.5t85 20.5t118.5 8h858q54 0 72 -22.5t18 -73.5q0 -54 -20 -76t-70 -22h-168v-551q0 -26 5 -48.5t15.5 -38.5t27 -25t40.5 -9
q18 0 31.5 4t26 8.5t24.5 8.5t27 4q17 0 30.5 -9t23.5 -23t15 -32.5t5 -38.5z" />
    <glyph glyph-name="integral" unicode="&#x222b;" horiz-adv-x="561" 
d="M561 1755q0 -29 -12.5 -53t-34 -36.5t-47.5 -12.5q-36 0 -76 35q-20 20 -39 20q-41 0 -41 -63q0 -46 11 -146q18 -204 27 -371t9 -294l-2 -121l-14 -471q-6 -190 -49 -320q-22 -67 -68 -104t-106 -37q-54 0 -86.5 33.5t-32.5 87.5q0 44 25 71t65 27q42 0 70 -33
q13 -14 24 -22t25 -8q39 0 39 61q0 37 -10 119q-20 170 -29 395q-3 104 -6 229q-2 70 -2 154l16 553q6 191 66 317q19 40 63.5 69.5t87.5 29.5q31 0 61.5 -15t48 -41t17.5 -53z" />
    <glyph glyph-name="ordfeminine" unicode="&#xaa;" horiz-adv-x="770" 
d="M561 790q-57 -102 -192 -102q-129 0 -207 98.5t-78 264.5q0 167 81.5 264.5t217.5 97.5q118 0 178 -90v22q0 66 86 66q82 0 82 -68v-585q0 -68 -84 -68t-84 62v38zM561 1102q0 74 -40 121t-109 47q-75 0 -116.5 -58.5t-41.5 -160.5q0 -104 41.5 -162t116.5 -58
q69 0 109 47.5t40 116.5v107z" />
    <glyph glyph-name="ordmasculine" unicode="&#xba;" horiz-adv-x="793" 
d="M420 688q-156 0 -246 102t-90 263t89.5 260.5t246.5 99.5q159 0 248.5 -99t89.5 -261q0 -163 -90 -264t-248 -101zM420 1268q-80 0 -124 -60t-44 -155t44 -157t124 -62q83 0 126.5 59.5t43.5 159.5q0 105 -43.5 160t-126.5 55z" />
    <glyph glyph-name="uni2126" unicode="&#x2126;" horiz-adv-x="1573" 
d="M496 160q-108 67 -165 130q-87 96 -134 225.5t-47 286.5q0 196 79.5 360.5t231 252.5t347.5 88q336 0 516 -254q131 -186 131 -448q0 -168 -54 -297.5t-141 -222.5q-53 -58 -149 -121l364 6v-166h-575v177q80 40 124 78q72 61 122 145t75.5 179t25.5 198
q0 138 -49.5 277.5t-150 212.5t-243.5 73q-191 0 -296 -120q-146 -169 -146 -440q0 -217 91 -372.5t251 -227.5v-180h-577v168z" />
    <glyph glyph-name="ae" unicode="&#xe6;" horiz-adv-x="1669" 
d="M844 897q64 84 151.5 126t198.5 42q179 0 296.5 -127.5t117.5 -343.5q0 -154 -131 -154h-559q20 -133 89 -199.5t177 -66.5q69 0 109 14.5t108 55.5q37 22 65 22q38 0 68.5 -30t30.5 -62q0 -71 -120.5 -132.5t-264.5 -61.5q-137 0 -241 53.5t-161 156.5
q-61 -102 -154 -155t-204 -53q-169 0 -260.5 89t-91.5 224q0 172 138 257t484 91q0 111 -48.5 170t-141.5 59q-98 0 -206 -86q-34 -24 -65 -24q-32 0 -61 34t-29 78q0 40 43 76.5t137.5 75.5t208.5 39q106 0 185 -42t131 -126zM1380 627q-8 117 -66 185t-149 68
q-96 0 -161 -66t-82 -187h458zM688 453q-226 -2 -310.5 -34.5t-84.5 -121.5q0 -56 38 -92.5t101 -36.5q106 0 172.5 73.5t83.5 211.5z" />
    <glyph glyph-name="oslash" unicode="&#xf8;" horiz-adv-x="1120" 
d="M330 31l-64 -90q-30 -43 -46 -55.5t-40 -12.5q-37 0 -66.5 27t-29.5 61q0 32 29 72l77 112q-116 150 -116 379q0 243 130 392t355 149q129 0 240 -55l67 96q36 51 76 51q39 0 67.5 -26t28.5 -58q0 -31 -26 -69l-78 -109q113 -147 113 -371q0 -244 -131 -394t-357 -150
q-132 0 -229 51zM328 340l352 502q-57 24 -121 24q-128 0 -196 -93.5t-68 -248.5q0 -114 33 -184zM799 700l-350 -499q46 -23 110 -23q131 0 198.5 91.5t67.5 254.5q0 99 -26 176z" />
    <glyph glyph-name="questiondown" unicode="&#xbf;" horiz-adv-x="903" 
d="M526 1065q65 0 104.5 -40.5t39.5 -102.5q0 -64 -39.5 -105t-104.5 -41q-63 0 -104 41.5t-41 104.5q0 61 41.5 102t103.5 41zM530 676q113 0 113 -96q0 -160 -44.5 -236t-160.5 -151q-88 -57 -117.5 -100.5t-29.5 -104.5q0 -68 46.5 -112t123.5 -44q107 0 201 84
q32 30 49 39.5t45 9.5q41 0 72.5 -33t31.5 -75q0 -34 -17.5 -60.5t-77.5 -70t-136 -70.5t-160 -27q-189 0 -297.5 93.5t-108.5 254.5q0 114 55.5 202.5t172.5 162.5q80 52 103.5 95t23.5 143q0 96 112 96z" />
    <glyph glyph-name="exclamdown" unicode="&#xa1;" horiz-adv-x="557" 
d="M279 1065q59 0 97 -37.5t38 -95.5q0 -59 -37.5 -97t-97.5 -38q-59 0 -97.5 38t-38.5 97q0 57 38 95t98 38zM166 594q0 106 113 106q112 0 112 -106v-848q0 -106 -112 -106q-113 0 -113 106v848z" />
    <glyph glyph-name="logicalnot" unicode="&#xac;" horiz-adv-x="1208" 
d="M1110 303q0 -106 -106 -106q-56 0 -81.5 24t-25.5 82v291h-684q-115 0 -115 104q0 51 27 75t88 24h782q65 0 90 -20t25 -79v-395z" />
    <glyph glyph-name="radical" unicode="&#x221a;" horiz-adv-x="1124" 
d="M1124 1870l-311 -1948l-496 1022l-198 -92l-35 63l301 152l403 -823h5l258 1626h73z" />
    <glyph glyph-name="florin" unicode="&#x192;" horiz-adv-x="1006" 
d="M537 725l-93 -764q-22 -182 -109 -273t-239 -91q-76 0 -134 26.5t-58 79.5q0 43 23.5 78t58.5 35q17 0 45 -11q29 -12 57 -12q56 0 86.5 38t40.5 124l94 770h-65q-50 0 -69 17t-19 59q0 51 26.5 81.5t75.5 30.5h72l18 134q22 191 108.5 278.5t248.5 87.5q43 0 97.5 -15.5
t75.5 -37.5t21 -60t-27.5 -72t-58.5 -34q-25 0 -55 12q-35 13 -62 13q-72 0 -97.5 -72t-39.5 -234h123q54 0 72 -17.5t18 -55.5q0 -55 -31 -85t-86 -30h-118z" />
    <glyph glyph-name="approxequal" unicode="&#x2248;" horiz-adv-x="1124" 
d="M51 738v205q106 120 278 120q60 0 125.5 -17t188.5 -70q69 -30 103.5 -38.5t69.5 -8.5q65 0 134.5 39t123.5 98v-212q-64 -60 -129.5 -87t-147.5 -27q-60 0 -114 13.5t-173 67t-198 53.5q-64 0 -120.5 -27.5t-140.5 -108.5zM51 376v205q106 120 278 120q60 0 125.5 -17
t188.5 -70q69 -29 103.5 -38t69.5 -9q65 0 134.5 39t123.5 98v-212q-64 -60 -129.5 -87t-147.5 -27q-60 0 -114 14t-173 67t-198 53q-64 0 -120.5 -27.5t-140.5 -108.5z" />
    <glyph glyph-name="approxequal" unicode="&#x22f2;" horiz-adv-x="1124" 
d="M51 738v205q106 120 278 120q60 0 125.5 -17t188.5 -70q69 -30 103.5 -38.5t69.5 -8.5q65 0 134.5 39t123.5 98v-212q-64 -60 -129.5 -87t-147.5 -27q-60 0 -114 13.5t-173 67t-198 53.5q-64 0 -120.5 -27.5t-140.5 -108.5zM51 376v205q106 120 278 120q60 0 125.5 -17
t188.5 -70q69 -29 103.5 -38t69.5 -9q65 0 134.5 39t123.5 98v-212q-64 -60 -129.5 -87t-147.5 -27q-60 0 -114 14t-173 67t-198 53q-64 0 -120.5 -27.5t-140.5 -108.5z" />
    <glyph glyph-name="uni2206" unicode="&#x2206;" horiz-adv-x="1253" 
d="M1227 0h-1200l628 1386zM991 82l-399 967l-440 -967h839z" />
    <glyph glyph-name="guillemotleft" unicode="&#xab;" horiz-adv-x="1311" 
d="M891 550l335 -276q43 -39 43 -79q0 -31 -33.5 -64t-67.5 -33q-41 0 -84 35l-396 335q-43 36 -43 84q0 42 43 80l400 336q40 34 78 34q34 0 68.5 -31t34.5 -67q0 -37 -43 -76zM332 550l335 -276q43 -39 43 -79q0 -31 -33.5 -64t-67.5 -33q-41 0 -84 35l-396 335
q-43 36 -43 84q0 42 43 80l400 336q40 34 78 34q34 0 68.5 -31t34.5 -67q0 -37 -43 -76z" />
    <glyph glyph-name="guillemotright" unicode="&#xbb;" horiz-adv-x="1311" 
d="M465 550l-335 275q-43 38 -43 80q0 32 33 64.5t67 32.5q43 0 84 -35l397 -335q43 -36 43 -84q0 -41 -43 -80l-401 -335q-42 -35 -78 -35q-34 0 -68 31t-34 68q0 40 43 75zM1024 550l-335 275q-43 40 -43 80q0 32 33.5 64.5t67.5 32.5q42 0 83 -35l397 -335q43 -36 43 -84
q0 -41 -43 -80l-401 -335q-42 -35 -77 -35q-34 0 -68.5 31t-34.5 68q0 38 43 75z" />
    <glyph glyph-name="ellipsis" unicode="&#x2026;" horiz-adv-x="1417" 
d="M238 -20q-62 0 -99 37.5t-37 97.5q0 62 38 100.5t98 38.5t99.5 -40t39.5 -99q0 -58 -40 -96.5t-99 -38.5zM707 -20q-62 0 -99 37.5t-37 97.5q0 62 38 100.5t98 38.5t99.5 -40t39.5 -99q0 -58 -40 -96.5t-99 -38.5zM1176 -20q-62 0 -99 37.5t-37 97.5q0 62 38 100.5
t98 38.5t99.5 -40t39.5 -99q0 -58 -40 -96.5t-99 -38.5z" />
    <glyph glyph-name="uni00A0" unicode="&#xa0;" horiz-adv-x="475" 
 />
    <glyph glyph-name="Agrave" unicode="&#xc0;" horiz-adv-x="1235" 
d="M879 381h-514q-36 -109 -95 -311q-11 -48 -31.5 -67t-60.5 -19q-64 0 -100.5 23t-36.5 61q0 39 28.5 144.5t86.5 276.5q57 171 113 319.5t110 275.5q108 254 144.5 289.5t103.5 35.5q62 0 93 -31q44 -43 165 -341q107 -264 220 -618q89 -281 89 -341q0 -45 -39 -69.5
t-102 -24.5q-33 0 -52.5 16.5t-33.5 69.5q-33 130 -88 311zM623 1124q-90 -207 -195 -530h387q-91 305 -192 530zM575 1861l183 -143q55 -43 55 -88q0 -34 -25.5 -64t-62.5 -30q-38 0 -84 35l-201 143q-57 41 -57 86q0 44 28.5 74t69.5 30q39 0 94 -43z" />
    <glyph glyph-name="Atilde" unicode="&#xc3;" horiz-adv-x="1235" 
d="M879 381h-514q-36 -109 -95 -311q-11 -48 -31.5 -67t-60.5 -19q-64 0 -100.5 23t-36.5 61q0 39 28.5 144.5t86.5 276.5q57 171 113 319.5t110 275.5q108 254 144.5 289.5t103.5 35.5q62 0 93 -31q44 -43 165 -341q107 -264 220 -618q89 -281 89 -341q0 -45 -39 -69.5
t-102 -24.5q-33 0 -52.5 16.5t-33.5 69.5q-33 130 -88 311zM623 1124q-90 -207 -195 -530h387q-91 305 -192 530zM752 1546q-69 0 -137 41q-69 41 -103 41q-27 0 -44 -11t-47 -42t-60 -31q-28 0 -51 25.5t-23 60.5q0 60 68 113t151 53q84 0 155 -41q45 -26 62.5 -33.5
t36.5 -7.5q39 0 66 43q22 37 55 37q35 0 58.5 -21t23.5 -57q0 -60 -62 -115t-149 -55z" />
    <glyph glyph-name="Otilde" unicode="&#xd5;" horiz-adv-x="1427" 
d="M717 -20q-289 0 -457 204t-168 514t168.5 512.5t456.5 202.5q287 0 452.5 -202.5t165.5 -512.5q0 -312 -165.5 -515t-452.5 -203zM717 1200q-184 0 -289.5 -146.5t-105.5 -355.5q0 -211 105.5 -358t289.5 -147q180 0 284.5 148t104.5 357q0 210 -104 356t-285 146z
M840 1546q-69 0 -137 41q-69 41 -103 41q-27 0 -44 -11t-47 -42t-60 -31q-28 0 -51 25.5t-23 60.5q0 60 68 113t151 53q84 0 155 -41q45 -26 62.5 -33.5t36.5 -7.5q39 0 66 43q22 37 55 37q35 0 58.5 -21t23.5 -57q0 -60 -62 -115t-149 -55z" />
    <glyph glyph-name="OE" unicode="&#x152;" horiz-adv-x="1948" 
d="M1042 145q-51 -78 -147 -121.5t-209 -43.5q-273 0 -433.5 205.5t-160.5 512.5q0 315 163 515t431 200q115 0 205.5 -38.5t155.5 -114.5q27 133 188 133h510q67 0 94 -22t27 -83q0 -66 -28.5 -87t-92.5 -21h-440q-16 0 -25.5 -11t-9.5 -28v-310h409q61 0 92 -19.5
t31 -84.5q0 -64 -27.5 -86.5t-95.5 -22.5h-409v-372q0 -33 28 -33h443q67 0 96 -22t29 -82q0 -63 -28 -86t-97 -23h-518q-77 0 -125 37.5t-56 107.5zM1040 489v414q0 120 -90 207.5t-239 87.5q-170 0 -279.5 -138t-109.5 -366q0 -215 108 -358t281 -143q150 0 239.5 91
t89.5 205z" />
    <glyph glyph-name="oe" unicode="&#x153;" horiz-adv-x="1792" 
d="M1040 436q20 -131 87 -196.5t180 -65.5q69 0 110.5 15t106.5 55q36 22 65 22q37 0 68 -30.5t31 -61.5q0 -71 -120.5 -132.5t-264.5 -61.5q-253 0 -379 182q-128 -182 -365 -182q-224 0 -354.5 151.5t-130.5 392.5q0 243 130 392t355 149q233 0 369 -182q133 182 360 182
q201 0 322 -131t121 -344q0 -81 -32.5 -117.5t-99.5 -36.5h-559zM559 870q-125 0 -191.5 -94.5t-66.5 -251.5q0 -154 67.5 -252t190.5 -98q128 0 194 92.5t66 257.5q0 173 -65 259.5t-195 86.5zM1503 623q-8 113 -66.5 180t-148.5 67q-96 0 -161 -65t-83 -182h459z" />
    <glyph glyph-name="endash" unicode="&#x2013;" horiz-adv-x="999" 
d="M827 448h-655q-111 0 -111 102q0 54 27 78t84 24h655q57 0 84 -24t27 -78q0 -102 -111 -102z" />
    <glyph glyph-name="emdash" unicode="&#x2014;" horiz-adv-x="1602" 
d="M1430 448h-1258q-111 0 -111 100q0 104 111 104h1258q110 0 110 -104q0 -100 -110 -100z" />
    <glyph glyph-name="emdash" unicode="&#x2015;" horiz-adv-x="1602" 
d="M1430 448h-1258q-111 0 -111 100q0 104 111 104h1258q110 0 110 -104q0 -100 -110 -100z" />
    <glyph glyph-name="quotedblleft" unicode="&#x201c;" horiz-adv-x="825" 
d="M285 1411q42 0 69 -23.5t27 -60.5q0 -26 -25 -86q-49 -127 -49 -258q0 -49 -27 -77.5t-77 -28.5q-58 0 -84.5 26.5t-26.5 85.5q0 115 56.5 268.5t136.5 153.5zM678 1411q42 0 69 -23.5t27 -60.5q0 -22 -8 -44q-35 -90 -50.5 -159t-15.5 -141q0 -49 -26.5 -77.5
t-77.5 -28.5q-58 0 -84.5 26.5t-26.5 85.5q0 115 56.5 268.5t136.5 153.5z" />
    <glyph glyph-name="quotedblright" unicode="&#x201d;" horiz-adv-x="825" 
d="M541 874q-43 0 -70 23.5t-27 60.5q0 22 9 44q34 88 49.5 157t15.5 144q0 49 27 77.5t78 28.5q58 0 84 -27t26 -86q0 -116 -57 -269t-135 -153zM147 874q-42 0 -69 23.5t-27 60.5q0 22 9 44q33 86 49 157t16 144q0 49 27 77.5t77 28.5q58 0 84.5 -27t26.5 -86
q0 -116 -57 -269t-136 -153z" />
    <glyph glyph-name="quoteleft" unicode="&#x2018;" horiz-adv-x="432" 
d="M285 1411q42 0 69 -23.5t27 -60.5q0 -26 -25 -86q-49 -127 -49 -258q0 -49 -27 -77.5t-77 -28.5q-58 0 -84.5 26.5t-26.5 85.5q0 115 56.5 268.5t136.5 153.5z" />
    <glyph glyph-name="quoteright" unicode="&#x2019;" horiz-adv-x="432" 
d="M147 874q-42 0 -69 23.5t-27 60.5q0 22 9 44q33 86 49 157t16 144q0 49 27 77.5t77 28.5q58 0 84.5 -27t26.5 -86q0 -116 -57 -269t-136 -153z" />
    <glyph glyph-name="divide" unicode="&#xf7;" horiz-adv-x="1208" 
d="M604 756q-55 0 -92 37.5t-37 91.5q0 55 37.5 92t91.5 37t91.5 -38t37.5 -91t-37 -91t-92 -38zM995 422h-782q-115 0 -115 100q0 103 115 103h782q115 0 115 -103q0 -100 -115 -100zM604 33q-55 0 -92 37.5t-37 91.5q0 56 37 92.5t92 36.5q54 0 91.5 -38t37.5 -91t-37 -91
t-92 -38z" />
    <glyph glyph-name="lozenge" unicode="&#x25ca;" horiz-adv-x="1012" 
d="M549 1422l418 -713l-418 -709h-111l-391 709l391 713h111zM495 1325l-340 -616l340 -615l359 615z" />
    <glyph glyph-name="ydieresis" unicode="&#xff;" horiz-adv-x="1024" 
d="M393 37q-111 203 -188.5 395t-121.5 372l-17 64q-15 51 -15 107q0 41 33 64.5t84 23.5q43 0 65.5 -15t32.5 -63q32 -177 92 -364t148 -383q103 224 168.5 412.5t93.5 340.5q15 72 92 72q51 0 84 -23.5t33 -62.5q0 -79 -89 -349.5t-246.5 -549t-300.5 -395.5t-261 -117
q-40 0 -64 33.5t-24 81.5q0 32 20.5 47t65.5 28q78 25 166.5 101t148.5 180zM311 1485q52 0 89.5 -37.5t37.5 -89.5t-37.5 -88.5t-89.5 -36.5t-88.5 36.5t-36.5 88.5t37 89.5t88 37.5zM704 1485q52 0 89.5 -37.5t37.5 -89.5t-37.5 -88.5t-89.5 -36.5t-88.5 36.5t-36.5 88.5
t37 89.5t88 37.5z" />
    <glyph glyph-name="Ydieresis" unicode="&#x178;" horiz-adv-x="1053" 
d="M629 537v-453q0 -53 -28 -76.5t-89 -23.5q-62 0 -87.5 23.5t-25.5 76.5v453q-148 148 -253 375.5t-105 396.5q0 53 25 76.5t92 23.5q58 0 82 -20.5t28 -67.5q22 -196 80 -334.5t166 -259.5q116 131 183 276.5t85 305.5q7 56 31 78t84 22q63 0 89 -23.5t26 -76.5
q0 -167 -110.5 -388.5t-272.5 -383.5zM332 1792q52 0 89.5 -37.5t37.5 -89.5t-37.5 -88.5t-89.5 -36.5t-88.5 36.5t-36.5 88.5t37 89.5t88 37.5zM725 1792q52 0 89.5 -37.5t37.5 -89.5t-37.5 -88.5t-89.5 -36.5t-88.5 36.5t-36.5 88.5t37 89.5t88 37.5z" />
    <glyph glyph-name="Euro" unicode="&#x20ac;" horiz-adv-x="1208" 
d="M915 958q107 0 107 -94t-107 -94h-481q-2 -24 -2 -80q0 -58 2 -80h385q58 0 82.5 -22.5t24.5 -69.5q0 -94 -107 -94h-354q37 -120 118 -180t205 -60q123 0 232 77q35 24 63 24q32 0 59 -33.5t27 -69.5q0 -33 -19 -58t-79 -63.5t-140 -59.5t-167 -21q-207 0 -344 113
t-189 331h-86q-106 0 -106 94q0 49 24.5 70.5t81.5 21.5h62q-2 22 -2 76q0 58 2 84h-62q-106 0 -106 94q0 49 24.5 71.5t81.5 22.5h93q57 220 203.5 337.5t353.5 117.5q156 0 272.5 -60.5t116.5 -125.5q0 -42 -29 -78.5t-63 -36.5q-19 0 -34.5 6t-51.5 29q-98 61 -209 61
q-123 0 -205 -62.5t-123 -187.5h446z" />
    <glyph glyph-name="guilsinglleft" unicode="&#x2039;" horiz-adv-x="778" 
d="M332 550l304 -251q74 -50 74 -104q0 -31 -33.5 -64t-67.5 -33q-41 0 -84 35l-396 335q-43 36 -43 84q0 42 43 80l400 336q40 34 78 34q34 0 68.5 -31t34.5 -67q0 -37 -43 -76z" />
    <glyph glyph-name="guilsinglright" unicode="&#x203a;" horiz-adv-x="778" 
d="M442 550l-335 275q-43 38 -43 80q0 32 33 64.5t67 32.5q41 0 84 -35l397 -335q43 -36 43 -84q0 -42 -43 -80l-401 -335q-42 -35 -78 -35q-34 0 -68 31t-34 68q0 40 43 75z" />
    <glyph glyph-name="fi" unicode="&#xfb01;" horiz-adv-x="1159" 
d="M422 854v-776q0 -48 -26 -71t-87 -23t-86.5 22.5t-25.5 71.5v776h-68q-55 0 -78.5 21.5t-23.5 74.5q0 52 22.5 73t79.5 21h68v76q0 194 121 305t323 111q110 0 224 -41.5t114 -108.5q0 -44 -28 -82t-64 -38q-27 0 -60 15q-118 50 -198 50q-100 0 -153.5 -60t-53.5 -173
v-54h493q101 0 101 -90v-876q0 -94 -115 -94q-110 0 -110 94v776h-369z" />
    <glyph glyph-name="fl" unicode="&#xfb02;" horiz-adv-x="1159" 
d="M422 854v-776q0 -48 -26 -71t-87 -23t-86.5 22.5t-25.5 71.5v776h-68q-55 0 -78.5 21.5t-23.5 74.5q0 52 22.5 73t79.5 21h68v99q0 189 114.5 291t319.5 102q113 0 215.5 -19.5t136 -52t33.5 -82.5v-1304q0 -94 -115 -94q-110 0 -110 94v1251q-72 19 -156 19
q-107 0 -160 -51t-53 -152v-101h125q56 0 77 -21.5t21 -72.5t-22 -73.5t-76 -22.5h-125z" />
    <glyph glyph-name="daggerdbl" unicode="&#x2021;" horiz-adv-x="987" 
d="M600 915v-526h191q114 0 114 -100q0 -103 -114 -103h-191v-313q0 -57 -25.5 -81.5t-80.5 -24.5q-58 0 -82.5 26t-24.5 80v313h-190q-115 0 -115 103q0 100 115 100h190v526h-190q-115 0 -115 101q0 102 115 102h190v293q0 54 24.5 79.5t82.5 25.5q56 0 81 -24.5t25 -80.5
v-293h191q114 0 114 -102q0 -101 -114 -101h-191z" />
    <glyph glyph-name="periodcentered" unicode="&#x2219;" horiz-adv-x="494" 
d="M246 496q-64 0 -104 40t-40 103q0 64 39.5 104.5t104.5 40.5q63 0 104 -41t41 -104q0 -61 -41 -102t-104 -41z" />
    <glyph glyph-name="quotesinglbase" unicode="&#x201a;" horiz-adv-x="440" 
d="M147 -260q-42 0 -69 23.5t-27 60.5q0 22 9 44q65 162 65 300q0 49 27 77.5t77 28.5q58 0 84.5 -26.5t26.5 -85.5q0 -115 -56.5 -268.5t-136.5 -153.5zM209 -20z" />
    <glyph glyph-name="quotedblbase" unicode="&#x201e;" horiz-adv-x="813" 
d="M541 -260q-43 0 -70 23.5t-27 60.5q0 22 9 44q65 162 65 300q0 49 27 77.5t78 28.5q58 0 84 -26.5t26 -85.5q0 -116 -56.5 -269t-135.5 -153zM147 -260q-42 0 -69 23.5t-27 60.5q0 22 9 44q65 162 65 300q0 49 27 77.5t77 28.5q58 0 84.5 -26.5t26.5 -85.5
q0 -115 -56.5 -268.5t-136.5 -153.5zM209 -20z" />
    <glyph glyph-name="perthousand" unicode="&#x2030;" horiz-adv-x="2791" 
d="M459 602q-157 0 -259 110t-102 298t102 295.5t259 107.5q162 0 262 -106.5t100 -296.5q0 -185 -98.5 -296.5t-263.5 -111.5zM459 1249q-81 0 -121.5 -66t-40.5 -173q0 -108 41.5 -177t120.5 -69t122.5 66t43.5 180q0 107 -41 173t-125 66zM1477 1264l-824 -1221
q-26 -38 -44.5 -50.5t-41.5 -12.5q-40 0 -71 26t-31 62q0 34 27 69l831 1229q32 47 76 47q43 0 72.5 -26t29.5 -58q0 -30 -24 -65zM1511 -20q-157 0 -258.5 109.5t-101.5 297.5t101 296t259 108q163 0 263 -107.5t100 -296.5q0 -184 -97.5 -295.5t-265.5 -111.5zM1511 627
q-78 0 -119.5 -65t-41.5 -175q0 -108 42 -177t119 -69q79 0 122.5 65.5t43.5 180.5q0 109 -41.5 174.5t-124.5 65.5zM2324 -20q-157 0 -258.5 109.5t-101.5 297.5t101 296t259 108q163 0 263 -107.5t100 -296.5q0 -184 -97.5 -295.5t-265.5 -111.5zM2324 627
q-78 0 -119.5 -65t-41.5 -175q0 -108 42 -177t119 -69q79 0 122.5 65.5t43.5 180.5q0 109 -41.5 174.5t-124.5 65.5zM1960 0z" />
    <glyph glyph-name="Acircumflex" unicode="&#xc2;" horiz-adv-x="1235" 
d="M879 381h-514q-36 -109 -95 -311q-11 -48 -31.5 -67t-60.5 -19q-64 0 -100.5 23t-36.5 61q0 39 28.5 144.5t86.5 276.5q57 171 113 319.5t110 275.5q108 254 144.5 289.5t103.5 35.5q62 0 93 -31q44 -43 165 -341q107 -264 220 -618q89 -281 89 -341q0 -45 -39 -69.5
t-102 -24.5q-33 0 -52.5 16.5t-33.5 69.5q-33 130 -88 311zM623 1124q-90 -207 -195 -530h387q-91 305 -192 530zM624 1675l-164 -104q-29 -19 -45 -26t-37 -7q-35 0 -60.5 29.5t-25.5 66.5q0 28 14 47.5t52 42.5l174 105q50 30 92 30q38 0 90 -30l166 -97q42 -25 58 -44
t16 -50q0 -36 -27.5 -68t-60.5 -32q-42 0 -86 33z" />
    <glyph glyph-name="Ecircumflex" unicode="&#xca;" horiz-adv-x="1075" 
d="M397 831h410q61 0 92 -19.5t31 -84.5q0 -62 -27 -85.5t-96 -23.5h-410v-372q0 -33 29 -33h442q66 0 95.5 -21t29.5 -83t-27 -85.5t-98 -23.5h-518q-86 0 -134 45.5t-48 126.5v1030q0 191 194 191h510q66 0 93.5 -21t27.5 -84q0 -66 -28.5 -87t-92.5 -21h-440
q-15 0 -25 -11t-10 -28v-310zM586 1675l-164 -104q-29 -19 -45 -26t-37 -7q-35 0 -60.5 29.5t-25.5 66.5q0 28 14 47.5t52 42.5l174 105q50 30 92 30q38 0 90 -30l166 -97q42 -25 58 -44t16 -50q0 -36 -27.5 -68t-60.5 -32q-42 0 -86 33z" />
    <glyph glyph-name="Aacute" unicode="&#xc1;" horiz-adv-x="1235" 
d="M879 381h-514q-36 -109 -95 -311q-11 -48 -31.5 -67t-60.5 -19q-64 0 -100.5 23t-36.5 61q0 39 28.5 144.5t86.5 276.5q57 171 113 319.5t110 275.5q108 254 144.5 289.5t103.5 35.5q62 0 93 -31q44 -43 165 -341q107 -264 220 -618q89 -281 89 -341q0 -45 -39 -69.5
t-102 -24.5q-33 0 -52.5 16.5t-33.5 69.5q-33 130 -88 311zM623 1124q-90 -207 -195 -530h387q-91 305 -192 530zM807 1714l-201 -143q-49 -35 -84 -35q-37 0 -62.5 30t-25.5 64q0 24 11.5 43t43.5 45l183 143q55 43 94 43q41 0 69.5 -30t28.5 -74t-57 -86z" />
    <glyph glyph-name="Edieresis" unicode="&#xcb;" horiz-adv-x="1075" 
d="M397 831h410q61 0 92 -19.5t31 -84.5q0 -62 -27 -85.5t-96 -23.5h-410v-372q0 -33 29 -33h442q66 0 95.5 -21t29.5 -83t-27 -85.5t-98 -23.5h-518q-86 0 -134 45.5t-48 126.5v1030q0 191 194 191h510q66 0 93.5 -21t27.5 -84q0 -66 -28.5 -87t-92.5 -21h-440
q-15 0 -25 -11t-10 -28v-310zM395 1792q52 0 89.5 -37.5t37.5 -89.5t-37.5 -88.5t-89.5 -36.5t-88.5 36.5t-36.5 88.5t37 89.5t88 37.5zM788 1792q52 0 89.5 -37.5t37.5 -89.5t-37.5 -88.5t-89.5 -36.5t-88.5 36.5t-36.5 88.5t37 89.5t88 37.5z" />
    <glyph glyph-name="Egrave" unicode="&#xc8;" horiz-adv-x="1075" 
d="M397 831h410q61 0 92 -19.5t31 -84.5q0 -62 -27 -85.5t-96 -23.5h-410v-372q0 -33 29 -33h442q66 0 95.5 -21t29.5 -83t-27 -85.5t-98 -23.5h-518q-86 0 -134 45.5t-48 126.5v1030q0 191 194 191h510q66 0 93.5 -21t27.5 -84q0 -66 -28.5 -87t-92.5 -21h-440
q-15 0 -25 -11t-10 -28v-310zM534 1861l183 -143q55 -43 55 -88q0 -34 -25.5 -64t-62.5 -30q-38 0 -84 35l-201 143q-57 41 -57 86q0 44 28.5 74t69.5 30q39 0 94 -43z" />
    <glyph glyph-name="Iacute" unicode="&#xcd;" horiz-adv-x="565" 
d="M397 84q0 -52 -27.5 -76t-88.5 -24q-62 0 -87.5 23.5t-25.5 76.5v1229q0 51 24.5 73.5t90.5 22.5q65 0 89.5 -23t24.5 -73v-1229zM441 1714l-201 -143q-49 -35 -84 -35q-37 0 -62.5 30t-25.5 64q0 24 11.5 43t43.5 45l183 143q55 43 94 43q41 0 69.5 -30t28.5 -74
t-57 -86z" />
    <glyph glyph-name="Icircumflex" unicode="&#xce;" horiz-adv-x="565" 
d="M397 84q0 -52 -27.5 -76t-88.5 -24q-62 0 -87.5 23.5t-25.5 76.5v1229q0 51 24.5 73.5t90.5 22.5q65 0 89.5 -23t24.5 -73v-1229zM285 1675l-164 -104q-29 -19 -45 -26t-37 -7q-35 0 -60.5 29.5t-25.5 66.5q0 28 14 47.5t52 42.5l174 105q50 30 92 30q38 0 90 -30
l166 -97q42 -25 58 -44t16 -50q0 -36 -27.5 -68t-60.5 -32q-42 0 -86 33z" />
    <glyph glyph-name="Idieresis" unicode="&#xcf;" horiz-adv-x="565" 
d="M397 84q0 -52 -27.5 -76t-88.5 -24q-62 0 -87.5 23.5t-25.5 76.5v1229q0 51 24.5 73.5t90.5 22.5q65 0 89.5 -23t24.5 -73v-1229zM87 1792q52 0 89.5 -37.5t37.5 -89.5t-37.5 -88.5t-89.5 -36.5t-88.5 36.5t-36.5 88.5t37 89.5t88 37.5zM480 1792q52 0 89.5 -37.5
t37.5 -89.5t-37.5 -88.5t-89.5 -36.5t-88.5 36.5t-36.5 88.5t37 89.5t88 37.5z" />
    <glyph glyph-name="Igrave" unicode="&#xcc;" horiz-adv-x="565" 
d="M397 84q0 -52 -27.5 -76t-88.5 -24q-62 0 -87.5 23.5t-25.5 76.5v1229q0 51 24.5 73.5t90.5 22.5q65 0 89.5 -23t24.5 -73v-1229zM260 1861l183 -143q55 -43 55 -88q0 -34 -25.5 -64t-62.5 -30q-38 0 -84 35l-201 143q-57 41 -57 86q0 44 28.5 74t69.5 30q39 0 94 -43z
" />
    <glyph glyph-name="Oacute" unicode="&#xd3;" horiz-adv-x="1427" 
d="M717 -20q-289 0 -457 204t-168 514t168.5 512.5t456.5 202.5q287 0 452.5 -202.5t165.5 -512.5q0 -312 -165.5 -515t-452.5 -203zM717 1200q-184 0 -289.5 -146.5t-105.5 -355.5q0 -211 105.5 -358t289.5 -147q180 0 284.5 148t104.5 357q0 210 -104 356t-285 146z
M912 1714l-201 -143q-49 -35 -84 -35q-37 0 -62.5 30t-25.5 64q0 24 11.5 43t43.5 45l183 143q55 43 94 43q41 0 69.5 -30t28.5 -74t-57 -86z" />
    <glyph glyph-name="Ocircumflex" unicode="&#xd4;" horiz-adv-x="1427" 
d="M717 -20q-289 0 -457 204t-168 514t168.5 512.5t456.5 202.5q287 0 452.5 -202.5t165.5 -512.5q0 -312 -165.5 -515t-452.5 -203zM717 1200q-184 0 -289.5 -146.5t-105.5 -355.5q0 -211 105.5 -358t289.5 -147q180 0 284.5 148t104.5 357q0 210 -104 356t-285 146z
M715 1675l-164 -104q-29 -19 -45 -26t-37 -7q-35 0 -60.5 29.5t-25.5 66.5q0 28 14 47.5t52 42.5l174 105q50 30 92 30q38 0 90 -30l166 -97q42 -25 58 -44t16 -50q0 -36 -27.5 -68t-60.5 -32q-42 0 -86 33z" />
    <glyph glyph-name="Ograve" unicode="&#xd2;" horiz-adv-x="1427" 
d="M717 -20q-289 0 -457 204t-168 514t168.5 512.5t456.5 202.5q287 0 452.5 -202.5t165.5 -512.5q0 -312 -165.5 -515t-452.5 -203zM717 1200q-184 0 -289.5 -146.5t-105.5 -355.5q0 -211 105.5 -358t289.5 -147q180 0 284.5 148t104.5 357q0 210 -104 356t-285 146z
M649 1861l183 -143q55 -43 55 -88q0 -34 -25.5 -64t-62.5 -30q-38 0 -84 35l-201 143q-57 41 -57 86q0 44 28.5 74t69.5 30q39 0 94 -43z" />
    <glyph glyph-name="Uacute" unicode="&#xda;" horiz-adv-x="1333" 
d="M1169 453q0 -216 -139.5 -344.5t-365.5 -128.5q-225 0 -362.5 128t-137.5 345v856q0 53 28 76.5t87 23.5q114 0 114 -100v-848q0 -125 72.5 -196.5t198.5 -71.5q124 0 200 72t76 196v848q0 53 29 76.5t88 23.5q58 0 85 -23.5t27 -76.5v-856zM865 1714l-201 -143
q-49 -35 -84 -35q-37 0 -62.5 30t-25.5 64q0 24 11.5 43t43.5 45l183 143q55 43 94 43q41 0 69.5 -30t28.5 -74t-57 -86z" />
    <glyph glyph-name="Ucircumflex" unicode="&#xdb;" horiz-adv-x="1333" 
d="M1169 453q0 -216 -139.5 -344.5t-365.5 -128.5q-225 0 -362.5 128t-137.5 345v856q0 53 28 76.5t87 23.5q114 0 114 -100v-848q0 -125 72.5 -196.5t198.5 -71.5q124 0 200 72t76 196v848q0 53 29 76.5t88 23.5q58 0 85 -23.5t27 -76.5v-856zM667 1675l-164 -104
q-29 -19 -45 -26t-37 -7q-35 0 -60.5 29.5t-25.5 66.5q0 28 14 47.5t52 42.5l174 105q50 30 92 30q38 0 90 -30l166 -97q42 -25 58 -44t16 -50q0 -36 -27.5 -68t-60.5 -32q-42 0 -86 33z" />
    <glyph glyph-name="Ugrave" unicode="&#xd9;" horiz-adv-x="1333" 
d="M1169 453q0 -216 -139.5 -344.5t-365.5 -128.5q-225 0 -362.5 128t-137.5 345v856q0 53 28 76.5t87 23.5q114 0 114 -100v-848q0 -125 72.5 -196.5t198.5 -71.5q124 0 200 72t76 196v848q0 53 29 76.5t88 23.5q58 0 85 -23.5t27 -76.5v-856zM602 1861l183 -143
q55 -43 55 -88q0 -34 -25.5 -64t-62.5 -30q-38 0 -84 35l-201 143q-57 41 -57 86q0 44 28.5 74t69.5 30q39 0 94 -43z" />
    <glyph glyph-name="dotlessi" unicode="&#x131;" horiz-adv-x="512" 
d="M369 78q0 -94 -115 -94q-111 0 -111 94v893q0 47 25.5 68.5t87.5 21.5q61 0 87 -22t26 -68v-893z" />
    <glyph glyph-name="circumflex" unicode="&#x2c6;" horiz-adv-x="954" 
d="M477 1368l-164 -104q-29 -19 -45 -26t-37 -7q-35 0 -60.5 29.5t-25.5 66.5q0 28 14 47.5t52 42.5l174 105q50 30 92 30q38 0 90 -30l166 -97q42 -25 58 -44t16 -50q0 -36 -27.5 -68t-60.5 -32q-42 0 -86 33z" />
    <glyph glyph-name="tilde" unicode="&#x2dc;" horiz-adv-x="946" 
d="M602 1239q-69 0 -137 41q-69 41 -103 41q-27 0 -44 -11t-47 -42t-60 -31q-28 0 -51 25.5t-23 60.5q0 60 68 113t151 53q84 0 155 -41q45 -26 62.5 -33.5t36.5 -7.5q39 0 66 43q22 37 55 37q35 0 58.5 -21t23.5 -57q0 -60 -62 -115t-149 -55z" />
    <glyph glyph-name="macron" unicode="&#x2c9;" horiz-adv-x="930" 
d="M664 1235h-400q-60 0 -90.5 20.5t-30.5 79.5t30 80t91 21h400q63 0 92.5 -21t29.5 -80q0 -57 -30 -78.5t-92 -21.5z" />
    <glyph glyph-name="breve" unicode="&#x2d8;" horiz-adv-x="874" 
d="M436 1233q-117 0 -210 72.5t-93 154.5q0 33 29.5 60.5t66.5 27.5q43 0 70 -46q54 -95 137 -95q86 0 140 94q27 47 71 47q36 0 65 -28t29 -60q0 -84 -92.5 -155.5t-212.5 -71.5z" />
    <glyph glyph-name="dotaccent" unicode="&#x2d9;" horiz-adv-x="567" 
d="M283 1511q58 0 99.5 -41.5t41.5 -99.5q0 -57 -41.5 -98t-99.5 -41q-59 0 -99.5 40.5t-40.5 98.5t40.5 99.5t99.5 41.5z" />
    <glyph glyph-name="ring" unicode="&#x2da;" horiz-adv-x="737" 
d="M369 1233q-93 0 -159.5 67t-66.5 158t66.5 158t159.5 67q92 0 158.5 -66.5t66.5 -158.5t-66.5 -158.5t-158.5 -66.5zM369 1559q-42 0 -71.5 -30t-29.5 -71t29.5 -70.5t71.5 -29.5q41 0 70.5 29.5t29.5 70.5t-29.5 71t-70.5 30z" />
    <glyph glyph-name="cedilla" unicode="&#xb8;" horiz-adv-x="885" 
d="M393 20h117l-39 -96q22 4 41 4q76 0 116 -42t40 -119q0 -91 -63.5 -152t-172.5 -61q-91 0 -137.5 24t-46.5 60q0 30 16.5 53.5t42.5 23.5q14 0 49 -11t70 -11q33 0 53.5 19.5t20.5 47.5q0 62 -72 62q-12 0 -30 -1t-36 -1q-55 0 -55 51q0 22 29 66z" />
    <glyph glyph-name="hungarumlaut" unicode="&#x2dd;" horiz-adv-x="997" 
d="M850 1423l-111 -143q-22 -28 -41 -41.5t-47 -13.5q-33 0 -60.5 26.5t-27.5 63.5q0 43 31 84l100 135q28 37 46.5 51t47.5 14q38 0 69.5 -26t31.5 -66q0 -34 -39 -84zM453 1423l-111 -143q-23 -29 -41.5 -42t-46.5 -13q-33 0 -60.5 26.5t-27.5 63.5q0 43 31 84l100 135
q28 38 46.5 51.5t47.5 13.5q38 0 69.5 -26t31.5 -66q0 -31 -39 -84z" />
    <glyph glyph-name="ogonek" unicode="&#x2db;" horiz-adv-x="885" 
d="M389 41h156q-61 -68 -91 -125t-30 -102q0 -30 18.5 -49t46.5 -19q30 0 66 18q35 17 51 17q28 0 46 -23.5t18 -58.5q0 -41 -65.5 -78t-164.5 -37q-90 0 -147 49.5t-57 130.5q0 63 38 132.5t115 144.5z" />
    <glyph glyph-name="caron" unicode="&#x2c7;" horiz-adv-x="954" 
d="M477 1417l164 105q50 32 82 32q35 0 60.5 -29.5t25.5 -66.5q0 -31 -16 -50.5t-50 -39.5l-174 -104q-28 -17 -45.5 -24t-46.5 -7q-38 0 -90 31l-166 96q-30 17 -52 38t-22 56q0 37 27.5 68.5t61.5 31.5q37 0 86 -32z" />
    <glyph glyph-name="Lslash" unicode="&#x141;" horiz-adv-x="1001" 
d="M397 854l178 94q47 25 74 25q33 0 59.5 -36.5t26.5 -76.5q0 -25 -15.5 -46t-62.5 -46l-260 -135v-387q0 -33 29 -33h422q67 0 96 -22t29 -82q0 -66 -30 -87.5t-95 -21.5h-496q-86 0 -135 45.5t-49 126.5v342l-43 -22q-45 -23 -74 -23q-33 0 -57.5 32.5t-24.5 80.5
q0 49 70 86l129 67v568q0 56 27 81t88 25q63 0 88.5 -24t25.5 -82v-449z" />
    <glyph glyph-name="lslash" unicode="&#x142;" horiz-adv-x="512" 
d="M369 936l63 35q40 22 64 22q33 0 62.5 -37.5t29.5 -74.5q0 -29 -18.5 -48.5t-55.5 -39.5l-145 -78v-637q0 -94 -115 -94q-111 0 -111 94v524l-64 -34q-23 -11 -34 -14t-29 -3q-33 0 -57.5 32.5t-24.5 82.5t70 86l139 69v625q0 48 26 69t87 21q60 0 86.5 -21.5t26.5 -68.5
v-510z" />
    <glyph glyph-name="Scaron" unicode="&#x160;" horiz-adv-x="1034" 
d="M514 -20q-167 0 -305.5 67t-138.5 143q0 46 32.5 83.5t67.5 37.5q23 0 41.5 -8t52.5 -33q110 -77 250 -77q104 0 162.5 50.5t58.5 141.5q0 73 -47.5 125.5t-206.5 99.5q-227 69 -308 166t-81 238q0 179 120.5 289t309.5 110q183 0 304.5 -70t121.5 -147q0 -43 -32.5 -82
t-73.5 -39q-30 0 -67 26q-80 58 -128 78.5t-117 20.5q-100 0 -154 -46.5t-54 -129.5q0 -51 25 -89t69 -61.5t135 -52.5q226 -67 320 -168.5t94 -261.5q0 -188 -124 -299.5t-327 -111.5zM536 1724l164 105q50 32 82 32q35 0 60.5 -29.5t25.5 -66.5q0 -31 -16 -50.5t-50 -39.5
l-174 -104q-28 -17 -45.5 -24t-46.5 -7q-38 0 -90 31l-166 96q-30 17 -52 38t-22 56q0 37 27.5 68.5t61.5 31.5q37 0 86 -32z" />
    <glyph glyph-name="scaron" unicode="&#x161;" horiz-adv-x="936" 
d="M457 -20q-128 0 -212.5 30t-125.5 62.5t-41 77.5q0 33 29 66t69 33q26 0 74 -29q42 -23 103 -39.5t110 -16.5q74 0 117 33t43 96q0 40 -39.5 67.5t-139.5 51.5q-100 23 -159.5 44.5t-104 60t-68.5 93.5t-24 127q0 151 108 239.5t287 88.5q137 0 244 -49.5t107 -104.5
q0 -44 -28.5 -77.5t-70.5 -33.5q-32 0 -68 23q-60 33 -99.5 45t-102.5 12q-69 0 -109.5 -37.5t-40.5 -88.5q0 -39 20.5 -64.5t52 -38t122.5 -33.5q211 -49 275.5 -124.5t64.5 -188.5q0 -141 -110.5 -233t-282.5 -92zM483 1417l164 105q50 32 82 32q35 0 60.5 -29.5
t25.5 -66.5q0 -31 -16 -50.5t-50 -39.5l-174 -104q-28 -17 -45.5 -24t-46.5 -7q-38 0 -90 31l-166 96q-30 17 -52 38t-22 56q0 37 27.5 68.5t61.5 31.5q37 0 86 -32z" />
    <glyph glyph-name="Zcaron" unicode="&#x17d;" horiz-adv-x="1083" 
d="M313 229h578q117 0 117 -114q0 -115 -117 -115h-703q-61 0 -98 33.5t-37 89.5q0 90 63.5 218.5t205 290.5t251.5 275q177 180 205 256h-561q-119 0 -119 113q0 117 119 117h657q76 0 116 -35.5t40 -100.5q0 -92 -52 -188t-275 -333q-216 -229 -294 -339.5t-96 -167.5z
M573 1724l164 105q50 32 82 32q35 0 60.5 -29.5t25.5 -66.5q0 -31 -16 -50.5t-50 -39.5l-174 -104q-28 -17 -45.5 -24t-46.5 -7q-38 0 -90 31l-166 96q-30 17 -52 38t-22 56q0 37 27.5 68.5t61.5 31.5q37 0 86 -32z" />
    <glyph glyph-name="zcaron" unicode="&#x17e;" horiz-adv-x="874" 
d="M264 195h461q61 0 87 -21.5t26 -71.5q0 -102 -113 -102h-596q-59 0 -93 34t-34 91q0 81 85.5 210.5t270.5 282.5q170 139 224 232h-418q-113 0 -113 98q0 96 113 96h571q73 0 100 -22.5t27 -73.5q0 -85 -86 -203t-231 -243q-221 -196 -281 -307zM462 1417l164 105
q50 32 82 32q35 0 60.5 -29.5t25.5 -66.5q0 -31 -16 -50.5t-50 -39.5l-174 -104q-28 -17 -45.5 -24t-46.5 -7q-38 0 -90 31l-166 96q-30 17 -52 38t-22 56q0 37 27.5 68.5t61.5 31.5q37 0 86 -32z" />
    <glyph glyph-name="brokenbar" unicode="&#xa6;" horiz-adv-x="504" 
d="M358 905q0 -102 -106 -102q-107 0 -107 102v635q0 54 25.5 78t79.5 24q57 0 82.5 -24t25.5 -78v-635zM358 -373q0 -102 -106 -102q-107 0 -107 102v637q0 54 25.5 77.5t79.5 23.5q57 0 82.5 -23.5t25.5 -77.5v-637z" />
    <glyph glyph-name="Eth" unicode="&#xd0;" horiz-adv-x="1382" 
d="M350 0q-87 0 -134.5 45t-47.5 127v446h-68q-69 0 -88.5 26t-19.5 79t21.5 75.5t86.5 22.5h68v381q0 95 48.5 143t145.5 48h277q301 0 476 -184.5t175 -489.5q0 -329 -173.5 -524t-477.5 -195h-289zM397 618v-372q0 -33 29 -33h201q207 0 320.5 131.5t113.5 366.5
q0 220 -114 344.5t-320 124.5h-195q-15 0 -25 -11t-10 -28v-320h234q64 0 89 -20t25 -78q0 -57 -26 -81t-88 -24h-234z" />
    <glyph glyph-name="eth" unicode="&#xf0;" horiz-adv-x="1100" 
d="M686 1317q175 -149 262.5 -337t87.5 -415q0 -283 -127 -434t-358 -151q-225 0 -351 145.5t-126 386.5q0 234 120.5 375t315.5 141q119 0 215 -86q-39 70 -94 133.5t-127 120.5l-131 -84q-42 -27 -68 -27q-35 0 -62.5 33.5t-27.5 71.5q0 40 43 65l90 58q-54 30 -115 53
q-47 20 -47 66q0 43 30 73.5t71 30.5q43 0 104.5 -24t140.5 -72l101 69q40 27 76 27q30 0 61 -33.5t31 -68.5q0 -40 -51 -74zM559 825q-123 0 -190.5 -84t-67.5 -231q0 -154 64 -240t186 -86q127 0 192.5 89t65.5 251q0 147 -64.5 224t-185.5 77z" />
    <glyph glyph-name="Yacute" unicode="&#xdd;" horiz-adv-x="1053" 
d="M629 537v-453q0 -53 -28 -76.5t-89 -23.5q-62 0 -87.5 23.5t-25.5 76.5v453q-148 148 -253 375.5t-105 396.5q0 53 25 76.5t92 23.5q58 0 82 -20.5t28 -67.5q22 -196 80 -334.5t166 -259.5q116 131 183 276.5t85 305.5q7 56 31 78t84 22q63 0 89 -23.5t26 -76.5
q0 -167 -110.5 -388.5t-272.5 -383.5zM754 1714l-201 -143q-49 -35 -84 -35q-37 0 -62.5 30t-25.5 64q0 24 11.5 43t43.5 45l183 143q55 43 94 43q41 0 69.5 -30t28.5 -74t-57 -86z" />
    <glyph glyph-name="yacute" unicode="&#xfd;" horiz-adv-x="1024" 
d="M393 37q-111 203 -188.5 395t-121.5 372l-17 64q-15 51 -15 107q0 41 33 64.5t84 23.5q43 0 65.5 -15t32.5 -63q32 -177 92 -364t148 -383q103 224 168.5 412.5t93.5 340.5q15 72 92 72q51 0 84 -23.5t33 -62.5q0 -79 -89 -349.5t-246.5 -549t-300.5 -395.5t-261 -117
q-40 0 -64 33.5t-24 81.5q0 32 20.5 47t65.5 28q78 25 166.5 101t148.5 180zM670 1407l-201 -143q-49 -35 -84 -35q-37 0 -62.5 30t-25.5 64q0 24 11.5 43t43.5 45l183 143q55 43 94 43q41 0 69.5 -30t28.5 -74t-57 -86z" />
    <glyph glyph-name="Thorn" unicode="&#xde;" horiz-adv-x="1108" 
d="M168 1313q0 51 24.5 73.5t90.5 22.5q65 0 89.5 -23t24.5 -73v-160h211q215 0 335 -118.5t120 -332.5q0 -195 -129 -317.5t-340 -122.5h-197v-178q0 -52 -27.5 -76t-88.5 -24t-87 23t-26 75v1231zM397 475h205q106 0 169 63.5t63 163.5q0 119 -57.5 178.5t-172.5 59.5
h-207v-465z" />
    <glyph glyph-name="thorn" unicode="&#xfe;" horiz-adv-x="1139" 
d="M369 930q38 64 106.5 99.5t153.5 35.5q199 0 317.5 -148t118.5 -393q0 -250 -114 -397t-302 -147q-203 0 -280 149v-473q0 -44 -30 -66t-89 -22q-62 0 -84.5 23t-22.5 71v1780q0 48 26.5 71t88.5 23q60 0 85.5 -22.5t25.5 -71.5v-512zM369 438q0 -108 60 -181t165 -73
q115 0 179.5 90t64.5 250q0 155 -64 245.5t-180 90.5q-102 0 -163.5 -71.5t-61.5 -182.5v-168z" />
    <glyph glyph-name="minus" unicode="&#x2212;" horiz-adv-x="1208" 
d="M1001 422h-794q-71 0 -90 27t-19 77q0 56 23.5 77.5t85.5 21.5h794q60 0 84.5 -18.5t24.5 -80.5t-25.5 -83t-83.5 -21z" />
    <glyph glyph-name="multiply" unicode="&#xd7;" horiz-adv-x="1085" 
d="M397 530l-243 240q-45 44 -45 76q0 33 37.5 72.5t74.5 39.5q31 0 76 -45l244 -241l243 241q45 45 78 45t73 -37t40 -73q0 -29 -47 -78l-244 -240l250 -245q41 -40 41 -72q0 -34 -39.5 -72.5t-73.5 -38.5q-30 0 -78 45l-243 240l-244 -240q-46 -45 -78 -45q-33 0 -71.5 39
t-38.5 72t45 78z" />
    <glyph glyph-name="onesuperior" unicode="&#xb9;" 
d="M313 1229l-61 -37q-48 -29 -76 -29q-25 0 -44 24.5t-19 53.5q0 40 51 68l149 77q31 16 46 21.5t40 5.5q84 0 84 -90v-606h88q49 0 66.5 -17t17.5 -55q0 -42 -20.5 -59t-65.5 -17h-356q-49 0 -67.5 17.5t-18.5 56.5t18.5 56.5t67.5 17.5h100v512z" />
    <glyph glyph-name="twosuperior" unicode="&#xb2;" 
d="M289 729h293q46 0 66 -18t20 -62t-20 -62t-66 -18h-320q-69 0 -105 34.5t-36 94.5q0 79 58 148.5t171 144.5q84 56 115 90.5t31 85.5q0 38 -24.5 63t-65.5 25q-49 0 -95 -32q-41 -28 -59.5 -36.5t-36.5 -8.5q-27 0 -49.5 27.5t-22.5 58.5q0 48 84 98.5t181 50.5
q128 0 198 -65.5t70 -182.5q0 -80 -54 -151.5t-161 -134.5q-100 -62 -135.5 -94t-36.5 -56z" />
    <glyph glyph-name="threesuperior" unicode="&#xb3;" 
d="M453 1237h-234q-42 0 -60 17t-18 59q0 80 78 80h328q52 0 82 -26.5t30 -74.5q0 -49 -47 -100l-127 -131q93 -17 142 -78.5t49 -159.5q0 -115 -85 -198.5t-222 -83.5q-107 0 -180.5 41t-73.5 88q0 31 23 57.5t50 26.5q21 0 45 -16q72 -50 134 -50q59 0 94 36t35 95
t-36.5 89t-109.5 30q-36 0 -57 17.5t-21 50.5q0 16 7 30.5t32 44.5z" />
    <glyph glyph-name="onehalf" unicode="&#xbd;" horiz-adv-x="1851" 
d="M313 1229l-61 -37q-48 -29 -76 -29q-25 0 -44 24.5t-19 53.5q0 40 51 68l149 77q31 16 46 21.5t40 5.5q84 0 84 -90v-606h88q49 0 66.5 -17t17.5 -55q0 -42 -20.5 -59t-65.5 -17h-356q-49 0 -67.5 17.5t-18.5 56.5t18.5 56.5t67.5 17.5h100v512zM1436 1264l-823 -1221
q-42 -63 -86 -63q-40 0 -71.5 26t-31.5 62q0 30 27 69l831 1229q32 47 76 47t73.5 -26t29.5 -58q0 -29 -25 -65zM1362 160h293q46 0 66 -18t20 -62t-20 -62t-66 -18h-320q-69 0 -105 34.5t-36 94.5q0 79 58 148.5t171 144.5q84 56 115 90.5t31 85.5q0 38 -24.5 63t-65.5 25
q-49 0 -95 -32q-41 -28 -59.5 -36.5t-36.5 -8.5q-27 0 -49.5 27.5t-22.5 58.5q0 48 84 98.5t181 50.5q128 0 198 -65.5t70 -182.5q0 -80 -54 -151.5t-161 -134.5q-100 -62 -135.5 -94t-36.5 -56z" />
    <glyph glyph-name="onequarter" unicode="&#xbc;" horiz-adv-x="1851" 
d="M313 1229l-61 -37q-48 -29 -76 -29q-25 0 -44 24.5t-19 53.5q0 40 51 68l149 77q31 16 46 21.5t40 5.5q84 0 84 -90v-606h88q49 0 66.5 -17t17.5 -55q0 -42 -20.5 -59t-65.5 -17h-356q-49 0 -67.5 17.5t-18.5 56.5t18.5 56.5t67.5 17.5h100v512zM1427 1264l-823 -1221
q-42 -63 -86 -63q-40 0 -71.5 26t-31.5 62q0 30 27 69l831 1229q32 47 76 47t73.5 -26t29.5 -58q0 -29 -25 -65zM1637 160v-90q0 -82 -84 -82q-48 0 -67 20t-19 62v90h-273q-57 0 -91 30.5t-34 83.5q0 40 23 84l217 428q28 56 74 56q38 0 64 -23t26 -55q0 -26 -25 -70
l-190 -381h209v254q0 42 19 60t67 18q45 0 64.5 -18t19.5 -60v-252h32q45 0 63.5 -16t18.5 -59q0 -46 -18 -63t-64 -17h-32z" />
    <glyph glyph-name="threequarters" unicode="&#xbe;" horiz-adv-x="1851" 
d="M453 1237h-234q-42 0 -60 17t-18 59q0 80 78 80h328q52 0 82 -26.5t30 -74.5q0 -49 -47 -100l-127 -131q93 -17 142 -78.5t49 -159.5q0 -115 -85 -198.5t-222 -83.5q-107 0 -180.5 41t-73.5 88q0 31 23 57.5t50 26.5q21 0 45 -16q72 -50 134 -50q59 0 94 36t35 95
t-36.5 89t-109.5 30q-36 0 -57 17.5t-21 50.5q0 16 7 30.5t32 44.5zM1437 1264l-823 -1221q-42 -63 -86 -63q-40 0 -71.5 26t-31.5 62q0 30 27 69l831 1229q32 47 76 47t73.5 -26t29.5 -58q0 -29 -25 -65zM1659 160v-90q0 -82 -84 -82q-48 0 -67 20t-19 62v90h-273
q-57 0 -91 30.5t-34 83.5q0 40 23 84l217 428q28 56 74 56q38 0 64 -23t26 -55q0 -26 -25 -70l-190 -381h209v254q0 42 19 60t67 18q45 0 64.5 -18t19.5 -60v-252h32q45 0 63.5 -16t18.5 -59q0 -46 -18 -63t-64 -17h-32z" />
    <glyph glyph-name="uni00AD" unicode="&#xad;" horiz-adv-x="750" 
d="M575 448h-401q-113 0 -113 107q0 106 113 106h401q113 0 113 -106q0 -107 -113 -107z" />
    <glyph glyph-name="uni00AF" unicode="&#xaf;" horiz-adv-x="1024" 
d="M1020 1565h-1016q-84 0 -84 100q0 98 84 98h1016q84 0 84 -98q0 -100 -84 -100z" />
    <glyph glyph-name="uni00B7" unicode="&#xb7;" horiz-adv-x="494" 
d="M246 496q-64 0 -104 40t-40 103q0 64 39.5 104.5t104.5 40.5q63 0 104 -41t41 -104q0 -61 -41 -102t-104 -41z" />
    <glyph glyph-name="uni2044" unicode="&#x2044;" horiz-adv-x="279" 
d="M639 1264l-823 -1221q-42 -63 -86 -63q-40 0 -71.5 26t-31.5 62q0 30 27 69l831 1229q32 47 76 47t73.5 -26t29.5 -58q0 -29 -25 -65z" />
    <glyph glyph-name="currency" unicode="&#xa4;" horiz-adv-x="1085" 
d="M748 174q-90 -49 -197 -49q-117 0 -199 49l-59 -58q-39 -39 -82 -39q-44 0 -76.5 33t-32.5 69q0 35 39 76l64 62q-55 94 -55 201q0 103 57 199l-66 61q-39 38 -39 78q0 35 32.5 69t74.5 34q41 0 86 -39l61 -60q94 51 195 51q112 0 194 -51l69 64q35 35 76 35
q40 0 75 -30.5t35 -72.5q0 -36 -38 -76l-67 -63q57 -102 57 -199q0 -107 -55 -199q20 -15 61.5 -58.5t41.5 -83.5q0 -35 -32.5 -67.5t-73.5 -32.5q-46 0 -86 37zM551 311q82 0 140.5 60.5t58.5 146.5t-58.5 146.5t-140.5 60.5t-140.5 -60.5t-58.5 -146.5t58.5 -146.5
t140.5 -60.5z" />
    <glyph glyph-name="foursuperior" unicode="&#x2074;" 
d="M625 713v-90q0 -82 -84 -82q-48 0 -67 20t-19 62v90h-273q-57 0 -91 30.5t-34 83.5q0 40 23 84l217 428q28 56 74 56q38 0 64 -23t26 -55q0 -26 -25 -70l-190 -381h209v254q0 42 19 60t67 18q45 0 64.5 -18t19.5 -60v-252h32q45 0 63.5 -16t18.5 -59q0 -46 -18 -63
t-64 -17h-32z" />
    <glyph glyph-name="uniF001" unicode="&#xf001;" horiz-adv-x="1159" 
d="M422 854v-776q0 -48 -26 -71t-87 -23t-86.5 22.5t-25.5 71.5v776h-68q-55 0 -78.5 21.5t-23.5 74.5q0 52 22.5 73t79.5 21h68v76q0 194 121 305t323 111q110 0 224 -41.5t114 -108.5q0 -44 -28 -82t-64 -38q-27 0 -60 15q-118 50 -198 50q-100 0 -153.5 -60t-53.5 -173
v-54h493q101 0 101 -90v-876q0 -94 -115 -94q-110 0 -110 94v776h-369z" />
    <glyph glyph-name="uniF002" unicode="&#xf002;" horiz-adv-x="1159" 
d="M422 854v-776q0 -48 -26 -71t-87 -23t-86.5 22.5t-25.5 71.5v776h-68q-55 0 -78.5 21.5t-23.5 74.5q0 52 22.5 73t79.5 21h68v99q0 189 114.5 291t319.5 102q113 0 215.5 -19.5t136 -52t33.5 -82.5v-1304q0 -94 -115 -94q-110 0 -110 94v1251q-72 19 -156 19
q-107 0 -160 -51t-53 -152v-101h125q56 0 77 -21.5t21 -72.5t-22 -73.5t-76 -22.5h-125z" />
    <glyph glyph-name="Amacron" unicode="&#x100;" horiz-adv-x="1235" 
d="M879 381h-514q-36 -109 -95 -311q-11 -48 -31.5 -67t-60.5 -19q-64 0 -100.5 23t-36.5 61q0 39 28.5 144.5t86.5 276.5q57 171 113 319.5t110 275.5q108 254 144.5 289.5t103.5 35.5q62 0 93 -31q44 -43 165 -341q107 -264 220 -618q89 -281 89 -341q0 -45 -39 -69.5
t-102 -24.5q-33 0 -52.5 16.5t-33.5 69.5q-33 130 -88 311zM623 1124q-90 -207 -195 -530h387q-91 305 -192 530zM811 1542h-400q-60 0 -90.5 20.5t-30.5 79.5t30 80t91 21h400q63 0 92.5 -21t29.5 -80q0 -57 -30 -78.5t-92 -21.5z" />
    <glyph glyph-name="amacron" unicode="&#x101;" horiz-adv-x="1139" 
d="M770 131q-82 -151 -281 -151q-187 0 -301 147t-114 397q0 246 118.5 393.5t317.5 147.5q172 0 260 -135v37q0 94 115 94q58 0 84 -22.5t26 -71.5v-889q0 -50 -24 -72t-90 -22q-111 0 -111 88v59zM770 606q0 110 -61.5 182t-163.5 72q-116 0 -180 -91t-64 -245
q0 -161 65 -250.5t179 -89.5q104 0 164.5 73t60.5 181v168zM748 1235h-400q-60 0 -90.5 20.5t-30.5 79.5t30 80t91 21h400q63 0 92.5 -21t29.5 -80q0 -57 -30 -78.5t-92 -21.5z" />
    <glyph glyph-name="Abreve" unicode="&#x102;" horiz-adv-x="1235" 
d="M879 381h-514q-36 -109 -95 -311q-11 -48 -31.5 -67t-60.5 -19q-64 0 -100.5 23t-36.5 61q0 39 28.5 144.5t86.5 276.5q57 171 113 319.5t110 275.5q108 254 144.5 289.5t103.5 35.5q62 0 93 -31q44 -43 165 -341q107 -264 220 -618q89 -281 89 -341q0 -45 -39 -69.5
t-102 -24.5q-33 0 -52.5 16.5t-33.5 69.5q-33 130 -88 311zM623 1124q-90 -207 -195 -530h387q-91 305 -192 530zM620 1540q-117 0 -210 72.5t-93 154.5q0 33 29.5 60.5t66.5 27.5q43 0 70 -46q54 -95 137 -95q86 0 140 94q27 47 71 47q36 0 65 -28t29 -60
q0 -84 -92.5 -155.5t-212.5 -71.5z" />
    <glyph glyph-name="abreve" unicode="&#x103;" horiz-adv-x="1139" 
d="M770 131q-82 -151 -281 -151q-187 0 -301 147t-114 397q0 246 118.5 393.5t317.5 147.5q172 0 260 -135v37q0 94 115 94q58 0 84 -22.5t26 -71.5v-889q0 -50 -24 -72t-90 -22q-111 0 -111 88v59zM770 606q0 110 -61.5 182t-163.5 72q-116 0 -180 -91t-64 -245
q0 -161 65 -250.5t179 -89.5q104 0 164.5 73t60.5 181v168zM569 1233q-117 0 -210 72.5t-93 154.5q0 33 29.5 60.5t66.5 27.5q43 0 70 -46q54 -95 137 -95q86 0 140 94q27 47 71 47q36 0 65 -28t29 -60q0 -84 -92.5 -155.5t-212.5 -71.5z" />
    <glyph glyph-name="Aogonek" unicode="&#x104;" horiz-adv-x="1235" 
d="M993 6q-16 18 -26 64q-33 130 -88 311h-514q-13 -41 -31 -99.5t-64 -211.5q-11 -48 -31.5 -67t-60.5 -19q-64 0 -100.5 23t-36.5 61q0 32 22.5 118t92.5 303q115 342 223 595.5t144.5 289t103.5 35.5q62 0 93 -31q44 -43 165 -341q107 -264 220 -618q44 -141 66.5 -226
t22.5 -115q0 -38 -32 -67t-65.5 -88.5t-33.5 -108.5q0 -30 18.5 -49t46.5 -19q30 0 66 18q35 17 51 17q28 0 46 -23.5t18 -58.5q0 -41 -65.5 -78t-164.5 -37q-90 0 -147.5 49t-57.5 131q0 60 29.5 120.5t89.5 121.5zM623 1124q-90 -207 -195 -530h387q-91 305 -192 530z" />
    <glyph glyph-name="aogonek" unicode="&#x105;" horiz-adv-x="1139" 
d="M803 0q-33 19 -33 72v59q-82 -151 -281 -151q-187 0 -301 147t-114 397q0 246 118.5 393.5t317.5 147.5q172 0 260 -135v37q0 94 115 94q58 0 84 -22.5t26 -71.5v-889q0 -45 -26 -76q-45 -51 -67.5 -98t-22.5 -90q0 -31 18.5 -49.5t46.5 -18.5q30 0 65 18q36 17 52 17
q27 0 45 -23t18 -59q0 -41 -65.5 -78t-163.5 -37q-91 0 -148 49.5t-57 130.5q0 57 28 116t85 120zM770 606q0 110 -61.5 182t-163.5 72q-116 0 -180 -91t-64 -245q0 -161 65 -250.5t179 -89.5q104 0 164.5 73t60.5 181v168z" />
    <glyph glyph-name="Cacute" unicode="&#x106;" horiz-adv-x="1233" 
d="M713 -20q-288 0 -454.5 189t-166.5 517q0 334 181 530.5t464 196.5q94 0 177.5 -20.5t148.5 -63t85.5 -69.5t20.5 -60q0 -41 -33 -78t-71 -37q-37 0 -88 35q-61 46 -118 63t-130 17q-180 0 -293.5 -137.5t-113.5 -372.5q0 -242 107 -369.5t308 -127.5q74 0 133.5 23
t144.5 80q32 21 68 21q39 0 70 -33.5t31 -68.5q0 -83 -146 -159t-325 -76zM926 1714l-201 -143q-49 -35 -84 -35q-37 0 -62.5 30t-25.5 64q0 24 11.5 43t43.5 45l183 143q55 43 94 43q41 0 69.5 -30t28.5 -74t-57 -86z" />
    <glyph glyph-name="cacute" unicode="&#x107;" horiz-adv-x="987" 
d="M940 864q0 -38 -33.5 -73t-72.5 -35q-43 0 -86 37q-84 67 -189 67q-118 0 -188 -88t-70 -248q0 -155 72 -247.5t186 -92.5q101 0 191 70q46 33 81 33q44 0 77.5 -34t33.5 -69q0 -71 -112 -137.5t-275 -66.5q-214 0 -347.5 151t-133.5 393q0 251 135 396t356 145
q151 0 263 -65.5t112 -135.5zM768 1407l-201 -143q-49 -35 -84 -35q-37 0 -62.5 30t-25.5 64q0 24 11.5 43t43.5 45l183 143q55 43 94 43q41 0 69.5 -30t28.5 -74t-57 -86z" />
    <glyph glyph-name="Ccaron" unicode="&#x10c;" horiz-adv-x="1233" 
d="M713 -20q-288 0 -454.5 189t-166.5 517q0 334 181 530.5t464 196.5q94 0 177.5 -20.5t148.5 -63t85.5 -69.5t20.5 -60q0 -41 -33 -78t-71 -37q-37 0 -88 35q-61 46 -118 63t-130 17q-180 0 -293.5 -137.5t-113.5 -372.5q0 -242 107 -369.5t308 -127.5q74 0 133.5 23
t144.5 80q32 21 68 21q39 0 70 -33.5t31 -68.5q0 -83 -146 -159t-325 -76zM708 1724l164 105q50 32 82 32q35 0 60.5 -29.5t25.5 -66.5q0 -31 -16 -50.5t-50 -39.5l-174 -104q-28 -17 -45.5 -24t-46.5 -7q-38 0 -90 31l-166 96q-30 17 -52 38t-22 56q0 37 27.5 68.5
t61.5 31.5q37 0 86 -32z" />
    <glyph glyph-name="ccaron" unicode="&#x10d;" horiz-adv-x="987" 
d="M940 864q0 -38 -33.5 -73t-72.5 -35q-43 0 -86 37q-84 67 -189 67q-118 0 -188 -88t-70 -248q0 -155 72 -247.5t186 -92.5q101 0 191 70q46 33 81 33q44 0 77.5 -34t33.5 -69q0 -71 -112 -137.5t-275 -66.5q-214 0 -347.5 151t-133.5 393q0 251 135 396t356 145
q151 0 263 -65.5t112 -135.5zM553 1417l164 105q50 32 82 32q35 0 60.5 -29.5t25.5 -66.5q0 -31 -16 -50.5t-50 -39.5l-174 -104q-28 -17 -45.5 -24t-46.5 -7q-38 0 -90 31l-166 96q-30 17 -52 38t-22 56q0 37 27.5 68.5t61.5 31.5q37 0 86 -32z" />
    <glyph glyph-name="Dcaron" unicode="&#x10e;" horiz-adv-x="1382" 
d="M350 0q-87 0 -134.5 45t-47.5 127v1030q0 95 48.5 143t145.5 48h277q301 0 476 -184.5t175 -489.5q0 -329 -173.5 -524t-477.5 -195h-289zM397 246q0 -33 29 -33h201q207 0 320.5 131.5t113.5 366.5q0 220 -114 344.5t-320 124.5h-195q-15 0 -25 -11t-10 -28v-895z
M649 1724l164 105q50 32 82 32q35 0 60.5 -29.5t25.5 -66.5q0 -31 -16 -50.5t-50 -39.5l-174 -104q-28 -17 -45.5 -24t-46.5 -7q-38 0 -90 31l-166 96q-30 17 -52 38t-22 56q0 37 27.5 68.5t61.5 31.5q37 0 86 -32z" />
    <glyph glyph-name="dcaron" unicode="&#x10f;" horiz-adv-x="1303" 
d="M770 127q-82 -147 -281 -147q-187 0 -301 147t-114 397q0 246 118.5 393.5t317.5 147.5q85 0 153.5 -35.5t106.5 -99.5v512q0 48 26.5 71t88.5 23q60 0 85 -23t25 -71v-1364q0 -49 -23.5 -71.5t-84.5 -22.5q-117 0 -117 88v55zM770 606q0 110 -61.5 182t-163.5 72
q-116 0 -180 -91t-64 -245q0 -159 65 -249.5t179 -90.5q104 0 164.5 73t60.5 181v168zM1196 1122q-43 0 -70 23.5t-27 60.5q0 17 14 56q15 43 15 167q0 107 111 107q104 0 104 -113q0 -121 -41.5 -211t-105.5 -90z" />
    <glyph glyph-name="Dcroat" unicode="&#x110;" horiz-adv-x="1382" 
d="M350 0q-87 0 -134.5 45t-47.5 127v446h-68q-69 0 -88.5 26t-19.5 79t21.5 75.5t86.5 22.5h68v381q0 95 48.5 143t145.5 48h277q301 0 476 -184.5t175 -489.5q0 -329 -173.5 -524t-477.5 -195h-289zM397 618v-372q0 -33 29 -33h201q207 0 320.5 131.5t113.5 366.5
q0 220 -114 344.5t-320 124.5h-195q-15 0 -25 -11t-10 -28v-320h234q64 0 89 -20t25 -78q0 -57 -26 -81t-88 -24h-234z" />
    <glyph glyph-name="dcroat" unicode="&#x111;" horiz-adv-x="1139" 
d="M995 1157v-1079q0 -49 -23.5 -71.5t-84.5 -22.5q-117 0 -117 88v55q-82 -147 -281 -147q-187 0 -301 147t-114 397q0 246 118.5 393.5t317.5 147.5q85 0 153.5 -35.5t106.5 -99.5v227h-250q-110 0 -110 103q0 53 26 77.5t84 24.5h250v80q0 48 26.5 71t88.5 23
q60 0 85 -23t25 -71v-80h78q58 0 84.5 -24.5t26.5 -77.5q0 -103 -111 -103h-78zM770 606q0 110 -61.5 182t-163.5 72q-116 0 -180 -91t-64 -245q0 -159 65 -249.5t179 -90.5q104 0 164.5 73t60.5 181v168z" />
    <glyph glyph-name="Emacron" unicode="&#x112;" horiz-adv-x="1075" 
d="M397 831h410q61 0 92 -19.5t31 -84.5q0 -62 -27 -85.5t-96 -23.5h-410v-372q0 -33 29 -33h442q66 0 95.5 -21t29.5 -83t-27 -85.5t-98 -23.5h-518q-86 0 -134 45.5t-48 126.5v1030q0 191 194 191h510q66 0 93.5 -21t27.5 -84q0 -66 -28.5 -87t-92.5 -21h-440
q-15 0 -25 -11t-10 -28v-310zM791 1542h-400q-60 0 -90.5 20.5t-30.5 79.5t30 80t91 21h400q63 0 92.5 -21t29.5 -80q0 -57 -30 -78.5t-92 -21.5z" />
    <glyph glyph-name="emacron" unicode="&#x113;" horiz-adv-x="1059" 
d="M307 440q20 -135 86.5 -200.5t179.5 -65.5q69 0 111 14.5t107 55.5q36 22 65 22q37 0 67.5 -30t30.5 -62q0 -72 -119.5 -133t-265.5 -61q-229 0 -361 144.5t-132 389.5q0 251 128 401t351 150q200 0 321 -129t121 -342q0 -81 -32 -117.5t-99 -36.5h-559zM770 617
q-8 128 -66.5 192.5t-148.5 64.5q-96 0 -161 -62.5t-83 -194.5h459zM758 1235h-400q-60 0 -90.5 20.5t-30.5 79.5t30 80t91 21h400q63 0 92.5 -21t29.5 -80q0 -57 -30 -78.5t-92 -21.5z" />
    <glyph glyph-name="Ebreve" unicode="&#x114;" horiz-adv-x="1075" 
d="M397 831h410q61 0 92 -19.5t31 -84.5q0 -62 -27 -85.5t-96 -23.5h-410v-372q0 -33 29 -33h442q66 0 95.5 -21t29.5 -83t-27 -85.5t-98 -23.5h-518q-86 0 -134 45.5t-48 126.5v1030q0 191 194 191h510q66 0 93.5 -21t27.5 -84q0 -66 -28.5 -87t-92.5 -21h-440
q-15 0 -25 -11t-10 -28v-310zM598 1540q-117 0 -210 72.5t-93 154.5q0 33 29.5 60.5t66.5 27.5q43 0 70 -46q54 -95 137 -95q86 0 140 94q27 47 71 47q36 0 65 -28t29 -60q0 -84 -92.5 -155.5t-212.5 -71.5z" />
    <glyph glyph-name="ebreve" unicode="&#x115;" horiz-adv-x="1059" 
d="M307 440q20 -135 86.5 -200.5t179.5 -65.5q69 0 111 14.5t107 55.5q36 22 65 22q37 0 67.5 -30t30.5 -62q0 -72 -119.5 -133t-265.5 -61q-229 0 -361 144.5t-132 389.5q0 251 128 401t351 150q200 0 321 -129t121 -342q0 -81 -32 -117.5t-99 -36.5h-559zM770 617
q-8 128 -66.5 192.5t-148.5 64.5q-96 0 -161 -62.5t-83 -194.5h459zM557 1233q-117 0 -210 72.5t-93 154.5q0 33 29.5 60.5t66.5 27.5q43 0 70 -46q54 -95 137 -95q86 0 140 94q27 47 71 47q36 0 65 -28t29 -60q0 -84 -92.5 -155.5t-212.5 -71.5z" />
    <glyph glyph-name="Edotaccent" unicode="&#x116;" horiz-adv-x="1075" 
d="M397 831h410q61 0 92 -19.5t31 -84.5q0 -62 -27 -85.5t-96 -23.5h-410v-372q0 -33 29 -33h442q66 0 95.5 -21t29.5 -83t-27 -85.5t-98 -23.5h-518q-86 0 -134 45.5t-48 126.5v1030q0 191 194 191h510q66 0 93.5 -21t27.5 -84q0 -66 -28.5 -87t-92.5 -21h-440
q-15 0 -25 -11t-10 -28v-310zM615 1818q58 0 99.5 -41.5t41.5 -99.5q0 -57 -41.5 -98t-99.5 -41q-59 0 -99.5 40.5t-40.5 98.5t40.5 99.5t99.5 41.5z" />
    <glyph glyph-name="edotaccent" unicode="&#x117;" horiz-adv-x="1059" 
d="M307 440q20 -135 86.5 -200.5t179.5 -65.5q69 0 111 14.5t107 55.5q36 22 65 22q37 0 67.5 -30t30.5 -62q0 -72 -119.5 -133t-265.5 -61q-229 0 -361 144.5t-132 389.5q0 251 128 401t351 150q200 0 321 -129t121 -342q0 -81 -32 -117.5t-99 -36.5h-559zM770 617
q-8 128 -66.5 192.5t-148.5 64.5q-96 0 -161 -62.5t-83 -194.5h459zM555 1511q58 0 99.5 -41.5t41.5 -99.5q0 -57 -41.5 -98t-99.5 -41q-59 0 -99.5 40.5t-40.5 98.5t40.5 99.5t99.5 41.5z" />
    <glyph glyph-name="Eogonek" unicode="&#x118;" horiz-adv-x="1075" 
d="M721 0h-371q-86 0 -134 45.5t-48 126.5v1030q0 191 194 191h510q66 0 93.5 -21t27.5 -84q0 -66 -28.5 -87t-92.5 -21h-440q-15 0 -25 -11t-10 -28v-310h410q61 0 92 -19.5t31 -84.5q0 -62 -27 -85.5t-96 -23.5h-410v-372q0 -33 29 -33h442q66 0 95.5 -21t29.5 -83
t-25.5 -85t-84.5 -24q-43 -53 -64.5 -99.5t-21.5 -86.5q0 -31 18.5 -49.5t46.5 -18.5q30 0 66 18q35 17 51 17q27 0 45 -23t18 -59q0 -41 -65.5 -78t-163.5 -37q-91 0 -148 49.5t-57 130.5q0 57 28 116t85 120z" />
    <glyph glyph-name="eogonek" unicode="&#x119;" horiz-adv-x="1059" 
d="M573 -20q-233 0 -365 144.5t-132 389.5q0 251 128 401t351 150q200 0 321 -131t121 -344q0 -81 -32 -117.5t-99 -36.5h-559q20 -135 86.5 -200.5t179.5 -65.5q69 0 111 14.5t107 55.5q36 22 65 22q37 0 67.5 -28t30.5 -60q0 -46 -49 -87.5t-147 -78.5q-46 -56 -69 -104.5
t-23 -89.5q0 -31 18.5 -49.5t46.5 -18.5q30 0 65 18q36 17 52 17q27 0 45 -23t18 -59q0 -41 -65.5 -78t-163.5 -37q-91 0 -148 49.5t-57 130.5q0 53 24 107t72 109zM770 613q-8 123 -66.5 195t-148.5 72q-96 0 -161 -70t-83 -197h459z" />
    <glyph glyph-name="Ecaron" unicode="&#x11a;" horiz-adv-x="1075" 
d="M397 831h410q61 0 92 -19.5t31 -84.5q0 -62 -27 -85.5t-96 -23.5h-410v-372q0 -33 29 -33h442q66 0 95.5 -21t29.5 -83t-27 -85.5t-98 -23.5h-518q-86 0 -134 45.5t-48 126.5v1030q0 191 194 191h510q66 0 93.5 -21t27.5 -84q0 -66 -28.5 -87t-92.5 -21h-440
q-15 0 -25 -11t-10 -28v-310zM598 1724l164 105q50 32 82 32q35 0 60.5 -29.5t25.5 -66.5q0 -31 -16 -50.5t-50 -39.5l-174 -104q-28 -17 -45.5 -24t-46.5 -7q-38 0 -90 31l-166 96q-30 17 -52 38t-22 56q0 37 27.5 68.5t61.5 31.5q37 0 86 -32z" />
    <glyph glyph-name="ecaron" unicode="&#x11b;" horiz-adv-x="1059" 
d="M307 440q20 -135 86.5 -200.5t179.5 -65.5q69 0 111 14.5t107 55.5q36 22 65 22q37 0 67.5 -30t30.5 -62q0 -72 -119.5 -133t-265.5 -61q-229 0 -361 144.5t-132 389.5q0 251 128 401t351 150q200 0 321 -129t121 -342q0 -81 -32 -117.5t-99 -36.5h-559zM770 617
q-8 128 -66.5 192.5t-148.5 64.5q-96 0 -161 -62.5t-83 -194.5h459zM553 1417l164 105q50 32 82 32q35 0 60.5 -29.5t25.5 -66.5q0 -31 -16 -50.5t-50 -39.5l-174 -104q-28 -17 -45.5 -24t-46.5 -7q-38 0 -90 31l-166 96q-30 17 -52 38t-22 56q0 37 27.5 68.5t61.5 31.5
q37 0 86 -32z" />
    <glyph glyph-name="Gbreve" unicode="&#x11e;" horiz-adv-x="1354" 
d="M1217 258q0 -81 -44 -133t-164 -98.5t-284 -46.5q-290 0 -461.5 190.5t-171.5 515.5q0 333 183.5 530t467.5 197q157 0 257.5 -37t147 -74t46.5 -79q0 -43 -30 -81t-68 -38q-33 0 -74 22q-145 74 -272 74q-191 0 -309.5 -136t-118.5 -374q0 -237 113.5 -367t318.5 -130
q72 0 136 19t80.5 36t16.5 49v264h-229q-53 0 -78 22.5t-25 86.5q0 56 25 80t82 24h342q113 0 113 -104v-412zM747 1540q-117 0 -210 72.5t-93 154.5q0 33 29.5 60.5t66.5 27.5q43 0 70 -46q54 -95 137 -95q86 0 140 94q27 47 71 47q36 0 65 -28t29 -60q0 -84 -92.5 -155.5
t-212.5 -71.5z" />
    <glyph glyph-name="gbreve" unicode="&#x11f;" horiz-adv-x="1139" 
d="M995 94q0 -250 -129.5 -388t-367.5 -138q-114 0 -238.5 44.5t-124.5 124.5q0 35 28.5 68.5t65.5 33.5q29 0 61 -17q71 -38 117.5 -53.5t102.5 -15.5q128 0 194 83t66 244v97q-86 -177 -281 -177q-187 0 -301 142t-114 382q0 246 118.5 393.5t317.5 147.5q170 0 260 -135
v37q0 94 115 94q110 0 110 -94v-873zM770 606q0 114 -61.5 189t-163.5 75q-116 0 -180 -93.5t-64 -252.5q0 -156 65 -243t179 -87q104 0 164.5 70t60.5 174v168zM555 1233q-117 0 -210 72.5t-93 154.5q0 33 29.5 60.5t66.5 27.5q43 0 70 -46q54 -95 137 -95q86 0 140 94
q27 47 71 47q36 0 65 -28t29 -60q0 -84 -92.5 -155.5t-212.5 -71.5z" />
    <glyph glyph-name="Gcommaaccent" unicode="&#x122;" horiz-adv-x="1354" 
d="M1217 258q0 -81 -44 -133t-164 -98.5t-284 -46.5q-290 0 -461.5 190.5t-171.5 515.5q0 333 183.5 530t467.5 197q157 0 257.5 -37t147 -74t46.5 -79q0 -43 -30 -81t-68 -38q-33 0 -74 22q-145 74 -272 74q-191 0 -309.5 -136t-118.5 -374q0 -237 113.5 -367t318.5 -130
q72 0 136 19t80.5 36t16.5 49v264h-229q-53 0 -78 22.5t-25 86.5q0 56 25 80t82 24h342q113 0 113 -104v-412zM727 -520q-43 0 -70 23.5t-27 60.5q0 17 14 56q15 43 15 167q0 107 111 107q104 0 104 -113q0 -121 -41.5 -211t-105.5 -90z" />
    <glyph glyph-name="gcommaaccent" unicode="&#x123;" horiz-adv-x="1139" 
d="M995 94q0 -250 -129.5 -388t-367.5 -138q-114 0 -238.5 44.5t-124.5 124.5q0 35 28.5 68.5t65.5 33.5q29 0 61 -17q71 -38 117.5 -53.5t102.5 -15.5q128 0 194 83t66 244v97q-86 -177 -281 -177q-187 0 -301 142t-114 382q0 246 118.5 393.5t317.5 147.5q170 0 260 -135
v37q0 94 115 94q110 0 110 -94v-873zM770 606q0 114 -61.5 189t-163.5 75q-116 0 -180 -93.5t-64 -252.5q0 -156 65 -243t179 -87q104 0 164.5 70t60.5 174v168zM565 1585q43 0 69.5 -23.5t26.5 -60.5q0 -16 -18 -76q-10 -37 -10 -99q0 -69 -6.5 -93t-31.5 -43t-73 -19
q-104 0 -104 113q0 117 41 209t106 92z" />
    <glyph glyph-name="Imacron" unicode="&#x12a;" horiz-adv-x="565" 
d="M397 84q0 -52 -27.5 -76t-88.5 -24q-62 0 -87.5 23.5t-25.5 76.5v1229q0 51 24.5 73.5t90.5 22.5q65 0 89.5 -23t24.5 -73v-1229zM482 1542h-400q-60 0 -90.5 20.5t-30.5 79.5t30 80t91 21h400q63 0 92.5 -21t29.5 -80q0 -57 -30 -78.5t-92 -21.5z" />
    <glyph glyph-name="imacron" unicode="&#x12b;" horiz-adv-x="512" 
d="M369 78q0 -94 -115 -94q-111 0 -111 94v893q0 47 25.5 68.5t87.5 21.5q61 0 87 -22t26 -68v-893zM455 1235h-400q-60 0 -90.5 20.5t-30.5 79.5t30 80t91 21h400q63 0 92.5 -21t29.5 -80q0 -57 -30 -78.5t-92 -21.5z" />
    <glyph glyph-name="Iogonek" unicode="&#x12e;" horiz-adv-x="565" 
d="M205 0q-37 17 -37 84v1229q0 51 24.5 73.5t90.5 22.5q65 0 89.5 -23t24.5 -73v-1229q0 -44 -24 -74q-43 -49 -68.5 -103t-25.5 -93q0 -31 18.5 -49.5t46.5 -18.5q30 0 65 18q36 17 52 17q27 0 45 -23t18 -59q0 -41 -65.5 -78t-163.5 -37q-91 0 -148 49.5t-57 130.5
q0 59 28.5 118t86.5 118z" />
    <glyph glyph-name="iogonek" unicode="&#x12f;" horiz-adv-x="512" 
d="M256 1475q52 0 89.5 -37.5t37.5 -89.5t-37.5 -88.5t-89.5 -36.5t-88.5 36.5t-36.5 88.5t37 89.5t88 37.5zM172 4q-29 23 -29 74v893q0 47 25.5 68.5t87.5 21.5q61 0 87 -22t26 -68v-893q0 -48 -33 -76q-37 -33 -64.5 -92.5t-27.5 -95.5q0 -31 18.5 -49.5t46.5 -18.5
q30 0 66 18q35 17 51 17q27 0 45 -23t18 -59q0 -41 -65.5 -78t-163.5 -37q-91 0 -148 49.5t-57 130.5q0 58 29 118t88 122z" />
    <glyph glyph-name="Idotaccent" unicode="&#x130;" horiz-adv-x="565" 
d="M397 84q0 -52 -27.5 -76t-88.5 -24q-62 0 -87.5 23.5t-25.5 76.5v1229q0 51 24.5 73.5t90.5 22.5q65 0 89.5 -23t24.5 -73v-1229zM282 1818q58 0 99.5 -41.5t41.5 -99.5q0 -57 -41.5 -98t-99.5 -41q-59 0 -99.5 40.5t-40.5 98.5t40.5 99.5t99.5 41.5z" />
    <glyph glyph-name="Kcommaaccent" unicode="&#x136;" horiz-adv-x="1180" 
d="M485 621q-46 -42 -88 -72v-465q0 -54 -28 -77t-88 -23t-86.5 23.5t-26.5 76.5v1229q0 51 24.5 73.5t90.5 22.5q62 0 88 -22.5t26 -73.5v-496q117 97 244 245t225 298q36 51 86 51q51 0 91 -33.5t40 -74.5q0 -19 -8 -40.5t-69.5 -108t-156.5 -192.5t-192 -194
q124 -130 220 -253.5t164.5 -227t87 -135.5t18.5 -64q0 -43 -41 -74.5t-88 -31.5q-31 0 -49.5 12.5t-40.5 46.5q-127 194 -237.5 339t-205.5 241zM586 -520q-43 0 -70 23.5t-27 60.5q0 17 14 56q15 43 15 167q0 107 111 107q104 0 104 -113q0 -121 -41.5 -211t-105.5 -90z
" />
    <glyph glyph-name="kcommaaccent" unicode="&#x137;" horiz-adv-x="1006" 
d="M369 640q91 79 172 172t151 200q21 28 39 39.5t45 11.5q46 0 82.5 -30t36.5 -66q0 -34 -21.5 -73.5t-93 -123t-172.5 -170.5q72 -68 157.5 -181t130 -185t55 -100t10.5 -48q0 -43 -35 -73.5t-86 -30.5q-30 0 -53 12.5t-44 52.5q-70 133 -146.5 239.5t-160.5 186.5
q-56 -42 -67 -47v-348q0 -94 -115 -94q-111 0 -111 94v1368q0 48 26 69t87 21q60 0 86.5 -21.5t26.5 -68.5v-806zM498 -520q-43 0 -70 23.5t-27 60.5q0 17 14 56q15 43 15 167q0 107 111 107q104 0 104 -113q0 -121 -41.5 -211t-105.5 -90z" />
    <glyph glyph-name="Lacute" unicode="&#x139;" horiz-adv-x="1001" 
d="M397 246q0 -33 29 -33h422q67 0 96 -22t29 -82q0 -63 -28 -86t-97 -23h-496q-86 0 -135 45.5t-49 126.5v1131q0 56 27 81t88 25q63 0 88.5 -24t25.5 -82v-1057zM557 1714l-201 -143q-49 -35 -84 -35q-37 0 -62.5 30t-25.5 64q0 24 11.5 43t43.5 45l183 143q55 43 94 43
q41 0 69.5 -30t28.5 -74t-57 -86z" />
    <glyph glyph-name="lacute" unicode="&#x13a;" horiz-adv-x="512" 
d="M369 78q0 -94 -115 -94q-111 0 -111 94v1368q0 48 26 69t87 21q60 0 86.5 -21.5t26.5 -68.5v-1368zM424 1829l-201 -143q-49 -35 -84 -35q-37 0 -62.5 30t-25.5 64q0 24 11.5 43t43.5 45l183 143q55 43 94 43q41 0 69.5 -30t28.5 -74t-57 -86z" />
    <glyph glyph-name="Lcommaaccent" unicode="&#x13b;" horiz-adv-x="1001" 
d="M397 246q0 -33 29 -33h422q67 0 96 -22t29 -82q0 -63 -28 -86t-97 -23h-496q-86 0 -135 45.5t-49 126.5v1131q0 56 27 81t88 25q63 0 88.5 -24t25.5 -82v-1057zM537 -520q-43 0 -70 23.5t-27 60.5q0 17 14 56q15 43 15 167q0 107 111 107q104 0 104 -113
q0 -121 -41.5 -211t-105.5 -90z" />
    <glyph glyph-name="lcommaaccent" unicode="&#x13c;" horiz-adv-x="512" 
d="M369 78q0 -94 -115 -94q-111 0 -111 94v1368q0 48 26 69t87 21q60 0 86.5 -21.5t26.5 -68.5v-1368zM225 -520q-43 0 -70 23.5t-27 60.5q0 17 14 56q15 43 15 167q0 107 111 107q104 0 104 -113q0 -121 -41.5 -211t-105.5 -90z" />
    <glyph glyph-name="Lcaron" unicode="&#x13d;" horiz-adv-x="1001" 
d="M397 246q0 -33 29 -33h422q67 0 96 -22t29 -82q0 -63 -28 -86t-97 -23h-496q-86 0 -135 45.5t-49 126.5v1131q0 56 27 81t88 25q63 0 88.5 -24t25.5 -82v-1057zM693 983q-43 0 -70 23.5t-27 60.5q0 17 14 56q15 43 15 167q0 107 111 107q104 0 104 -113
q0 -121 -41.5 -211t-105.5 -90z" />
    <glyph glyph-name="lcaron" unicode="&#x13e;" horiz-adv-x="674" 
d="M369 78q0 -94 -115 -94q-111 0 -111 94v1368q0 48 26 69t87 21q60 0 86.5 -21.5t26.5 -68.5v-1368zM568 1122q-43 0 -70 23.5t-27 60.5q0 17 14 56q15 43 15 167q0 107 111 107q104 0 104 -113q0 -121 -41.5 -211t-105.5 -90z" />
    <glyph glyph-name="Nacute" unicode="&#x143;" horiz-adv-x="1407" 
d="M1239 104q0 -120 -129 -120q-43 0 -66.5 16.5t-52.5 60.5l-602 961v-940q0 -51 -25 -74.5t-83 -23.5q-62 0 -87.5 22.5t-25.5 75.5v1180q0 74 33.5 110.5t111.5 36.5q41 0 68 -17t49 -61l588 -950v928q0 52 24 76t84 24q63 0 88 -23.5t25 -76.5v-1205zM955 1714
l-201 -143q-49 -35 -84 -35q-37 0 -62.5 30t-25.5 64q0 24 11.5 43t43.5 45l183 143q55 43 94 43q41 0 69.5 -30t28.5 -74t-57 -86z" />
    <glyph glyph-name="nacute" unicode="&#x144;" horiz-adv-x="1155" 
d="M1016 78q0 -47 -28 -70.5t-83 -23.5q-62 0 -88 23t-26 71v563q0 98 -49 155.5t-140 57.5q-110 0 -171.5 -75t-61.5 -216v-485q0 -47 -29 -70.5t-86 -23.5q-56 0 -83.5 23.5t-27.5 70.5v893q0 47 25.5 68.5t87.5 21.5q61 0 87 -22t26 -68v-68q102 162 301 162
q158 0 252 -104.5t94 -282.5v-600zM807 1407l-201 -143q-49 -35 -84 -35q-37 0 -62.5 30t-25.5 64q0 24 11.5 43t43.5 45l183 143q55 43 94 43q41 0 69.5 -30t28.5 -74t-57 -86z" />
    <glyph glyph-name="Ncommaaccent" unicode="&#x145;" horiz-adv-x="1407" 
d="M1239 104q0 -120 -129 -120q-43 0 -66.5 16.5t-52.5 60.5l-602 961v-940q0 -51 -25 -74.5t-83 -23.5q-62 0 -87.5 22.5t-25.5 75.5v1180q0 74 33.5 110.5t111.5 36.5q41 0 68 -17t49 -61l588 -950v928q0 52 24 76t84 24q63 0 88 -23.5t25 -76.5v-1205zM689 -520
q-43 0 -70 23.5t-27 60.5q0 17 14 56q15 43 15 167q0 107 111 107q104 0 104 -113q0 -121 -41.5 -211t-105.5 -90z" />
    <glyph glyph-name="ncommaaccent" unicode="&#x146;" horiz-adv-x="1155" 
d="M1016 78q0 -47 -28 -70.5t-83 -23.5q-62 0 -88 23t-26 71v563q0 98 -49 155.5t-140 57.5q-110 0 -171.5 -75t-61.5 -216v-485q0 -47 -29 -70.5t-86 -23.5q-56 0 -83.5 23.5t-27.5 70.5v893q0 47 25.5 68.5t87.5 21.5q61 0 87 -22t26 -68v-68q102 162 301 162
q158 0 252 -104.5t94 -282.5v-600zM549 -520q-43 0 -70 23.5t-27 60.5q0 17 14 56q15 43 15 167q0 107 111 107q104 0 104 -113q0 -121 -41.5 -211t-105.5 -90z" />
    <glyph glyph-name="Ncaron" unicode="&#x147;" horiz-adv-x="1407" 
d="M1239 104q0 -120 -129 -120q-43 0 -66.5 16.5t-52.5 60.5l-602 961v-940q0 -51 -25 -74.5t-83 -23.5q-62 0 -87.5 22.5t-25.5 75.5v1180q0 74 33.5 110.5t111.5 36.5q41 0 68 -17t49 -61l588 -950v928q0 52 24 76t84 24q63 0 88 -23.5t25 -76.5v-1205zM710 1724l164 105
q50 32 82 32q35 0 60.5 -29.5t25.5 -66.5q0 -31 -16 -50.5t-50 -39.5l-174 -104q-28 -17 -45.5 -24t-46.5 -7q-38 0 -90 31l-166 96q-30 17 -52 38t-22 56q0 37 27.5 68.5t61.5 31.5q37 0 86 -32z" />
    <glyph glyph-name="ncaron" unicode="&#x148;" horiz-adv-x="1155" 
d="M1016 78q0 -47 -28 -70.5t-83 -23.5q-62 0 -88 23t-26 71v563q0 98 -49 155.5t-140 57.5q-110 0 -171.5 -75t-61.5 -216v-485q0 -47 -29 -70.5t-86 -23.5q-56 0 -83.5 23.5t-27.5 70.5v893q0 47 25.5 68.5t87.5 21.5q61 0 87 -22t26 -68v-68q102 162 301 162
q158 0 252 -104.5t94 -282.5v-600zM577 1417l164 105q50 32 82 32q35 0 60.5 -29.5t25.5 -66.5q0 -31 -16 -50.5t-50 -39.5l-174 -104q-28 -17 -45.5 -24t-46.5 -7q-38 0 -90 31l-166 96q-30 17 -52 38t-22 56q0 37 27.5 68.5t61.5 31.5q37 0 86 -32z" />
    <glyph glyph-name="Omacron" unicode="&#x14c;" horiz-adv-x="1427" 
d="M717 -20q-289 0 -457 204t-168 514t168.5 512.5t456.5 202.5q287 0 452.5 -202.5t165.5 -512.5q0 -312 -165.5 -515t-452.5 -203zM717 1200q-184 0 -289.5 -146.5t-105.5 -355.5q0 -211 105.5 -358t289.5 -147q180 0 284.5 148t104.5 357q0 210 -104 356t-285 146z
M914 1542h-400q-60 0 -90.5 20.5t-30.5 79.5t30 80t91 21h400q63 0 92.5 -21t29.5 -80q0 -57 -30 -78.5t-92 -21.5z" />
    <glyph glyph-name="omacron" unicode="&#x14d;" horiz-adv-x="1120" 
d="M559 -20q-224 0 -354.5 151.5t-130.5 392.5q0 243 130 392t355 149q228 0 358 -148t130 -393q0 -244 -131 -394t-357 -150zM559 860q-125 0 -191.5 -92t-66.5 -244q0 -150 67.5 -245t190.5 -95q128 0 194 90t66 250q0 168 -65 252t-195 84zM760 1235h-400
q-60 0 -90.5 20.5t-30.5 79.5t30 80t91 21h400q63 0 92.5 -21t29.5 -80q0 -57 -30 -78.5t-92 -21.5z" />
    <glyph glyph-name="Obreve" unicode="&#x14e;" horiz-adv-x="1427" 
d="M717 -20q-289 0 -457 204t-168 514t168.5 512.5t456.5 202.5q287 0 452.5 -202.5t165.5 -512.5q0 -312 -165.5 -515t-452.5 -203zM717 1200q-184 0 -289.5 -146.5t-105.5 -355.5q0 -211 105.5 -358t289.5 -147q180 0 284.5 148t104.5 357q0 210 -104 356t-285 146z
M717 1540q-117 0 -210 72.5t-93 154.5q0 33 29.5 60.5t66.5 27.5q43 0 70 -46q54 -95 137 -95q86 0 140 94q27 47 71 47q36 0 65 -28t29 -60q0 -84 -92.5 -155.5t-212.5 -71.5z" />
    <glyph glyph-name="obreve" unicode="&#x14f;" horiz-adv-x="1120" 
d="M559 -20q-224 0 -354.5 151.5t-130.5 392.5q0 243 130 392t355 149q228 0 358 -148t130 -393q0 -244 -131 -394t-357 -150zM559 860q-125 0 -191.5 -92t-66.5 -244q0 -150 67.5 -245t190.5 -95q128 0 194 90t66 250q0 168 -65 252t-195 84zM559 1233q-117 0 -210 72.5
t-93 154.5q0 33 29.5 60.5t66.5 27.5q43 0 70 -46q54 -95 137 -95q86 0 140 94q27 47 71 47q36 0 65 -28t29 -60q0 -84 -92.5 -155.5t-212.5 -71.5z" />
    <glyph glyph-name="Ohungarumlaut" unicode="&#x150;" horiz-adv-x="1427" 
d="M717 -20q-289 0 -457 204t-168 514t168.5 512.5t456.5 202.5q287 0 452.5 -202.5t165.5 -512.5q0 -312 -165.5 -515t-452.5 -203zM717 1200q-184 0 -289.5 -146.5t-105.5 -355.5q0 -211 105.5 -358t289.5 -147q180 0 284.5 148t104.5 357q0 210 -104 356t-285 146z
M1114 1730l-111 -143q-22 -28 -41 -41.5t-47 -13.5q-33 0 -60.5 26.5t-27.5 63.5q0 43 31 84l100 135q28 37 46.5 51t47.5 14q38 0 69.5 -26t31.5 -66q0 -34 -39 -84zM717 1730l-111 -143q-23 -29 -41.5 -42t-46.5 -13q-33 0 -60.5 26.5t-27.5 63.5q0 43 31 84l100 135
q28 38 46.5 51.5t47.5 13.5q38 0 69.5 -26t31.5 -66q0 -31 -39 -84z" />
    <glyph glyph-name="ohungarumlaut" unicode="&#x151;" horiz-adv-x="1120" 
d="M559 -20q-224 0 -354.5 151.5t-130.5 392.5q0 243 130 392t355 149q228 0 358 -148t130 -393q0 -244 -131 -394t-357 -150zM559 860q-125 0 -191.5 -92t-66.5 -244q0 -150 67.5 -245t190.5 -95q128 0 194 90t66 250q0 168 -65 252t-195 84zM961 1423l-111 -143
q-22 -28 -41 -41.5t-47 -13.5q-33 0 -60.5 26.5t-27.5 63.5q0 43 31 84l100 135q28 37 46.5 51t47.5 14q38 0 69.5 -26t31.5 -66q0 -34 -39 -84zM564 1423l-111 -143q-23 -29 -41.5 -42t-46.5 -13q-33 0 -60.5 26.5t-27.5 63.5q0 43 31 84l100 135q28 38 46.5 51.5
t47.5 13.5q38 0 69.5 -26t31.5 -66q0 -31 -39 -84z" />
    <glyph glyph-name="Racute" unicode="&#x154;" horiz-adv-x="1188" 
d="M397 575v-493q0 -51 -24.5 -74.5t-89.5 -23.5t-90 23.5t-25 74.5v1120q0 191 194 191h240q230 0 349.5 -97t119.5 -286q0 -133 -85.5 -236.5t-237.5 -130.5q60 -29 109.5 -77.5t91 -119.5t77.5 -154l58 -137q22 -52 22 -81q0 -39 -40.5 -68t-102.5 -29q-27 0 -47 11.5
t-37 54.5q-118 302 -212.5 417t-220.5 115h-49zM397 788h193q123 0 187.5 51.5t64.5 149.5q0 103 -58 151t-178 48h-174q-14 0 -24.5 -11t-10.5 -28v-361zM803 1714l-201 -143q-49 -35 -84 -35q-37 0 -62.5 30t-25.5 64q0 24 11.5 43t43.5 45l183 143q55 43 94 43
q41 0 69.5 -30t28.5 -74t-57 -86z" />
    <glyph glyph-name="racute" unicode="&#x155;" horiz-adv-x="797" 
d="M369 911q82 154 249 154q71 0 119.5 -26.5t48.5 -77.5q0 -55 -26.5 -90t-59.5 -35q-14 0 -48 9q-35 9 -68 9q-99 0 -157 -80.5t-58 -222.5v-471q0 -50 -24 -73t-89 -23q-113 0 -113 96v889q0 46 26 69t89 23q111 0 111 -90v-60zM668 1407l-201 -143q-49 -35 -84 -35
q-37 0 -62.5 30t-25.5 64q0 24 11.5 43t43.5 45l183 143q55 43 94 43q41 0 69.5 -30t28.5 -74t-57 -86z" />
    <glyph glyph-name="Rcommaaccent" unicode="&#x156;" horiz-adv-x="1188" 
d="M397 575v-493q0 -51 -24.5 -74.5t-89.5 -23.5t-90 23.5t-25 74.5v1120q0 191 194 191h240q230 0 349.5 -97t119.5 -286q0 -133 -85.5 -236.5t-237.5 -130.5q60 -29 109.5 -77.5t91 -119.5t77.5 -154l58 -137q22 -52 22 -81q0 -39 -40.5 -68t-102.5 -29q-27 0 -47 11.5
t-37 54.5q-118 302 -212.5 417t-220.5 115h-49zM397 788h193q123 0 187.5 51.5t64.5 149.5q0 103 -58 151t-178 48h-174q-14 0 -24.5 -11t-10.5 -28v-361zM578 -520q-43 0 -70 23.5t-27 60.5q0 17 14 56q15 43 15 167q0 107 111 107q104 0 104 -113q0 -121 -41.5 -211
t-105.5 -90z" />
    <glyph glyph-name="rcommaaccent" unicode="&#x157;" horiz-adv-x="797" 
d="M369 911q82 154 249 154q71 0 119.5 -26.5t48.5 -77.5q0 -55 -26.5 -90t-59.5 -35q-14 0 -48 9q-35 9 -68 9q-99 0 -157 -80.5t-58 -222.5v-471q0 -50 -24 -73t-89 -23q-113 0 -113 96v889q0 46 26 69t89 23q111 0 111 -90v-60zM227 -520q-43 0 -70 23.5t-27 60.5
q0 17 14 56q15 43 15 167q0 107 111 107q104 0 104 -113q0 -121 -41.5 -211t-105.5 -90z" />
    <glyph glyph-name="Rcaron" unicode="&#x158;" horiz-adv-x="1188" 
d="M397 575v-493q0 -51 -24.5 -74.5t-89.5 -23.5t-90 23.5t-25 74.5v1120q0 191 194 191h240q230 0 349.5 -97t119.5 -286q0 -133 -85.5 -236.5t-237.5 -130.5q60 -29 109.5 -77.5t91 -119.5t77.5 -154l58 -137q22 -52 22 -81q0 -39 -40.5 -68t-102.5 -29q-27 0 -47 11.5
t-37 54.5q-118 302 -212.5 417t-220.5 115h-49zM397 788h193q123 0 187.5 51.5t64.5 149.5q0 103 -58 151t-178 48h-174q-14 0 -24.5 -11t-10.5 -28v-361zM573 1724l164 105q50 32 82 32q35 0 60.5 -29.5t25.5 -66.5q0 -31 -16 -50.5t-50 -39.5l-174 -104q-28 -17 -45.5 -24
t-46.5 -7q-38 0 -90 31l-166 96q-30 17 -52 38t-22 56q0 37 27.5 68.5t61.5 31.5q37 0 86 -32z" />
    <glyph glyph-name="rcaron" unicode="&#x159;" horiz-adv-x="797" 
d="M369 911q82 154 249 154q71 0 119.5 -26.5t48.5 -77.5q0 -55 -26.5 -90t-59.5 -35q-14 0 -48 9q-35 9 -68 9q-99 0 -157 -80.5t-58 -222.5v-471q0 -50 -24 -73t-89 -23q-113 0 -113 96v889q0 46 26 69t89 23q111 0 111 -90v-60zM447 1417l164 105q50 32 82 32
q35 0 60.5 -29.5t25.5 -66.5q0 -31 -16 -50.5t-50 -39.5l-174 -104q-28 -17 -45.5 -24t-46.5 -7q-38 0 -90 31l-166 96q-30 17 -52 38t-22 56q0 37 27.5 68.5t61.5 31.5q37 0 86 -32z" />
    <glyph glyph-name="Sacute" unicode="&#x15a;" horiz-adv-x="1034" 
d="M514 -20q-167 0 -305.5 67t-138.5 143q0 46 32.5 83.5t67.5 37.5q23 0 41.5 -8t52.5 -33q110 -77 250 -77q104 0 162.5 50.5t58.5 141.5q0 73 -47.5 125.5t-206.5 99.5q-227 69 -308 166t-81 238q0 179 120.5 289t309.5 110q183 0 304.5 -70t121.5 -147q0 -43 -32.5 -82
t-73.5 -39q-30 0 -67 26q-80 58 -128 78.5t-117 20.5q-100 0 -154 -46.5t-54 -129.5q0 -51 25 -89t69 -61.5t135 -52.5q226 -67 320 -168.5t94 -261.5q0 -188 -124 -299.5t-327 -111.5zM752 1714l-201 -143q-49 -35 -84 -35q-37 0 -62.5 30t-25.5 64q0 24 11.5 43t43.5 45
l183 143q55 43 94 43q41 0 69.5 -30t28.5 -74t-57 -86z" />
    <glyph glyph-name="sacute" unicode="&#x15b;" horiz-adv-x="936" 
d="M457 -20q-128 0 -212.5 30t-125.5 62.5t-41 77.5q0 33 29 66t69 33q26 0 74 -29q42 -23 103 -39.5t110 -16.5q74 0 117 33t43 96q0 40 -39.5 67.5t-139.5 51.5q-100 23 -159.5 44.5t-104 60t-68.5 93.5t-24 127q0 151 108 239.5t287 88.5q137 0 244 -49.5t107 -104.5
q0 -44 -28.5 -77.5t-70.5 -33.5q-32 0 -68 23q-60 33 -99.5 45t-102.5 12q-69 0 -109.5 -37.5t-40.5 -88.5q0 -39 20.5 -64.5t52 -38t122.5 -33.5q211 -49 275.5 -124.5t64.5 -188.5q0 -141 -110.5 -233t-282.5 -92zM715 1407l-201 -143q-49 -35 -84 -35q-37 0 -62.5 30
t-25.5 64q0 24 11.5 43t43.5 45l183 143q55 43 94 43q41 0 69.5 -30t28.5 -74t-57 -86z" />
    <glyph glyph-name="Scedilla" unicode="&#x15e;" horiz-adv-x="1034" 
d="M434 -16q-131 11 -247.5 73.5t-116.5 132.5q0 46 32.5 83.5t67.5 37.5q22 0 39.5 -7.5t52.5 -33.5q110 -77 252 -77q104 0 162.5 50.5t58.5 141.5q0 73 -47.5 125.5t-206.5 99.5q-227 69 -308 166t-81 238q0 179 120.5 289t309.5 110q183 0 304.5 -70t121.5 -147
q0 -43 -32.5 -82t-73.5 -39q-21 0 -41 10t-64 43q-90 72 -207 72q-100 0 -154 -46.5t-54 -129.5q0 -51 25 -89t69 -61.5t135 -52.5q226 -67 320 -168.5t94 -261.5q0 -175 -108 -285t-298 -124l-22 -58q21 4 41 4q75 0 115 -41.5t40 -119.5q0 -91 -63.5 -152t-171.5 -61
q-92 0 -138.5 24t-46.5 60q0 29 17 53t43 24q14 0 49 -11t70 -11q33 0 53 19t20 48q0 62 -71 62q-13 0 -31 -1q-17 -1 -35 -1q-55 0 -55 51q0 23 28 66z" />
    <glyph glyph-name="scedilla" unicode="&#x15f;" horiz-adv-x="936" 
d="M397 -18q-109 8 -181.5 38t-105 59t-32.5 71q0 38 29.5 73.5t68.5 35.5q26 0 74 -29q42 -27 103 -46.5t110 -19.5q74 0 117 33t43 96q0 40 -39.5 67.5t-139.5 51.5q-100 23 -159.5 44.5t-104 60t-68.5 93.5t-24 127q0 151 108 239.5t287 88.5q137 0 244 -49.5t107 -104.5
q0 -44 -28.5 -77.5t-70.5 -33.5q-32 0 -68 23q-60 33 -99.5 45t-102.5 12q-69 0 -109.5 -37.5t-40.5 -88.5q0 -39 20.5 -64.5t52 -38t122.5 -33.5q211 -49 275.5 -124.5t64.5 -188.5q0 -125 -87 -213.5t-237 -107.5l-24 -60q21 4 41 4q75 0 115 -41.5t40 -119.5
q0 -90 -63 -151.5t-172 -61.5q-92 0 -138 24t-46 60q0 30 16.5 53.5t42.5 23.5q14 0 49 -11t70 -11q33 0 53 19t20 48q0 62 -71 62q-13 0 -31 -1q-17 -1 -35 -1q-55 0 -55 51q0 26 29 66z" />
    <glyph glyph-name="Tcommaaccent" unicode="&#x162;" horiz-adv-x="1065" 
d="M952 1393q53 0 75 -23.5t22 -83.5q0 -61 -22.5 -83.5t-74.5 -22.5h-305v-1096q0 -53 -28 -76.5t-89 -23.5t-86.5 23.5t-25.5 76.5v1096h-301q-55 0 -78 26t-23 80q0 57 23 82t78 25h835zM504 -520q-43 0 -70 23.5t-27 60.5q0 17 14 56q15 43 15 167q0 107 111 107
q104 0 104 -113q0 -121 -41.5 -211t-105.5 -90z" />
    <glyph glyph-name="tcommaaccent" unicode="&#x163;" horiz-adv-x="739" 
d="M422 854v-549q0 -54 23 -84.5t67 -30.5q29 0 61 12q50 19 72 19q34 0 59 -34.5t25 -75.5q0 -46 -38.5 -72.5t-94 -42.5t-115.5 -16q-144 0 -214 78.5t-70 242.5v553h-72q-54 0 -76 17.5t-22 78.5q0 59 21 76.5t77 17.5h72v213q0 52 25 73.5t85 21.5q65 0 90 -21.5
t25 -73.5v-213h188q52 0 71 -19.5t19 -74.5q0 -53 -20 -74.5t-70 -21.5h-188zM362 -520q-43 0 -70 23.5t-27 60.5q0 17 14 56q15 43 15 167q0 107 111 107q104 0 104 -113q0 -121 -41.5 -211t-105.5 -90z" />
    <glyph glyph-name="Tcaron" unicode="&#x164;" horiz-adv-x="1065" 
d="M952 1393q53 0 75 -23.5t22 -83.5q0 -61 -22.5 -83.5t-74.5 -22.5h-305v-1096q0 -53 -28 -76.5t-89 -23.5t-86.5 23.5t-25.5 76.5v1096h-301q-55 0 -78 26t-23 80q0 57 23 82t78 25h835zM532 1724l164 105q50 32 82 32q35 0 60.5 -29.5t25.5 -66.5q0 -31 -16 -50.5
t-50 -39.5l-174 -104q-28 -17 -45.5 -24t-46.5 -7q-38 0 -90 31l-166 96q-30 17 -52 38t-22 56q0 37 27.5 68.5t61.5 31.5q37 0 86 -32z" />
    <glyph glyph-name="tcaron" unicode="&#x165;" horiz-adv-x="778" 
d="M422 854v-549q0 -54 23 -84.5t67 -30.5q29 0 61 12q50 19 72 19q34 0 59 -34.5t25 -75.5q0 -46 -38.5 -72.5t-94 -42.5t-115.5 -16q-144 0 -214 78.5t-70 242.5v553h-72q-54 0 -76 17.5t-22 78.5q0 59 21 76.5t77 17.5h72v213q0 52 25 73.5t85 21.5q65 0 90 -21.5
t25 -73.5v-213h188q52 0 71 -19.5t19 -74.5q0 -53 -20 -74.5t-70 -21.5h-188zM672 1252q-43 0 -70 23.5t-27 60.5q0 17 14 56q15 43 15 167q0 107 111 107q104 0 104 -113q0 -121 -41.5 -211t-105.5 -90z" />
    <glyph glyph-name="Umacron" unicode="&#x16a;" horiz-adv-x="1333" 
d="M1169 453q0 -216 -139.5 -344.5t-365.5 -128.5q-225 0 -362.5 128t-137.5 345v856q0 53 28 76.5t87 23.5q114 0 114 -100v-848q0 -125 72.5 -196.5t198.5 -71.5q124 0 200 72t76 196v848q0 53 29 76.5t88 23.5q58 0 85 -23.5t27 -76.5v-856zM867 1542h-400
q-60 0 -90.5 20.5t-30.5 79.5t30 80t91 21h400q63 0 92.5 -21t29.5 -80q0 -57 -30 -78.5t-92 -21.5z" />
    <glyph glyph-name="umacron" unicode="&#x16b;" horiz-adv-x="1157" 
d="M1012 76q0 -48 -26.5 -70t-88.5 -22q-59 0 -85 22t-26 70v67q-100 -163 -301 -163q-156 0 -251 105.5t-95 285.5v596q0 94 113 94q61 0 87 -22t26 -72v-570q0 -97 50.5 -155t139.5 -58q109 0 170 75.5t61 215.5v492q0 94 115 94q59 0 85 -22.5t26 -71.5v-891zM787 1235
h-400q-60 0 -90.5 20.5t-30.5 79.5t30 80t91 21h400q63 0 92.5 -21t29.5 -80q0 -57 -30 -78.5t-92 -21.5z" />
    <glyph glyph-name="Uring" unicode="&#x16e;" horiz-adv-x="1333" 
d="M1169 453q0 -216 -139.5 -344.5t-365.5 -128.5q-225 0 -362.5 128t-137.5 345v856q0 53 28 76.5t87 23.5q114 0 114 -100v-848q0 -125 72.5 -196.5t198.5 -71.5q124 0 200 72t76 196v848q0 53 29 76.5t88 23.5q58 0 85 -23.5t27 -76.5v-856zM666 1540q-93 0 -159.5 67
t-66.5 158t66.5 158t159.5 67q92 0 158.5 -66.5t66.5 -158.5t-66.5 -158.5t-158.5 -66.5zM666 1866q-42 0 -71.5 -30t-29.5 -71t29.5 -70.5t71.5 -29.5q41 0 70.5 29.5t29.5 70.5t-29.5 71t-70.5 30z" />
    <glyph glyph-name="uring" unicode="&#x16f;" horiz-adv-x="1157" 
d="M1012 76q0 -48 -26.5 -70t-88.5 -22q-59 0 -85 22t-26 70v67q-100 -163 -301 -163q-156 0 -251 105.5t-95 285.5v596q0 94 113 94q61 0 87 -22t26 -72v-570q0 -97 50.5 -155t139.5 -58q109 0 170 75.5t61 215.5v492q0 94 115 94q59 0 85 -22.5t26 -71.5v-891zM598 1233
q-93 0 -159.5 67t-66.5 158t66.5 158t159.5 67q92 0 158.5 -66.5t66.5 -158.5t-66.5 -158.5t-158.5 -66.5zM598 1559q-42 0 -71.5 -30t-29.5 -71t29.5 -70.5t71.5 -29.5q41 0 70.5 29.5t29.5 70.5t-29.5 71t-70.5 30z" />
    <glyph glyph-name="Uhungarumlaut" unicode="&#x170;" horiz-adv-x="1333" 
d="M1169 453q0 -216 -139.5 -344.5t-365.5 -128.5q-225 0 -362.5 128t-137.5 345v856q0 53 28 76.5t87 23.5q114 0 114 -100v-848q0 -125 72.5 -196.5t198.5 -71.5q124 0 200 72t76 196v848q0 53 29 76.5t88 23.5q58 0 85 -23.5t27 -76.5v-856zM1063 1730l-111 -143
q-22 -28 -41 -41.5t-47 -13.5q-33 0 -60.5 26.5t-27.5 63.5q0 43 31 84l100 135q28 37 46.5 51t47.5 14q38 0 69.5 -26t31.5 -66q0 -34 -39 -84zM666 1730l-111 -143q-23 -29 -41.5 -42t-46.5 -13q-33 0 -60.5 26.5t-27.5 63.5q0 43 31 84l100 135q28 38 46.5 51.5
t47.5 13.5q38 0 69.5 -26t31.5 -66q0 -31 -39 -84z" />
    <glyph glyph-name="uhungarumlaut" unicode="&#x171;" horiz-adv-x="1157" 
d="M1012 76q0 -48 -26.5 -70t-88.5 -22q-59 0 -85 22t-26 70v67q-100 -163 -301 -163q-156 0 -251 105.5t-95 285.5v596q0 94 113 94q61 0 87 -22t26 -72v-570q0 -97 50.5 -155t139.5 -58q109 0 170 75.5t61 215.5v492q0 94 115 94q59 0 85 -22.5t26 -71.5v-891zM973 1423
l-111 -143q-22 -28 -41 -41.5t-47 -13.5q-33 0 -60.5 26.5t-27.5 63.5q0 43 31 84l100 135q28 37 46.5 51t47.5 14q38 0 69.5 -26t31.5 -66q0 -34 -39 -84zM576 1423l-111 -143q-23 -29 -41.5 -42t-46.5 -13q-33 0 -60.5 26.5t-27.5 63.5q0 43 31 84l100 135
q28 38 46.5 51.5t47.5 13.5q38 0 69.5 -26t31.5 -66q0 -31 -39 -84z" />
    <glyph glyph-name="Uogonek" unicode="&#x172;" horiz-adv-x="1333" 
d="M668 -20q-232 0 -368 127.5t-136 345.5v856q0 53 28 76.5t87 23.5q114 0 114 -100v-848q0 -125 72.5 -196.5t198.5 -71.5q124 0 200 72t76 196v848q0 53 29 76.5t88 23.5q58 0 85 -23.5t27 -76.5v-856q0 -164 -83 -281t-234 -166q-46 -55 -69 -103t-23 -89
q0 -31 18.5 -49.5t46.5 -18.5q30 0 66 18q35 17 51 17q28 0 46 -23.5t18 -58.5q0 -41 -65.5 -78t-164.5 -37q-90 0 -147.5 49t-57.5 131q0 54 24 108t73 108z" />
    <glyph glyph-name="uogonek" unicode="&#x173;" horiz-adv-x="1155" 
d="M819 0q-33 21 -33 76v67q-100 -163 -301 -163q-156 0 -251 105.5t-95 285.5v596q0 94 113 94q61 0 87 -22t26 -72v-570q0 -97 50.5 -155t139.5 -58q109 0 170 75.5t61 215.5v492q0 94 115 94q59 0 85 -22.5t26 -71.5v-891q0 -38 -21 -64q-48 -60 -72 -109.5t-24 -88.5
q0 -30 18.5 -49t47.5 -19t65 18q35 17 51 17q28 0 46 -23.5t18 -58.5q0 -41 -65.5 -78t-164.5 -37q-90 0 -147 49.5t-57 130.5q0 57 28 116t84 120z" />
    <glyph glyph-name="Zacute" unicode="&#x179;" horiz-adv-x="1083" 
d="M313 229h578q117 0 117 -114q0 -115 -117 -115h-703q-61 0 -98 33.5t-37 89.5q0 90 63.5 218.5t205 290.5t251.5 275q177 180 205 256h-561q-119 0 -119 113q0 117 119 117h657q76 0 116 -35.5t40 -100.5q0 -92 -52 -188t-275 -333q-216 -229 -294 -339.5t-96 -167.5z
M781 1714l-201 -143q-49 -35 -84 -35q-37 0 -62.5 30t-25.5 64q0 24 11.5 43t43.5 45l183 143q55 43 94 43q41 0 69.5 -30t28.5 -74t-57 -86z" />
    <glyph glyph-name="zacute" unicode="&#x17a;" horiz-adv-x="874" 
d="M264 195h461q61 0 87 -21.5t26 -71.5q0 -102 -113 -102h-596q-59 0 -93 34t-34 91q0 81 85.5 210.5t270.5 282.5q170 139 224 232h-418q-113 0 -113 98q0 96 113 96h571q73 0 100 -22.5t27 -73.5q0 -85 -86 -203t-231 -243q-221 -196 -281 -307zM668 1407l-201 -143
q-49 -35 -84 -35q-37 0 -62.5 30t-25.5 64q0 24 11.5 43t43.5 45l183 143q55 43 94 43q41 0 69.5 -30t28.5 -74t-57 -86z" />
    <glyph glyph-name="Zdotaccent" unicode="&#x17b;" horiz-adv-x="1083" 
d="M313 229h578q117 0 117 -114q0 -115 -117 -115h-703q-61 0 -98 33.5t-37 89.5q0 90 63.5 218.5t205 290.5t251.5 275q177 180 205 256h-561q-119 0 -119 113q0 117 119 117h657q76 0 116 -35.5t40 -100.5q0 -92 -52 -188t-275 -333q-216 -229 -294 -339.5t-96 -167.5z
M562 1818q58 0 99.5 -41.5t41.5 -99.5q0 -57 -41.5 -98t-99.5 -41q-59 0 -99.5 40.5t-40.5 98.5t40.5 99.5t99.5 41.5z" />
    <glyph glyph-name="zdotaccent" unicode="&#x17c;" horiz-adv-x="874" 
d="M264 195h461q61 0 87 -21.5t26 -71.5q0 -102 -113 -102h-596q-59 0 -93 34t-34 91q0 81 85.5 210.5t270.5 282.5q170 139 224 232h-418q-113 0 -113 98q0 96 113 96h571q73 0 100 -22.5t27 -73.5q0 -85 -86 -203t-231 -243q-221 -196 -281 -307zM457 1511
q58 0 99.5 -41.5t41.5 -99.5q0 -57 -41.5 -98t-99.5 -41q-59 0 -99.5 40.5t-40.5 98.5t40.5 99.5t99.5 41.5z" />
    <glyph glyph-name="Scommaaccent" unicode="&#x218;" horiz-adv-x="1034" 
d="M514 -20q-167 0 -305.5 67t-138.5 143q0 46 32.5 83.5t67.5 37.5q23 0 41.5 -8t52.5 -33q110 -77 250 -77q104 0 162.5 50.5t58.5 141.5q0 73 -47.5 125.5t-206.5 99.5q-227 69 -308 166t-81 238q0 179 120.5 289t309.5 110q183 0 304.5 -70t121.5 -147q0 -43 -32.5 -82
t-73.5 -39q-30 0 -67 26q-80 58 -128 78.5t-117 20.5q-100 0 -154 -46.5t-54 -129.5q0 -51 25 -89t69 -61.5t135 -52.5q226 -67 320 -168.5t94 -261.5q0 -188 -124 -299.5t-327 -111.5zM482 -520q-43 0 -70 23.5t-27 60.5q0 17 14 56q15 43 15 167q0 107 111 107
q104 0 104 -113q0 -121 -41.5 -211t-105.5 -90z" />
    <glyph glyph-name="scommaaccent" unicode="&#x219;" horiz-adv-x="936" 
d="M457 -20q-128 0 -212.5 30t-125.5 62.5t-41 77.5q0 33 29 66t69 33q26 0 74 -29q42 -23 103 -39.5t110 -16.5q74 0 117 33t43 96q0 40 -39.5 67.5t-139.5 51.5q-100 23 -159.5 44.5t-104 60t-68.5 93.5t-24 127q0 151 108 239.5t287 88.5q137 0 244 -49.5t107 -104.5
q0 -44 -28.5 -77.5t-70.5 -33.5q-32 0 -68 23q-60 33 -99.5 45t-102.5 12q-69 0 -109.5 -37.5t-40.5 -88.5q0 -39 20.5 -64.5t52 -38t122.5 -33.5q211 -49 275.5 -124.5t64.5 -188.5q0 -141 -110.5 -233t-282.5 -92zM427 -520q-43 0 -70 23.5t-27 60.5q0 17 14 56
q15 43 15 167q0 107 111 107q104 0 104 -113q0 -121 -41.5 -211t-105.5 -90z" />
    <glyph glyph-name="commaaccent" unicode="&#xf6c3;" horiz-adv-x="930" 
d="M451 -520q-43 0 -70 23.5t-27 60.5q0 17 14 56q15 43 15 167q0 107 111 107q104 0 104 -113q0 -121 -41.5 -211t-105.5 -90z" />
    <glyph glyph-name="tonos" unicode="&#x384;" horiz-adv-x="479" 
d="M287 1266q-8 -13 -16 -25.5t-17.5 -22.5t-22 -16t-28.5 -6q-20 0 -39.5 7.5t-35 19.5t-25 28t-9.5 33q0 20 6 35t19 37l106 186q8 13 16 25.5t18 22.5t22 16t28 6q20 0 39.5 -7.5t35 -19.5t25 -28t9.5 -33q0 -20 -7 -37t-20 -39z" />
    <glyph glyph-name="dieresistonos" unicode="&#x385;" horiz-adv-x="954" 
d="M188 1464q26 0 49.5 -10t40.5 -27t27 -40.5t10 -49.5t-10 -48.5t-27 -39.5t-40.5 -27t-49.5 -10t-48.5 10t-39.5 27t-27 39.5t-10 48.5t10 49.5t27 40.5t39.5 27t48.5 10zM764 1464q26 0 49.5 -10t40.5 -27t27 -40.5t10 -49.5t-10 -48.5t-27 -39.5t-40.5 -27t-49.5 -10
t-49 10t-40 27t-26.5 39.5t-9.5 48.5t9.5 49.5t26.5 40.5t40 27t49 10zM520 1645q45 0 74 -23t29 -61q0 -13 -2 -26t-7 -30l-51 -205q-11 -40 -31 -66t-63 -26t-70.5 24t-27.5 62q0 11 2.5 22t5.5 25l51 209q5 20 11 37t16.5 30t25.5 20.5t37 7.5z" />
    <glyph glyph-name="Alphatonos" unicode="&#x386;" horiz-adv-x="1235" 
d="M879 381h-514q-36 -109 -95 -311q-11 -48 -31.5 -67t-60.5 -19q-64 0 -100.5 23t-36.5 61q0 39 28.5 144.5t86.5 276.5q57 171 113 319.5t110 275.5q108 254 144.5 289.5t103.5 35.5q62 0 93 -31q44 -43 165 -341q107 -264 220 -618q89 -281 89 -341q0 -45 -39 -69.5
t-102 -24.5q-33 0 -52.5 16.5t-33.5 69.5q-33 130 -88 311zM623 1124q-90 -207 -195 -530h387q-91 305 -192 530zM207 1062q-8 -13 -16 -25.5t-17.5 -22.5t-22 -16t-28.5 -6q-20 0 -39.5 7.5t-35 19.5t-25 28t-9.5 33q0 20 6 35t19 37l106 186q8 13 16 25.5t18 22.5t22 16
t28 6q20 0 39.5 -7.5t35 -19.5t25 -28t9.5 -33q0 -20 -7 -37t-20 -39z" />
    <glyph glyph-name="anoteleia" unicode="&#x387;" horiz-adv-x="406" 
d="M76 631q0 26 9.5 49t26.5 40.5t40 27.5t49 10t49 -10t40.5 -27.5t27.5 -40.5t10 -49t-10 -49t-27.5 -40t-40.5 -26.5t-49 -9.5t-49 9.5t-40 26.5t-26.5 40t-9.5 49z" />
    <glyph glyph-name="Epsilontonos" unicode="&#x388;" horiz-adv-x="1298" 
d="M620 831h410q61 0 92 -19.5t31 -84.5q0 -62 -27 -85.5t-96 -23.5h-410v-372q0 -33 29 -33h442q66 0 95.5 -21t29.5 -83t-27 -85.5t-98 -23.5h-518q-86 0 -134 45.5t-48 126.5v1030q0 191 194 191h510q66 0 93.5 -21t27.5 -84q0 -66 -28.5 -87t-92.5 -21h-440
q-15 0 -25 -11t-10 -28v-310zM163 1062q-8 -13 -16 -25.5t-17.5 -22.5t-22 -16t-28.5 -6q-20 0 -39.5 7.5t-35 19.5t-25 28t-9.5 33q0 20 6 35t19 37l106 186q8 13 16 25.5t18 22.5t22 16t28 6q20 0 39.5 -7.5t35 -19.5t25 -28t9.5 -33q0 -20 -7 -37t-20 -39z" />
    <glyph glyph-name="Etatonos" unicode="&#x389;" horiz-adv-x="1585" 
d="M1416 84q0 -55 -29 -77.5t-86 -22.5q-60 0 -87 23t-27 77v524h-568v-524q0 -52 -27.5 -76t-88.5 -24q-62 0 -87.5 23.5t-25.5 76.5v1229q0 51 24.5 73.5t90.5 22.5q65 0 89.5 -23t24.5 -73v-492h568v492q0 52 24.5 74t89.5 22q66 0 90.5 -22.5t24.5 -73.5v-1229z
M164 1062q-8 -13 -16 -25.5t-17.5 -22.5t-22 -16t-28.5 -6q-20 0 -39.5 7.5t-35 19.5t-25 28t-9.5 33q0 20 6 35t19 37l106 186q8 13 16 25.5t18 22.5t22 16t28 6q20 0 39.5 -7.5t35 -19.5t25 -28t9.5 -33q0 -20 -7 -37t-20 -39z" />
    <glyph glyph-name="Iotatonos" unicode="&#x38a;" horiz-adv-x="817" 
d="M649 84q0 -52 -27.5 -76t-88.5 -24q-62 0 -87.5 23.5t-25.5 76.5v1229q0 51 24.5 73.5t90.5 22.5q65 0 89.5 -23t24.5 -73v-1229zM164 1062q-8 -13 -16 -25.5t-17.5 -22.5t-22 -16t-28.5 -6q-20 0 -39.5 7.5t-35 19.5t-25 28t-9.5 33q0 20 6 35t19 37l106 186
q8 13 16 25.5t18 22.5t22 16t28 6q20 0 39.5 -7.5t35 -19.5t25 -28t9.5 -33q0 -20 -7 -37t-20 -39z" />
    <glyph glyph-name="Omicrontonos" unicode="&#x38c;" horiz-adv-x="1608" 
d="M897 -20q-289 0 -457 204t-168 514t168.5 512.5t456.5 202.5q287 0 452.5 -202.5t165.5 -512.5q0 -312 -165.5 -515t-452.5 -203zM897 1200q-184 0 -289.5 -146.5t-105.5 -355.5q0 -211 105.5 -358t289.5 -147q180 0 284.5 148t104.5 357q0 210 -104 356t-285 146z
M164 1062q-8 -13 -16 -25.5t-17.5 -22.5t-22 -16t-28.5 -6q-20 0 -39.5 7.5t-35 19.5t-25 28t-9.5 33q0 20 6 35t19 37l106 186q8 13 16 25.5t18 22.5t22 16t28 6q20 0 39.5 -7.5t35 -19.5t25 -28t9.5 -33q0 -20 -7 -37t-20 -39z" />
    <glyph glyph-name="Upsilontonos" unicode="&#x38e;" horiz-adv-x="1370" 
d="M946 537v-453q0 -53 -28 -76.5t-89 -23.5q-62 0 -87.5 23.5t-25.5 76.5v453q-148 148 -253 375.5t-105 396.5q0 53 25 76.5t92 23.5q58 0 82 -20.5t28 -67.5q22 -196 80 -334.5t166 -259.5q116 131 183 276.5t85 305.5q7 56 31 78t84 22q63 0 89 -23.5t26 -76.5
q0 -167 -110.5 -388.5t-272.5 -383.5zM164 1062q-8 -13 -16 -25.5t-17.5 -22.5t-22 -16t-28.5 -6q-20 0 -39.5 7.5t-35 19.5t-25 28t-9.5 33q0 20 6 35t19 37l106 186q8 13 16 25.5t18 22.5t22 16t28 6q20 0 39.5 -7.5t35 -19.5t25 -28t9.5 -33q0 -20 -7 -37t-20 -39z" />
    <glyph glyph-name="Omegatonos" unicode="&#x38f;" horiz-adv-x="1618" 
d="M1536 109q0 -31 -5.5 -51.5t-20 -33.5t-39 -18.5t-62.5 -5.5h-348q-56 0 -82.5 29t-26.5 80q0 37 18 59.5t38 36.5q73 49 125 107t85 124.5t48.5 141.5t15.5 159q0 103 -28.5 188.5t-80.5 146.5t-123.5 94.5t-158.5 33.5t-158.5 -33.5t-123.5 -94.5t-80.5 -146.5
t-28.5 -188.5q0 -167 64.5 -300.5t209.5 -231.5q20 -14 38 -36.5t18 -59.5q0 -51 -26.5 -80t-82.5 -29h-348q-37 0 -62 5.5t-39 18.5t-20 33.5t-6 51.5q0 26 6 45.5t20 32.5t38 19.5t61 6.5h117q-46 38 -86 92.5t-70 123t-47 147.5t-17 165q0 141 43.5 263.5t124.5 213
t196 143t259 52.5t259 -52.5t196 -143t124.5 -213t43.5 -263.5q0 -86 -17 -165t-47 -147.5t-70 -123t-86 -92.5h117q37 0 61 -6.5t38.5 -19.5t20 -32.5t5.5 -45.5zM163 1062q-8 -13 -16 -25.5t-17.5 -22.5t-22 -16t-28.5 -6q-20 0 -39.5 7.5t-35 19.5t-25 28t-9.5 33
q0 20 6 35t19 37l106 186q8 13 16 25.5t18 22.5t22 16t28 6q20 0 39.5 -7.5t35 -19.5t25 -28t9.5 -33q0 -20 -7 -37t-20 -39z" />
    <glyph glyph-name="iotadieresistonos" unicode="&#x390;" horiz-adv-x="657" 
d="M647 86q0 -23 -10.5 -38t-30.5 -28q-26 -17 -70 -28.5t-104 -11.5q-146 0 -217.5 74.5t-71.5 234.5v678q0 48 29.5 71t83.5 23q112 0 112 -94v-684q0 -65 18 -92t60 -27q16 0 29.5 4t27 9t27.5 9t31 4q18 0 34 -9.5t27.5 -24.5t18 -33.5t6.5 -36.5zM-4 1464
q26 0 49.5 -10t40.5 -27t27 -40.5t10 -49.5t-10 -48.5t-27 -39.5t-40.5 -27t-49.5 -10t-48.5 10t-39.5 27t-27 39.5t-10 48.5t10 49.5t27 40.5t39.5 27t48.5 10zM572 1464q26 0 49.5 -10t40.5 -27t27 -40.5t10 -49.5t-10 -48.5t-27 -39.5t-40.5 -27t-49.5 -10t-49 10t-40 27
t-26.5 39.5t-9.5 48.5t9.5 49.5t26.5 40.5t40 27t49 10zM328 1645q45 0 74 -23t29 -61q0 -13 -2 -26t-7 -30l-51 -205q-11 -40 -31 -66t-63 -26t-70.5 24t-27.5 62q0 11 2.5 22t5.5 25l51 209q5 20 11 37t16.5 30t25.5 20.5t37 7.5z" />
    <glyph glyph-name="Alpha" unicode="&#x391;" horiz-adv-x="1235" 
d="M879 381h-514q-36 -109 -95 -311q-11 -48 -31.5 -67t-60.5 -19q-64 0 -100.5 23t-36.5 61q0 39 28.5 144.5t86.5 276.5q57 171 113 319.5t110 275.5q108 254 144.5 289.5t103.5 35.5q62 0 93 -31q44 -43 165 -341q107 -264 220 -618q89 -281 89 -341q0 -45 -39 -69.5
t-102 -24.5q-33 0 -52.5 16.5t-33.5 69.5q-33 130 -88 311zM623 1124q-90 -207 -195 -530h387q-91 305 -192 530z" />
    <glyph glyph-name="Beta" unicode="&#x392;" horiz-adv-x="1190" 
d="M842 743q122 -33 189 -123t67 -212q0 -194 -123.5 -301t-339.5 -107h-285q-87 0 -134.5 45t-47.5 127v1030q0 191 194 191h236q223 0 334.5 -92t111.5 -275q0 -90 -54.5 -170t-147.5 -113zM397 834h224q87 0 140.5 48t53.5 128q0 92 -51.5 131t-167.5 39h-164
q-15 0 -25 -11t-10 -28v-307zM397 625v-379q0 -33 29 -33h215q113 0 170 50t57 151q0 103 -64.5 157t-182.5 54h-224z" />
    <glyph glyph-name="Gamma" unicode="&#x393;" horiz-adv-x="983" 
d="M954 1286q0 -27 -6 -47t-20 -33t-38.5 -19.5t-60.5 -6.5h-397q-15 0 -25 -11t-10 -28v-1051q0 -59 -28 -82.5t-86 -23.5q-59 0 -87 23.5t-28 82.5v1112q0 42 13.5 77.5t38 60.5t60 39t78.5 14h471q36 0 60.5 -6.5t38.5 -20t20 -33.5t6 -47z" />
    <glyph glyph-name="Delta" unicode="&#x394;" horiz-adv-x="1298" 
d="M1257 98q0 -49 -33.5 -73.5t-84.5 -24.5h-981q-25 0 -46 6t-37 18t-25 30.5t-9 43.5q0 11 8.5 47.5t25.5 96.5t44.5 141.5t64.5 181.5q22 58 51 128.5t61.5 145.5t66.5 150.5t66.5 143.5t61.5 125t50 94q17 29 45.5 43t75.5 14q37 0 66.5 -12t49.5 -49q26 -47 56 -107
t61.5 -127.5t63 -140t61 -144.5t56 -139.5t46.5 -126.5q39 -109 64.5 -188t41.5 -134t22.5 -89t6.5 -54zM991 213q-60 224 -145 457t-189 454q-45 -94 -92.5 -208.5t-93 -235t-87 -240.5t-75.5 -227h682z" />
    <glyph glyph-name="Epsilon" unicode="&#x395;" horiz-adv-x="1075" 
d="M397 831h410q61 0 92 -19.5t31 -84.5q0 -62 -27 -85.5t-96 -23.5h-410v-372q0 -33 29 -33h442q66 0 95.5 -21t29.5 -83t-27 -85.5t-98 -23.5h-518q-86 0 -134 45.5t-48 126.5v1030q0 191 194 191h510q66 0 93.5 -21t27.5 -84q0 -66 -28.5 -87t-92.5 -21h-440
q-15 0 -25 -11t-10 -28v-310z" />
    <glyph glyph-name="Zeta" unicode="&#x396;" horiz-adv-x="1083" 
d="M313 229h578q117 0 117 -114q0 -115 -117 -115h-703q-61 0 -98 33.5t-37 89.5q0 90 63.5 218.5t205 290.5t251.5 275q177 180 205 256h-561q-119 0 -119 113q0 117 119 117h657q76 0 116 -35.5t40 -100.5q0 -92 -52 -188t-275 -333q-216 -229 -294 -339.5t-96 -167.5z
" />
    <glyph glyph-name="Eta" unicode="&#x397;" horiz-adv-x="1362" 
d="M1194 84q0 -55 -29 -77.5t-86 -22.5q-60 0 -87 23t-27 77v524h-568v-524q0 -52 -27.5 -76t-88.5 -24q-62 0 -87.5 23.5t-25.5 76.5v1229q0 51 24.5 73.5t90.5 22.5q65 0 89.5 -23t24.5 -73v-492h568v492q0 52 24.5 74t89.5 22q66 0 90.5 -22.5t24.5 -73.5v-1229z" />
    <glyph glyph-name="Theta" unicode="&#x398;" horiz-adv-x="1458" 
d="M1366 696q0 -92 -17 -181.5t-52 -169t-87.5 -146.5t-123 -115.5t-159 -76t-196.5 -27.5t-197.5 27.5t-160.5 76t-123.5 115.5t-87.5 146.5t-52.5 169t-17.5 181.5q0 155 43 286t124.5 227t200.5 150t271 54q106 0 194.5 -26.5t159.5 -74.5t123.5 -114.5t87.5 -146
t52.5 -170t17.5 -185.5zM1135 696q0 94 -23.5 184.5t-73 161.5t-126 114.5t-183.5 43.5t-183.5 -43.5t-126 -114.5t-72.5 -161.5t-23 -184.5q0 -97 25 -188t75.5 -161t126.5 -112t178 -42q107 0 183.5 43.5t126 114.5t73 161t23.5 184zM1043 711q0 -54 -26 -80.5t-98 -26.5
h-378q-36 0 -60.5 6.5t-38.5 20t-20 33.5t-6 47t6 46.5t20 33t38.5 20t60.5 6.5h378q72 0 98 -26t26 -80z" />
    <glyph glyph-name="Iota" unicode="&#x399;" horiz-adv-x="565" 
d="M397 84q0 -52 -27.5 -76t-88.5 -24q-62 0 -87.5 23.5t-25.5 76.5v1229q0 51 24.5 73.5t90.5 22.5q65 0 89.5 -23t24.5 -73v-1229z" />
    <glyph glyph-name="Kappa" unicode="&#x39a;" horiz-adv-x="1180" 
d="M485 621q-46 -42 -88 -72v-465q0 -54 -28 -77t-88 -23t-86.5 23.5t-26.5 76.5v1229q0 51 24.5 73.5t90.5 22.5q62 0 88 -22.5t26 -73.5v-496q117 97 244 245t225 298q36 51 86 51q51 0 91 -33.5t40 -74.5q0 -19 -8 -40.5t-69.5 -108t-156.5 -192.5t-192 -194
q124 -130 220 -253.5t164.5 -227t87 -135.5t18.5 -64q0 -43 -41 -74.5t-88 -31.5q-31 0 -49.5 12.5t-40.5 46.5q-127 194 -237.5 339t-205.5 241z" />
    <glyph glyph-name="Lambda" unicode="&#x39b;" horiz-adv-x="1235" 
d="M846 494q-13 43 -30 96t-37 110.5t-41 116.5t-41.5 113t-39.5 101t-34 81q-15 -34 -34 -81.5t-40.5 -102t-43.5 -114t-42.5 -117t-38.5 -110t-31 -93.5q-15 -47 -32.5 -106.5t-34 -119t-31.5 -112.5t-25 -88q-11 -44 -29.5 -65t-62.5 -21q-65 0 -101 23t-36 61
q0 27 8.5 67t24.5 94q24 88 54 183.5t64 193t70.5 195t74 189.5t75.5 176t75 155q12 23 24 40t27.5 28t37 16.5t51.5 5.5q31 0 51.5 -6.5t35.5 -19t27 -32t25 -46.5q54 -111 110.5 -246t109 -279.5t99.5 -290.5t82 -278q11 -42 19 -78t8 -57q0 -27 -13 -45t-33.5 -29
t-45.5 -15.5t-49 -4.5q-41 0 -58 22t-28 64q-7 26 -16.5 62t-21 76.5t-23.5 82t-23 80t-20.5 71.5t-16.5 54z" />
    <glyph glyph-name="Mu" unicode="&#x39c;" horiz-adv-x="1612" 
d="M1444 82q0 -51 -23.5 -74.5t-89.5 -23.5q-60 0 -82 22.5t-22 75.5v936l-295 -504q-30 -46 -59.5 -58t-67.5 -12q-39 0 -69 12.5t-58 55.5l-293 498v-928q0 -52 -22 -75t-84 -23q-65 0 -88 23.5t-23 74.5v1188q0 139 133 139q45 0 71.5 -18t51.5 -66l381 -666l389 681
q18 34 44 51.5t75 17.5q65 0 98 -32.5t33 -106.5v-1188z" />
    <glyph glyph-name="Nu" unicode="&#x39d;" horiz-adv-x="1407" 
d="M1239 104q0 -120 -129 -120q-43 0 -66.5 16.5t-52.5 60.5l-602 961v-940q0 -51 -25 -74.5t-83 -23.5q-62 0 -87.5 22.5t-25.5 75.5v1180q0 74 33.5 110.5t111.5 36.5q41 0 68 -17t49 -61l588 -950v928q0 52 24 76t84 24q63 0 88 -23.5t25 -76.5v-1205z" />
    <glyph glyph-name="Xi" unicode="&#x39e;" horiz-adv-x="1126" 
d="M940 715q0 -54 -26.5 -80.5t-98.5 -26.5h-506q-72 0 -98.5 26.5t-26.5 80.5t26.5 80t98.5 26h506q72 0 98.5 -26t26.5 -80zM1022 1286q0 -54 -26.5 -80t-98.5 -26h-670q-72 0 -98.5 26t-26.5 80t26.5 80.5t98.5 26.5h670q72 0 98.5 -26.5t26.5 -80.5zM1042 106
q0 -54 -26 -80t-98 -26h-711q-72 0 -98.5 26t-26.5 80t26.5 80.5t98.5 26.5h711q72 0 98 -26.5t26 -80.5z" />
    <glyph glyph-name="Omicron" unicode="&#x39f;" horiz-adv-x="1427" 
d="M717 -20q-289 0 -457 204t-168 514t168.5 512.5t456.5 202.5q287 0 452.5 -202.5t165.5 -512.5q0 -312 -165.5 -515t-452.5 -203zM717 1200q-184 0 -289.5 -146.5t-105.5 -355.5q0 -211 105.5 -358t289.5 -147q180 0 284.5 148t104.5 357q0 210 -104 356t-285 146z" />
    <glyph glyph-name="Pi" unicode="&#x3a0;" horiz-adv-x="1419" 
d="M1251 90q0 -59 -28 -82.5t-86 -23.5q-59 0 -87 23.5t-28 82.5v1051q0 17 -9.5 28t-25.5 11h-555q-15 0 -25 -11t-10 -28v-1051q0 -59 -28 -82.5t-86 -23.5q-59 0 -87 23.5t-28 82.5v1112q0 42 13.5 77.5t38 60.5t60 39t78.5 14h703q44 0 79 -14t60 -39t38 -60.5t13 -77.5
v-1112z" />
    <glyph glyph-name="Rho" unicode="&#x3a1;" horiz-adv-x="1108" 
d="M393 502v-420q0 -52 -26.5 -75t-87.5 -23t-88 23t-27 75v1118q0 93 50 143t144 50h246q215 0 335 -118.5t120 -332.5q0 -195 -129 -317.5t-340 -122.5h-197zM393 715h205q105 0 168 63.5t63 163.5q0 119 -57.5 178.5t-171.5 59.5h-172q-17 0 -26 -12t-9 -27v-426z" />
    <glyph glyph-name="Sigma" unicode="&#x3a3;" horiz-adv-x="1030" 
d="M1042 106q0 -54 -26 -80t-98 -26h-768q-59 0 -84 29.5t-25 79.5q0 42 23.5 103.5t73.5 139.5t127 171t184 198q-93 92 -162.5 178.5t-115 161t-68.5 133t-23 92.5q0 56 36.5 81.5t90.5 25.5h653q72 0 98.5 -26.5t26.5 -80.5t-26.5 -80t-98.5 -26h-512q23 -39 52.5 -81
t69 -88t89.5 -97.5t113 -110.5q23 -22 32 -41t9 -41q0 -26 -9 -44t-32 -38q-107 -96 -198 -199t-167 -227h611q72 0 98 -26.5t26 -80.5z" />
    <glyph glyph-name="Tau" unicode="&#x3a4;" horiz-adv-x="1065" 
d="M952 1393q53 0 75 -23.5t22 -83.5q0 -61 -22.5 -83.5t-74.5 -22.5h-305v-1096q0 -53 -28 -76.5t-89 -23.5t-86.5 23.5t-25.5 76.5v1096h-301q-55 0 -78 26t-23 80q0 57 23 82t78 25h835z" />
    <glyph glyph-name="Upsilon" unicode="&#x3a5;" horiz-adv-x="1053" 
d="M629 537v-453q0 -53 -28 -76.5t-89 -23.5q-62 0 -87.5 23.5t-25.5 76.5v453q-148 148 -253 375.5t-105 396.5q0 53 25 76.5t92 23.5q58 0 82 -20.5t28 -67.5q22 -196 80 -334.5t166 -259.5q116 131 183 276.5t85 305.5q7 56 31 78t84 22q63 0 89 -23.5t26 -76.5
q0 -167 -110.5 -388.5t-272.5 -383.5z" />
    <glyph glyph-name="Phi" unicode="&#x3a6;" horiz-adv-x="1370" 
d="M1317 696q0 -97 -33 -188t-98.5 -162.5t-162 -116t-224.5 -49.5v-100q0 -59 -28 -83t-87 -24t-87 24t-28 83v100q-128 5 -225 49.5t-162 116t-98 162.5t-33 188q0 100 33.5 190.5t99.5 160t162.5 113t222.5 50.5v103q0 59 28 82.5t87 23.5t87 -23.5t28 -82.5v-103
q125 -7 221.5 -51t162.5 -113.5t100 -160t34 -189.5zM569 1008q-76 -6 -131 -35.5t-89.5 -73.5t-51 -97t-16.5 -106q0 -56 16.5 -110t51 -97.5t89.5 -72t131 -33.5v625zM1087 696q0 49 -15.5 102t-49.5 97.5t-89 75.5t-134 37v-625q77 5 131.5 34.5t89.5 73.5t51 97.5
t16 107.5z" />
    <glyph glyph-name="Chi" unicode="&#x3a7;" horiz-adv-x="1110" 
d="M729 684q163 -153 244.5 -298t81.5 -282q0 -68 -27 -94t-86 -26q-58 0 -83 21.5t-34 84.5q-14 110 -66.5 210t-193.5 241q-146 -141 -206 -242.5t-76 -208.5q-12 -69 -37 -87.5t-80 -18.5q-58 0 -85.5 27.5t-27.5 92.5q0 133 87.5 279t262.5 305q-141 149 -221 310.5
t-80 297.5q0 59 28 86t91 27q52 0 77 -19t32 -73q14 -124 73.5 -245.5t163.5 -240.5q133 144 189.5 255t72.5 231q6 49 31.5 70.5t77.5 21.5q64 0 91.5 -25t27.5 -88q0 -129 -84.5 -287.5t-243.5 -324.5z" />
    <glyph glyph-name="Psi" unicode="&#x3a8;" horiz-adv-x="1565" 
d="M1431 856q0 -131 -38 -229.5t-108 -165t-168.5 -102.5t-219.5 -42v-227q0 -59 -28 -82.5t-87 -23.5t-87 23.5t-28 82.5v225q-127 7 -226.5 43.5t-168 103t-104 165t-35.5 229.5v447q0 58 28 82t87 24q58 0 86 -24t28 -82v-447q0 -158 75.5 -235.5t229.5 -88.5v771
q0 58 28 82t87 24t87 -24t28 -82v-771q154 11 229.5 88.5t75.5 235.5v447q0 58 28 82t87 24q58 0 86 -24t28 -82v-447z" />
    <glyph glyph-name="Omega" unicode="&#x3a9;" horiz-adv-x="1454" 
d="M1372 109q0 -31 -5.5 -51.5t-20 -33.5t-39 -18.5t-62.5 -5.5h-348q-56 0 -82.5 29t-26.5 80q0 37 18 59.5t38 36.5q73 49 125 107t85 124.5t48.5 141.5t15.5 159q0 103 -28.5 188.5t-80.5 146.5t-123.5 94.5t-158.5 33.5t-158.5 -33.5t-123.5 -94.5t-80.5 -146.5
t-28.5 -188.5q0 -167 64.5 -300.5t209.5 -231.5q20 -14 38 -36.5t18 -59.5q0 -51 -26.5 -80t-82.5 -29h-348q-37 0 -62 5.5t-39 18.5t-20 33.5t-6 51.5q0 26 6 45.5t20 32.5t38 19.5t61 6.5h117q-46 38 -86 92.5t-70 123t-47 147.5t-17 165q0 141 43.5 263.5t124.5 213
t196 143t259 52.5t259 -52.5t196 -143t124.5 -213t43.5 -263.5q0 -86 -17 -165t-47 -147.5t-70 -123t-86 -92.5h117q37 0 61 -6.5t38.5 -19.5t20 -32.5t5.5 -45.5z" />
    <glyph glyph-name="Iotadieresis" unicode="&#x3aa;" horiz-adv-x="565" 
d="M397 84q0 -52 -27.5 -76t-88.5 -24q-62 0 -87.5 23.5t-25.5 76.5v1229q0 51 24.5 73.5t90.5 22.5q65 0 89.5 -23t24.5 -73v-1229zM85 1792q52 0 89.5 -37.5t37.5 -89.5t-37.5 -88.5t-89.5 -36.5t-88.5 36.5t-36.5 88.5t37 89.5t88 37.5zM478 1792q52 0 89.5 -37.5
t37.5 -89.5t-37.5 -88.5t-89.5 -36.5t-88.5 36.5t-36.5 88.5t37 89.5t88 37.5z" />
    <glyph glyph-name="Upsilondieresis" unicode="&#x3ab;" horiz-adv-x="1053" 
d="M629 537v-453q0 -53 -28 -76.5t-89 -23.5q-62 0 -87.5 23.5t-25.5 76.5v453q-148 148 -253 375.5t-105 396.5q0 53 25 76.5t92 23.5q58 0 82 -20.5t28 -67.5q22 -196 80 -334.5t166 -259.5q116 131 183 276.5t85 305.5q7 56 31 78t84 22q63 0 89 -23.5t26 -76.5
q0 -167 -110.5 -388.5t-272.5 -383.5zM305 1792q52 0 89.5 -37.5t37.5 -89.5t-37.5 -88.5t-89.5 -36.5t-88.5 36.5t-36.5 88.5t37 89.5t88 37.5zM698 1792q52 0 89.5 -37.5t37.5 -89.5t-37.5 -88.5t-89.5 -36.5t-88.5 36.5t-36.5 88.5t37 89.5t88 37.5z" />
    <glyph glyph-name="alphatonos" unicode="&#x3ac;" horiz-adv-x="1231" 
d="M1014 526q0 -73 10 -130.5t28.5 -101.5t43.5 -76t55 -56q23 -19 36 -32.5t13 -41.5q0 -17 -8.5 -35.5t-24 -34.5t-36 -26t-44.5 -10t-47 8.5t-45 23.5q-42 29 -75.5 75.5t-55.5 111.5q-19 -48 -49.5 -88.5t-74 -70t-100.5 -46t-128 -16.5q-117 0 -200 43t-136 117
t-77.5 173t-24.5 211q0 109 27 207t83 172.5t143 118t208 43.5q63 0 114 -13.5t91.5 -38t72 -59t55.5 -75.5q22 51 48.5 86.5t60.5 64.5q22 19 41 25t39 6q22 0 42.5 -10t36 -25t24.5 -32.5t9 -32.5q0 -13 -2.5 -22.5t-8.5 -18.5t-15 -18.5t-21 -22.5q-28 -30 -48.5 -62.5
t-33.5 -74t-19.5 -94t-6.5 -122.5zM788 539q0 84 -16.5 145t-48 100t-76.5 57.5t-102 18.5q-64 0 -110.5 -27.5t-76.5 -74t-44.5 -107t-14.5 -127.5q0 -69 13.5 -130.5t43.5 -108t76.5 -74t112.5 -27.5q118 0 180.5 90t62.5 265zM686 1266q-8 -13 -16 -25.5t-17.5 -22.5
t-22 -16t-28.5 -6q-20 0 -39.5 7.5t-35 19.5t-25 28t-9.5 33q0 20 6 35t19 37l106 186q8 13 16 25.5t18 22.5t22 16t28 6q20 0 39.5 -7.5t35 -19.5t25 -28t9.5 -33q0 -20 -7 -37t-20 -39z" />
    <glyph glyph-name="epsilontonos" unicode="&#x3ad;" horiz-adv-x="993" 
d="M948 135q0 -25 -15.5 -44t-43.5 -38q-26 -17 -65.5 -30.5t-86 -23t-98 -14.5t-102.5 -5q-129 0 -217.5 24.5t-143 67t-78.5 99.5t-24 122q0 85 48.5 147.5t141.5 96.5q-80 34 -114.5 93t-34.5 134q0 55 22.5 109t73 96.5t131.5 69t197 26.5q40 0 84.5 -5t88 -14t83 -21.5
t67.5 -27.5q38 -21 54 -42t16 -52q0 -18 -6 -37t-17 -34.5t-27 -26t-36 -10.5q-13 0 -23 1.5t-20 4.5t-20.5 7t-24.5 9q-37 14 -94 28.5t-123 14.5q-56 0 -94.5 -8.5t-62 -24.5t-34 -38t-10.5 -48q0 -57 49 -86.5t158 -29.5h131q56 0 79 -25t23 -72q0 -48 -23 -73t-79 -25
h-127q-73 0 -121.5 -8t-77.5 -23.5t-41 -38t-12 -51.5q0 -62 59 -93.5t181 -31.5q81 0 140 14t101 29q22 8 38.5 14.5t35.5 6.5q21 0 38.5 -10.5t30 -27t19 -36.5t6.5 -39zM645 1266q-8 -13 -16 -25.5t-17.5 -22.5t-22 -16t-28.5 -6q-20 0 -39.5 7.5t-35 19.5t-25 28
t-9.5 33q0 20 6 35t19 37l106 186q8 13 16 25.5t18 22.5t22 16t28 6q20 0 39.5 -7.5t35 -19.5t25 -28t9.5 -33q0 -20 -7 -37t-20 -39z" />
    <glyph glyph-name="etatonos" unicode="&#x3ae;" horiz-adv-x="1174" 
d="M1034 -333q0 -57 -29.5 -78t-80.5 -21q-26 0 -47.5 4.5t-36.5 15t-23 28.5t-8 46v979q0 46 -11 86t-34.5 69.5t-59 46.5t-83.5 17t-91 -17t-74.5 -53t-50 -92.5t-18.5 -134.5v-485q0 -54 -32 -74t-83 -20t-80.5 20t-29.5 74v416q0 80 -1.5 139t-6 104t-12.5 80.5
t-21 67.5q-9 21 -19 39.5t-10 33.5q0 24 12 43t30 32.5t38.5 20.5t36.5 7q31 0 55 -14t51 -56q22 -32 29 -58.5t10 -37.5q22 37 53 68t72 53.5t93 35.5t116 13q79 0 143 -26.5t109 -77t69.5 -122t24.5 -161.5v-1011zM740 1266q-8 -13 -16 -25.5t-17.5 -22.5t-22 -16
t-28.5 -6q-20 0 -39.5 7.5t-35 19.5t-25 28t-9.5 33q0 20 6 35t19 37l106 186q8 13 16 25.5t18 22.5t22 16t28 6q20 0 39.5 -7.5t35 -19.5t25 -28t9.5 -33q0 -20 -7 -37t-20 -39z" />
    <glyph glyph-name="iotatonos" unicode="&#x3af;" horiz-adv-x="657" 
d="M647 86q0 -23 -10.5 -38t-30.5 -28q-26 -17 -70 -28.5t-104 -11.5q-146 0 -217.5 74.5t-71.5 234.5v678q0 48 29.5 71t83.5 23q112 0 112 -94v-684q0 -65 18 -92t60 -27q16 0 29.5 4t27 9t27.5 9t31 4q18 0 34 -9.5t27.5 -24.5t18 -33.5t6.5 -36.5zM332 1266
q-8 -13 -16 -25.5t-17.5 -22.5t-22 -16t-28.5 -6q-20 0 -39.5 7.5t-35 19.5t-25 28t-9.5 33q0 20 6 35t19 37l106 186q8 13 16 25.5t18 22.5t22 16t28 6q20 0 39.5 -7.5t35 -19.5t25 -28t9.5 -33q0 -20 -7 -37t-20 -39z" />
    <glyph glyph-name="upsilondieresistonos" unicode="&#x3b0;" horiz-adv-x="1153" 
d="M1061 530q0 -115 -32 -215.5t-92.5 -174.5t-149 -117t-201.5 -43q-119 0 -204 31t-139 87t-79 134t-25 171v564q0 48 29.5 71t83.5 23q113 0 113 -94v-539q0 -58 11.5 -105t37 -79.5t66 -50t98.5 -17.5q57 0 104.5 21t81.5 64.5t53 110.5t19 158q0 65 -9.5 118.5
t-25.5 99.5t-35.5 84t-40.5 71q-9 14 -14.5 28t-5.5 30q0 21 11 39t29.5 31.5t42 21.5t48.5 8q24 0 44 -11t42 -42q36 -50 62 -108.5t43.5 -120t25.5 -125t8 -124.5zM272 1464q26 0 49.5 -10t40.5 -27t27 -40.5t10 -49.5t-10 -48.5t-27 -39.5t-40.5 -27t-49.5 -10t-48.5 10
t-39.5 27t-27 39.5t-10 48.5t10 49.5t27 40.5t39.5 27t48.5 10zM848 1464q26 0 49.5 -10t40.5 -27t27 -40.5t10 -49.5t-10 -48.5t-27 -39.5t-40.5 -27t-49.5 -10t-49 10t-40 27t-26.5 39.5t-9.5 48.5t9.5 49.5t26.5 40.5t40 27t49 10zM604 1645q45 0 74 -23t29 -61
q0 -13 -2 -26t-7 -30l-51 -205q-11 -40 -31 -66t-63 -26t-70.5 24t-27.5 62q0 11 2.5 22t5.5 25l51 209q5 20 11 37t16.5 30t25.5 20.5t37 7.5z" />
    <glyph glyph-name="alpha" unicode="&#x3b1;" horiz-adv-x="1231" 
d="M1014 526q0 -73 10 -130.5t28.5 -101.5t43.5 -76t55 -56q23 -19 36 -32.5t13 -41.5q0 -17 -8.5 -35.5t-24 -34.5t-36 -26t-44.5 -10t-47 8.5t-45 23.5q-42 29 -75.5 75.5t-55.5 111.5q-19 -48 -49.5 -88.5t-74 -70t-100.5 -46t-128 -16.5q-117 0 -200 43t-136 117
t-77.5 173t-24.5 211q0 109 27 207t83 172.5t143 118t208 43.5q63 0 114 -13.5t91.5 -38t72 -59t55.5 -75.5q22 51 48.5 86.5t60.5 64.5q22 19 41 25t39 6q22 0 42.5 -10t36 -25t24.5 -32.5t9 -32.5q0 -13 -2.5 -22.5t-8.5 -18.5t-15 -18.5t-21 -22.5q-28 -30 -48.5 -62.5
t-33.5 -74t-19.5 -94t-6.5 -122.5zM788 539q0 84 -16.5 145t-48 100t-76.5 57.5t-102 18.5q-64 0 -110.5 -27.5t-76.5 -74t-44.5 -107t-14.5 -127.5q0 -69 13.5 -130.5t43.5 -108t76.5 -74t112.5 -27.5q118 0 180.5 90t62.5 265z" />
    <glyph glyph-name="beta" unicode="&#x3b2;" horiz-adv-x="1188" 
d="M819 840q139 -43 217 -145t78 -269q0 -106 -34.5 -189t-96.5 -140t-147 -87t-187 -30q-34 0 -72 6.5t-75.5 20.5t-71.5 36t-61 53v-432q0 -96 -115 -96q-111 0 -111 96v1446q0 105 31.5 184.5t89.5 133t138.5 81t179.5 27.5q95 0 173 -30.5t134.5 -82.5t87.5 -122
t31 -148q0 -51 -12.5 -99.5t-36.5 -90t-59.5 -73.5t-80.5 -50zM578 725q-57 0 -84 21.5t-27 72.5q0 50 27 74.5t84 24.5q42 0 79 15.5t64 44.5t43 71.5t16 97.5q0 44 -15.5 80.5t-42.5 63t-63 41t-77 14.5q-98 0 -155.5 -57.5t-57.5 -182.5v-655q0 -71 19.5 -124t55 -88.5
t86 -53t111.5 -17.5q56 0 102 18t78.5 51t50 81t17.5 108q0 70 -23.5 125.5t-65 94t-98.5 59t-124 20.5z" />
    <glyph glyph-name="gamma" unicode="&#x3b3;" horiz-adv-x="1106" 
d="M1085 954q0 -24 -9 -42t-21 -33q-18 -22 -41.5 -52.5t-48.5 -65t-50 -71t-45 -69.5q-67 -109 -110 -196t-68 -164t-34 -149t-9 -151v-287q0 -55 -26 -80.5t-84 -25.5q-57 0 -86 25.5t-29 80.5v271q0 119 -13.5 223t-40 196t-64.5 174t-87 156q-16 25 -34.5 49t-36.5 45
t-35 38t-29 28q-22 20 -43 45t-21 57q0 20 10 38.5t26 33.5t36 24t39 9q29 0 60 -18.5t59 -43.5q38 -37 76 -80.5t80 -109.5q24 -37 47 -82.5t43.5 -95t36 -101t22.5 -102.5q14 57 38 117t53 118.5t61 112t61 96.5q28 42 54 76q13 17 26 31.5t26 27.5q25 25 49.5 38.5
t47.5 13.5q24 0 45 -10t36.5 -25.5t24 -34t8.5 -35.5z" />
    <glyph glyph-name="delta" unicode="&#x3b4;" horiz-adv-x="1120" 
d="M1047 485q0 -114 -39 -207t-105.5 -159t-155 -102.5t-188.5 -36.5q-108 0 -197.5 37t-153.5 104.5t-99 163t-35 211.5q0 182 79.5 301.5t231.5 191.5q-84 59 -124 133t-40 142q0 58 23.5 108t66.5 86.5t104.5 57t137.5 20.5q109 0 191 -27t141 -61q38 -22 50.5 -41
t12.5 -45q0 -15 -6.5 -32.5t-18.5 -33t-28.5 -26t-36.5 -10.5q-31 0 -52 8t-40 16q-22 10 -45.5 21t-50 20t-55.5 15t-62 6q-25 0 -44 -7t-32.5 -19t-20.5 -27t-7 -31q0 -22 13 -47.5t43 -54t78.5 -62t118.5 -72.5q86 -47 150.5 -98.5t107.5 -115.5t65 -144t22 -183z
M821 485q0 64 -13.5 119t-43 102t-77 87.5t-116.5 74.5q-63 -19 -113.5 -49.5t-85.5 -75.5t-54 -106t-19 -141q0 -71 20 -128.5t55.5 -98.5t83 -63t101.5 -22q62 0 111 23t82.5 63.5t51 95.5t17.5 119z" />
    <glyph glyph-name="epsilon" unicode="&#x3b5;" horiz-adv-x="993" 
d="M948 135q0 -25 -15.5 -44t-43.5 -38q-26 -17 -65.5 -30.5t-86 -23t-98 -14.5t-102.5 -5q-129 0 -217.5 24.5t-143 67t-78.5 99.5t-24 122q0 85 48.5 147.5t141.5 96.5q-80 34 -114.5 93t-34.5 134q0 55 22.5 109t73 96.5t131.5 69t197 26.5q40 0 84.5 -5t88 -14t83 -21.5
t67.5 -27.5q38 -21 54 -42t16 -52q0 -18 -6 -37t-17 -34.5t-27 -26t-36 -10.5q-13 0 -23 1.5t-20 4.5t-20.5 7t-24.5 9q-37 14 -94 28.5t-123 14.5q-56 0 -94.5 -8.5t-62 -24.5t-34 -38t-10.5 -48q0 -57 49 -86.5t158 -29.5h131q56 0 79 -25t23 -72q0 -48 -23 -73t-79 -25
h-127q-73 0 -121.5 -8t-77.5 -23.5t-41 -38t-12 -51.5q0 -62 59 -93.5t181 -31.5q81 0 140 14t101 29q22 8 38.5 14.5t35.5 6.5q21 0 38.5 -10.5t30 -27t19 -36.5t6.5 -39z" />
    <glyph glyph-name="zeta" unicode="&#x3b6;" horiz-adv-x="907" 
d="M299 530q0 -73 23 -120.5t61.5 -77.5t87.5 -47t100 -31q47 -13 81.5 -24t60.5 -21.5t45 -21.5t35 -23q29 -23 48 -50.5t30 -55t15.5 -54.5t4.5 -49q0 -41 -12.5 -80.5t-35 -76t-52 -69t-64.5 -57.5q-30 -22 -62.5 -40t-63.5 -31t-58.5 -20t-48.5 -7q-27 0 -44 11t-27 26
t-13.5 32t-3.5 29q0 9 1 19t7 20t18 20t33 21l57 28.5t58 33.5q40 26 63 59.5t23 67.5q0 20 -11.5 38.5t-29.5 30.5q-10 7 -25.5 13t-32.5 11.5t-33 9.5l-28 7q-100 27 -180 64.5t-136 93.5t-86 134t-30 187q0 119 37 233t98.5 217t140 191.5t162.5 155.5h-313
q-57 0 -84 22.5t-27 71.5q0 51 27 73t84 22h549q54 0 83 -22t29 -73q0 -37 -17 -56t-40 -36q-8 -5 -48 -35.5t-96 -82t-119.5 -122.5t-117 -158t-88.5 -188t-35 -213z" />
    <glyph glyph-name="eta" unicode="&#x3b7;" horiz-adv-x="1174" 
d="M1034 -333q0 -57 -29.5 -78t-80.5 -21q-26 0 -47.5 4.5t-36.5 15t-23 28.5t-8 46v979q0 46 -11 86t-34.5 69.5t-59 46.5t-83.5 17t-91 -17t-74.5 -53t-50 -92.5t-18.5 -134.5v-485q0 -54 -32 -74t-83 -20t-80.5 20t-29.5 74v416q0 80 -1.5 139t-6 104t-12.5 80.5
t-21 67.5q-9 21 -19 39.5t-10 33.5q0 24 12 43t30 32.5t38.5 20.5t36.5 7q31 0 55 -14t51 -56q22 -32 29 -58.5t10 -37.5q22 37 53 68t72 53.5t93 35.5t116 13q79 0 143 -26.5t109 -77t69.5 -122t24.5 -161.5v-1011z" />
    <glyph glyph-name="theta" unicode="&#x3b8;" horiz-adv-x="1151" 
d="M1057 758q0 -175 -31 -318.5t-92 -245.5t-151 -158t-208 -56q-117 0 -207 55.5t-151 157t-92 245t-31 320.5q0 169 30.5 311.5t91 246t150.5 162t209 58.5t209 -57.5t150.5 -160.5t91.5 -246t31 -314zM575 184q55 0 99 33t76.5 95.5t52 153t24.5 204.5h-505
q5 -103 23 -192t49.5 -154t76.5 -102.5t104 -37.5zM575 1331q-54 0 -99 -33.5t-77.5 -95t-52 -148.5t-24.5 -194h505q-6 106 -24.5 193t-50 148.5t-76 95.5t-101.5 34z" />
    <glyph glyph-name="iota" unicode="&#x3b9;" horiz-adv-x="657" 
d="M647 86q0 -23 -10.5 -38t-30.5 -28q-26 -17 -70 -28.5t-104 -11.5q-146 0 -217.5 74.5t-71.5 234.5v678q0 48 29.5 71t83.5 23q112 0 112 -94v-684q0 -65 18 -92t60 -27q16 0 29.5 4t27 9t27.5 9t31 4q18 0 34 -9.5t27.5 -24.5t18 -33.5t6.5 -36.5z" />
    <glyph glyph-name="kappa" unicode="&#x3ba;" horiz-adv-x="1059" 
d="M997 80q0 -21 -11 -38.5t-30 -31t-43.5 -21t-50.5 -7.5q-31 0 -47.5 16.5t-30.5 42.5q-27 52 -64 111t-79 117t-88.5 111t-93.5 93q-28 -31 -50.5 -66t-39.5 -67v-256q0 -48 -28 -74t-85 -26t-85 26t-28 74v879q0 46 28 72t85 26t85 -26t28 -72v-318q42 62 93 121
t107 110.5t116 93.5t120 70q23 11 43.5 17t42.5 6q18 0 35.5 -9.5t31.5 -25t22.5 -37t8.5 -45.5q0 -20 -11 -39.5t-46 -38.5q-87 -45 -169 -104t-155 -137q69 -59 126.5 -123.5t103.5 -126.5t79.5 -118t55.5 -99q24 -49 24 -80z" />
    <glyph glyph-name="lambda" unicode="&#x3bb;" horiz-adv-x="1049" 
d="M1036 94q0 -18 -5.5 -37t-17 -35.5t-28 -27t-39.5 -10.5q-38 0 -77 11.5t-77 43t-73 87t-66 142.5l-135 379q-45 -75 -87.5 -156.5t-79.5 -161t-66 -152t-47 -130.5q-13 -38 -39.5 -50.5t-63.5 -12.5q-23 0 -44 6t-36.5 18t-25 29t-9.5 39q0 35 19 84q15 41 39 95.5
t54 117.5t66 131t75 136t80.5 133t82.5 122l-96 270q-17 47 -36.5 78.5t-41 52t-45 32t-49.5 18.5q-26 8 -45 26.5t-19 50.5q0 51 25 84t72 33q66 0 120.5 -23t102.5 -69q26 -25 49.5 -61.5t46.5 -84.5t46 -108t48 -133l260 -754q13 -37 27 -62.5t29 -43t31.5 -28.5
t35.5 -19q20 -10 29.5 -22.5t9.5 -37.5z" />
    <glyph glyph-name="mu" unicode="&#x3bc;" horiz-adv-x="1159" 
d="M369 -317q0 -28 -8.5 -46t-23.5 -29t-36 -15.5t-47 -4.5q-53 0 -82 19.5t-29 73.5v1286q0 53 31 73.5t82 20.5q53 0 83 -19t30 -75v-541q0 -48 12.5 -90.5t37.5 -74t63.5 -50t90.5 -18.5q53 0 93.5 17.5t68 49.5t42 77t14.5 99v531q0 55 32 74.5t82 19.5q53 0 82 -19.5
t29 -74.5v-891q0 -54 -31 -73t-84 -19q-51 0 -80.5 19t-29.5 73v41q-36 -63 -91.5 -98t-134.5 -35q-66 0 -117 28t-79 68v-397z" />
    <glyph glyph-name="nu" unicode="&#x3bd;" horiz-adv-x="1042" 
d="M920 549q-20 -43 -46.5 -92t-56 -99.5t-59.5 -99t-58 -91t-52 -76.5t-40 -54q-15 -19 -37.5 -31t-60.5 -12q-43 0 -64 11t-38 36q-55 81 -109 187.5t-102 223t-87 235.5t-63 224q-3 16 -4.5 28.5t-1.5 25.5q0 46 34 71t87 25q51 0 74.5 -20.5t31.5 -57.5
q18 -84 44.5 -176t59.5 -185t71.5 -183.5t80.5 -172.5q23 33 48 74t49.5 85.5t48 89.5t41.5 85q20 42 37.5 97.5t17.5 111.5q0 28 -4 48.5t-9.5 38.5t-9.5 35.5t-4 39.5q0 24 12.5 41.5t32 29t42 16.5t42.5 5q29 0 52 -16.5t39 -46t24 -70t8 -88.5q0 -59 -17 -136t-54 -157z
" />
    <glyph glyph-name="xi" unicode="&#x3be;" horiz-adv-x="948" 
d="M936 -45q0 -79 -40 -151t-124 -132q-30 -22 -62.5 -40t-63.5 -31t-58.5 -20t-48.5 -7q-27 0 -44 11t-27 26t-13.5 32t-3.5 29q0 9 1 19t7 20t18 20t33 21l57 28.5t58 33.5q40 26 63 58.5t23 66.5q0 23 -8.5 39.5t-27.5 28t-50 22.5t-76 22q-104 26 -191 61.5t-150 89
t-98.5 131t-35.5 183.5q0 69 22.5 129.5t62.5 108.5t95 81t119 48q-49 18 -82 45t-52.5 58.5t-27.5 66t-8 67.5q0 34 9 64.5t25.5 56.5t39 46.5t49.5 33.5h-127q-113 0 -113 100q0 51 28 73t85 22h589q54 0 83.5 -22t29.5 -73q0 -49 -29.5 -74.5t-83.5 -25.5h-110
q-64 0 -111.5 -14t-78 -39t-45.5 -59.5t-15 -75.5q0 -36 12.5 -66.5t41 -52.5t73.5 -34.5t109 -12.5h65q57 0 85 -26.5t28 -74.5q0 -52 -28 -73t-85 -21h-111q-76 0 -135.5 -18.5t-100.5 -51.5t-62 -79.5t-21 -102.5q0 -72 30.5 -119.5t77 -76t102.5 -44.5t107 -30
q86 -23 146 -49t98 -61t56 -79t20 -106z" />
    <glyph glyph-name="omicron" unicode="&#x3bf;" horiz-adv-x="1120" 
d="M559 -20q-224 0 -354.5 151.5t-130.5 392.5q0 243 130 392t355 149q228 0 358 -148t130 -393q0 -244 -131 -394t-357 -150zM559 860q-125 0 -191.5 -92t-66.5 -244q0 -150 67.5 -245t190.5 -95q128 0 194 90t66 250q0 168 -65 252t-195 84z" />
    <glyph glyph-name="pi" unicode="&#x3c0;" horiz-adv-x="1343" 
d="M1303 100q0 -32 -20.5 -55t-52 -37.5t-69.5 -21t-74 -6.5q-139 0 -209.5 81t-70.5 240v549h-268v-510q0 -89 -19 -156.5t-54 -112.5t-84.5 -68t-111.5 -23q-18 0 -36 6t-32.5 19.5t-23 34.5t-8.5 50q0 25 10.5 37.5t26.5 21.5t34.5 18.5t34.5 28.5t26.5 52t10.5 88v514
q-56 0 -89.5 -8t-61.5 -31q-19 -15 -31 -25t-35 -10q-21 0 -39 10.5t-31.5 26t-21.5 33.5t-8 33q0 23 9.5 41t31.5 36q18 15 42 31t59.5 28.5t85 20.5t118.5 8h858q54 0 72 -22.5t18 -73.5q0 -54 -20 -76t-70 -22h-168v-551q0 -26 5 -48.5t15.5 -38.5t27 -25t40.5 -9
q18 0 31.5 4t26 8.5t24.5 8.5t27 4q17 0 30.5 -9t23.5 -23t15 -32.5t5 -38.5z" />
    <glyph glyph-name="rho" unicode="&#x3c1;" horiz-adv-x="1176" 
d="M1102 530q0 -128 -36 -230t-100 -173t-152.5 -109t-192.5 -38q-88 0 -153 29.5t-112 80.5v-426q0 -46 -28.5 -71t-85.5 -25q-56 0 -83.5 25t-27.5 71v817q0 149 33 259t96 182t155 107.5t210 35.5q106 0 193.5 -34t150.5 -101t98 -167.5t35 -232.5zM877 530
q0 165 -66 247.5t-193 82.5q-132 0 -197 -93.5t-65 -260.5q0 -82 19 -142.5t53 -100.5t79.5 -59.5t98.5 -19.5q61 0 111 22.5t85.5 66.5t55 108.5t19.5 148.5z" />
    <glyph glyph-name="sigma1" unicode="&#x3c2;" horiz-adv-x="926" 
d="M895 -45q0 -41 -12.5 -80.5t-35 -76t-52 -69t-64.5 -57.5q-30 -22 -62.5 -40t-63.5 -31t-58.5 -20t-48.5 -7q-27 0 -44 11t-27 26t-13.5 32t-3.5 29q0 9 1 19t7 20t18 20t33 21l57 28.5t58 33.5q40 26 63 59.5t23 67.5q0 20 -11.5 38.5t-29.5 30.5q-10 7 -25.5 13
t-32.5 11.5t-33 9.5l-28 7q-100 27 -180.5 69.5t-137.5 104t-87.5 144t-30.5 188.5q0 114 35 207.5t100.5 160t158 103.5t207.5 37q37 0 74 -5.5t70.5 -14.5t63.5 -21t53 -25q27 -15 41 -32t14 -41q0 -16 -6.5 -38t-18.5 -41.5t-29 -33.5t-38 -14q-16 0 -31.5 5.5
t-34.5 14.5q-37 19 -76 30t-90 11q-59 0 -108 -18t-84.5 -55.5t-55.5 -94.5t-20 -135q0 -74 24 -125.5t63 -86t88.5 -56t100.5 -35.5q47 -13 81.5 -24t60.5 -21.5t45 -21.5t35 -23q29 -23 48 -50.5t30 -55t15.5 -54.5t4.5 -49z" />
    <glyph glyph-name="sigma" unicode="&#x3c3;" horiz-adv-x="1196" 
d="M1192 948q0 -56 -28 -77t-85 -21h-174q37 -30 64 -71.5t44 -88t25.5 -96t8.5 -94.5q0 -106 -31 -200.5t-92.5 -165.5t-152.5 -112.5t-212 -41.5q-115 0 -205 39.5t-152.5 109.5t-95 167t-32.5 212q0 136 39.5 236.5t108 167t161.5 99.5t201 33h495q57 0 85 -22.5
t28 -73.5zM819 514q0 70 -15.5 131t-46 106.5t-75.5 72t-104 26.5q-64 0 -115.5 -21.5t-88 -64t-56 -105t-19.5 -143.5q0 -76 18.5 -137.5t52.5 -104.5t82 -66.5t107 -23.5q62 0 110 24t81.5 67.5t51 104t17.5 134.5z" />
    <glyph glyph-name="tau" unicode="&#x3c4;" horiz-adv-x="1006" 
d="M944 948q0 -98 -113 -98h-239v-565q0 -65 18 -92t60 -27q6 0 22 3.5t27 8.5q20 8 31.5 11.5t29.5 3.5t35 -8t29.5 -21t20 -30.5t7.5 -35.5q0 -23 -8.5 -38t-29.5 -33q-13 -10 -35 -18.5t-47 -15t-50.5 -10t-46.5 -3.5q-145 0 -216.5 75.5t-71.5 235.5v559q-69 0 -111 -12
t-70 -35q-18 -16 -31 -25.5t-36 -9.5q-21 0 -39.5 10t-32 25.5t-21.5 33.5t-8 33q0 19 10 40t33 42q20 18 46.5 35t63 29.5t85 20t111.5 7.5h464q57 0 85 -23t28 -73z" />
    <glyph glyph-name="upsilon" unicode="&#x3c5;" horiz-adv-x="1153" 
d="M1061 530q0 -115 -32 -215.5t-92.5 -174.5t-149 -117t-201.5 -43q-119 0 -204 31t-139 87t-79 134t-25 171v564q0 48 29.5 71t83.5 23q113 0 113 -94v-539q0 -58 11.5 -105t37 -79.5t66 -50t98.5 -17.5q57 0 104.5 21t81.5 64.5t53 110.5t19 158q0 65 -9.5 118.5
t-25.5 99.5t-35.5 84t-40.5 71q-9 14 -14.5 28t-5.5 30q0 21 11 39t29.5 31.5t42 21.5t48.5 8q24 0 44 -11t42 -42q36 -50 62 -108.5t43.5 -120t25.5 -125t8 -124.5z" />
    <glyph glyph-name="phi" unicode="&#x3c6;" horiz-adv-x="1548" 
d="M887 -334q0 -46 -28 -71t-85 -25q-112 0 -112 96v322q-139 2 -248.5 41t-185 108.5t-115 167t-39.5 217.5q0 126 43 224t120.5 166.5t185.5 106.5t239 44v373q0 46 27.5 71t84.5 25q113 0 113 -96v-373q131 -6 239 -44t185.5 -106.5t120.5 -166.5t43 -224
q0 -120 -40 -217.5t-115.5 -167t-184.5 -108.5t-248 -41v-322zM887 193q100 3 169 27t112 67t62 102.5t19 132.5q0 88 -25 151.5t-71.5 104.5t-114 60.5t-151.5 19.5v-665zM662 858q-80 0 -146.5 -20.5t-114.5 -62t-75 -104.5t-27 -149q0 -74 19.5 -133.5t62.5 -102
t112.5 -66.5t168.5 -27v665z" />
    <glyph glyph-name="chi" unicode="&#x3c7;" horiz-adv-x="1108" 
d="M1096 -309q0 -19 -6 -40.5t-18.5 -40t-31 -30.5t-43.5 -12q-66 0 -121.5 24t-103.5 64q-24 21 -49 49t-50.5 67.5t-53 92.5t-56.5 123l-65 155l-160 -280q-14 -24 -26.5 -52t-23.5 -56t-19.5 -53.5l-14.5 -43.5q-5 -17 -11.5 -33t-17.5 -29t-29 -20.5t-46 -7.5
q-57 0 -88 26t-31 78q0 34 9 71.5t24 75.5t35 76t42 74l254 410l-78 180q-34 78 -59 129t-50 84t-53 51.5t-67 30.5q-21 7 -34.5 15t-21 18t-10 23t-2.5 30q0 18 5 39.5t17.5 39.5t33 30t51.5 12q57 0 114 -21t103 -67q26 -25 48.5 -58t43.5 -73.5t41.5 -90.5t44.5 -110
l37 -92l80 137q32 56 54 98t37.5 75.5t25.5 62.5t18 57q5 18 11.5 33t17.5 26t27.5 17t41.5 6q57 0 90 -22.5t33 -82.5q0 -25 -12 -63.5t-30.5 -82t-42.5 -87.5t-48 -82l-200 -319l110 -252q32 -75 61 -127t59 -87t64 -56t76 -33q32 -10 48 -27t16 -49z" />
    <glyph glyph-name="psi" unicode="&#x3c8;" horiz-adv-x="1466" 
d="M1368 567q0 -119 -27.5 -220t-89 -177t-161.5 -123.5t-244 -58.5v-324q0 -46 -28 -71t-85 -25q-112 0 -112 96v324q-144 11 -244 58.5t-162 123.5t-89.5 177t-27.5 220v398q0 45 28 70.5t85 25.5q113 0 113 -96v-398q0 -71 12.5 -135t45.5 -113.5t90.5 -82.5t148.5 -43
v1243q0 46 27.5 71t84.5 25q113 0 113 -96v-1243q84 11 141 44t91.5 82.5t49.5 113t15 134.5v398q0 45 27.5 70.5t84.5 25.5q113 0 113 -96v-398z" />
    <glyph glyph-name="omega" unicode="&#x3c9;" horiz-adv-x="1747" 
d="M1208 -20q-75 0 -132 19.5t-98 51t-67.5 71.5t-40.5 81q-17 -42 -46 -82t-72 -71.5t-99.5 -50.5t-128.5 -19q-112 0 -196.5 41t-140.5 114t-84.5 172t-28.5 215q0 92 18 166t49.5 133t74 105t91.5 82q35 26 72.5 40.5t64.5 14.5q20 0 39 -11.5t33.5 -28.5t23.5 -36.5
t9 -36.5q0 -31 -17 -48t-49 -36q-85 -49 -133.5 -138.5t-48.5 -205.5q0 -77 16 -139.5t45 -106.5t70 -68t92 -24q59 0 103 25.5t73 70.5t43.5 107t14.5 135v162q0 50 29 73t83 23q57 0 85 -23t28 -73v-162q0 -73 13 -135t41 -107t72 -70.5t105 -25.5q102 0 163 84.5
t61 253.5q0 58 -13.5 110.5t-38 97.5t-59 80t-76.5 58q-31 17 -46 36.5t-15 45.5q0 17 9 36.5t23.5 36.5t33 28.5t38.5 11.5t40 -6t38.5 -14t34.5 -17.5t27 -17.5q50 -36 92.5 -82t73 -105t48 -133t17.5 -166q0 -122 -30.5 -222t-89 -171t-143.5 -110t-194 -39z" />
    <glyph glyph-name="iotadieresis" unicode="&#x3ca;" horiz-adv-x="657" 
d="M647 86q0 -23 -10.5 -38t-30.5 -28q-26 -17 -70 -28.5t-104 -11.5q-146 0 -217.5 74.5t-71.5 234.5v678q0 48 29.5 71t83.5 23q112 0 112 -94v-684q0 -65 18 -92t60 -27q16 0 29.5 4t27 9t27.5 9t31 4q18 0 34 -9.5t27.5 -24.5t18 -33.5t6.5 -36.5zM54 1485
q52 0 89.5 -37.5t37.5 -89.5t-37.5 -88.5t-89.5 -36.5t-88.5 36.5t-36.5 88.5t37 89.5t88 37.5zM447 1485q52 0 89.5 -37.5t37.5 -89.5t-37.5 -88.5t-89.5 -36.5t-88.5 36.5t-36.5 88.5t37 89.5t88 37.5z" />
    <glyph glyph-name="upsilondieresis" unicode="&#x3cb;" horiz-adv-x="1153" 
d="M1061 530q0 -115 -32 -215.5t-92.5 -174.5t-149 -117t-201.5 -43q-119 0 -204 31t-139 87t-79 134t-25 171v564q0 48 29.5 71t83.5 23q113 0 113 -94v-539q0 -58 11.5 -105t37 -79.5t66 -50t98.5 -17.5q57 0 104.5 21t81.5 64.5t53 110.5t19 158q0 65 -9.5 118.5
t-25.5 99.5t-35.5 84t-40.5 71q-9 14 -14.5 28t-5.5 30q0 21 11 39t29.5 31.5t42 21.5t48.5 8q24 0 44 -11t42 -42q36 -50 62 -108.5t43.5 -120t25.5 -125t8 -124.5zM367 1485q52 0 89.5 -37.5t37.5 -89.5t-37.5 -88.5t-89.5 -36.5t-88.5 36.5t-36.5 88.5t37 89.5t88 37.5z
M760 1485q52 0 89.5 -37.5t37.5 -89.5t-37.5 -88.5t-89.5 -36.5t-88.5 36.5t-36.5 88.5t37 89.5t88 37.5z" />
    <glyph glyph-name="omicrontonos" unicode="&#x3cc;" horiz-adv-x="1120" 
d="M559 -20q-224 0 -354.5 151.5t-130.5 392.5q0 243 130 392t355 149q228 0 358 -148t130 -393q0 -244 -131 -394t-357 -150zM559 860q-125 0 -191.5 -92t-66.5 -244q0 -150 67.5 -245t190.5 -95q128 0 194 90t66 250q0 168 -65 252t-195 84zM641 1266q-8 -13 -16 -25.5
t-17.5 -22.5t-22 -16t-28.5 -6q-20 0 -39.5 7.5t-35 19.5t-25 28t-9.5 33q0 20 6 35t19 37l106 186q8 13 16 25.5t18 22.5t22 16t28 6q20 0 39.5 -7.5t35 -19.5t25 -28t9.5 -33q0 -20 -7 -37t-20 -39z" />
    <glyph glyph-name="upsilontonos" unicode="&#x3cd;" horiz-adv-x="1153" 
d="M1061 530q0 -115 -32 -215.5t-92.5 -174.5t-149 -117t-201.5 -43q-119 0 -204 31t-139 87t-79 134t-25 171v564q0 48 29.5 71t83.5 23q113 0 113 -94v-539q0 -58 11.5 -105t37 -79.5t66 -50t98.5 -17.5q57 0 104.5 21t81.5 64.5t53 110.5t19 158q0 65 -9.5 118.5
t-25.5 99.5t-35.5 84t-40.5 71q-9 14 -14.5 28t-5.5 30q0 21 11 39t29.5 31.5t42 21.5t48.5 8q24 0 44 -11t42 -42q36 -50 62 -108.5t43.5 -120t25.5 -125t8 -124.5zM645 1266q-8 -13 -16 -25.5t-17.5 -22.5t-22 -16t-28.5 -6q-20 0 -39.5 7.5t-35 19.5t-25 28t-9.5 33
q0 20 6 35t19 37l106 186q8 13 16 25.5t18 22.5t22 16t28 6q20 0 39.5 -7.5t35 -19.5t25 -28t9.5 -33q0 -20 -7 -37t-20 -39z" />
    <glyph glyph-name="omegatonos" unicode="&#x3ce;" horiz-adv-x="1747" 
d="M1208 -20q-75 0 -132 19.5t-98 51t-67.5 71.5t-40.5 81q-17 -42 -46 -82t-72 -71.5t-99.5 -50.5t-128.5 -19q-112 0 -196.5 41t-140.5 114t-84.5 172t-28.5 215q0 92 18 166t49.5 133t74 105t91.5 82q35 26 72.5 40.5t64.5 14.5q20 0 39 -11.5t33.5 -28.5t23.5 -36.5
t9 -36.5q0 -31 -17 -48t-49 -36q-85 -49 -133.5 -138.5t-48.5 -205.5q0 -77 16 -139.5t45 -106.5t70 -68t92 -24q59 0 103 25.5t73 70.5t43.5 107t14.5 135v162q0 50 29 73t83 23q57 0 85 -23t28 -73v-162q0 -73 13 -135t41 -107t72 -70.5t105 -25.5q102 0 163 84.5
t61 253.5q0 58 -13.5 110.5t-38 97.5t-59 80t-76.5 58q-31 17 -46 36.5t-15 45.5q0 17 9 36.5t23.5 36.5t33 28.5t38.5 11.5t40 -6t38.5 -14t34.5 -17.5t27 -17.5q50 -36 92.5 -82t73 -105t48 -133t17.5 -166q0 -122 -30.5 -222t-89 -171t-143.5 -110t-194 -39zM949 1266
q-8 -13 -16 -25.5t-17.5 -22.5t-22 -16t-28.5 -6q-20 0 -39.5 7.5t-35 19.5t-25 28t-9.5 33q0 20 6 35t19 37l106 186q8 13 16 25.5t18 22.5t22 16t28 6q20 0 39.5 -7.5t35 -19.5t25 -28t9.5 -33q0 -20 -7 -37t-20 -39z" />
    <glyph glyph-name="afii10023" unicode="&#x401;" horiz-adv-x="1075" 
d="M397 831h410q61 0 92 -19.5t31 -84.5q0 -62 -27 -85.5t-96 -23.5h-410v-372q0 -33 29 -33h442q66 0 95.5 -21t29.5 -83t-27 -85.5t-98 -23.5h-518q-86 0 -134 45.5t-48 126.5v1030q0 191 194 191h510q66 0 93.5 -21t27.5 -84q0 -66 -28.5 -87t-92.5 -21h-440
q-15 0 -25 -11t-10 -28v-310zM395 1792q52 0 89.5 -37.5t37.5 -89.5t-37.5 -88.5t-89.5 -36.5t-88.5 36.5t-36.5 88.5t37 89.5t88 37.5zM788 1792q52 0 89.5 -37.5t37.5 -89.5t-37.5 -88.5t-89.5 -36.5t-88.5 36.5t-36.5 88.5t37 89.5t88 37.5z" />
    <glyph glyph-name="afii10051" unicode="&#x402;" horiz-adv-x="1456" 
d="M1317 25q0 -116 -25 -198.5t-75.5 -140t-127 -88t-180.5 -30.5q-18 0 -42 1t-49 4t-49 7t-42 10q-31 10 -51.5 28t-20.5 56q0 18 4 39t13 40t24 31.5t37 12.5q13 0 36.5 -1.5t43.5 -4.5q25 -3 50 -6.5t48 -3.5q40 0 72.5 13t55.5 41.5t35.5 73.5t12.5 109v443
q0 38 -8 75.5t-31 67.5t-66 49t-112 19h-260v-582q0 -59 -28 -82.5t-86 -23.5q-59 0 -87 23.5t-28 82.5v1090h-240q-72 0 -98.5 26t-26.5 80t26.5 80.5t98.5 26.5h791q72 0 98.5 -26.5t26.5 -80.5t-26.5 -80t-98.5 -26h-322v-295h277q121 0 203.5 -31.5t132.5 -86.5
t72 -128.5t22 -157.5v-456z" />
    <glyph glyph-name="afii10052" unicode="&#x403;" horiz-adv-x="983" 
d="M954 1286q0 -27 -6 -47t-20 -33t-38.5 -19.5t-60.5 -6.5h-397q-15 0 -25 -11t-10 -28v-1051q0 -59 -28 -82.5t-86 -23.5q-59 0 -87 23.5t-28 82.5v1112q0 42 13.5 77.5t38 60.5t60 39t78.5 14h471q36 0 60.5 -6.5t38.5 -20t20 -33.5t6 -47zM809 1694l-201 -143
q-49 -35 -84 -35q-37 0 -62.5 30t-25.5 64q0 24 11.5 43t43.5 45l183 143q55 43 94 43q41 0 69.5 -30t28.5 -74t-57 -86z" />
    <glyph glyph-name="afii10053" unicode="&#x404;" horiz-adv-x="1233" 
d="M1188 215q0 -32 -17.5 -55t-46.5 -47q-33 -28 -75.5 -52t-94.5 -42t-112.5 -28.5t-128.5 -10.5q-141 0 -256 47.5t-196 138t-125 222t-44 298.5q0 178 51.5 314t139 227.5t205 138.5t249.5 47q72 0 130.5 -10.5t105 -28t83.5 -40.5t66 -48t38 -44t9 -42q0 -21 -9 -41.5
t-24 -37t-33.5 -26.5t-37.5 -10q-25 0 -45.5 10t-42.5 25q-27 20 -53.5 35t-56 25t-63 15t-75.5 5q-75 0 -141.5 -25.5t-119 -75t-88.5 -122.5t-50 -168h520q72 0 98.5 -26.5t26.5 -80.5t-26.5 -80t-98.5 -26h-524q18 -192 121.5 -297.5t289.5 -105.5q43 0 79.5 8t67.5 20.5
t57 27.5t48 30q15 10 26 17.5t20.5 12.5t20.5 7.5t27 2.5q20 0 39 -10t33.5 -25t23.5 -33.5t9 -35.5z" />
    <glyph glyph-name="afii10054" unicode="&#x405;" horiz-adv-x="1034" 
d="M514 -20q-167 0 -305.5 67t-138.5 143q0 46 32.5 83.5t67.5 37.5q23 0 41.5 -8t52.5 -33q110 -77 250 -77q104 0 162.5 50.5t58.5 141.5q0 73 -47.5 125.5t-206.5 99.5q-227 69 -308 166t-81 238q0 179 120.5 289t309.5 110q183 0 304.5 -70t121.5 -147q0 -43 -32.5 -82
t-73.5 -39q-30 0 -67 26q-80 58 -128 78.5t-117 20.5q-100 0 -154 -46.5t-54 -129.5q0 -51 25 -89t69 -61.5t135 -52.5q226 -67 320 -168.5t94 -261.5q0 -188 -124 -299.5t-327 -111.5z" />
    <glyph glyph-name="afii10055" unicode="&#x406;" horiz-adv-x="565" 
d="M397 84q0 -52 -27.5 -76t-88.5 -24q-62 0 -87.5 23.5t-25.5 76.5v1229q0 51 24.5 73.5t90.5 22.5q65 0 89.5 -23t24.5 -73v-1229z" />
    <glyph glyph-name="afii10056" unicode="&#x407;" horiz-adv-x="565" 
d="M397 84q0 -52 -27.5 -76t-88.5 -24q-62 0 -87.5 23.5t-25.5 76.5v1229q0 51 24.5 73.5t90.5 22.5q65 0 89.5 -23t24.5 -73v-1229zM86 1792q52 0 89.5 -37.5t37.5 -89.5t-37.5 -88.5t-89.5 -36.5t-88.5 36.5t-36.5 88.5t37 89.5t88 37.5zM479 1792q52 0 89.5 -37.5
t37.5 -89.5t-37.5 -88.5t-89.5 -36.5t-88.5 36.5t-36.5 88.5t37 89.5t88 37.5z" />
    <glyph glyph-name="afii10057" unicode="&#x408;" horiz-adv-x="961" 
d="M805 479q0 -233 -114 -366t-333 -133q-119 0 -229.5 54t-110.5 126q0 43 32.5 77.5t72.5 34.5q15 0 25 -3t49 -21q95 -55 168 -55q106 0 158 72.5t52 226.5v821q0 52 25 74t90 22q64 0 89.5 -22.5t25.5 -73.5v-834z" />
    <glyph glyph-name="afii10058" unicode="&#x409;" horiz-adv-x="1874" 
d="M1800 422q0 -97 -31 -175.5t-92 -133t-151 -84t-207 -29.5h-250q-105 0 -153 42t-48 130v969q0 17 -9.5 28t-24.5 11h-283q-16 0 -24.5 -10t-10.5 -25q-2 -18 -3.5 -33t-3 -28.5t-3.5 -27.5t-4 -32q-10 -84 -25 -176t-33.5 -185t-41 -184t-48 -173t-53.5 -152.5
t-59 -122.5q-17 -28 -33.5 -38.5t-42.5 -10.5q-18 0 -41.5 5.5t-45.5 16.5t-37 28.5t-15 41.5q0 12 3.5 27.5t14.5 35.5q36 65 72 171t69 245t61.5 308t49.5 360q9 81 53 126.5t133 45.5h424q44 0 79.5 -14t60 -39t38 -60.5t13.5 -77.5v-366h207q131 0 224.5 -31t153.5 -86
t88.5 -131t28.5 -166zM1569 422q0 43 -13.5 79t-43.5 62t-78.5 40.5t-118.5 14.5h-217v-366q0 -17 9.5 -28t25.5 -11h184q132 0 192 55.5t60 153.5z" />
    <glyph glyph-name="afii10059" unicode="&#x40a;" horiz-adv-x="1944" 
d="M1640 418q0 43 -13.5 78t-44 60t-79 38.5t-117.5 13.5h-217v-356q0 -17 10 -28t25 -11h185q132 0 191.5 53.5t59.5 151.5zM1870 416q0 -97 -31 -174.5t-92 -131t-151 -82t-207 -28.5h-248q-106 0 -153.5 42t-47.5 130v436h-543v-522q0 -59 -28 -80.5t-86 -21.5
q-59 0 -87 21.5t-28 80.5v1225q0 29 7 48t21.5 30t36 15.5t50.5 4.5t50.5 -4.5t35.5 -15.5t21 -30t7 -48v-490h543v490q0 29 7 48t21.5 30t36 15.5t50.5 4.5t50.5 -4.5t35.5 -15.5t21 -30t7 -48v-490h205q131 0 224.5 -29.5t154 -83t89 -128t28.5 -164.5z" />
    <glyph glyph-name="afii10060" unicode="&#x40b;" horiz-adv-x="1460" 
d="M1317 87q0 -58 -27.5 -80.5t-85.5 -22.5q-34 0 -57 6t-36 18.5t-18.5 32t-5.5 47.5v367q0 39 -8 78t-31 69.5t-66 50t-112 19.5h-260v-582q0 -59 -26 -82.5t-86 -23.5t-88.5 23.5t-28.5 82.5v1090h-260q-57 0 -81 24.5t-24 81.5q0 54 24 80.5t81 26.5h837q57 0 78 -26.5
t21 -80.5q0 -57 -21 -81.5t-78 -24.5h-348v-295h277q121 0 203.5 -31t132.5 -84t72 -125t22 -153v-405z" />
    <glyph glyph-name="afii10061" unicode="&#x40c;" horiz-adv-x="1184" 
d="M1153 86q0 -21 -12.5 -39.5t-31.5 -33t-42.5 -23t-44.5 -8.5q-18 0 -32 6t-25 15.5t-19 21t-16 22.5q-67 97 -131 177.5t-128.5 149.5t-132 128.5t-141.5 113.5v-526q0 -59 -28 -82.5t-86 -23.5q-59 0 -87 23.5t-28 82.5v1221q0 29 7 48t21.5 30t36 15.5t50.5 4.5
t50.5 -4.5t35.5 -15.5t21 -30t7 -48v-480q69 56 127.5 109t115 112.5t113.5 129.5t121 159q13 19 23 32t20.5 21t22.5 11.5t29 3.5q21 0 43 -9t41 -24.5t31 -35.5t12 -42q0 -18 -7.5 -36.5t-21.5 -38.5q-106 -150 -223 -272.5t-256 -219.5q74 -52 147.5 -117.5t142.5 -139
t131.5 -153.5t114.5 -161q14 -22 21.5 -39.5t7.5 -34.5zM830 1694l-201 -143q-49 -35 -84 -35q-37 0 -62.5 30t-25.5 64q0 24 11.5 43t43.5 45l183 143q55 43 94 43q41 0 69.5 -30t28.5 -74t-57 -86z" />
    <glyph glyph-name="afii10062" unicode="&#x40e;" horiz-adv-x="1102" 
d="M1114 1325q0 -19 -4.5 -52t-15.5 -79q-15 -65 -41.5 -153t-63.5 -188t-84 -207t-104 -210q-69 -125 -134 -212t-131 -141t-134.5 -78.5t-145.5 -24.5q-62 0 -114 16.5t-89 42.5q-17 12 -29 28t-12 42q0 22 8.5 44t23 39t32 28t35.5 11q23 0 39 -7.5t32.5 -16t36.5 -16
t51 -7.5q51 0 98.5 30.5t100.5 98.5q-66 89 -123.5 198.5t-105.5 228t-86 241t-64 238.5q-3 12 -6 26.5t-5 28.5t-3.5 26t-1.5 19q0 23 11.5 40t30.5 28t42.5 16.5t48.5 5.5q43 0 65 -15.5t31 -62.5q38 -186 105 -395.5t182 -433.5q41 73 78 153.5t68 161.5t57 158.5
t45.5 144.5t32 119.5t18.5 83.5q8 46 31 66t71 20q22 0 44 -3.5t39.5 -12.5t28.5 -25.5t11 -42.5zM560 1484q-117 0 -210 72.5t-93 154.5q0 33 29.5 60.5t66.5 27.5q43 0 70 -46q54 -95 137 -95q86 0 140 94q27 47 71 47q36 0 65 -28t29 -60q0 -84 -92.5 -155.5
t-212.5 -71.5z" />
    <glyph glyph-name="afii10145" unicode="&#x40f;" horiz-adv-x="1419" 
d="M1251 172q0 -90 -51 -131t-139 -41h-201q-15 0 -25 -11t-10 -28v-108q0 -57 -29.5 -79t-86.5 -22q-59 0 -86 22t-27 79v108q0 17 -9.5 28t-25.5 11h-203q-87 0 -138.5 41.5t-51.5 130.5v1141q0 57 30 76.5t87 19.5q58 0 85 -19.5t27 -76.5v-1061q0 -17 10 -28t25 -11h555
q16 0 25.5 11t9.5 28v1061q0 57 27 76.5t86 19.5q57 0 86.5 -19.5t29.5 -76.5v-1141z" />
    <glyph glyph-name="afii10017" unicode="&#x410;" horiz-adv-x="1235" 
d="M879 381h-514q-36 -109 -95 -311q-11 -48 -31.5 -67t-60.5 -19q-64 0 -100.5 23t-36.5 61q0 39 28.5 144.5t86.5 276.5q57 171 113 319.5t110 275.5q108 254 144.5 289.5t103.5 35.5q62 0 93 -31q44 -43 165 -341q107 -264 220 -618q89 -281 89 -341q0 -45 -39 -69.5
t-102 -24.5q-33 0 -52.5 16.5t-33.5 69.5q-33 130 -88 311zM623 1124q-90 -207 -195 -530h387q-91 305 -192 530z" />
    <glyph glyph-name="afii10018" unicode="&#x411;" horiz-adv-x="1174" 
d="M1100 422q0 -97 -31 -175.5t-92 -133t-151 -84t-208 -29.5h-249q-106 0 -153.5 42t-47.5 130v1030q0 42 13.5 77.5t38 60.5t60 39t78.5 14h498q72 0 98.5 -26.5t26.5 -80.5t-26.5 -80t-98.5 -26h-424q-15 0 -25 -11t-10 -28v-305h207q131 0 224.5 -31t154 -86t89 -131
t28.5 -166zM868 422q0 43 -13.5 79t-44 62t-79 40.5t-117.5 14.5h-217v-366q0 -17 10 -28t25 -11h184q133 0 192.5 55.5t59.5 153.5z" />
    <glyph glyph-name="afii10019" unicode="&#x412;" horiz-adv-x="1190" 
d="M842 743q122 -33 189 -123t67 -212q0 -194 -123.5 -301t-339.5 -107h-285q-87 0 -134.5 45t-47.5 127v1030q0 191 194 191h236q223 0 334.5 -92t111.5 -275q0 -90 -54.5 -170t-147.5 -113zM397 834h224q87 0 140.5 48t53.5 128q0 92 -51.5 131t-167.5 39h-164
q-15 0 -25 -11t-10 -28v-307zM397 625v-379q0 -33 29 -33h215q113 0 170 50t57 151q0 103 -64.5 157t-182.5 54h-224z" />
    <glyph glyph-name="afii10020" unicode="&#x413;" horiz-adv-x="983" 
d="M954 1286q0 -27 -6 -47t-20 -33t-38.5 -19.5t-60.5 -6.5h-397q-15 0 -25 -11t-10 -28v-1051q0 -59 -28 -82.5t-86 -23.5q-59 0 -87 23.5t-28 82.5v1112q0 42 13.5 77.5t38 60.5t60 39t78.5 14h471q36 0 60.5 -6.5t38.5 -20t20 -33.5t6 -47z" />
    <glyph glyph-name="afii10021" unicode="&#x414;" horiz-adv-x="1444" 
d="M997 1141q0 17 -9.5 28t-24.5 11h-265q-15 0 -23.5 -10t-10.5 -25q-17 -154 -39 -287.5t-48.5 -248t-57.5 -213t-66 -183.5h510q15 0 24.5 11t9.5 28v889zM1227 211q72 -14 107.5 -61.5t35.5 -118.5v-193q0 -48 -24 -77t-91 -29q-58 0 -86 23.5t-28 82.5v123q0 17 -10 28
t-25 11h-821q-16 0 -25.5 -11t-9.5 -28v-123q0 -59 -28 -82.5t-87 -23.5t-87 23.5t-28 82.5v193q0 83 47 129.5t128 54.5q40 75 76 180t67.5 233.5t57.5 277t44 311.5q10 81 57 128.5t134 47.5h405q88 0 139.5 -49t51.5 -134v-999z" />
    <glyph glyph-name="afii10022" unicode="&#x415;" horiz-adv-x="1075" 
d="M397 831h410q61 0 92 -19.5t31 -84.5q0 -62 -27 -85.5t-96 -23.5h-410v-372q0 -33 29 -33h442q66 0 95.5 -21t29.5 -83t-27 -85.5t-98 -23.5h-518q-86 0 -134 45.5t-48 126.5v1030q0 191 194 191h510q66 0 93.5 -21t27.5 -84q0 -66 -28.5 -87t-92.5 -21h-440
q-15 0 -25 -11t-10 -28v-310z" />
    <glyph glyph-name="afii10024" unicode="&#x416;" horiz-adv-x="1798" 
d="M1765 88q0 -18 -9 -36.5t-25 -34t-38 -25.5t-48 -10q-21 0 -36.5 6t-27 15.5t-20.5 21t-17 22.5q-67 96 -131.5 176t-129.5 149t-132.5 129t-140.5 115v-526q0 -59 -26 -82.5t-85 -23.5t-85 23.5t-26 82.5v526q-73 -56 -140.5 -116t-133 -129t-130 -149t-130.5 -175
q-8 -11 -17 -22.5t-20.5 -21t-26.5 -15.5t-36 -6q-26 0 -48.5 10t-38.5 25.5t-25 34t-9 36.5q0 17 5 34.5t19 37.5q64 91 133.5 175t140 156.5t139.5 132.5t132 103q-136 93 -256.5 219.5t-226.5 276.5q-14 20 -22.5 38.5t-8.5 38.5q0 22 13.5 42t33 35.5t42 24.5t40.5 9
q15 0 26.5 -3.5t21.5 -11.5t20.5 -21t23.5 -32q63 -87 119.5 -157.5t112.5 -130.5t116.5 -114t130.5 -110v472q0 58 26 82t85 24t85 -24t26 -82v-472q71 56 130.5 109.5t116 113.5t112.5 130.5t120 158.5q13 19 23 32t20 21t22 11.5t29 3.5q19 0 41.5 -8.5t42 -23t32.5 -34
t13 -42.5t-9.5 -41.5t-23.5 -38.5q-106 -150 -226.5 -276.5t-256.5 -219.5q63 -43 132 -103t139.5 -132.5t140 -156.5t133.5 -175q14 -20 19 -37.5t5 -34.5z" />
    <glyph glyph-name="afii10025" unicode="&#x417;" horiz-adv-x="1104" 
d="M1011 397q0 -85 -30.5 -161t-96 -133t-167.5 -90t-246 -33q-63 0 -119.5 9t-105 25t-88.5 36.5t-70 43.5q-17 14 -28 32.5t-11 43.5q0 18 7.5 38.5t21 38.5t32 30t41.5 12q19 0 41 -9t53 -26q45 -25 103.5 -43t130.5 -18q84 0 141.5 17.5t93 46.5t51 66t15.5 76
q0 56 -19.5 96.5t-60 66.5t-103.5 38t-151 12q-68 0 -96.5 26.5t-28.5 80.5t28.5 80t96.5 26q59 0 111.5 8t92.5 30t63.5 59.5t23.5 95.5q0 81 -57 131.5t-168 50.5q-34 0 -66.5 -6.5t-60 -16.5t-50 -20t-36.5 -18q-29 -16 -53 -27.5t-50 -11.5q-23 0 -42 10.5t-33 28
t-21.5 38.5t-7.5 42q0 24 11 42t28 33q27 21 67 42t89.5 38.5t107 28t121.5 10.5q114 0 199 -28.5t141.5 -79.5t84 -121t27.5 -154q0 -48 -13 -93.5t-40 -84t-67.5 -68t-96.5 -47.5q57 -17 105 -45.5t82.5 -70.5t53.5 -97.5t19 -126.5z" />
    <glyph glyph-name="afii10026" unicode="&#x418;" horiz-adv-x="1407" 
d="M1239 90q0 -54 -26.5 -80t-86.5 -26q-53 0 -82 26t-29 80v942l-590 -961q-25 -45 -58 -66t-81 -21q-30 0 -53 11.5t-36.5 31.5t-21 46.5t-7.5 55.5v1174q0 54 26.5 80t86.5 26q52 0 81 -26t29 -80v-926l589 956q23 38 55.5 57t85.5 19q26 0 47 -10t37 -29t25 -47.5
t9 -65.5v-1167z" />
    <glyph glyph-name="afii10027" unicode="&#x419;" horiz-adv-x="1407" 
d="M1239 90q0 -54 -26.5 -80t-86.5 -26q-53 0 -82 26t-29 80v942l-590 -961q-25 -45 -58 -66t-81 -21q-30 0 -53 11.5t-36.5 31.5t-21 46.5t-7.5 55.5v1174q0 54 26.5 80t86.5 26q52 0 81 -26t29 -80v-926l589 956q23 38 55.5 57t85.5 19q26 0 47 -10t37 -29t25 -47.5
t9 -65.5v-1167zM724 1542q-117 0 -210 72.5t-93 154.5q0 33 29.5 60.5t66.5 27.5q43 0 70 -46q54 -95 137 -95q86 0 140 94q27 47 71 47q36 0 65 -28t29 -60q0 -84 -92.5 -155.5t-212.5 -71.5z" />
    <glyph glyph-name="afii10028" unicode="&#x41a;" horiz-adv-x="1184" 
d="M1153 86q0 -21 -12.5 -39.5t-31.5 -33t-42.5 -23t-44.5 -8.5q-18 0 -32 6t-25 15.5t-19 21t-16 22.5q-67 97 -131 177.5t-128.5 149.5t-132 128.5t-141.5 113.5v-526q0 -59 -28 -82.5t-86 -23.5q-59 0 -87 23.5t-28 82.5v1221q0 29 7 48t21.5 30t36 15.5t50.5 4.5
t50.5 -4.5t35.5 -15.5t21 -30t7 -48v-480q69 56 127.5 109t115 112.5t113.5 129.5t121 159q13 19 23 32t20.5 21t22.5 11.5t29 3.5q21 0 43 -9t41 -24.5t31 -35.5t12 -42q0 -18 -7.5 -36.5t-21.5 -38.5q-106 -150 -223 -272.5t-256 -219.5q74 -52 147.5 -117.5t142.5 -139
t131.5 -153.5t114.5 -161q14 -22 21.5 -39.5t7.5 -34.5z" />
    <glyph glyph-name="afii10029" unicode="&#x41b;" horiz-adv-x="1266" 
d="M1098 90q0 -61 -29 -83.5t-86 -22.5q-59 0 -87 23.5t-28 82.5v1051q0 17 -9.5 28t-24.5 11h-283q-16 0 -24.5 -10t-10.5 -25q-2 -18 -3.5 -33t-3 -28.5t-3.5 -27.5t-4 -32q-10 -84 -25 -176t-33.5 -185t-41 -184t-48 -173t-53.5 -152.5t-59 -122.5q-17 -28 -33.5 -38.5
t-42.5 -10.5q-18 0 -41.5 5.5t-45.5 16.5t-37 28.5t-15 41.5q0 12 3.5 27.5t14.5 35.5q36 65 72 171t69 245t61.5 308t49.5 360q9 81 53 126.5t133 45.5h424q44 0 79.5 -14t60 -39t38 -60.5t13.5 -77.5v-1112z" />
    <glyph glyph-name="afii10030" unicode="&#x41c;" horiz-adv-x="1612" 
d="M1444 82q0 -51 -23.5 -74.5t-89.5 -23.5q-60 0 -82 22.5t-22 75.5v936l-295 -504q-30 -46 -59.5 -58t-67.5 -12q-39 0 -69 12.5t-58 55.5l-293 498v-928q0 -52 -22 -75t-84 -23q-65 0 -88 23.5t-23 74.5v1188q0 139 133 139q45 0 71.5 -18t51.5 -66l381 -666l389 681
q18 34 44 51.5t75 17.5q65 0 98 -32.5t33 -106.5v-1188z" />
    <glyph glyph-name="afii10031" unicode="&#x41d;" horiz-adv-x="1362" 
d="M1194 84q0 -55 -29 -77.5t-86 -22.5q-60 0 -87 23t-27 77v524h-568v-524q0 -52 -27.5 -76t-88.5 -24q-62 0 -87.5 23.5t-25.5 76.5v1229q0 51 24.5 73.5t90.5 22.5q65 0 89.5 -23t24.5 -73v-492h568v492q0 52 24.5 74t89.5 22q66 0 90.5 -22.5t24.5 -73.5v-1229z" />
    <glyph glyph-name="afii10032" unicode="&#x41e;" horiz-adv-x="1427" 
d="M717 -20q-289 0 -457 204t-168 514t168.5 512.5t456.5 202.5q287 0 452.5 -202.5t165.5 -512.5q0 -312 -165.5 -515t-452.5 -203zM717 1200q-184 0 -289.5 -146.5t-105.5 -355.5q0 -211 105.5 -358t289.5 -147q180 0 284.5 148t104.5 357q0 210 -104 356t-285 146z" />
    <glyph glyph-name="afii10033" unicode="&#x41f;" horiz-adv-x="1419" 
d="M1251 90q0 -59 -28 -82.5t-86 -23.5q-59 0 -87 23.5t-28 82.5v1051q0 17 -9.5 28t-25.5 11h-555q-15 0 -25 -11t-10 -28v-1051q0 -59 -28 -82.5t-86 -23.5q-59 0 -87 23.5t-28 82.5v1112q0 42 13.5 77.5t38 60.5t60 39t78.5 14h703q44 0 79 -14t60 -39t38 -60.5t13 -77.5
v-1112z" />
    <glyph glyph-name="afii10034" unicode="&#x420;" horiz-adv-x="1108" 
d="M393 502v-420q0 -52 -26.5 -75t-87.5 -23t-88 23t-27 75v1118q0 93 50 143t144 50h246q215 0 335 -118.5t120 -332.5q0 -195 -129 -317.5t-340 -122.5h-197zM393 715h205q105 0 168 63.5t63 163.5q0 119 -57.5 178.5t-171.5 59.5h-172q-17 0 -26 -12t-9 -27v-426z" />
    <glyph glyph-name="afii10035" unicode="&#x421;" horiz-adv-x="1233" 
d="M713 -20q-288 0 -454.5 189t-166.5 517q0 334 181 530.5t464 196.5q94 0 177.5 -20.5t148.5 -63t85.5 -69.5t20.5 -60q0 -41 -33 -78t-71 -37q-37 0 -88 35q-61 46 -118 63t-130 17q-180 0 -293.5 -137.5t-113.5 -372.5q0 -242 107 -369.5t308 -127.5q74 0 133.5 23
t144.5 80q32 21 68 21q39 0 70 -33.5t31 -68.5q0 -83 -146 -159t-325 -76z" />
    <glyph glyph-name="afii10036" unicode="&#x422;" horiz-adv-x="1065" 
d="M952 1393q53 0 75 -23.5t22 -83.5q0 -61 -22.5 -83.5t-74.5 -22.5h-305v-1096q0 -53 -28 -76.5t-89 -23.5t-86.5 23.5t-25.5 76.5v1096h-301q-55 0 -78 26t-23 80q0 57 23 82t78 25h835z" />
    <glyph glyph-name="afii10037" unicode="&#x423;" horiz-adv-x="1102" 
d="M1114 1325q0 -19 -4.5 -52t-15.5 -79q-15 -65 -41.5 -153t-63.5 -188t-84 -207t-104 -210q-69 -125 -134 -212t-131 -141t-134.5 -78.5t-145.5 -24.5q-62 0 -114 16.5t-89 42.5q-17 12 -29 28t-12 42q0 22 8.5 44t23 39t32 28t35.5 11q23 0 39 -7.5t32.5 -16t36.5 -16
t51 -7.5q51 0 98.5 30.5t100.5 98.5q-66 89 -123.5 198.5t-105.5 228t-86 241t-64 238.5q-3 12 -6 26.5t-5 28.5t-3.5 26t-1.5 19q0 23 11.5 40t30.5 28t42.5 16.5t48.5 5.5q43 0 65 -15.5t31 -62.5q38 -186 105 -395.5t182 -433.5q41 73 78 153.5t68 161.5t57 158.5
t45.5 144.5t32 119.5t18.5 83.5q8 46 31 66t71 20q22 0 44 -3.5t39.5 -12.5t28.5 -25.5t11 -42.5z" />
    <glyph glyph-name="afii10038" unicode="&#x424;" horiz-adv-x="1368" 
d="M1317 696q0 -97 -33 -188t-98.5 -162.5t-162 -116t-224.5 -49.5v-100q0 -59 -28 -83t-87 -24t-87 24t-28 83v100q-128 5 -225 49.5t-162 116t-98 162.5t-33 188q0 100 33.5 190.5t99.5 160t162.5 113t222.5 50.5v103q0 59 28 82.5t87 23.5t87 -23.5t28 -82.5v-103
q125 -7 221.5 -51t162.5 -113.5t100 -160t34 -189.5zM281 696q0 -56 16.5 -110t51 -97.5t89.5 -72t131 -33.5v625q-76 -6 -131 -35.5t-89.5 -73.5t-51 -97t-16.5 -106zM799 383q77 5 131.5 34.5t89.5 73.5t51 97.5t16 107.5q0 49 -15.5 102t-49.5 97.5t-89 75.5t-134 37
v-625z" />
    <glyph glyph-name="afii10039" unicode="&#x425;" horiz-adv-x="1110" 
d="M729 684q163 -153 244.5 -298t81.5 -282q0 -68 -27 -94t-86 -26q-58 0 -83 21.5t-34 84.5q-14 110 -66.5 210t-193.5 241q-146 -141 -206 -242.5t-76 -208.5q-12 -69 -37 -87.5t-80 -18.5q-58 0 -85.5 27.5t-27.5 92.5q0 133 87.5 279t262.5 305q-141 149 -221 310.5
t-80 297.5q0 59 28 86t91 27q52 0 77 -19t32 -73q14 -124 73.5 -245.5t163.5 -240.5q133 144 189.5 255t72.5 231q6 49 31.5 70.5t77.5 21.5q64 0 91.5 -25t27.5 -88q0 -129 -84.5 -287.5t-243.5 -324.5z" />
    <glyph glyph-name="afii10040" unicode="&#x426;" horiz-adv-x="1446" 
d="M1393 -164q0 -61 -28.5 -82.5t-86.5 -21.5q-59 0 -87 23.5t-28 82.5v123q0 17 -9.5 28t-25.5 11h-770q-88 0 -139 42.5t-51 129.5v1131q0 58 28 82t87 24q58 0 86 -24t28 -82v-1051q0 -17 10 -28t25 -11h555q16 0 25.5 11t9.5 28v1051q0 58 28 82t87 24q58 0 86 -24
t28 -82v-1092q63 -11 102.5 -56.5t39.5 -119.5v-199z" />
    <glyph glyph-name="afii10041" unicode="&#x427;" horiz-adv-x="1227" 
d="M1059 90q0 -59 -28 -82.5t-87 -23.5t-87 23.5t-28 82.5v399q-52 -20 -129 -38.5t-174 -18.5q-121 0 -204 34.5t-134 91.5t-73.5 130t-22.5 150v465q0 58 28 82t87 24t87 -24t28 -82v-455q0 -42 11 -80.5t38 -67.5t72.5 -46t115.5 -17q62 0 131.5 13.5t138.5 41.5v611
q0 58 28 82t87 24t87 -24t28 -82v-1213z" />
    <glyph glyph-name="afii10042" unicode="&#x428;" horiz-adv-x="1950" 
d="M1782 174q0 -85 -51.5 -129.5t-139.5 -44.5h-1233q-88 0 -139 45.5t-51 130.5v1127q0 58 28 82t87 24q58 0 86 -24t28 -82v-1051q0 -17 10 -28t25 -11h428v1090q0 58 28 82t87 24t87 -24t28 -82v-1090h428q15 0 24.5 11t9.5 28v1051q0 58 28 82t87 24t87 -24t28 -82
v-1129z" />
    </font>
</defs>
</svg>
