<?xml version="1.0" standalone="no"?>
<!DOCTYPE svg PUBLIC "-//W3C//DTD SVG 1.1//EN" "http://www.w3.org/Graphics/SVG/1.1/DTD/svg11.dtd" >
<svg xmlns="http://www.w3.org/2000/svg">
<metadata></metadata>
<defs>
<font id="exo_2.0extra_light" horiz-adv-x="1153" >
<font-face units-per-em="2048" ascent="1638" descent="-410" />
<missing-glyph horiz-adv-x="466" />
<glyph unicode="fi" horiz-adv-x="1155" d="M68 915v62l178 8v197q0 142 62 212t204 70q133 0 209 -10v-61h-182q-116 0 -163.5 -48t-47.5 -169v-189h633v-987h-80v915h-553v-915h-82v915h-178zM870 1243v123q0 33 31 33h37q33 0 33 -33v-123q0 -33 -33 -33h-37q-31 0 -31 33z" />
<glyph unicode="fl" horiz-adv-x="1290" d="M70 915v62l178 8v197q0 143 61 212.5t203 69.5q79 0 249.5 -4.5t227.5 -11.5v-1237q0 -76 41 -116t117 -40h113l10 -53q-50 -16 -146 -16q-99 0 -157 56.5t-58 158.5v1194h-368q-117 1 -164 -48t-47 -171v-189h334v-72h-334v-915h-82v915h-178z" />
<glyph unicode=" "  horiz-adv-x="466" />
<glyph unicode="&#x09;" horiz-adv-x="466" />
<glyph unicode="&#xa0;" horiz-adv-x="466" />
<glyph unicode="!" horiz-adv-x="528" d="M217 35v123q0 19 8 27t27 8h27q19 0 26.5 -8t7.5 -27v-123q0 -19 -7.5 -27t-26.5 -8h-27q-19 0 -27 8t-8 27zM223 743v680h82v-680l-6 -323h-68z" />
<glyph unicode="&#x22;" horiz-adv-x="684" d="M170 1413h74l-6 -430h-62zM440 1413h72l-4 -430h-62z" />
<glyph unicode="#" horiz-adv-x="1376" d="M115 459l12 63h235l74 428h-235l12 64h236l69 399h74l-70 -399h441l69 399h74l-70 -399h224l-11 -64h-225l-74 -428h224l-11 -63h-223l-80 -459h-74l80 459h-440l-80 -459h-74l80 459h-237zM436 522h441l73 428h-440z" />
<glyph unicode="$" horiz-adv-x="1146" d="M135 1071q0 63 6 113t21 87.5t33 64.5t47.5 45.5t60 30t75.5 17t88 7t103 0.5h29l12 209h56l-13 -211q162 -6 310 -27l-9 -61q-145 9 -305 12l-35 -610l123 -21q157 -23 222 -109.5t65 -267.5q0 -71 -9.5 -126t-26.5 -94.5t-47 -67t-62.5 -44t-82 -26t-98 -12.5 t-116.5 -3h-17l-14 -249h-57l14 249q-188 4 -350 27l8 64q236 -13 348 -13l37 623l-139 22q-149 23 -213 111.5t-64 259.5zM219 1069q0 -143 48 -207.5t165 -83.5l125 -20l37 602h-23q-64 0 -98.5 -1t-79 -6.5t-66 -17t-47 -32t-36 -52t-18 -76.5t-7.5 -106zM569 55h15 q69 1 116 5t90 15.5t68.5 31.5t44.5 53t27 79.5t8 110.5q0 153 -48.5 216.5t-170.5 82.5l-113 19z" />
<glyph unicode="%" horiz-adv-x="1814" d="M117 1020q0 222 70.5 320t242.5 98t242.5 -98t70.5 -320t-70.5 -320t-242.5 -98t-242.5 98t-70.5 320zM186 1020q0 -194 54 -277.5t190 -83.5t190 83.5t54 277.5t-54 277t-190 83t-190 -83t-54 -277zM387 0l965 1413h69l-966 -1413h-68zM1071 403q0 221 70.5 319.5 t242.5 98.5q170 0 241 -98.5t71 -319.5q0 -222 -70.5 -320.5t-241.5 -98.5q-172 0 -242.5 98.5t-70.5 320.5zM1141 403q0 -195 53 -278.5t188 -83.5q136 0 190 84t54 278t-54 277.5t-190 83.5q-135 0 -188 -83t-53 -278z" />
<glyph unicode="&#x26;" horiz-adv-x="1597" d="M158 356q0 172 63.5 266t214.5 107v8q-128 10 -182.5 91.5t-54.5 238.5q0 70 10.5 123.5t29.5 92.5t53 65.5t72.5 43t98 25.5t119 12t145.5 3q175 0 326 -19l-13 -61q-64 6 -317 6q-88 0 -147 -4t-112 -15.5t-84 -31.5t-54 -54t-32 -81t-9 -113q0 -89 17 -145.5t59 -89.5 t103 -45.5t159 -12.5h448l12 305h66v-305h281l-7 -68h-274v-483q0 -156 156 -156h172l10 -57q-91 -16 -187 -16q-110 0 -168 51.5t-63 148.5q-96 -112 -213.5 -158t-290.5 -46q-223 0 -315 81.5t-92 292.5zM246 365q0 -174 71 -241t256 -67q173 0 288 51.5t208 163.5v426 h-448q-84 0 -143.5 -10t-105.5 -32.5t-73 -61t-40 -94.5t-13 -135z" />
<glyph unicode="'" horiz-adv-x="413" d="M170 1413h74l-6 -430h-62z" />
<glyph unicode="(" horiz-adv-x="729" d="M133 639q0 390 121 627.5t379 351.5l12 -49q-220 -112 -324 -338t-104 -590q0 -358 104 -585t324 -345l-12 -49q-258 115 -379 352.5t-121 624.5z" />
<glyph unicode=")" horiz-adv-x="729" d="M86 -289q219 118 322.5 345t103.5 585q0 363 -103.5 589.5t-322.5 338.5l10 49q258 -114 379 -351.5t121 -627.5q0 -387 -121 -624.5t-379 -352.5z" />
<glyph unicode="*" horiz-adv-x="925" d="M137 1157l23 60l248 -91l-2 -26l-13 -19zM244 834l196 262l-8 317h64l-13 -317l197 -265l-49 -34l-168 254l-168 -252zM518 1100v26l252 88l21 -59l-261 -74z" />
<glyph unicode="+" horiz-adv-x="1130" d="M133 575v68h397v377h70v-377h397v-68h-399v-376h-66v376h-399z" />
<glyph unicode="," horiz-adv-x="436" d="M172 31v127q-3 35 35 35h26q19 0 27 -8t8 -27v-131q-4 -149 -47 -275l-39 15q11 113 11 233q-10 0 -17 9t-4 22z" />
<glyph unicode="-" horiz-adv-x="970" d="M168 481v68h635v-68h-635z" />
<glyph unicode="." horiz-adv-x="434" d="M166 35v123q0 35 37 35h28q19 0 27 -8t8 -27v-123q0 -19 -8 -27t-27 -8h-28q-37 0 -37 35z" />
<glyph unicode="/" horiz-adv-x="1024" d="M72 -125l805 1538h75l-805 -1538h-75z" />
<glyph unicode="0" horiz-adv-x="1206" d="M152 707q0 386 101 558.5t349 172.5q249 0 351 -172.5t102 -558.5q0 -193 -23 -327t-76 -226.5t-140 -135.5t-214 -43q-248 0 -349 173t-101 559zM236 707q0 -349 81.5 -502.5t284.5 -153.5t286 154t83 502t-83 501.5t-286 153.5t-284.5 -153t-81.5 -502z" />
<glyph unicode="1" horiz-adv-x="784" d="M68 1266l381 147h83v-1413h-83v1229q0 51 6 100l-373 -123z" />
<glyph unicode="2" horiz-adv-x="1142" d="M123 0v51q0 24 14 41l471 541q145 164 207.5 285.5t58.5 240.5q-2 53 -19.5 90.5t-43 59.5t-69 34t-86.5 15.5t-107 3.5q-188 0 -402 -43l-12 63q139 33 226.5 44.5t183.5 11.5q108 0 178.5 -11t128 -41t84.5 -88.5t27 -148.5q0 -134 -63.5 -254t-213.5 -295l-457 -524 q78 2 240 2h553v-78h-899z" />
<glyph unicode="3" horiz-adv-x="1132" d="M121 10l12 66q256 -25 399 -25q193 0 277 79t84 267q0 68 -13.5 120t-48 98.5t-103 72.5t-169.5 27h-262v63l262 4q78 2 134.5 23.5t87 52t48.5 75.5t22.5 82.5t4.5 84.5q-4 155 -78 208.5t-272 53.5q-174 0 -350 -23l-15 64q199 35 371 35q236 0 331 -71t95 -255 q0 -310 -219 -356v-8q70 -11 120.5 -42t79.5 -79t42.5 -105t15.5 -129q3 -216 -95.5 -317t-334.5 -101q-163 0 -426 35z" />
<glyph unicode="4" horiz-adv-x="1228" d="M115 563l442 850h86l-446 -858q-20 -38 -1.5 -67t58.5 -29h614v448l19 238h63v-686h172v-62l-172 -8v-389h-82v387h-649q-69 0 -102.5 56.5t-1.5 119.5z" />
<glyph unicode="5" horiz-adv-x="1083" d="M127 31l14 65q203 -47 357 -47q92 0 158.5 18t106.5 48t64 78.5t32 100.5t9 124q0 70 -12 121t-30.5 88.5t-59.5 62t-80.5 39t-113 22.5t-137.5 11t-173 4h-47q-18 2 -28 13.5t-9 29.5l31 604h700l-8 -74h-622l-23 -501l123 -2q128 -4 213.5 -15.5t158.5 -38t114 -72.5 t63 -117.5t22 -174.5q0 -62 -6 -111t-21.5 -102.5t-46.5 -92.5t-78 -71.5t-119.5 -49t-166.5 -16.5q-172 0 -385 56z" />
<glyph unicode="6" horiz-adv-x="1159" d="M158 633q0 151 10 265.5t28.5 200.5t51 145t71.5 97.5t97 59.5t120 29t148 8q152 0 254 -27l-16 -61q-80 14 -238 14q-72 0 -124 -7t-99.5 -24t-79.5 -48.5t-59 -79t-42.5 -117t-24.5 -159.5t-11 -210q88 106 177 147t224 41q218 0 300.5 -104t82.5 -373q0 -65 -4 -114 t-15.5 -98.5t-31 -85t-51.5 -66.5t-76.5 -50t-106 -30t-139.5 -11q-64 0 -115.5 7t-94.5 20t-75.5 35.5t-57.5 51t-42.5 70t-29.5 87.5t-18.5 108t-9.5 128t-3 151zM244 627q0 -98 3 -164.5t11.5 -132t25 -107t43 -78t65.5 -55.5t91.5 -30t122.5 -11q88 0 149.5 17.5 t98.5 47t57.5 81t27.5 106t7 135.5q0 113 -14 185.5t-49.5 123t-96.5 72t-157 21.5q-112 0 -198 -39.5t-187 -145.5v-26z" />
<glyph unicode="7" horiz-adv-x="1038" d="M94 1413h778q54 0 70.5 -22.5t-0.5 -71.5l-457 -1319h-84l435 1255q15 43 30 84h-768z" />
<glyph unicode="8" horiz-adv-x="1249" d="M166 352q0 183 52 273.5t179 103.5v8q-105 12 -153.5 92t-48.5 232q0 100 19.5 166.5t68 114t132 69t210.5 21.5q128 0 212 -21t132 -69t67 -114.5t19 -166.5q0 -152 -48.5 -232t-154.5 -92v-8q127 -13 179 -103.5t52 -273.5q0 -83 -12 -140.5t-42 -103t-83 -71.5 t-131 -40t-190 -15q-110 -1 -188 12.5t-131 40t-83.5 72t-43.5 104t-13 141.5zM248 362q0 -115 31 -178t113 -94t235 -31q115 0 187 15.5t114 53.5t57.5 92.5t15.5 141.5q0 75 -6 126t-24 90t-43 61.5t-69.5 36t-97 18t-132.5 4.5q-82 -1 -136 -5.5t-99.5 -19t-71 -36.5 t-43.5 -61t-24.5 -89.5t-6.5 -124.5zM276 1057q0 -95 14 -149.5t56.5 -87t106 -42.5t176.5 -10q76 0 127 4.5t91.5 17t63.5 32t38.5 53.5t20.5 76.5t5 105.5q0 88 -14 142t-52.5 91.5t-105.5 52.5t-176 15q-108 0 -175.5 -15t-107 -52.5t-54 -92t-14.5 -141.5z" />
<glyph unicode="9" horiz-adv-x="1161" d="M131 967q0 117 20 200.5t67.5 146.5t131.5 93.5t207 30.5q87 0 150.5 -12t111.5 -33.5t79 -65.5t51 -93t29.5 -132t13 -166t3.5 -211q0 -162 -12.5 -279.5t-41.5 -201.5t-68 -136t-101.5 -82t-132.5 -40.5t-170 -10.5q-155 0 -268 27l16 61q106 -12 252 -12 q72 0 124.5 6.5t101 24t81 48.5t59.5 78.5t42.5 117t24 160.5t9.5 212q-88 -109 -176.5 -150.5t-224.5 -41.5q-205 0 -292 116t-87 345zM213 963q0 -196 69 -292t244 -96q112 0 198 40t187 147q0 76 -1 127t-4.5 109t-9 94.5t-15.5 76.5t-23.5 64t-33.5 49t-45 38 t-58.5 24.5t-74 15.5t-91.5 4q-103 0 -171.5 -26t-105 -81t-51 -124t-14.5 -170z" />
<glyph unicode=":" horiz-adv-x="438" d="M168 35v123q0 19 8 27t27 8h28q37 0 37 -35v-123q0 -35 -37 -35h-28q-19 0 -27 8t-8 27zM168 727v125q0 19 8 27t27 8h28q37 0 37 -35v-125q0 -35 -37 -35h-28q-19 0 -27 8t-8 27z" />
<glyph unicode=";" horiz-adv-x="442" d="M170 727v125q0 19 8 27t27 8h31q19 0 26.5 -8t7.5 -27v-125q0 -19 -7.5 -27t-26.5 -8h-31q-19 0 -27 8t-8 27zM174 31v127q0 19 8 27t27 8h27q19 0 26.5 -8t7.5 -27v-131q-3 -146 -45 -275l-41 15q13 133 13 233q-11 0 -17.5 9t-5.5 22z" />
<glyph unicode="&#x3c;" horiz-adv-x="1101" d="M127 571v70l811 369v-70l-735 -334l735 -325v-70z" />
<glyph unicode="=" horiz-adv-x="1204" d="M170 344v68h864v-68h-864zM170 778v68h864v-68h-864z" />
<glyph unicode="&#x3e;" horiz-adv-x="1101" d="M164 211v70l735 325l-735 334v70l811 -369v-70z" />
<glyph unicode="?" horiz-adv-x="1036" d="M96 1419q14 2 52.5 9t51.5 9t46 7t55 6.5t58 4t75 3t88 0.5q404 0 404 -317q0 -63 -21 -118.5t-54.5 -98t-74.5 -84t-82 -84.5t-75 -89.5t-55.5 -110t-22.5 -136.5h-74q0 80 20 148.5t53 117.5t73 93t80 83t73.5 78t54.5 88.5t21 104.5q0 131 -80 192t-250 61 q-34 0 -62.5 -0.5t-56 -1.5t-46.5 -1.5t-44.5 -2.5t-37.5 -2.5t-39 -3.5t-36.5 -4t-41 -5t-42.5 -5zM455 35v123q0 19 7.5 27t26.5 8h27q19 0 27 -8t8 -27v-123q0 -19 -8 -27t-27 -8h-27q-19 0 -26.5 8t-7.5 27z" />
<glyph unicode="@" horiz-adv-x="1431" d="M182 543q0 112 2.5 186.5t13 144.5t24.5 111t44 78t64 54.5t91.5 31t120.5 17.5t156 5h289q279 0 279 -253v-652h-60l-12 162q-71 -64 -201.5 -119t-255.5 -55q-121 0 -189.5 58.5t-68.5 164.5v109q0 97 61.5 149.5t174.5 52.5h475v127q0 89 -48 137.5t-165 47.5h-277 q-82 0 -131 -2t-100.5 -11.5t-78 -23.5t-54 -44.5t-38.5 -67.5t-21 -99.5t-12.5 -133t-2.5 -175.5q0 -109 2.5 -181t13.5 -137t23 -102.5t42.5 -69.5t60.5 -46t88 -24t113.5 -12t148.5 -2h501v-63q-332 -8 -499 -8q-103 -1 -173 1.5t-134 15.5t-102 31t-71 55.5t-49 80.5 t-27.5 115.5t-14.5 150.5t-3 195zM559 485q0 -158 184 -161q107 -1 234.5 46t212.5 117v248l-461 -8q-170 -6 -170 -147v-95z" />
<glyph unicode="A" horiz-adv-x="1245" d="M35 0l493 1386q10 27 37 27h115q27 0 37 -27l493 -1386h-88l-174 498h-651l-174 -498h-88zM324 571h598l-230 658l-41 114h-57l-41 -114z" />
<glyph unicode="B" horiz-adv-x="1257" d="M203 0v1413q159 17 413 17q131 0 214.5 -16.5t140.5 -59t80.5 -113t23.5 -180.5q0 -154 -57 -233t-182 -91v-8q152 -13 216 -106.5t64 -270.5q0 -110 -23 -180.5t-77.5 -112.5t-134 -58.5t-203.5 -16.5q-304 0 -475 16zM287 61q160 -4 383 -4q104 0 169 12.5t110 47 t63 92.5t18 151q0 100 -19.5 164t-66 102.5t-115.5 54t-178 17.5h-364v-637zM287 766h364q98 1 159 13.5t103 45.5t59 88t17 142q0 93 -19 151t-66 91.5t-114 46t-176 12.5q-183 0 -327 -4v-586z" />
<glyph unicode="C" d="M147 707q0 205 27.5 342t91.5 225t163.5 126t248.5 38q215 0 364 -37l-14 -62q-168 23 -350 23q-167 0 -262 -63t-137.5 -204t-42.5 -388q0 -149 14.5 -256t46 -185t84 -124.5t124.5 -68.5t173 -22q216 0 379 27l14 -64q-160 -39 -393 -39q-198 0 -312.5 71.5 t-166.5 229.5t-52 431z" />
<glyph unicode="D" horiz-adv-x="1351" d="M203 0v1413q260 19 477 19q147 0 245.5 -37t161.5 -124.5t90 -223.5t27 -340t-27 -340t-90 -223.5t-161.5 -124.5t-245.5 -37q-227 0 -477 18zM287 63q173 -6 393 -6q164 0 258 62.5t136 202.5t42 385t-42 384.5t-136 202t-258 62.5q-218 0 -393 -6v-1287z" />
<glyph unicode="E" horiz-adv-x="1132" d="M190 217v979q0 95 63 156t163 61q405 0 602 -8l-4 -64h-584q-71 0 -113.5 -43.5t-42.5 -115.5v-394h656v-69h-656v-488q0 -72 42.5 -115.5t113.5 -43.5h584l4 -64q-197 -8 -602 -8q-100 0 -163 61t-63 156z" />
<glyph unicode="F" horiz-adv-x="1089" d="M197 0v1194q0 98 62.5 158.5t162.5 60.5q395 0 588 -10l-6 -62h-564q-72 0 -115.5 -43.5t-43.5 -115.5v-404h641v-69h-641v-709h-84z" />
<glyph unicode="G" horiz-adv-x="1277" d="M147 709q0 275 53 432t170 227t322 70q234 0 400 -37l-15 -62q-185 23 -383 23q-174 0 -271 -60t-141 -201t-44 -396q0 -350 88 -502t299 -152q66 0 125.5 15t112 46t87.5 58t84 70v579h84v-819h-59l-17 172q-81 -88 -192 -142.5t-240 -54.5q-247 0 -355 173.5 t-108 560.5z" />
<glyph unicode="H" horiz-adv-x="1351" d="M203 0v1413h84v-618h778v618h84v-1413h-84v721h-778v-721h-84z" />
<glyph unicode="I" horiz-adv-x="489" d="M203 0v1413h84v-1413h-84z" />
<glyph unicode="J" horiz-adv-x="671" d="M74 2l10 57h115q192 0 192 193v1161h84v-1161q0 -132 -65 -200q-63 -66 -187 -66h-4q-67 0 -145 16z" />
<glyph unicode="K" horiz-adv-x="1167" d="M203 0v1413h82v-473q0 -82 -9 -168h222l479 641h96l-457 -614q-19 -28 -55 -60v-4q36 -32 57 -61l488 -674h-98l-510 702h-219q6 -89 6 -170v-532h-82z" />
<glyph unicode="L" horiz-adv-x="1042" d="M197 223v1190h84v-1182q0 -72 43.5 -115.5t115.5 -43.5h547v-62q-184 -10 -561 -10q-105 0 -167 62t-62 161z" />
<glyph unicode="M" horiz-adv-x="1761" d="M172 0l59 1370q3 43 43 43h117q29 0 39 -29l358 -991q14 -36 37.5 -104t30.5 -86h49l68 194l356 987q10 29 41 29h117q19 0 30 -11.5t11 -31.5l61 -1370h-84l-59 1341h-47l-426 -1179q-10 -29 -39 -29h-107q-31 0 -41 29l-424 1179h-47l-59 -1341h-84z" />
<glyph unicode="N" horiz-adv-x="1417" d="M203 0v1372q0 41 41 41h102q34 0 49 -31l594 -1128q18 -33 52.5 -99.5t39.5 -76.5h52q0 33 -1.5 97t-1.5 95v1143h84v-1372q0 -41 -38 -41h-111q-31 0 -47 31l-610 1155q-52 98 -76 151h-47q2 -51 2 -153v-1184h-84z" />
<glyph unicode="O" horiz-adv-x="1359" d="M147 707q0 207 27.5 344t92 224.5t164 125t249.5 37.5t249 -37.5t163 -125t91 -224.5t27 -344t-27 -344t-91 -225t-163 -125.5t-249 -37.5q-199 0 -314 70.5t-167 228.5t-52 433zM236 707q0 -186 22.5 -308.5t76 -201.5t136.5 -112.5t209 -33.5q101 0 173 22t124.5 68.5 t84 124.5t46 185t14.5 256q0 247 -42.5 388t-137.5 204t-262 63t-262.5 -63t-138.5 -204t-43 -388z" />
<glyph unicode="P" horiz-adv-x="1193" d="M203 0v1413q176 17 461 17q120 0 196.5 -19.5t128 -68t73 -129t21.5 -205.5q0 -126 -21 -207t-72.5 -129t-126.5 -67t-193 -19q-219 0 -383 12v-598h-84zM287 659h377q96 2 156.5 17.5t101.5 55t58 105.5t17 171q0 139 -33 214t-103 104.5t-197 29.5q-217 0 -377 -4v-693 z" />
<glyph unicode="Q" horiz-adv-x="1359" d="M147 707q0 207 27.5 344t92 224.5t164 125t249.5 37.5t249 -37.5t163 -125t91 -224.5t27 -344t-27 -344t-91 -225t-163 -125.5t-249 -37.5q-199 0 -314 70.5t-167 228.5t-52 433zM238 707q0 -149 14.5 -256t46 -185t84 -124.5t124.5 -68.5t173 -22t173 22t124.5 68.5 t84 124.5t46 185t14.5 256q0 247 -42.5 388t-137.5 204t-262 63t-262 -63t-137.5 -204t-42.5 -388zM578 -150l30 50q193 -120 482 -166l-27 -84q-277 43 -485 200z" />
<glyph unicode="R" horiz-adv-x="1249" d="M203 0v1413q176 17 461 17q119 0 195.5 -18.5t128.5 -64.5t73.5 -122t21.5 -195q0 -185 -60.5 -269.5t-199.5 -103.5v-10q53 -15 95 -67t67 -129l150 -451h-93l-143 444q-33 96 -86.5 137.5t-134.5 41.5q-151 0 -391 6v-629h-84zM287 698h377q96 2 156.5 17t101.5 53 t58 100t17 160q0 99 -17 161.5t-58 100t-101.5 52t-156.5 14.5q-221 0 -377 -4v-654z" />
<glyph unicode="S" horiz-adv-x="1138" d="M129 1071q0 63 6 113t21 87.5t33 64.5t47.5 45.5t60 30t75.5 17t88 7.5q26 1 58 0h45q211 -3 393 -29l-8 -61q-282 14 -383 14q-64 0 -98 -1t-78 -6.5t-66 -17t-47 -32t-35.5 -52t-18 -76.5t-7.5 -106q0 -143 48 -207.5t163 -83.5l307 -51q156 -23 220.5 -109.5 t64.5 -267.5q0 -71 -9.5 -126t-26.5 -94t-47 -67t-63 -44.5t-82.5 -26t-98 -12.5t-116.5 -3q-229 0 -421 27l6 64q227 -15 384 -15h36q70 1 116.5 5.5t89 16t67.5 31.5t44.5 53t27 79.5t7.5 111.5q0 153 -48.5 216.5t-170.5 82.5l-307 51q-149 23 -213 111.5t-64 259.5z" />
<glyph unicode="T" horiz-adv-x="1163" d="M53 1339v74h1057v-74h-487v-1339h-84v1339h-486z" />
<glyph unicode="U" horiz-adv-x="1366" d="M193 526v887h83v-887q0 -262 91.5 -368.5t316.5 -106.5q222 0 314 106.5t92 368.5v887h84v-887q0 -299 -111 -425t-377 -126q-270 0 -381.5 126t-111.5 425z" />
<glyph unicode="V" horiz-adv-x="1220" d="M49 1413h88l398 -1192q44 -141 47 -151h57q40 127 49 153l395 1190h91l-469 -1386q-12 -27 -39 -27h-111q-13 0 -23.5 8t-13.5 19z" />
<glyph unicode="W" horiz-adv-x="1914" d="M66 1413h90l299 -1194l34 -149h56q25 104 35 147l284 1163q7 33 39 33h109q29 0 39 -33l284 -1161q20 -83 33 -149h55l35 147l301 1196h88l-352 -1384q-3 -12 -13.5 -20.5t-25.5 -8.5h-117q-32 0 -39 31l-280 1155l-39 160h-47q-19 -73 -39 -160l-281 -1155 q-3 -13 -14 -22t-25 -9h-116q-30 0 -41 29z" />
<glyph unicode="X" horiz-adv-x="1224" d="M72 0l434 735l-408 678h95l385 -641h67l385 641h96l-409 -678l436 -735h-96l-414 702h-61l-414 -702h-96z" />
<glyph unicode="Y" horiz-adv-x="1122" d="M39 1413h92l350 -659q12 -24 37 -73.5t37 -72.5h12q36 74 72 144l350 661h92l-477 -895v-518h-86v520z" />
<glyph unicode="Z" horiz-adv-x="1146" d="M104 0v74l834 1265h-825v74h921v-74l-835 -1265h845v-74h-940z" />
<glyph unicode="[" horiz-adv-x="647" d="M209 -262v1759q0 33 21.5 54.5t54.5 21.5h266v-64h-238q-24 0 -24 -26v-1731q0 -26 24 -26h238v-64h-266q-33 0 -54.5 20.5t-21.5 55.5z" />
<glyph unicode="\" horiz-adv-x="1024" d="M72 1413h75l805 -1538h-75z" />
<glyph unicode="]" horiz-adv-x="647" d="M98 -274h236q11 0 18.5 7t7.5 19v1731q0 12 -7.5 19t-18.5 7h-236v64h264q34 0 55 -21t21 -55v-1759q0 -34 -21 -55t-55 -21h-264v64z" />
<glyph unicode="^" horiz-adv-x="821" d="M61 780l320 412h59l320 -412l-37 -28l-303 366h-17l-303 -366z" />
<glyph unicode="_" horiz-adv-x="1200" d="M158 0h884v-68h-884v68z" />
<glyph unicode="`" horiz-adv-x="587" d="M92 1399l51 59l318 -297l-35 -41z" />
<glyph unicode="a" horiz-adv-x="1107" d="M127 242v123q0 112 64.5 173.5t181.5 61.5h475v125q0 102 -49.5 157.5t-169.5 55.5q-168 0 -453 -31l-8 62q16 2 66.5 9t74 10.5t72 9t83 8t82 4.5t93.5 2q142 0 216.5 -68t74.5 -219v-725h-62l-14 182q-75 -73 -203.5 -134.5t-255.5 -61.5t-197.5 67t-70.5 189zM211 248 q0 -184 192 -187h11q98 -1 218 51q126 54 216 138v285l-467 -7q-170 -3 -170 -170v-110z" />
<glyph unicode="b" horiz-adv-x="1148" d="M180 41v1393h82v-426q0 -133 -10 -199q219 203 405 203q191 0 274 -119t83 -399q0 -277 -93 -398t-315 -121q-199 0 -426 66zM262 96q162 -47 323 -47h19q176 0 251 100.5t75 344.5q0 245 -64.5 344.5t-224.5 99.5q-87 0 -170.5 -44.5t-208.5 -145.5v-652z" />
<glyph unicode="c" horiz-adv-x="985" d="M133 494q0 285 103.5 401.5t351.5 116.5q178 0 289 -39l-15 -55q-109 20 -260 20q-145 0 -226 -39.5t-119 -135.5t-38 -269t38 -269t119.5 -136t225.5 -40q167 0 285 23l12 -58q-147 -39 -309 -39q-250 0 -353.5 117t-103.5 402z" />
<glyph unicode="d" horiz-adv-x="1155" d="M137 494q0 281 84 399.5t279 118.5q179 0 395 -101q-6 53 -6 193v330h80v-1434h-62l-10 164q-214 -189 -405 -189t-273 121t-82 398zM221 496q0 -247 66 -347t221 -100q89 0 173 41t208 139v621q-124 47 -208 67.5t-171 20.5q-157 0 -223 -98.5t-66 -343.5z" />
<glyph unicode="e" horiz-adv-x="1085" d="M133 498q0 283 99 398.5t333 115.5q392 0 398 -291v-15q-1 -124 -49 -186q-52 -66 -169 -67h-526q7 -225 94 -314.5t279 -89.5q163 0 338 25l10 -58q-53 -18 -161.5 -29.5t-196.5 -11.5q-240 0 -344.5 120.5t-104.5 402.5zM219 520h514q146 0 146 180v17 q-1 116 -77 168.5t-233 52.5q-192 0 -270.5 -92.5t-79.5 -325.5z" />
<glyph unicode="f" horiz-adv-x="739" d="M68 918v59l178 8v201q0 141 62 209.5t204 68.5q162 0 252 -10l-4 -61h-221q-116 0 -163.5 -47t-47.5 -164v-195h352v-69h-352v-918h-82v918h-178z" />
<glyph unicode="g" horiz-adv-x="1122" d="M109 -141q0 106 30.5 167t116.5 105l29 16q-65 30 -88 89q-12 32 -12 64q0 27 9 56q20 60 70 101q-114 70 -114 245q0 159 94 234.5t309 75.5q122 0 205 -25h309l-6 -53l-191 -8q80 -72 80 -224q0 -158 -92.5 -231.5t-306.5 -73.5q-152 0 -242 37q-40 -47 -49 -96 q-3 -11 -3 -22q0 -36 26 -68q33 -41 110 -55l389 -68q128 -21 176 -81t48 -183q0 -160 -100 -224.5t-343 -64.5q-252 0 -353 63.5t-101 223.5zM188 -137q0 -124 82.5 -171.5t290.5 -47.5q202 0 283.5 48.5t81.5 170.5q0 95 -35 136.5t-141 61.5l-396 66h-4l-43 -27 q-69 -43 -94 -94.5t-25 -142.5zM227 702q0 -124 75 -180.5t249 -56.5q175 0 248 56.5t73 180.5q0 125 -73 183.5t-248 58.5t-249.5 -58.5t-74.5 -183.5z" />
<glyph unicode="h" horiz-adv-x="1171" d="M184 0v1434h84v-428q0 -127 -10 -193q265 199 469 199q132 0 199 -68.5t67 -202.5v-741h-82v725q0 112 -48.5 162.5t-153.5 50.5q-101 0 -200 -44t-243 -144v-750h-82z" />
<glyph unicode="i" horiz-adv-x="464" d="M182 1243v123q0 33 33 33h37q31 0 31 -33v-123q0 -33 -31 -33h-37q-33 0 -33 33zM193 0v987h79v-987h-79z" />
<glyph unicode="j" horiz-adv-x="466" d="M80 -391q57 73 85 146.5t28 168.5v1063h81v-1063q0 -201 -149 -350zM184 1243v123q0 33 31 33h37q31 0 31 -33v-123q0 -33 -31 -33h-37q-31 0 -31 33z" />
<glyph unicode="k" horiz-adv-x="987" d="M184 0v1434h84v-670q0 -92 -8 -168h162l373 391h100l-354 -377q-30 -30 -54 -47v-4q32 -27 54 -59l387 -500h-99l-407 530h-162q6 -91 6 -174v-356h-82z" />
<glyph unicode="l" horiz-adv-x="567" d="M186 205v1229h82v-1217q-1 -76 39.5 -116t116.5 -40h113l10 -59q-50 -16 -144 -16q-100 0 -158.5 57.5t-58.5 161.5z" />
<glyph unicode="m" horiz-adv-x="1800" d="M186 0v987h64l8 -174q228 199 430 199q105 0 169 -50.5t81 -146.5q229 197 428 197q125 0 190.5 -69t65.5 -202v-741h-80v725q-1 109 -51 161t-150 52q-90 0 -175.5 -42.5t-221.5 -145.5v-9v-741h-80v725q0 109 -49.5 161t-150.5 52q-89 0 -176 -43t-222 -145v-750h-80z " />
<glyph unicode="n" horiz-adv-x="1173" d="M186 0v987h66l6 -174q256 199 471 199q131 0 198.5 -69t67.5 -202v-741h-82v725q0 111 -49 162t-153 51q-100 0 -198.5 -44t-246.5 -144v-750h-80z" />
<glyph unicode="o" horiz-adv-x="1150" d="M135 494q0 285 98.5 401.5t341.5 116.5t342 -116.5t99 -401.5q0 -286 -99 -402.5t-342 -116.5t-341.5 116.5t-98.5 402.5zM221 494q0 -252 78 -349.5t276 -97.5t277.5 97.5t79.5 349.5q0 170 -35.5 266t-111.5 137t-210 41q-198 0 -276 -96t-78 -348z" />
<glyph unicode="p" horiz-adv-x="1159" d="M186 -426v1413h64l10 -174q208 199 410 199q189 0 270.5 -121.5t81.5 -398.5q0 -280 -84 -398.5t-279 -118.5q-192 0 -399 109q6 -54 6 -193v-317h-80zM266 139q129 -48 213 -69t170 -21q157 0 223 99t66 344t-65 345.5t-220 100.5q-90 0 -177.5 -43t-209.5 -143v-613z " />
<glyph unicode="q" horiz-adv-x="1150" d="M135 494q0 280 94 399t324 119q189 0 416 -66v-1372h-82v393q0 132 10 195q-117 -95 -216 -141t-208 -46q-176 0 -257 125t-81 394zM219 487q0 -233 63.5 -335.5t211.5 -102.5q96 0 181 40.5t214 135.5v666q-173 47 -332 47q-126 0 -198 -41.5t-106 -139t-34 -270.5z" />
<glyph unicode="r" horiz-adv-x="794" d="M186 0v987h62l10 -174q252 199 451 199h41l-13 -78h-41q-94 0 -187.5 -41.5t-242.5 -138.5v-754h-80z" />
<glyph unicode="s" horiz-adv-x="1026" d="M121 748q0 73 15.5 122t41.5 77.5t76 43.5q48 15 100 19q40 3 100 3q17 0 35 -1q214 -3 392 -27l-9 -59q-236 12 -374 14q-35 1 -66 1q-16 -1 -30 -1q-42 0 -75 -5.5t-56.5 -17.5t-39 -34t-23 -54.5t-7.5 -80.5q0 -96 38.5 -138t120.5 -53l322 -47q113 -19 169 -79.5 t56 -176.5q0 -53 -9 -94t-24 -70.5t-42.5 -49.5t-56.5 -32.5t-73.5 -19.5t-87.5 -9t-104 -2q-197 0 -367 25l9 59q148 -12 292 -12h58q97 1 153 8t98 29t58 62t16 106q0 91 -44 131.5t-126 54.5l-321 47q-111 18 -163 78t-52 183z" />
<glyph unicode="t" horiz-adv-x="729" d="M66 918v59l178 8v307h82v-305h352v-69h-352v-701q0 -156 157 -156h172l11 -59q-91 -16 -189 -16q-116 0 -174.5 57.5t-58.5 165.5v709h-178z" />
<glyph unicode="u" d="M178 246v741h82v-725q-1 -110 50 -161.5t157 -51.5q94 0 186 43t232 141v754h82v-987h-64l-8 170q-239 -195 -451 -195q-132 0 -199 68.5t-67 202.5z" />
<glyph unicode="v" horiz-adv-x="1050" d="M55 987h88l295 -739q13 -29 37 -91t37 -91h27l75 184l293 737h88l-393 -964q-13 -23 -37 -23h-82q-24 0 -34 23z" />
<glyph unicode="w" horiz-adv-x="1669" d="M66 987h86l262 -788q1 -1 43 -138h26l43 140l234 757q3 12 13.5 20.5t23.5 8.5h75q13 0 23.5 -8.5t13.5 -20.5l236 -757l41 -140h26q8 23 21.5 69.5t21.5 70.5l263 786h86l-328 -960q-10 -27 -37 -27h-80q-28 0 -39 29l-231 747q-2 8 -18.5 64t-24.5 86h-23l-45 -150 l-229 -747q-11 -29 -39 -29h-80q-27 0 -37 27z" />
<glyph unicode="x" horiz-adv-x="1046" d="M68 0l362 512l-338 475h94l310 -438h55l309 438h94l-338 -475l363 -512h-94l-338 481h-47l-338 -481h-94z" />
<glyph unicode="y" horiz-adv-x="1048" d="M55 987h88l324 -809q4 -11 20 -50t23 -60h27l45 112l325 807h86l-438 -1073q-28 -69 -56.5 -119t-69 -97.5t-96 -79t-126.5 -46.5l-12 51q113 41 177 116.5t109 190.5l29 70h-27q-25 0 -34 25z" />
<glyph unicode="z" horiz-adv-x="1028" d="M106 0v70l711 845h-704v72h802v-72l-712 -845h719v-70h-816z" />
<glyph unicode="{" horiz-adv-x="620" d="M109 633v78q6 2 16 5q68 21 86 37q27 26 29 107v19v432q0 140 65 202.5t217 59.5v-55q-114 0 -158.5 -50t-44.5 -159v-408q0 -122 -32 -164.5t-131 -64.5q72 -24 105.5 -46.5t49.5 -62t17 -112.5v-525q0 -108 44 -158.5t158 -50.5v-55q-152 -3 -217 59.5t-65 202.5v549 q0 27 -2.5 46.5t-11.5 35t-15 24t-26 19t-30 14.5t-41 16q-9 3 -13 5z" />
<glyph unicode="|" horiz-adv-x="485" d="M209 -346v1945h67v-1945h-67z" />
<glyph unicode="}" horiz-adv-x="622" d="M90 -283q115 0 160 50.5t45 158.5v525q0 72 16 112t49.5 62.5t104.5 46.5q-98 22 -130 65t-32 164v408q0 109 -44.5 159t-160.5 50v55q152 3 218.5 -59.5t66.5 -202.5v-432q0 -33 1.5 -54.5t8 -38t12.5 -26t22 -18t28.5 -13t40.5 -13.5q10 -3 16 -5v-78q-79 -30 -98 -45 q-38 -38 -39 -115v-549q0 -140 -66.5 -202.5t-218.5 -59.5v55z" />
<glyph unicode="~" horiz-adv-x="1087" d="M172 487q-6 99 37.5 151.5t118.5 47.5q57 -3 115.5 -23.5t100 -44t99.5 -44t113 -23.5q60 -4 86 25t26 100h50q4 -97 -38.5 -148t-117.5 -45q-66 3 -128.5 23.5t-103 44t-94 44t-102.5 23.5q-60 6 -86.5 -26t-26.5 -105h-49z" />
<glyph unicode="&#xa1;" horiz-adv-x="489" d="M197 831v123q0 35 36 35h27q35 0 35 -35v-123q0 -34 -35 -34h-27q-36 0 -36 34zM203 246l8 323h68l8 -323v-662h-84v662z" />
<glyph unicode="&#xa2;" horiz-adv-x="1034" d="M133 717q0 191 45 303t143 163t265 52l12 178h57l-14 -180q131 -4 236 -37l-15 -57q-84 18 -227 22l-64 -889l31 -2q157 0 285 25l10 -57q-144 -39 -307 -39h-25l-16 -199h-55l16 201q-204 17 -290.5 136t-86.5 380zM215 717q0 -229 68 -327.5t233 -115.5l64 887 q-137 -3 -214.5 -44.5t-114 -136.5t-36.5 -263z" />
<glyph unicode="&#xa3;" horiz-adv-x="1150" d="M129 715v57h164l-14 303q-3 79 6.5 139t34 99t55 64t77.5 37.5t92 17t109 4.5q135 0 332 -21l-8 -63q-151 10 -361 10q-148 0 -205 -64.5t-51 -218.5l17 -307h491l-4 -57h-485l10 -207q7 -162 -23.5 -267t-125.5 -169q43 2 127 2h667v-74h-893v74q103 61 138.5 167 t27.5 267l-10 207h-168z" />
<glyph unicode="&#xa4;" horiz-adv-x="1228" d="M162 313l151 152q-94 108 -94 256q0 146 94 258l-149 149l41 43l151 -151q108 94 256 94t258 -96l152 153l41 -43l-152 -151q95 -113 95 -256q0 -144 -97 -256l156 -154l-43 -41l-154 154q-111 -96 -256 -96q-144 0 -256 94l-151 -152zM279 721q0 -138 97.5 -236.5 t235.5 -97.5q136 -1 234 97.5t98 236.5t-98 237t-234 99q-138 0 -235.5 -99t-97.5 -237z" />
<glyph unicode="&#xa5;" horiz-adv-x="1241" d="M98 1413h90l347 -606q16 -27 79 -145h13l78 143l344 608h92l-445 -778h361v-57h-393l-2 -3v-165h395v-58h-395v-352h-84v352h-385v58h385v165l-3 3h-382v57h350z" />
<glyph unicode="&#xa6;" horiz-adv-x="489" d="M211 -346v819h68v-819h-68zM211 780v819h68v-819h-68z" />
<glyph unicode="&#xa7;" horiz-adv-x="1112" d="M145 1204q0 60 17.5 102.5t47 68t78.5 40t102 19.5t128 4q242 -3 445 -25l-9 -61q-194 12 -424 14q-62 1 -99 -0.5t-80 -10t-66 -25.5t-38.5 -48.5t-15.5 -77.5q0 -82 39.5 -135.5t116.5 -97.5l377 -213q89 -50 133.5 -117t51.5 -151t-7 -193h-68q16 146 -14.5 238.5 t-120.5 144.5l-383 219q-116 66 -163.5 134.5t-47.5 170.5zM152 -281l8 64q265 -14 424 -16h70.5t63.5 3t55 9.5t45.5 19t34.5 30.5t22 45t8 63q0 82 -41 137t-115 96l-375 213q-129 72 -166 176.5t-14 278.5h66q-16 -146 13 -235t122 -142l385 -217q112 -64 161.5 -135 t49.5 -175q0 -38 -6 -68.5t-16 -54t-28 -41.5t-36 -30t-45.5 -20.5t-51 -13.5t-59.5 -7.5t-63.5 -3t-69.5 -0.5q-204 3 -442 24z" />
<glyph unicode="&#xa8;" horiz-adv-x="823" d="M188 1245v115q0 29 27 29h31q28 0 28 -29v-115q0 -28 -28 -28h-31q-27 0 -27 28zM551 1245v115q0 29 27 29h30q29 0 29 -29v-115q0 -28 -29 -28h-30q-27 0 -27 28z" />
<glyph unicode="&#xa9;" horiz-adv-x="1744" d="M141 707q0 208 98.5 376t265.5 261.5t367 93.5q202 0 370 -93.5t266 -261.5t98 -376q0 -156 -57.5 -293t-156 -232.5t-234 -151t-286.5 -55.5q-149 0 -283.5 55.5t-233 151t-156.5 232.5t-58 293zM197 707q0 -190 91.5 -346t246 -243t337.5 -87q185 0 339.5 87 t245.5 242.5t91 346.5q0 143 -53.5 269t-144.5 215t-215.5 140t-262.5 51q-137 0 -261 -51.5t-215 -140t-145 -214.5t-54 -269zM483 713q0 258 89.5 363.5t310.5 105.5q163 0 274 -27l-12 -47q-110 10 -262 10q-185 0 -257.5 -89t-72.5 -316t73 -317.5t257 -90.5 q190 0 286 14l9 -49q-118 -26 -295 -26q-221 0 -310.5 105.5t-89.5 363.5z" />
<glyph unicode="&#xaa;" horiz-adv-x="907" d="M154 715v84q0 74 46 115.5t130 41.5h336v80q0 138 -150 138q-128 0 -326 -19l-8 49q7 1 56.5 7.5t68.5 8.5t61.5 6t80 5.5t77.5 1.5q207 0 207 -197v-481h-51l-12 127q-54 -52 -144.5 -94.5t-183.5 -42.5q-89 0 -138.5 44t-49.5 126zM221 725q0 -118 137 -121 q72 -1 159.5 35t148.5 88v186l-322 -10q-123 -3 -123 -108v-70z" />
<glyph unicode="&#xab;" horiz-adv-x="942" d="M100 502v24l334 406l41 -31l-291 -387l293 -393l-41 -31zM436 502v24l334 406l41 -31l-291 -387l293 -393l-41 -31z" />
<glyph unicode="&#xac;" horiz-adv-x="1212" d="M170 573v68h864v-375h-69v307h-795z" />
<glyph unicode="&#xad;" horiz-adv-x="970" d="M168 481v68h635v-68h-635z" />
<glyph unicode="&#xae;" horiz-adv-x="1175" d="M131 981q0 189 133.5 322t323.5 133q189 0 321.5 -133t132.5 -322q0 -190 -132.5 -323.5t-321.5 -133.5q-190 0 -323.5 133t-133.5 324zM176 981q0 -173 120.5 -294.5t291.5 -121.5q170 0 290.5 121.5t120.5 294.5q0 172 -120.5 294t-290.5 122t-291 -122t-121 -294z M383 696v568q72 6 227 6q116 0 162.5 -35t46.5 -127q0 -71 -30 -105.5t-99 -41.5v-5q27 -5 48.5 -25.5t31.5 -53.5l74 -181h-53l-70 176q-27 70 -105 70q-47 0 -109 1t-77 1v-248h-47zM430 979h180q90 2 125 28t35 97q0 74 -34.5 99.5t-125.5 25.5q-139 0 -180 -2v-248z" />
<glyph unicode="&#xaf;" horiz-adv-x="819" d="M139 1272v67h541v-67h-541z" />
<glyph unicode="&#xb0;" horiz-adv-x="774" d="M131 1184q0 104 75 179t181 75q104 0 180 -75t76 -179t-76 -180t-180 -76t-180 76t-76 180zM190 1184q0 -80 58 -139.5t139 -59.5t139 59.5t58 139.5q0 83 -57.5 139.5t-139.5 56.5t-139.5 -56.5t-57.5 -139.5z" />
<glyph unicode="&#xb1;" horiz-adv-x="1220" d="M178 180v68h864v-68h-864zM178 684v66h397v294h70v-294h397v-66h-399v-295h-68v295h-397z" />
<glyph unicode="&#xb2;" horiz-adv-x="899" d="M143 737v39q0 18 13 31l307 311q94 97 135.5 167.5t40.5 137.5q-1 39 -15.5 63t-45 35.5t-64 15t-86.5 3.5q-125 0 -268 -22l-8 49q145 32 276 32q150 0 217.5 -35.5t67.5 -142.5q0 -77 -43 -149.5t-142 -171.5l-299 -303q79 3 158 0h367v-60h-611z" />
<glyph unicode="&#xb3;" horiz-adv-x="864" d="M143 743l9 52q158 -15 268 -15q125 0 179 45.5t54 153.5q0 39 -9 68.5t-31.5 55.5t-67 40.5t-109.5 15.5h-174v49l174 2q64 1 106.5 18.5t61 47t25 56.5t6.5 61q-1 87 -51 118t-181 31q-111 0 -237 -12l-8 49q126 20 250 20q165 0 228.5 -42t63.5 -152q0 -189 -153 -215 v-4q93 -13 133.5 -67.5t42.5 -145.5q3 -130 -64.5 -190t-228.5 -60q-107 0 -287 20z" />
<glyph unicode="&#xb4;" horiz-adv-x="587" d="M121 1161l317 297l54 -59l-334 -279z" />
<glyph unicode="&#xb6;" horiz-adv-x="1220" d="M102 922q0 282 141.5 399t475.5 117q171 0 285 -35v-1403h-72v1358q-104 11 -283 16v-1804h-71v842q-254 23 -365 141.5t-111 368.5z" />
<glyph unicode="&#xb7;" horiz-adv-x="438" d="M168 465v123q0 35 37 35h28q19 0 27 -8t8 -27v-123q0 -19 -8 -27t-27 -8h-28q-37 0 -37 35z" />
<glyph unicode="&#xb8;" horiz-adv-x="456" d="M82 -455l12 47q99 -4 160 47.5t61 127.5q0 51 -26 72t-94 22l10 43q90 6 133.5 -25.5t42.5 -107.5q-2 -113 -84.5 -178t-214.5 -48z" />
<glyph unicode="&#xb9;" horiz-adv-x="589" d="M90 1495l254 90h68v-848h-68v719q0 43 4 66l-246 -72z" />
<glyph unicode="&#xba;" horiz-adv-x="917" d="M145 885q0 192 70 270t242 78q174 0 244.5 -78t70.5 -270q0 -191 -70.5 -268.5t-244.5 -77.5q-172 0 -242 78t-70 268zM215 885q0 -163 53.5 -226t188.5 -63q136 0 189.5 63t53.5 226q0 165 -53.5 228t-189.5 63q-135 0 -188.5 -63.5t-53.5 -227.5z" />
<glyph unicode="&#xbb;" horiz-adv-x="942" d="M129 121l295 393l-293 387l43 31l332 -406v-24l-334 -412zM465 121l295 393l-293 387l43 31l332 -406v-24l-334 -412z" />
<glyph unicode="&#xbc;" horiz-adv-x="1732" d="M102 1323l254 90h66v-848h-66v719q0 43 4 66l-247 -72zM264 0l965 1413h69l-966 -1413h-68zM953.5 258.5q-22.5 33.5 0.5 75.5l291 514h70l-291 -510q-12 -22 0.5 -39.5t38.5 -17.5h410v264l14 143h51v-407h92v-48l-92 -6v-227h-65v225h-451q-46 0 -68.5 33.5z" />
<glyph unicode="&#xbd;" horiz-adv-x="1792" d="M102 1323l254 90h66v-848h-66v719q0 43 4 66l-247 -72zM260 0l967 1413h67l-964 -1413h-70zM1067 0v39q0 18 10 31l309 311q94 97 136 167.5t41 137.5q-1 31 -12 53t-28 34t-45.5 19t-56 9t-69.5 2q-120 0 -269 -23l-8 49q149 33 277 33q150 0 217 -35.5t67 -142.5 q0 -77 -43 -150t-141 -172l-299 -303q78 3 158 0h364v-59h-608z" />
<glyph unicode="&#xbe;" horiz-adv-x="1916" d="M133 567l8 51q147 -14 269 -14q125 0 179 45.5t54 153.5q0 82 -45.5 130t-169.5 48l-176 2v47l176 4q52 1 89.5 13.5t58 30t32 43t14.5 46.5t3 47q-1 88 -51 120t-181 32q-111 0 -237 -12l-9 49q126 20 252 20q163 0 227 -42t64 -152q0 -190 -153 -215v-4 q94 -13 134 -67.5t42 -145.5q3 -130 -63.5 -190t-227.5 -60q-105 0 -289 20zM475 0l967 1413h67l-964 -1413h-70zM1137 258.5q-23 33.5 0 75.5l293 514h67l-291 -510q-11 -22 1.5 -39.5t39.5 -17.5h391v264l15 143h51v-407h111v-48l-111 -6v-227h-66v225h-432 q-46 0 -69 33.5z" />
<glyph unicode="&#xbf;" horiz-adv-x="1030" d="M106 -133q0 63 21 119t55 99t74.5 84t82 84t75.5 89.5t55.5 109.5t22.5 136h75q0 -79 -20 -147.5t-53 -117.5t-72.5 -93t-79.5 -83t-73.5 -78.5t-54.5 -89t-21 -104.5q-2 -129 78.5 -191.5t248.5 -62.5q51 0 95 1t69.5 2t67 5t52 5t61.5 7t61 7l10 -60q-25 -4 -71 -11.5 t-71.5 -11t-69.5 -8t-95 -6.5t-117 -2q-406 0 -406 318zM483 850v123q0 19 8 27t27 8h27q19 0 27 -8t8 -27v-123q0 -19 -8 -27t-27 -8h-27q-19 0 -27 8t-8 27z" />
<glyph unicode="&#xc0;" horiz-adv-x="1245" d="M35 0l493 1386q10 27 37 27h115q27 0 37 -27l493 -1386h-88l-174 498h-651l-174 -498h-88zM324 571h598l-230 658l-41 114h-57l-41 -114zM338 1782l53 59l318 -297l-37 -41z" />
<glyph unicode="&#xc1;" horiz-adv-x="1245" d="M35 0l493 1386q10 27 37 27h115q27 0 37 -27l493 -1386h-88l-174 498h-651l-174 -498h-88zM324 571h598l-230 658l-41 114h-57l-41 -114zM516 1544l318 297l53 -59l-334 -279z" />
<glyph unicode="&#xc2;" horiz-adv-x="1245" d="M35 0l493 1386q10 27 37 27h115q27 0 37 -27l493 -1386h-88l-174 498h-651l-174 -498h-88zM315 1567l277 243h59l277 -243l-33 -39l-264 207h-17l-266 -207zM324 571h598l-230 658l-41 114h-57l-41 -114z" />
<glyph unicode="&#xc3;" horiz-adv-x="1245" d="M35 0l493 1386q10 27 37 27h115q27 0 37 -27l493 -1386h-88l-174 498h-651l-174 -498h-88zM319 1585q-6 99 37.5 151t118.5 46q41 -3 80.5 -23.5t66.5 -43t65.5 -43t78.5 -23.5q61 -6 88 23.5t27 99.5h47q4 -95 -38.5 -145t-117.5 -44q-46 3 -89 23t-70.5 42.5t-64 43 t-69.5 24.5q-60 6 -86 -25.5t-26 -105.5h-48zM324 571h598l-230 658l-41 114h-57l-41 -114z" />
<glyph unicode="&#xc4;" horiz-adv-x="1245" d="M35 0l493 1386q10 27 37 27h115q27 0 37 -27l493 -1386h-88l-174 498h-651l-174 -498h-88zM324 571h598l-230 658l-41 114h-57l-41 -114zM399 1618v113q0 30 27 30h31q26 0 26 -30v-113q0 -31 -26 -31h-31q-27 0 -27 31zM762 1618v113q0 30 26 30h31q27 0 27 -30v-113 q0 -31 -27 -31h-31q-26 0 -26 31z" />
<glyph unicode="&#xc5;" horiz-adv-x="1245" d="M35 0l493 1386q10 27 37 27h115q27 0 37 -27l493 -1386h-88l-174 498h-651l-174 -498h-88zM324 571h598l-230 658l-41 114h-57l-41 -114zM422 1669q0 83 59 142t142 59q85 0 143.5 -59t58.5 -142t-58.5 -141t-143.5 -58q-83 0 -142 58t-59 141zM477 1669q0 -64 42 -105.5 t104 -41.5t104.5 41.5t42.5 105.5t-42.5 107t-104.5 43t-104 -43t-42 -107z" />
<glyph unicode="&#xc6;" horiz-adv-x="1859" d="M16 0l787 1227q71 112 154 149t217 37q359 0 567 -8v-66h-543q-74 0 -118 -43t-44 -116v-392h619v-69h-619v-486q0 -73 44 -117t118 -44h543v-64q-188 -8 -570 -8q-95 0 -156 61.5t-61 155.5v315h-503l-340 -532h-95zM496 604h458v582q0 47 24 93.5t56 61.5h-14 q-77 -34 -146 -141z" />
<glyph unicode="&#xc7;" d="M147 707q0 205 27.5 342t91.5 225t163.5 126t248.5 38q215 0 364 -37l-14 -62q-168 23 -350 23q-167 0 -262 -63t-137.5 -204t-42.5 -388q0 -149 14.5 -256t46 -185t84 -124.5t124.5 -68.5t173 -22q216 0 379 27l14 -64q-160 -39 -393 -39q-198 0 -312.5 71.5 t-166.5 229.5t-52 431zM485 -479l13 47q99 -4 160 47t61 127q0 51 -26 72t-95 22l10 43q91 6 135 -25.5t41 -107.5q-2 -113 -84.5 -177.5t-214.5 -47.5z" />
<glyph unicode="&#xc8;" horiz-adv-x="1132" d="M190 217v979q0 95 63 156t163 61q405 0 602 -8l-4 -64h-584q-71 0 -113.5 -43.5t-42.5 -115.5v-394h656v-69h-656v-488q0 -72 42.5 -115.5t113.5 -43.5h584l4 -64q-197 -8 -602 -8q-100 0 -163 61t-63 156zM350 1831l53 59l318 -297l-37 -41z" />
<glyph unicode="&#xc9;" horiz-adv-x="1132" d="M190 217v979q0 95 63 156t163 61q405 0 602 -8l-4 -64h-584q-71 0 -113.5 -43.5t-42.5 -115.5v-394h656v-69h-656v-488q0 -72 42.5 -115.5t113.5 -43.5h584l4 -64q-197 -8 -602 -8q-100 0 -163 61t-63 156zM526 1593l320 297l51 -59l-334 -279z" />
<glyph unicode="&#xca;" horiz-adv-x="1132" d="M190 217v979q0 95 63 156t163 61q405 0 602 -8l-4 -64h-584q-71 0 -113.5 -43.5t-42.5 -115.5v-394h656v-69h-656v-488q0 -72 42.5 -115.5t113.5 -43.5h584l4 -64q-197 -8 -602 -8q-100 0 -163 61t-63 156zM328 1614l274 246h62l276 -246l-33 -37l-266 207h-16l-265 -207 z" />
<glyph unicode="&#xcb;" horiz-adv-x="1132" d="M190 217v979q0 95 63 156t163 61q405 0 602 -8l-4 -64h-584q-71 0 -113.5 -43.5t-42.5 -115.5v-394h656v-69h-656v-488q0 -72 42.5 -115.5t113.5 -43.5h584l4 -64q-197 -8 -602 -8q-100 0 -163 61t-63 156zM410 1665v115q0 28 28 28h29q29 0 29 -28v-115q0 -29 -29 -29 h-29q-28 0 -28 29zM772 1665v115q0 28 29 28h28q29 0 29 -28v-115q0 -29 -29 -29h-28q-29 0 -29 29z" />
<glyph unicode="&#xcc;" horiz-adv-x="489" d="M-41 1782l53 59l318 -297l-37 -41zM203 0v1413h84v-1413h-84z" />
<glyph unicode="&#xcd;" horiz-adv-x="489" d="M137 1544l318 297l53 -59l-334 -279zM203 0v1413h84v-1413h-84z" />
<glyph unicode="&#xce;" horiz-adv-x="489" d="M-63 1567l276 243h59l277 -243l-33 -39l-266 207h-17l-264 -207zM203 0v1413h84v-1413h-84z" />
<glyph unicode="&#xcf;" horiz-adv-x="489" d="M18 1618v113q0 30 29 30h31q26 0 26 -30v-113q0 -31 -26 -31h-31q-29 0 -29 31zM203 0v1413h84v-1413h-84zM381 1618v113q0 30 29 30h30q27 0 27 -30v-113q0 -31 -27 -31h-30q-29 0 -29 31z" />
<glyph unicode="&#xd0;" horiz-adv-x="1359" d="M51 729v57h158v627q264 19 479 19q195 0 307.5 -70t163.5 -226.5t51 -428.5t-51 -428.5t-163.5 -226.5t-307.5 -70q-225 0 -479 18v729h-158zM293 63q173 -6 395 -6q163 0 256.5 62.5t135.5 202.5t42 385q0 184 -22 305.5t-74.5 199.5t-133.5 111t-204 33q-216 0 -395 -6 v-564h358v-57h-358v-666z" />
<glyph unicode="&#xd1;" horiz-adv-x="1417" d="M203 0v1372q0 41 41 41h102q34 0 49 -31l594 -1128q18 -33 52.5 -99.5t39.5 -76.5h52q0 33 -1.5 97t-1.5 95v1143h84v-1372q0 -41 -38 -41h-111q-31 0 -47 31l-610 1155q-52 98 -76 151h-47q2 -51 2 -153v-1184h-84zM430 1585q-4 99 39 151t117 46q41 -3 80.5 -23.5 t66.5 -43t66.5 -43t79.5 -23.5q61 -6 86.5 23.5t25.5 99.5h47q6 -95 -36.5 -145t-118.5 -44q-46 3 -89 23t-70.5 42.5t-63 43t-68.5 24.5q-61 6 -88 -26t-27 -105h-47z" />
<glyph unicode="&#xd2;" horiz-adv-x="1359" d="M147 707q0 207 27.5 344t92 224.5t164 125t249.5 37.5t249 -37.5t163 -125t91 -224.5t27 -344t-27 -344t-91 -225t-163 -125.5t-249 -37.5q-199 0 -314 70.5t-167 228.5t-52 433zM236 707q0 -186 22.5 -308.5t76 -201.5t136.5 -112.5t209 -33.5q101 0 173 22t124.5 68.5 t84 124.5t46 185t14.5 256q0 247 -42.5 388t-137.5 204t-262 63t-262.5 -63t-138.5 -204t-43 -388zM395 1782l54 59l317 -297l-37 -41z" />
<glyph unicode="&#xd3;" horiz-adv-x="1359" d="M147 707q0 207 27.5 344t92 224.5t164 125t249.5 37.5t249 -37.5t163 -125t91 -224.5t27 -344t-27 -344t-91 -225t-163 -125.5t-249 -37.5q-199 0 -314 70.5t-167 228.5t-52 433zM236 707q0 -186 22.5 -308.5t76 -201.5t136.5 -112.5t209 -33.5q101 0 173 22t124.5 68.5 t84 124.5t46 185t14.5 256q0 247 -42.5 388t-137.5 204t-262 63t-262.5 -63t-138.5 -204t-43 -388zM573 1544l318 297l53 -59l-334 -279z" />
<glyph unicode="&#xd4;" horiz-adv-x="1359" d="M147 707q0 207 27.5 344t92 224.5t164 125t249.5 37.5t249 -37.5t163 -125t91 -224.5t27 -344t-27 -344t-91 -225t-163 -125.5t-249 -37.5q-199 0 -314 70.5t-167 228.5t-52 433zM236 707q0 -186 22.5 -308.5t76 -201.5t136.5 -112.5t209 -33.5q101 0 173 22t124.5 68.5 t84 124.5t46 185t14.5 256q0 247 -42.5 388t-137.5 204t-262 63t-262.5 -63t-138.5 -204t-43 -388zM373 1567l276 243h60l276 -243l-33 -39l-264 207h-16l-266 -207z" />
<glyph unicode="&#xd5;" horiz-adv-x="1359" d="M147 707q0 207 27.5 344t92 224.5t164 125t249.5 37.5t249 -37.5t163 -125t91 -224.5t27 -344t-27 -344t-91 -225t-163 -125.5t-249 -37.5q-199 0 -314 70.5t-167 228.5t-52 433zM236 707q0 -186 22.5 -308.5t76 -201.5t136.5 -112.5t209 -33.5q101 0 173 22t124.5 68.5 t84 124.5t46 185t14.5 256q0 247 -42.5 388t-137.5 204t-262 63t-262.5 -63t-138.5 -204t-43 -388zM377 1585q-6 99 37 151t118 46q40 -3 79.5 -23.5t66.5 -43t66 -43t79 -23.5q61 -6 88 23.5t27 99.5h47q4 -95 -38.5 -145t-117.5 -44q-46 3 -89 23t-70.5 42.5t-63.5 43 t-69 24.5q-60 6 -86.5 -26t-26.5 -105h-47z" />
<glyph unicode="&#xd6;" horiz-adv-x="1359" d="M147 707q0 207 27.5 344t92 224.5t164 125t249.5 37.5t249 -37.5t163 -125t91 -224.5t27 -344t-27 -344t-91 -225t-163 -125.5t-249 -37.5q-199 0 -314 70.5t-167 228.5t-52 433zM236 707q0 -186 22.5 -308.5t76 -201.5t136.5 -112.5t209 -33.5q101 0 173 22t124.5 68.5 t84 124.5t46 185t14.5 256q0 247 -42.5 388t-137.5 204t-262 63t-262.5 -63t-138.5 -204t-43 -388zM457 1618v113q0 30 26 30h31q27 0 27 -30v-113q0 -31 -27 -31h-31q-26 0 -26 31zM819 1618v113q0 30 27 30h31q26 0 26 -30v-113q0 -31 -26 -31h-31q-27 0 -27 31z" />
<glyph unicode="&#xd7;" horiz-adv-x="997" d="M123 887l721 -647l43 53l-721 647z" />
<glyph unicode="&#xd8;" horiz-adv-x="1359" d="M147 707q0 207 27.5 344t92 224.5t164 125t249.5 37.5q167 0 270 -47l62 131l57 -25l-63 -137q109 -72 156.5 -228.5t47.5 -424.5q0 -207 -27 -344t-91 -225t-163 -125.5t-249 -37.5q-186 0 -297 60l-68 -144l-55 27l72 152q-97 77 -141 231t-44 406zM236 707 q0 -215 32 -348.5t103 -206.5l544 1163q-87 47 -235 47q-167 0 -262.5 -63t-138.5 -204t-43 -388zM420 113q95 -62 260 -62q101 0 173 22t124.5 68.5t84 124.5t46 185t14.5 256q0 232 -36 368.5t-119 204.5z" />
<glyph unicode="&#xd9;" horiz-adv-x="1366" d="M193 526v887h83v-887q0 -262 91.5 -368.5t316.5 -106.5q222 0 314 106.5t92 368.5v887h84v-887q0 -299 -111 -425t-377 -126q-270 0 -381.5 126t-111.5 425zM401 1782l54 59l317 -297l-37 -41z" />
<glyph unicode="&#xda;" horiz-adv-x="1366" d="M193 526v887h83v-887q0 -262 91.5 -368.5t316.5 -106.5q222 0 314 106.5t92 368.5v887h84v-887q0 -299 -111 -425t-377 -126q-270 0 -381.5 126t-111.5 425zM578 1544l317 297l53 -59l-334 -279z" />
<glyph unicode="&#xdb;" horiz-adv-x="1366" d="M193 526v887h83v-887q0 -262 91.5 -368.5t316.5 -106.5q222 0 314 106.5t92 368.5v887h84v-887q0 -299 -111 -425t-377 -126q-270 0 -381.5 126t-111.5 425zM377 1567l276 243h62l276 -243l-33 -39l-266 207h-16l-264 -207z" />
<glyph unicode="&#xdc;" horiz-adv-x="1366" d="M193 526v887h83v-887q0 -262 91.5 -368.5t316.5 -106.5q222 0 314 106.5t92 368.5v887h84v-887q0 -299 -111 -425t-377 -126q-270 0 -381.5 126t-111.5 425zM461 1618v113q0 30 26 30h31q29 0 29 -30v-113q0 -31 -29 -31h-31q-26 0 -26 31zM823 1618v113q0 30 29 30h29 q28 0 28 -30v-113q0 -31 -28 -31h-29q-29 0 -29 31z" />
<glyph unicode="&#xdd;" horiz-adv-x="1122" d="M39 1413h92l350 -659q12 -24 37 -73.5t37 -72.5h12q36 74 72 144l350 661h92l-477 -895v-518h-86v520zM455 1544l317 297l53 -59l-333 -279z" />
<glyph unicode="&#xde;" horiz-adv-x="1198" d="M203 0v1126v287h84v-278q106 8 377 8q120 0 196.5 -19.5t128 -68.5t73 -129.5t21.5 -206.5t-21.5 -207t-72.5 -130t-126 -68t-193 -19q-219 0 -383 12v-307h-84zM287 371h377q96 2 156.5 17.5t101.5 55t58 105.5t17 170q0 140 -33 215.5t-102.5 105t-197.5 29.5 q-217 0 -377 -4v-694z" />
<glyph unicode="&#xdf;" horiz-adv-x="1345" d="M70 918v61l178 6v109q0 72 11.5 127.5t29.5 94t50 66t64.5 43t81 24t91.5 11t104 2.5q222 0 328 -52t106 -185q0 -113 -44.5 -168.5t-156.5 -100.5q-24 -9 -66 -23.5t-58 -21t-43.5 -19.5t-37.5 -23.5t-23 -28t-17 -39.5t-4 -51q0 -67 33.5 -101t101.5 -57l256 -86 q100 -33 147 -89t47 -165q0 -52 -8.5 -92.5t-22.5 -69.5t-37.5 -49.5t-49.5 -33t-63 -19t-72 -9t-83 -2.5q-175 0 -335 23l6 61q136 -14 321 -14q49 1 81 4t64.5 11t52 22t35.5 36.5t22.5 55.5t6.5 78q0 47 -10 80t-33 54t-45.5 32t-60.5 24l-256 86q-88 30 -133 79.5 t-45 138.5q0 32 6.5 58.5t14.5 46t27 37.5t33 29t45 25t49 21.5t59 22.5t63 24q92 34 124.5 77t32.5 134q0 93 -87 131.5t-269 38.5q-104 0 -168 -12.5t-107 -47t-60 -92t-17 -151.5v-1090h-82v918h-178z" />
<glyph unicode="&#xe0;" horiz-adv-x="1107" d="M127 242v123q0 112 64.5 173.5t181.5 61.5h475v125q0 102 -49.5 157.5t-169.5 55.5q-168 0 -453 -31l-8 62q16 2 66.5 9t74 10.5t72 9t83 8t82 4.5t93.5 2q142 0 216.5 -68t74.5 -219v-725h-62l-14 182q-75 -73 -203.5 -134.5t-255.5 -61.5t-197.5 67t-70.5 189zM211 248 q0 -184 192 -187q103 -3 229.5 51.5t215.5 137.5v285l-467 -7q-170 -3 -170 -170v-110zM262 1409l53 61l318 -299l-37 -41z" />
<glyph unicode="&#xe1;" horiz-adv-x="1107" d="M127 242v123q0 112 64.5 173.5t181.5 61.5h475v125q0 102 -49.5 157.5t-169.5 55.5q-168 0 -453 -31l-8 62q16 2 66.5 9t74 10.5t72 9t83 8t82 4.5t93.5 2q142 0 216.5 -68t74.5 -219v-725h-62l-14 182q-75 -73 -203.5 -134.5t-255.5 -61.5t-197.5 67t-70.5 189zM211 248 q0 -184 192 -187q103 -3 229.5 51.5t215.5 137.5v285l-467 -7q-170 -3 -170 -170v-110zM440 1171l318 299l53 -61l-334 -279z" />
<glyph unicode="&#xe2;" horiz-adv-x="1107" d="M127 242v123q0 112 64.5 173.5t181.5 61.5h475v125q0 102 -49.5 157.5t-169.5 55.5q-168 0 -453 -31l-8 62q16 2 66.5 9t74 10.5t72 9t83 8t82 4.5t93.5 2q142 0 216.5 -68t74.5 -219v-725h-62l-14 182q-75 -73 -203.5 -134.5t-255.5 -61.5t-197.5 67t-70.5 189zM211 248 q0 -184 192 -187q103 -3 229.5 51.5t215.5 137.5v285l-467 -7q-170 -3 -170 -170v-110zM240 1194l276 246h59l277 -246l-31 -37l-266 207h-16l-265 -207z" />
<glyph unicode="&#xe3;" horiz-adv-x="1107" d="M127 242v123q0 112 64.5 173.5t181.5 61.5h475v125q0 102 -49.5 157.5t-169.5 55.5q-168 0 -453 -31l-8 62q16 2 66.5 9t74 10.5t72 9t83 8t82 4.5t93.5 2q142 0 216.5 -68t74.5 -219v-725h-62l-14 182q-75 -73 -203.5 -134.5t-255.5 -61.5t-197.5 67t-70.5 189zM211 248 q0 -184 192 -187q103 -3 229.5 51.5t215.5 137.5v285l-467 -7q-170 -3 -170 -170v-110zM244 1214q-6 98 37 149.5t118 45.5q41 -3 80.5 -23t66.5 -42.5t65.5 -43t78.5 -24.5q61 -4 88 25t27 98h47q4 -94 -38.5 -144.5t-117.5 -44.5q-46 3 -89 23.5t-70.5 43t-63.5 43 t-70 23.5q-60 6 -86 -25.5t-26 -103.5h-47z" />
<glyph unicode="&#xe4;" horiz-adv-x="1107" d="M127 242v123q0 112 64.5 173.5t181.5 61.5h475v125q0 102 -49.5 157.5t-169.5 55.5q-168 0 -453 -31l-8 62q16 2 66.5 9t74 10.5t72 9t83 8t82 4.5t93.5 2q142 0 216.5 -68t74.5 -219v-725h-62l-14 182q-75 -73 -203.5 -134.5t-255.5 -61.5t-197.5 67t-70.5 189zM211 248 q0 -184 192 -187q103 -3 229.5 51.5t215.5 137.5v285l-467 -7q-170 -3 -170 -170v-110zM324 1245v115q0 29 26 29h31q27 0 27 -29v-115q0 -28 -27 -28h-31q-26 0 -26 28zM686 1245v115q0 29 27 29h30q29 0 29 -29v-115q0 -28 -29 -28h-30q-27 0 -27 28z" />
<glyph unicode="&#xe5;" horiz-adv-x="1107" d="M127 242v123q0 112 64.5 173.5t181.5 61.5h475v125q0 102 -49.5 157.5t-169.5 55.5q-168 0 -453 -31l-8 62q16 2 66.5 9t74 10.5t72 9t83 8t82 4.5t93.5 2q142 0 216.5 -68t74.5 -219v-725h-62l-14 182q-75 -73 -203.5 -134.5t-255.5 -61.5t-197.5 67t-70.5 189zM211 248 q0 -184 192 -187q103 -3 229.5 51.5t215.5 137.5v285l-467 -7q-170 -3 -170 -170v-110zM346 1298q0 83 59 142t144 59q83 0 142 -59t59 -142q0 -84 -58.5 -142t-142.5 -58q-85 0 -144 58t-59 142zM403 1298q0 -64 41.5 -105.5t104.5 -41.5q61 0 103 41.5t42 105.5 q0 63 -42.5 105.5t-102.5 42.5q-63 0 -104.5 -42.5t-41.5 -105.5z" />
<glyph unicode="&#xe6;" horiz-adv-x="1798" d="M127 242v123q0 112 64.5 173.5t181.5 61.5h475v125q0 102 -49.5 157.5t-169.5 55.5q-168 0 -453 -31l-8 62q16 2 66.5 9t74 10.5t72 9t83 8t82 4.5t93.5 2q222 0 274 -164q49 86 138.5 125t228.5 39q391 0 397 -291q3 -144 -62.5 -206t-221.5 -62h-459q7 -225 94 -314.5 t279 -89.5q163 0 338 25l10 -58q-53 -18 -162 -29.5t-197 -11.5q-164 0 -262.5 54.5t-142.5 173.5q-78 -80 -217.5 -148.5t-278.5 -68.5q-127 0 -197.5 67t-70.5 189zM211 248q0 -184 192 -187q107 -3 240.5 54t228.5 143q-24 102 -24 240v34v3l-467 -7q-170 -3 -170 -170 v-110zM934 520h446q120 0 168 46t45 151q-1 112 -77.5 166.5t-233.5 54.5q-191 0 -269 -92.5t-79 -325.5z" />
<glyph unicode="&#xe7;" horiz-adv-x="985" d="M133 494q0 285 103.5 401.5t351.5 116.5q178 0 289 -39l-15 -55q-109 20 -260 20q-145 0 -226 -39.5t-119 -135.5t-38 -269t38 -269t119.5 -136t225.5 -40q167 0 285 23l12 -58q-147 -39 -309 -39q-250 0 -353.5 117t-103.5 402zM393 -479l13 47q99 -4 159 46.5t62 127.5 q0 51 -26 72t-95 22l8 43q91 6 135 -25.5t43 -107.5q-2 -112 -85 -177t-214 -48z" />
<glyph unicode="&#xe8;" horiz-adv-x="1085" d="M133 498q0 283 99 398.5t333 115.5q392 0 398 -291q3 -135 -48.5 -201.5t-169.5 -66.5h-526q7 -225 94 -314.5t279 -89.5q163 0 338 25l10 -58q-53 -18 -161.5 -29.5t-196.5 -11.5q-240 0 -344.5 120.5t-104.5 402.5zM219 520h514q153 0 146 197q-1 116 -77 168.5 t-233 52.5q-192 0 -270.5 -92.5t-79.5 -325.5zM285 1409l51 61l317 -299l-35 -41z" />
<glyph unicode="&#xe9;" horiz-adv-x="1085" d="M133 498q0 283 99 398.5t333 115.5q392 0 398 -291q3 -135 -48.5 -201.5t-169.5 -66.5h-526q7 -225 94 -314.5t279 -89.5q163 0 338 25l10 -58q-53 -18 -161.5 -29.5t-196.5 -11.5q-240 0 -344.5 120.5t-104.5 402.5zM219 520h514q153 0 146 197q-1 116 -77 168.5 t-233 52.5q-192 0 -270.5 -92.5t-79.5 -325.5zM461 1171l317 299l53 -61l-333 -279z" />
<glyph unicode="&#xea;" horiz-adv-x="1085" d="M133 498q0 283 99 398.5t333 115.5q392 0 398 -291q3 -135 -48.5 -201.5t-169.5 -66.5h-526q7 -225 94 -314.5t279 -89.5q163 0 338 25l10 -58q-53 -18 -161.5 -29.5t-196.5 -11.5q-240 0 -344.5 120.5t-104.5 402.5zM219 520h514q153 0 146 197q-1 116 -77 168.5 t-233 52.5q-192 0 -270.5 -92.5t-79.5 -325.5zM260 1194l277 246h61l276 -246l-32 -37l-267 207h-16l-264 -207z" />
<glyph unicode="&#xeb;" horiz-adv-x="1085" d="M133 498q0 283 99 398.5t333 115.5q392 0 398 -291q3 -135 -48.5 -201.5t-169.5 -66.5h-526q7 -225 94 -314.5t279 -89.5q163 0 338 25l10 -58q-53 -18 -161.5 -29.5t-196.5 -11.5q-240 0 -344.5 120.5t-104.5 402.5zM219 520h514q153 0 146 197q-1 116 -77 168.5 t-233 52.5q-192 0 -270.5 -92.5t-79.5 -325.5zM344 1245v115q0 29 27 29h30q29 0 29 -29v-115q0 -28 -29 -28h-30q-27 0 -27 28zM707 1245v115q0 29 28 29h29q29 0 29 -29v-115q0 -28 -29 -28h-29q-28 0 -28 28z" />
<glyph unicode="&#xec;" horiz-adv-x="466" d="M-53 1409l53 61l317 -299l-36 -41zM193 0v987h81v-987h-81z" />
<glyph unicode="&#xed;" horiz-adv-x="466" d="M125 1171l317 299l54 -61l-334 -279zM193 0v987h81v-987h-81z" />
<glyph unicode="&#xee;" horiz-adv-x="466" d="M-76 1194l277 246h59l277 -246l-33 -37l-266 207h-17l-264 -207zM193 0v987h81v-987h-81z" />
<glyph unicode="&#xef;" horiz-adv-x="466" d="M6 1245v115q0 29 29 29h31q26 0 26 -29v-115q0 -28 -26 -28h-31q-29 0 -29 28zM193 0v987h81v-987h-81zM369 1245v115q0 29 28 29h31q27 0 27 -29v-115q0 -28 -27 -28h-31q-28 0 -28 28z" />
<glyph unicode="&#xf0;" horiz-adv-x="1128" d="M135 451q0 226 96.5 345t315.5 119q167 0 325 -102q-44 281 -208 424l-183 -129l-32 45l167 119q-145 98 -376 98l14 60q251 8 424 -113l170 121l33 -47l-156 -111q246 -215 246 -707q0 -76 -3.5 -134.5t-14 -123t-28.5 -112t-49.5 -93t-74.5 -73.5t-105.5 -45 t-140.5 -17q-216 0 -318 114t-102 362zM221 451q0 -217 81 -310.5t255 -93.5q72 0 125.5 16.5t90 51.5t59.5 78.5t35.5 108.5t17 130t4.5 154q0 64 -8 166q-89 52 -166.5 72t-169.5 20q-91 0 -155.5 -28.5t-100.5 -83t-52 -123t-16 -158.5z" />
<glyph unicode="&#xf1;" horiz-adv-x="1173" d="M186 0v987h66l6 -174q256 199 471 199q131 0 198.5 -69t67.5 -202v-741h-82v725q0 111 -49 162t-153 51q-100 0 -198.5 -44t-246.5 -144v-750h-80zM299 1214q-6 98 37 149.5t117 45.5q41 -3 80.5 -23t67 -42.5t66 -43t78.5 -24.5q61 -4 87 24.5t26 98.5h47 q6 -94 -36 -144.5t-117 -44.5q-47 3 -90 23.5t-70.5 43t-63 43t-69.5 23.5q-60 6 -86.5 -25.5t-26.5 -103.5h-47z" />
<glyph unicode="&#xf2;" horiz-adv-x="1150" d="M135 494q0 285 98.5 401.5t341.5 116.5t342 -116.5t99 -401.5q0 -286 -99 -402.5t-342 -116.5t-341.5 116.5t-98.5 402.5zM221 494q0 -252 78 -349.5t276 -97.5t277.5 97.5t79.5 349.5q0 170 -35.5 266t-111.5 137t-210 41q-198 0 -276 -96t-78 -348zM289 1409l53 61 l317 -299l-36 -41z" />
<glyph unicode="&#xf3;" horiz-adv-x="1150" d="M135 494q0 285 98.5 401.5t341.5 116.5t342 -116.5t99 -401.5q0 -286 -99 -402.5t-342 -116.5t-341.5 116.5t-98.5 402.5zM221 494q0 -252 78 -349.5t276 -97.5t277.5 97.5t79.5 349.5q0 170 -35.5 266t-111.5 137t-210 41q-198 0 -276 -96t-78 -348zM467 1171l317 299 l54 -61l-334 -279z" />
<glyph unicode="&#xf4;" horiz-adv-x="1150" d="M135 494q0 285 98.5 401.5t341.5 116.5t342 -116.5t99 -401.5q0 -286 -99 -402.5t-342 -116.5t-341.5 116.5t-98.5 402.5zM221 494q0 -252 78 -349.5t276 -97.5t277.5 97.5t79.5 349.5q0 170 -35.5 266t-111.5 137t-210 41q-198 0 -276 -96t-78 -348zM266 1194l277 246 h59l277 -246l-33 -37l-266 207h-17l-264 -207z" />
<glyph unicode="&#xf5;" horiz-adv-x="1150" d="M135 494q0 285 98.5 401.5t341.5 116.5t342 -116.5t99 -401.5q0 -286 -99 -402.5t-342 -116.5t-341.5 116.5t-98.5 402.5zM221 494q0 -252 78 -349.5t276 -97.5t277.5 97.5t79.5 349.5q0 170 -35.5 266t-111.5 137t-210 41q-198 0 -276 -96t-78 -348zM270 1214 q-6 98 37 149.5t117 45.5q41 -3 81 -23t67 -42.5t66 -43t79 -24.5q61 -4 86.5 24.5t25.5 98.5h48q6 -94 -36.5 -144.5t-117.5 -44.5q-47 3 -90 23.5t-70.5 43t-63 43t-69.5 23.5q-60 6 -86.5 -25.5t-26.5 -103.5h-47z" />
<glyph unicode="&#xf6;" horiz-adv-x="1150" d="M135 494q0 285 98.5 401.5t341.5 116.5t342 -116.5t99 -401.5q0 -286 -99 -402.5t-342 -116.5t-341.5 116.5t-98.5 402.5zM221 494q0 -252 78 -349.5t276 -97.5t277.5 97.5t79.5 349.5q0 170 -35.5 266t-111.5 137t-210 41q-198 0 -276 -96t-78 -348zM348 1245v115 q0 29 29 29h31q26 0 26 -29v-115q0 -28 -26 -28h-31q-29 0 -29 28zM711 1245v115q0 29 28 29h31q27 0 27 -29v-115q0 -28 -27 -28h-31q-28 0 -28 28z" />
<glyph unicode="&#xf7;" horiz-adv-x="1196" d="M166 571v68h864v-68h-864zM547 205v121q0 19 8 26.5t27 7.5h26q19 0 27 -7.5t8 -26.5v-121q0 -19 -8 -27t-27 -8h-26q-19 0 -27 8t-8 27zM547 885v121q0 19 8 26.5t27 7.5h26q19 0 27 -7.5t8 -26.5v-121q0 -19 -8 -27t-27 -8h-26q-19 0 -27 8t-8 27z" />
<glyph unicode="&#xf8;" horiz-adv-x="1150" d="M135 494q0 285 98.5 401.5t341.5 116.5q110 0 193 -25l59 127l50 -22l-58 -123q105 -51 151 -164t46 -311q0 -286 -99 -402.5t-342 -116.5q-121 0 -206 27l-62 -135l-51 24l63 134q-98 50 -141 162.5t-43 306.5zM221 494q0 -164 30.5 -259t100.5 -139l383 822 q-61 20 -160 20q-198 0 -276 -96t-78 -348zM401 72q73 -25 174 -25q198 0 277.5 97.5t79.5 349.5q0 169 -34.5 265t-111.5 138z" />
<glyph unicode="&#xf9;" d="M178 246v741h82v-725q-1 -110 50 -161.5t157 -51.5q94 0 186 43t232 141v754h82v-987h-64l-8 170q-239 -195 -451 -195q-132 0 -199 68.5t-67 202.5zM293 1411l53 62l318 -299l-37 -41z" />
<glyph unicode="&#xfa;" d="M178 246v741h82v-725q-1 -110 50 -161.5t157 -51.5q94 0 186 43t232 141v754h82v-987h-64l-8 170q-239 -195 -451 -195q-132 0 -199 68.5t-67 202.5zM469 1174l317 299l54 -62l-334 -278z" />
<glyph unicode="&#xfb;" d="M178 246v741h82v-725q-1 -110 50 -161.5t157 -51.5q94 0 186 43t232 141v754h82v-987h-64l-8 170q-239 -195 -451 -195q-132 0 -199 68.5t-67 202.5zM270 1196l275 246h61l277 -246l-33 -37l-266 207h-17l-264 -207z" />
<glyph unicode="&#xfc;" d="M178 246v741h82v-725q-1 -110 50 -161.5t157 -51.5q94 0 186 43t232 141v754h82v-987h-64l-8 170q-239 -195 -451 -195q-132 0 -199 68.5t-67 202.5zM352 1247v115q0 29 27 29h31q28 0 28 -29v-115q0 -28 -28 -28h-31q-27 0 -27 28zM715 1247v115q0 29 28 29h29 q29 0 29 -29v-115q0 -28 -29 -28h-29q-28 0 -28 28z" />
<glyph unicode="&#xfd;" horiz-adv-x="1048" d="M55 987h88l324 -809q4 -11 20 -50t23 -60h27l45 112l325 807h86l-438 -1073q-28 -69 -56.5 -119t-69 -97.5t-96 -79t-126.5 -46.5l-12 51q113 41 177 116.5t109 190.5l29 70h-27q-25 0 -34 25zM422 1171l317 299l54 -61l-334 -279z" />
<glyph unicode="&#xfe;" horiz-adv-x="1157" d="M186 -426v1860h80v-400q0 -142 -6 -194q205 172 402 172q193 0 274.5 -119.5t81.5 -400.5t-83 -399t-276 -118q-189 0 -397 105q4 -45 4 -189v-317h-80zM266 139q124 -48 209.5 -70t169.5 -22q156 0 222.5 100.5t66.5 344.5q0 245 -66 345.5t-221 100.5q-88 0 -176 -39.5 t-205 -128.5v-631z" />
<glyph unicode="&#xff;" horiz-adv-x="1048" d="M55 987h88l324 -809q4 -11 20 -50t23 -60h27l45 112l325 807h86l-438 -1073q-28 -69 -56.5 -119t-69 -97.5t-96 -79t-126.5 -46.5l-12 51q113 41 177 116.5t109 190.5l29 70h-27q-25 0 -34 25zM305 1245v115q0 29 27 29h30q29 0 29 -29v-115q0 -28 -29 -28h-30 q-27 0 -27 28zM668 1245v115q0 29 28 29h29q29 0 29 -29v-115q0 -28 -29 -28h-29q-28 0 -28 28z" />
<glyph unicode="&#x100;" horiz-adv-x="1245" d="M35 0l493 1386q10 27 37 27h115q27 0 37 -27l493 -1386h-88l-174 498h-651l-174 -498h-88zM324 571h598l-230 658l-41 114h-57l-41 -114zM352 1636v70h543v-70h-543z" />
<glyph unicode="&#x101;" horiz-adv-x="1107" d="M127 242v123q0 112 64.5 173.5t181.5 61.5h475v125q0 102 -49.5 157.5t-169.5 55.5q-168 0 -453 -31l-8 62q16 2 66.5 9t74 10.5t72 9t83 8t82 4.5t93.5 2q142 0 216.5 -68t74.5 -219v-725h-62l-14 182q-75 -73 -203.5 -134.5t-255.5 -61.5t-197.5 67t-70.5 189zM211 248 q0 -184 192 -187q103 -3 229.5 51.5t215.5 137.5v285l-467 -7q-170 -3 -170 -170v-110zM276 1266v67h543v-67h-543z" />
<glyph unicode="&#x102;" horiz-adv-x="1245" d="M35 0l493 1386q10 27 37 27h115q27 0 37 -27l493 -1386h-88l-174 498h-651l-174 -498h-88zM324 571h598l-230 658l-41 114h-57l-41 -114zM336 1784l51 10q0 -87 62.5 -134.5t175.5 -47.5q107 0 169.5 48t61.5 134l51 -10q1 -112 -74.5 -177t-209.5 -65t-211 65t-76 177z " />
<glyph unicode="&#x103;" horiz-adv-x="1107" d="M127 242v123q0 112 64.5 173.5t181.5 61.5h475v125q0 102 -49.5 157.5t-169.5 55.5q-168 0 -453 -31l-8 62q16 2 66.5 9t74 10.5t72 9t83 8t82 4.5t93.5 2q142 0 216.5 -68t74.5 -219v-725h-62l-14 182q-75 -73 -203.5 -134.5t-255.5 -61.5t-197.5 67t-70.5 189zM211 248 q0 -184 192 -187q103 -3 229.5 51.5t215.5 137.5v285l-467 -7q-170 -3 -170 -170v-110zM260 1413l51 8q0 -86 63.5 -134t174.5 -48q108 0 170.5 48t62.5 134l49 -8q3 -112 -73.5 -178t-208.5 -66q-135 0 -213 65.5t-76 178.5z" />
<glyph unicode="&#x104;" horiz-adv-x="1245" d="M35 0l493 1386q10 27 37 27h115q27 0 37 -27l493 -1386q-128 -131 -170 -252q-33 -90 18.5 -118.5t164.5 10.5l10 -37q-65 -29 -117.5 -36.5t-84.5 5t-51.5 38t-18.5 62.5t14 78q41 124 184 250h-37l-174 498h-651l-174 -498h-88zM324 571h598l-230 658l-41 114h-57 l-41 -114z" />
<glyph unicode="&#x105;" horiz-adv-x="1107" d="M127 242v123q0 112 64.5 173.5t181.5 61.5h475v125q0 102 -49.5 157.5t-169.5 55.5q-168 0 -453 -31l-8 62q16 2 66.5 9t74 10.5t72 9t83 8t82 4.5t93.5 2q142 0 216.5 -68t74.5 -219v-725q-128 -131 -170 -252q-33 -90 18 -118.5t164 10.5l10 -37q-65 -29 -117.5 -36.5 t-84.5 5t-51.5 38t-18.5 62.5t14 78q40 123 185 250h-11l-14 182q-75 -73 -203.5 -134.5t-255.5 -61.5t-197.5 67t-70.5 189zM211 248q0 -184 192 -187q103 -3 229.5 51.5t215.5 137.5v285l-467 -7q-170 -3 -170 -170v-110z" />
<glyph unicode="&#x106;" d="M147 707q0 205 27.5 342t91.5 225t163.5 126t248.5 38q215 0 364 -37l-14 -62q-168 23 -350 23q-167 0 -262 -63t-137.5 -204t-42.5 -388q0 -149 14.5 -256t46 -185t84 -124.5t124.5 -68.5t173 -22q216 0 379 27l14 -64q-160 -39 -393 -39q-198 0 -312.5 71.5 t-166.5 229.5t-52 431zM551 1544l317 297l54 -59l-334 -279z" />
<glyph unicode="&#x107;" horiz-adv-x="985" d="M133 494q0 285 103.5 401.5t351.5 116.5q178 0 289 -39l-15 -55q-109 20 -260 20q-145 0 -226 -39.5t-119 -135.5t-38 -269t38 -269t119.5 -136t225.5 -40q167 0 285 23l12 -58q-147 -39 -309 -39q-250 0 -353.5 117t-103.5 402zM449 1171l317 299l53 -61l-334 -279z" />
<glyph unicode="&#x10a;" d="M147 707q0 205 27.5 342t91.5 225t163.5 126t248.5 38q215 0 364 -37l-14 -62q-168 23 -350 23q-167 0 -262 -63t-137.5 -204t-42.5 -388q0 -149 14.5 -256t46 -185t84 -124.5t124.5 -68.5t173 -22q216 0 379 27l14 -64q-160 -39 -393 -39q-198 0 -312.5 71.5 t-166.5 229.5t-52 431zM612 1610v123q0 32 31 32h31q31 0 31 -32v-123q0 -33 -31 -33h-31q-31 0 -31 33z" />
<glyph unicode="&#x10b;" horiz-adv-x="985" d="M133 494q0 285 103.5 401.5t351.5 116.5q178 0 289 -39l-15 -55q-109 20 -260 20q-145 0 -226 -39.5t-119 -135.5t-38 -269t38 -269t119.5 -136t225.5 -40q167 0 285 23l12 -58q-147 -39 -309 -39q-250 0 -353.5 117t-103.5 402zM510 1237v125q0 31 31 31h30q33 0 33 -31 v-125q0 -31 -33 -31h-30q-31 0 -31 31z" />
<glyph unicode="&#x10c;" d="M147 707q0 205 27.5 342t91.5 225t163.5 126t248.5 38q215 0 364 -37l-14 -62q-168 23 -350 23q-167 0 -262 -63t-137.5 -204t-42.5 -388q0 -149 14.5 -256t46 -185t84 -124.5t124.5 -68.5t173 -22q216 0 379 27l14 -64q-160 -39 -393 -39q-198 0 -312.5 71.5 t-166.5 229.5t-52 431zM352 1780l35 37l266 -201h17l264 201l35 -37l-285 -246h-47z" />
<glyph unicode="&#x10d;" horiz-adv-x="985" d="M133 494q0 285 103.5 401.5t351.5 116.5q178 0 289 -39l-15 -55q-109 20 -260 20q-145 0 -226 -39.5t-119 -135.5t-38 -269t38 -269t119.5 -136t225.5 -40q167 0 285 23l12 -58q-147 -39 -309 -39q-250 0 -353.5 117t-103.5 402zM250 1407l35 39l266 -201h16l264 201 l35 -39l-284 -244h-47z" />
<glyph unicode="&#x10e;" horiz-adv-x="1351" d="M203 0v1413q260 19 477 19q147 0 245.5 -37t161.5 -124.5t90 -223.5t27 -340t-27 -340t-90 -223.5t-161.5 -124.5t-245.5 -37q-227 0 -477 18zM287 63q173 -6 393 -6q164 0 258 62.5t136 202.5t42 385t-42 384.5t-136 202t-258 62.5q-218 0 -393 -6v-1287zM354 1780 l35 37l264 -201h17l266 201l35 -37l-285 -246h-47z" />
<glyph unicode="&#x10f;" horiz-adv-x="1155" d="M137 494q0 281 84 399.5t279 118.5q179 0 395 -101q-6 53 -6 193v330h80v-1434h-62l-10 164q-214 -189 -405 -189t-273 121t-82 398zM221 496q0 -247 66 -347t221 -100q89 0 173 41t208 139v621q-124 47 -208 67.5t-171 20.5q-157 0 -223 -98.5t-66 -343.5zM1143 1294 v113q-3 31 28 31h25q31 0 31 -31v-115q-3 -130 -41 -241l-35 12q10 90 10 205q-10 0 -15.5 7.5t-2.5 18.5z" />
<glyph unicode="&#x110;" horiz-adv-x="1359" d="M51 729v57h158v627q264 19 479 19q195 0 307.5 -70t163.5 -226.5t51 -428.5t-51 -428.5t-163.5 -226.5t-307.5 -70q-225 0 -479 18v729h-158zM293 63q173 -6 395 -6q163 0 256.5 62.5t135.5 202.5t42 385q0 184 -22 305.5t-74.5 199.5t-133.5 111t-204 33q-216 0 -395 -6 v-564h358v-57h-358v-666z" />
<glyph unicode="&#x111;" horiz-adv-x="1140" d="M137 494q0 281 84 399.5t279 118.5q179 0 395 -101q-6 53 -6 193v96h-350v55h350v179h80v-179h149v-55h-149v-1200h-62l-10 164q-214 -189 -405 -189t-273 121t-82 398zM221 496q0 -247 66 -347t221 -100q89 0 173 41t208 139v621q-124 47 -208 67.5t-171 20.5 q-157 0 -223 -98.5t-66 -343.5z" />
<glyph unicode="&#x112;" horiz-adv-x="1132" d="M190 217v979q0 95 63 156t163 61q405 0 602 -8l-4 -64h-584q-71 0 -113.5 -43.5t-42.5 -115.5v-394h656v-69h-656v-488q0 -72 42.5 -115.5t113.5 -43.5h584l4 -64q-197 -8 -602 -8q-100 0 -163 61t-63 156zM365 1686v69h540v-69h-540z" />
<glyph unicode="&#x113;" horiz-adv-x="1085" d="M133 498q0 283 99 398.5t333 115.5q392 0 398 -291q3 -135 -48.5 -201.5t-169.5 -66.5h-526q7 -225 94 -314.5t279 -89.5q163 0 338 25l10 -58q-53 -18 -161.5 -29.5t-196.5 -11.5q-240 0 -344.5 120.5t-104.5 402.5zM219 520h514q153 0 146 197q-1 116 -77 168.5 t-233 52.5q-192 0 -270.5 -92.5t-79.5 -325.5zM297 1266v67h543v-67h-543z" />
<glyph unicode="&#x116;" horiz-adv-x="1132" d="M190 217v979q0 95 63 156t163 61q405 0 602 -8l-4 -64h-584q-71 0 -113.5 -43.5t-42.5 -115.5v-394h656v-69h-656v-488q0 -72 42.5 -115.5t113.5 -43.5h584l4 -64q-197 -8 -602 -8q-100 0 -163 61t-63 156zM588 1657v125q0 33 33 33h28q33 0 33 -33v-125q0 -31 -33 -31 h-28q-33 0 -33 31z" />
<glyph unicode="&#x117;" horiz-adv-x="1085" d="M133 498q0 283 99 398.5t333 115.5q392 0 398 -291q3 -135 -48.5 -201.5t-169.5 -66.5h-526q7 -225 94 -314.5t279 -89.5q163 0 338 25l10 -58q-53 -18 -161.5 -29.5t-196.5 -11.5q-240 0 -344.5 120.5t-104.5 402.5zM219 520h514q153 0 146 197q-1 116 -77 168.5 t-233 52.5q-192 0 -270.5 -92.5t-79.5 -325.5zM522 1237v125q0 31 31 31h31q32 0 32 -31v-125q0 -31 -32 -31h-31q-31 0 -31 31z" />
<glyph unicode="&#x118;" horiz-adv-x="1132" d="M190 217v979q0 95 63 156t163 61q405 0 602 -8l-4 -64h-584q-71 0 -113.5 -43.5t-42.5 -115.5v-394h656v-69h-656v-488q0 -72 42.5 -115.5t113.5 -43.5h584l4 -64q-124 -127 -170 -250q-33 -90 18 -119.5t164 11.5l10 -37q-65 -30 -117.5 -37.5t-84 5t-51 38t-18.5 62 t13 77.5q41 123 181 248q-180 -6 -547 -6q-100 0 -163 61t-63 156z" />
<glyph unicode="&#x119;" horiz-adv-x="1085" d="M133 498q0 283 99 398.5t333 115.5q392 0 398 -291q3 -135 -48.5 -201.5t-169.5 -66.5h-526q7 -225 94 -314.5t279 -89.5q163 0 338 25l10 -58q-128 -131 -172 -249q-32 -90 19.5 -120t162.5 11l11 -37q-65 -29 -117.5 -36.5t-84 5t-51.5 38t-19 62t13 77.5 q40 115 166 233q-134 -25 -286 -25q-240 0 -344.5 120.5t-104.5 402.5zM219 520h514q153 0 146 197q-1 116 -77 168.5t-233 52.5q-192 0 -270.5 -92.5t-79.5 -325.5z" />
<glyph unicode="&#x11a;" horiz-adv-x="1132" d="M190 217v979q0 95 63 156t163 61q405 0 602 -8l-4 -64h-584q-71 0 -113.5 -43.5t-42.5 -115.5v-394h656v-69h-656v-488q0 -72 42.5 -115.5t113.5 -43.5h584l4 -64q-197 -8 -602 -8q-100 0 -163 61t-63 156zM330 1829l35 37l264 -201h16l266 201l33 -37l-282 -246h-50z " />
<glyph unicode="&#x11b;" horiz-adv-x="1085" d="M133 498q0 283 99 398.5t333 115.5q392 0 398 -291q3 -135 -48.5 -201.5t-169.5 -66.5h-526q7 -225 94 -314.5t279 -89.5q163 0 338 25l10 -58q-53 -18 -161.5 -29.5t-196.5 -11.5q-240 0 -344.5 120.5t-104.5 402.5zM219 520h514q153 0 146 197q-1 116 -77 168.5 t-233 52.5q-192 0 -270.5 -92.5t-79.5 -325.5zM262 1407l37 39l264 -201h17l266 201l33 -39l-283 -244h-49z" />
<glyph unicode="&#x11e;" horiz-adv-x="1277" d="M147 709q0 275 53 432t170 227t322 70q234 0 400 -37l-15 -62q-185 23 -383 23q-174 0 -271 -60t-141 -201t-44 -396q0 -350 88 -502t299 -152q66 0 125.5 15t112 46t87.5 58t84 70v579h84v-819h-59l-17 172q-81 -88 -192 -142.5t-240 -54.5q-247 0 -355 173.5 t-108 560.5zM377 1784l51 10q0 -87 63.5 -134.5t174.5 -47.5q108 0 170.5 47.5t62.5 134.5l51 -10q1 -112 -75.5 -177t-208.5 -65q-134 0 -212 65t-77 177z" />
<glyph unicode="&#x11f;" horiz-adv-x="1122" d="M109 -141q0 106 30.5 167t116.5 105l29 16q-65 30 -88 89t-3 119.5t70 101.5q-114 70 -114 245q0 159 94 234.5t309 75.5q122 0 205 -25h309l-6 -53l-191 -8q80 -72 80 -224q0 -158 -92.5 -231.5t-306.5 -73.5q-152 0 -242 37q-40 -47 -49.5 -96t23.5 -90t110 -55 l389 -68q128 -21 176 -81t48 -183q0 -160 -100 -224.5t-343 -64.5q-252 0 -353 63.5t-101 223.5zM188 -137q0 -124 82.5 -171.5t290.5 -47.5q202 0 283.5 48.5t81.5 170.5q0 95 -35 136.5t-141 61.5l-396 66h-4l-43 -27q-69 -43 -94 -94.5t-25 -142.5zM227 702 q0 -124 75 -180.5t249 -56.5q175 0 248 56.5t73 180.5q0 125 -73 183.5t-248 58.5t-249.5 -58.5t-74.5 -183.5zM266 1413l51 8q0 -86 63.5 -134t174.5 -48q108 0 170.5 48t62.5 134l50 -8q3 -112 -74 -178t-209 -66q-135 0 -213 65.5t-76 178.5z" />
<glyph unicode="&#x120;" horiz-adv-x="1277" d="M147 709q0 275 53 432t170 227t322 70q234 0 400 -37l-15 -62q-185 23 -383 23q-174 0 -271 -60t-141 -201t-44 -396q0 -350 88 -502t299 -152q66 0 125.5 15t112 46t87.5 58t84 70v579h84v-819h-59l-17 172q-81 -88 -192 -142.5t-240 -54.5q-247 0 -355 173.5 t-108 560.5zM618 1610v123q0 32 33 32h29q33 0 33 -32v-123q0 -33 -33 -33h-29q-33 0 -33 33z" />
<glyph unicode="&#x121;" horiz-adv-x="1122" d="M109 -141q0 106 30.5 167t116.5 105l29 16q-65 30 -88 89t-3 119.5t70 101.5q-114 70 -114 245q0 159 94 234.5t309 75.5q122 0 205 -25h309l-6 -53l-191 -8q80 -72 80 -224q0 -158 -92.5 -231.5t-306.5 -73.5q-152 0 -242 37q-40 -47 -49.5 -96t23.5 -90t110 -55 l389 -68q128 -21 176 -81t48 -183q0 -160 -100 -224.5t-343 -64.5q-252 0 -353 63.5t-101 223.5zM188 -137q0 -124 82.5 -171.5t290.5 -47.5q202 0 283.5 48.5t81.5 170.5q0 95 -35 136.5t-141 61.5l-396 66h-4l-43 -27q-69 -43 -94 -94.5t-25 -142.5zM227 702 q0 -124 75 -180.5t249 -56.5q175 0 248 56.5t73 180.5q0 125 -73 183.5t-248 58.5t-249.5 -58.5t-74.5 -183.5zM508 1237v125q0 31 31 31h30q31 0 31 -31v-125q0 -31 -31 -31h-30q-31 0 -31 31z" />
<glyph unicode="&#x122;" horiz-adv-x="1277" d="M147 709q0 275 53 432t170 227t322 70q234 0 400 -37l-15 -62q-185 23 -383 23q-174 0 -271 -60t-141 -201t-44 -396q0 -350 88 -502t299 -152q66 0 125.5 15t112 46t87.5 58t84 70v579h84v-819h-59l-17 172q-81 -88 -192 -142.5t-240 -54.5q-247 0 -355 173.5 t-108 560.5zM618 -160q-3 31 31 31h25q17 0 24 -7t7 -24v-119q-3 -131 -41 -245l-37 12q10 92 10 211q-10 0 -16 8t-3 19v114z" />
<glyph unicode="&#x123;" horiz-adv-x="1122" d="M109 -141q0 106 30.5 167t116.5 105l29 16q-65 30 -88 89t-3 119.5t70 101.5q-114 70 -114 245q0 159 94 234.5t309 75.5q122 0 205 -25h309l-6 -53l-191 -8q80 -72 80 -224q0 -158 -92.5 -231.5t-306.5 -73.5q-152 0 -242 37q-40 -47 -49.5 -96t23.5 -90t110 -55 l389 -68q128 -21 176 -81t48 -183q0 -160 -100 -224.5t-343 -64.5q-252 0 -353 63.5t-101 223.5zM188 -137q0 -124 82.5 -171.5t290.5 -47.5q202 0 283.5 48.5t81.5 170.5q0 95 -35 136.5t-141 61.5l-396 66h-4l-43 -27q-69 -43 -94 -94.5t-25 -142.5zM227 702 q0 -124 75 -180.5t249 -56.5q175 0 248 56.5t73 180.5q0 125 -73 183.5t-248 58.5t-249.5 -58.5t-74.5 -183.5zM522 1186v117q4 134 41 245l37 -12q-10 -92 -10 -209q9 0 15 -7.5t5 -19.5v-114q0 -33 -32 -33h-23q-33 0 -33 33z" />
<glyph unicode="&#x126;" horiz-adv-x="1368" d="M51 1071v55h160v287h84v-287h778v287h84v-287h158v-55h-158v-1071h-84v721h-778v-721h-84v1071h-160zM295 795h778v276h-778v-276z" />
<glyph unicode="&#x127;" horiz-adv-x="1179" d="M23 1200v55h170v179h81v-179h328v-55h-326v-194q0 -127 -10 -193q265 199 469 199q132 0 199 -68.5t67 -202.5v-741h-81v725q0 112 -49 162.5t-154 50.5q-101 0 -200 -44t-243 -144v-750h-81v1200h-170z" />
<glyph unicode="&#x12a;" horiz-adv-x="489" d="M-27 1636v70h543v-70h-543zM203 0v1413h84v-1413h-84z" />
<glyph unicode="&#x12b;" horiz-adv-x="466" d="M-39 1266v67h543v-67h-543zM193 0v987h81v-987h-81z" />
<glyph unicode="&#x12e;" horiz-adv-x="489" d="M32 -328q1 37 13 78q46 128 184 250h-26v1413h84v-1413h-4q-125 -125 -172 -252q-33 -90 18 -118.5t164 10.5l10 -37q-65 -29 -117.5 -36.5t-84 5t-51 38t-18.5 62.5z" />
<glyph unicode="&#x12f;" horiz-adv-x="466" d="M21 -328q1 37 14 78q41 126 182 250h-24v987h81v-987h-4q-127 -131 -172 -252q-32 -89 20 -118.5t163 10.5l10 -37q-64 -29 -116.5 -36.5t-84 5t-51 38t-18.5 62.5zM184 1237v125q0 31 33 31h29q33 0 33 -31v-125q0 -31 -33 -31h-29q-33 0 -33 31z" />
<glyph unicode="&#x130;" horiz-adv-x="489" d="M197 1610v123q0 32 32 32h29q33 0 33 -32v-123q0 -33 -33 -33h-29q-32 0 -32 33zM203 0v1413h84v-1413h-84z" />
<glyph unicode="&#x131;" horiz-adv-x="466" d="M193 0v987h81v-987h-81z" />
<glyph unicode="&#x132;" horiz-adv-x="1161" d="M203 0v1413h84v-1413h-84zM563 2l10 57h113q195 0 195 193v1161h84v-1161q0 -132 -64.5 -199.5t-191.5 -66.5q-68 0 -146 16z" />
<glyph unicode="&#x133;" horiz-adv-x="931" d="M182 1243v123q0 33 33 33h37q31 0 31 -33v-123q0 -33 -31 -33h-37q-33 0 -33 33zM193 0v987h79v-987h-79zM545 -391q57 73 84.5 146t27.5 169v1063h82v-1063q0 -204 -149 -350zM649 1243v123q0 33 33 33h35q33 0 33 -33v-123q0 -33 -33 -33h-35q-33 0 -33 33z" />
<glyph unicode="&#x136;" horiz-adv-x="1167" d="M203 0v1413h82v-473q0 -82 -9 -168h222l479 641h96l-457 -614q-19 -28 -55 -60v-4q36 -32 57 -61l488 -674h-98l-510 702h-219q6 -89 6 -170v-532h-82zM586 -160q0 17 7.5 24t24.5 7h25q31 0 31 -31v-119q-3 -131 -41 -245l-37 12q10 92 10 211q-9 0 -15 7.5t-5 19.5v114 z" />
<glyph unicode="&#x137;" horiz-adv-x="987" d="M184 0v1434h84v-670q0 -92 -8 -168h162l373 391h100l-354 -377q-30 -30 -54 -47v-4q32 -27 54 -59l387 -500h-99l-407 530h-162q6 -91 6 -174v-356h-82zM498 -160q0 31 30 31h25q33 0 33 -31v-119q-4 -134 -43 -245l-35 12q10 123 10 211q-9 0 -15 7.5t-5 19.5v114z" />
<glyph unicode="&#x139;" horiz-adv-x="1042" d="M133 1544l318 297l53 -59l-334 -279zM197 223v1190h84v-1182q0 -72 43.5 -115.5t115.5 -43.5h547v-62q-184 -10 -561 -10q-105 0 -167 62t-62 161z" />
<glyph unicode="&#x13a;" horiz-adv-x="567" d="M123 1589l317 299l54 -61l-334 -277zM186 205v1229h82v-1217q-1 -76 39.5 -116t116.5 -40h113l10 -59q-50 -16 -144 -16q-100 0 -158.5 57.5t-58.5 161.5z" />
<glyph unicode="&#x13b;" horiz-adv-x="1042" d="M197 223v1190h84v-1182q0 -72 43.5 -115.5t115.5 -43.5h547v-62q-184 -10 -561 -10q-105 0 -167 62t-62 161zM571 -176q-3 31 31 31h25q30 0 30 -31v-119q-3 -132 -41 -246l-36 13q10 93 10 211q-10 0 -16 7.5t-3 18.5v115z" />
<glyph unicode="&#x13c;" horiz-adv-x="567" d="M186 205v1229h82v-1217q-1 -76 39.5 -116t116.5 -40h113l10 -59q-50 -16 -144 -16q-100 0 -158.5 57.5t-58.5 161.5zM301 -176q-3 31 31 31h24q31 0 31 -31v-119q-3 -132 -41 -246l-37 13q10 92 10 211q-10 0 -15.5 7.5t-2.5 18.5v115z" />
<glyph unicode="&#x13d;" horiz-adv-x="1042" d="M197 223v1190h84v-1182q0 -72 43.5 -115.5t115.5 -43.5h547v-62q-184 -10 -561 -10q-105 0 -167 62t-62 161zM571 1268v116q-3 31 31 31h25q30 0 30 -31v-118q-4 -135 -41 -246l-36 12q10 93 10 209q-10 0 -16 8t-3 19z" />
<glyph unicode="&#x13e;" horiz-adv-x="567" d="M186 205v1229h82v-1217q-1 -76 39.5 -116t116.5 -40h113l10 -59q-50 -16 -144 -16q-100 0 -158.5 57.5t-58.5 161.5zM444 1294v113q-3 31 29 31h25q15 0 21.5 -7t6.5 -24v-115q0 -126 -39 -241l-34 12q10 120 10 205q-10 0 -16 7.5t-3 18.5z" />
<glyph unicode="&#x13f;" horiz-adv-x="1042" d="M197 223v1190h84v-1182q0 -72 43.5 -115.5t115.5 -43.5h547v-62q-184 -10 -561 -10q-105 0 -167 62t-62 161zM719 713v125q0 32 31 32h30q31 0 31 -32v-125q0 -31 -31 -31h-30q-31 0 -31 31z" />
<glyph unicode="&#x140;" horiz-adv-x="624" d="M186 205v1229h82v-1217q-1 -76 39.5 -116t116.5 -40h113l10 -59q-50 -16 -144 -16q-100 0 -158.5 57.5t-58.5 161.5zM475 737v123q0 33 33 33h31q30 0 30 -33v-123q0 -32 -30 -32h-31q-33 0 -33 32z" />
<glyph unicode="&#x141;" horiz-adv-x="1050" d="M51 651v62l156 67v633h84v-596l256 111v-60l-256 -112v-525q0 -72 43.5 -115.5t116.5 -43.5h544v-62q-184 -10 -561 -10q-105 0 -166 62t-61 161v496z" />
<glyph unicode="&#x142;" horiz-adv-x="632" d="M57 651v62l176 75v646h82v-611l238 105v-62l-238 -102v-547q0 -76 40.5 -116t115.5 -40h115l8 -59q-46 -16 -143 -16q-100 0 -159 57.5t-59 161.5v522z" />
<glyph unicode="&#x143;" horiz-adv-x="1417" d="M203 0v1372q0 41 41 41h102q34 0 49 -31l594 -1128q18 -33 52.5 -99.5t39.5 -76.5h52q0 33 -1.5 97t-1.5 95v1143h84v-1372q0 -41 -38 -41h-111q-31 0 -47 31l-610 1155q-52 98 -76 151h-47q2 -51 2 -153v-1184h-84zM627 1544l317 297l53 -59l-333 -279z" />
<glyph unicode="&#x144;" horiz-adv-x="1173" d="M186 0v987h66l6 -174q256 199 471 199q131 0 198.5 -69t67.5 -202v-741h-82v725q0 111 -49 162t-153 51q-100 0 -198.5 -44t-246.5 -144v-750h-80zM496 1171l317 299l53 -61l-334 -279z" />
<glyph unicode="&#x145;" horiz-adv-x="1417" d="M203 0v1372q0 41 41 41h102q34 0 49 -31l594 -1128q18 -33 52.5 -99.5t39.5 -76.5h52q0 33 -1.5 97t-1.5 95v1143h84v-1372q0 -41 -38 -41h-111q-31 0 -47 31l-610 1155q-52 98 -76 151h-47q2 -51 2 -153v-1184h-84zM637 -160q0 31 33 31h24q31 0 31 -31v-119 q-3 -131 -41 -245l-37 12q10 92 10 211q-9 0 -15 7.5t-5 19.5v114z" />
<glyph unicode="&#x146;" horiz-adv-x="1173" d="M186 0v987h66l6 -174q256 199 471 199q131 0 198.5 -69t67.5 -202v-741h-82v725q0 111 -49 162t-153 51q-100 0 -198.5 -44t-246.5 -144v-750h-80zM551 -160q0 31 31 31h24q33 0 33 -31v-119q-4 -134 -43 -245l-35 12q10 123 10 211q-9 0 -15 7.5t-5 19.5v114z" />
<glyph unicode="&#x147;" horiz-adv-x="1417" d="M203 0v1372q0 41 41 41h102q34 0 49 -31l594 -1128q18 -33 52.5 -99.5t39.5 -76.5h52q0 33 -1.5 97t-1.5 95v1143h84v-1372q0 -41 -38 -41h-111q-31 0 -47 31l-610 1155q-52 98 -76 151h-47q2 -51 2 -153v-1184h-84zM428 1780l37 37l264 -201h16l267 201l32 -37 l-282 -246h-49z" />
<glyph unicode="&#x148;" horiz-adv-x="1173" d="M186 0v987h66l6 -174q256 199 471 199q131 0 198.5 -69t67.5 -202v-741h-82v725q0 111 -49 162t-153 51q-100 0 -198.5 -44t-246.5 -144v-750h-80zM297 1407l35 39l264 -201h16l267 201l34 -39l-284 -244h-49z" />
<glyph unicode="&#x14a;" horiz-adv-x="1417" d="M203 0v1372q0 41 41 41h94q30 0 49 -31l602 -1120q18 -33 52.5 -99.5t39.5 -76.5h52q0 31 -1.5 94.5t-1.5 95.5v1137h84v-1608q0 -127 -65 -192t-191 -64q-66 0 -143 15l10 53h113q197 0 197 193v190h-68q-29 0 -41 31l-618 1147q-51 95 -78 151h-45q2 -51 2 -155v-1174 h-84z" />
<glyph unicode="&#x14b;" horiz-adv-x="1173" d="M186 0v987h62l8 -176q258 201 473 201q132 0 199 -68.5t67 -202.5v-913q0 -127 -58.5 -192t-174.5 -64q-23 0 -129 16l10 54h96q174 0 174 192v891q0 109 -49 160t-155 51q-98 0 -199 -44.5t-244 -141.5v-750h-80z" />
<glyph unicode="&#x14c;" horiz-adv-x="1359" d="M147 707q0 207 27.5 344t92 224.5t164 125t249.5 37.5t249 -37.5t163 -125t91 -224.5t27 -344t-27 -344t-91 -225t-163 -125.5t-249 -37.5q-199 0 -314 70.5t-167 228.5t-52 433zM236 707q0 -186 22.5 -308.5t76 -201.5t136.5 -112.5t209 -33.5q101 0 173 22t124.5 68.5 t84 124.5t46 185t14.5 256q0 247 -42.5 388t-137.5 204t-262 63t-262.5 -63t-138.5 -204t-43 -388zM410 1636v70h542v-70h-542z" />
<glyph unicode="&#x14d;" horiz-adv-x="1150" d="M135 494q0 285 98.5 401.5t341.5 116.5t342 -116.5t99 -401.5q0 -286 -99 -402.5t-342 -116.5t-341.5 116.5t-98.5 402.5zM221 494q0 -252 78 -349.5t276 -97.5t277.5 97.5t79.5 349.5q0 170 -35.5 266t-111.5 137t-210 41q-198 0 -276 -96t-78 -348zM303 1266v67h543 v-67h-543z" />
<glyph unicode="&#x150;" horiz-adv-x="1359" d="M147 707q0 207 27.5 344t92 224.5t164 125t249.5 37.5t249 -37.5t163 -125t91 -224.5t27 -344t-27 -344t-91 -225t-163 -125.5t-249 -37.5q-199 0 -314 70.5t-167 228.5t-52 433zM236 707q0 -186 22.5 -308.5t76 -201.5t136.5 -112.5t209 -33.5q101 0 173 22t124.5 68.5 t84 124.5t46 185t14.5 256q0 247 -42.5 388t-137.5 204t-262 63t-262.5 -63t-138.5 -204t-43 -388zM463 1528l227 330l68 -46l-250 -315zM764 1528l225 330l68 -46l-250 -315z" />
<glyph unicode="&#x151;" horiz-adv-x="1150" d="M135 494q0 285 98.5 401.5t341.5 116.5t342 -116.5t99 -401.5q0 -286 -99 -402.5t-342 -116.5t-341.5 116.5t-98.5 402.5zM221 494q0 -252 78 -349.5t276 -97.5t277.5 97.5t79.5 349.5q0 170 -35.5 266t-111.5 137t-210 41q-198 0 -276 -96t-78 -348zM356 1155l228 332 l65 -47l-248 -314zM657 1155l226 332l67 -47l-250 -314z" />
<glyph unicode="&#x152;" horiz-adv-x="1832" d="M147 707q0 207 27.5 344t92 224.5t164 125t249.5 37.5q105 0 174 -14.5t160 -53.5q55 43 135 43q381 0 567 -8v-64h-545q-72 0 -115.5 -43.5t-43.5 -115.5v-394h618v-69h-618v-488q0 -72 43.5 -115.5t115.5 -43.5h547v-64q-188 -8 -573 -8q-81 0 -133 43 q-88 -38 -158 -53t-174 -15q-199 0 -314 70.5t-167 228.5t-52 433zM236 707q0 -186 22.5 -308.5t76 -201.5t136.5 -112.5t209 -33.5q91 0 151 11t130 38q-33 58 -33 123v967q0 65 33 123q-72 26 -132.5 37.5t-148.5 11.5q-168 0 -263 -61.5t-138 -202.5t-43 -391z" />
<glyph unicode="&#x153;" horiz-adv-x="1880" d="M135 494q0 285 98.5 401.5t341.5 116.5q163 0 258.5 -50t139.5 -163q44 113 137 163t250 50q396 0 399 -287q3 -150 -64.5 -210t-232.5 -60h-446q7 -227 94 -316.5t281 -89.5q164 0 335 25l11 -58q-51 -18 -160.5 -29.5t-198.5 -11.5q-162 0 -260 52.5t-143 167.5 q-42 -117 -138 -168.5t-262 -51.5q-243 0 -341.5 116.5t-98.5 402.5zM221 494q0 -252 78 -349.5t276 -97.5q194 0 274 92.5t83 331.5l-2 27q0 16 2 24q-4 234 -83.5 325t-273.5 91q-198 0 -276 -96t-78 -348zM1016 520h444q122 0 171 45.5t46 157.5q-9 215 -315 215 q-188 0 -265.5 -93t-80.5 -323v-2z" />
<glyph unicode="&#x154;" horiz-adv-x="1249" d="M203 0v1413q176 17 461 17q119 0 195.5 -18.5t128.5 -64.5t73.5 -122t21.5 -195q0 -185 -60.5 -269.5t-199.5 -103.5v-10q53 -15 95 -67t67 -129l150 -451h-93l-143 444q-33 96 -86.5 137.5t-134.5 41.5q-151 0 -391 6v-629h-84zM287 698h377q96 2 156.5 17t101.5 53 t58 100t17 160q0 99 -17 161.5t-58 100t-101.5 52t-156.5 14.5q-221 0 -377 -4v-654zM512 1544l319 297l52 -59l-334 -279z" />
<glyph unicode="&#x155;" horiz-adv-x="794" d="M186 0v987h62l10 -174q252 199 451 199h41l-13 -78h-41q-94 0 -187.5 -41.5t-242.5 -138.5v-754h-80zM348 1171l318 299l53 -61l-334 -279z" />
<glyph unicode="&#x156;" horiz-adv-x="1249" d="M203 0v1413q176 17 461 17q119 0 195.5 -18.5t128.5 -64.5t73.5 -122t21.5 -195q0 -185 -60.5 -269.5t-199.5 -103.5v-10q53 -15 95 -67t67 -129l150 -451h-93l-143 444q-33 96 -86.5 137.5t-134.5 41.5q-151 0 -391 6v-629h-84zM287 698h377q96 2 156.5 17t101.5 53 t58 100t17 160q0 99 -17 161.5t-58 100t-101.5 52t-156.5 14.5q-221 0 -377 -4v-654zM629 -160q0 17 6.5 24t23.5 7h25q17 0 24 -7t7 -24v-119q0 -130 -41 -245l-35 12q10 123 10 211q-23 0 -20 27v114z" />
<glyph unicode="&#x157;" horiz-adv-x="794" d="M170 -160q0 17 7 24t24 7h24q17 0 24 -7t7 -24v-119q0 -130 -41 -245l-35 12q10 123 10 211q-23 0 -20 27v114zM186 0v987h62l10 -174q252 199 451 199h41l-13 -78h-41q-94 0 -187.5 -41.5t-242.5 -138.5v-754h-80z" />
<glyph unicode="&#x158;" horiz-adv-x="1249" d="M203 0v1413q176 17 461 17q119 0 195.5 -18.5t128.5 -64.5t73.5 -122t21.5 -195q0 -185 -60.5 -269.5t-199.5 -103.5v-10q53 -15 95 -67t67 -129l150 -451h-93l-143 444q-33 96 -86.5 137.5t-134.5 41.5q-151 0 -391 6v-629h-84zM287 698h377q96 2 156.5 17t101.5 53 t58 100t17 160q0 99 -17 161.5t-58 100t-101.5 52t-156.5 14.5q-221 0 -377 -4v-654zM315 1780l35 37l264 -201h17l266 201l33 -37l-283 -246h-49z" />
<glyph unicode="&#x159;" horiz-adv-x="794" d="M150 1407l34 39l267 -201h16l264 201l35 -39l-285 -244h-47zM186 0v987h62l10 -174q252 199 451 199h41l-13 -78h-41q-94 0 -187.5 -41.5t-242.5 -138.5v-754h-80z" />
<glyph unicode="&#x15a;" horiz-adv-x="1138" d="M129 1071q0 63 6 113t21 87.5t33 64.5t47.5 45.5t60 30t75.5 17t88 7t103 0.5q211 -3 393 -29l-8 -61q-282 14 -383 14q-64 0 -98 -1t-78 -6.5t-66 -17t-47 -32t-35.5 -52t-18 -76.5t-7.5 -106q0 -143 48 -207.5t163 -83.5l307 -51q156 -23 220.5 -109.5t64.5 -267.5 q0 -71 -9.5 -126t-26.5 -94t-47 -67t-63 -44.5t-82.5 -26t-98 -12.5t-116.5 -3q-229 0 -421 27l6 64q254 -17 420 -15q70 1 116.5 5.5t89 16t67.5 31.5t44.5 53t27 79.5t7.5 111.5q0 153 -48.5 216.5t-170.5 82.5l-307 51q-149 23 -213 111.5t-64 259.5zM465 1544l317 297 l54 -59l-334 -279z" />
<glyph unicode="&#x15b;" horiz-adv-x="1026" d="M121 748q0 73 15.5 122t41.5 77.5t75.5 43.5t101 18.5t134.5 2.5q214 -3 392 -27l-9 -59q-236 12 -374 14q-53 1 -95.5 0.5t-75.5 -6t-56.5 -17.5t-39 -34t-23 -54.5t-7.5 -80.5q0 -96 38.5 -138t120.5 -53l322 -47q113 -19 169 -79.5t56 -176.5q0 -53 -9 -94t-24 -70.5 t-42.5 -49.5t-56.5 -32.5t-73.5 -19.5t-87.5 -9t-104 -2q-197 0 -367 25l9 59q177 -15 350 -12q97 1 153 8t98 29t58 62t16 106q0 91 -44 131.5t-126 54.5l-321 47q-111 18 -163 78t-52 183zM414 1171l317 299l53 -61l-333 -279z" />
<glyph unicode="&#x15e;" horiz-adv-x="1138" d="M129 1071q0 63 6 113t21 87.5t33 64.5t47.5 45.5t60 30t75.5 17t88 7t103 0.5q211 -3 393 -29l-8 -61q-282 14 -383 14q-64 0 -98 -1t-78 -6.5t-66 -17t-47 -32t-35.5 -52t-18 -76.5t-7.5 -106q0 -143 48 -207.5t163 -83.5l307 -51q156 -23 220.5 -109.5t64.5 -267.5 q0 -71 -9.5 -126t-26.5 -94t-47 -67t-63 -44.5t-82.5 -26t-98 -12.5t-116.5 -3q-229 0 -421 27l6 64q254 -17 420 -15q70 1 116.5 5.5t89 16t67.5 31.5t44.5 53t27 79.5t7.5 111.5q0 153 -48.5 216.5t-170.5 82.5l-307 51q-149 23 -213 111.5t-64 259.5zM389 -477l14 47 q98 -4 159 47t61 127q0 51 -26 72t-95 22l10 41q92 6 135.5 -25t40.5 -108q-2 -111 -84.5 -175.5t-214.5 -47.5z" />
<glyph unicode="&#x15f;" horiz-adv-x="1026" d="M121 748q0 73 15.5 122t41.5 77.5t75.5 43.5t101 18.5t134.5 2.5q214 -3 392 -27l-9 -59q-236 12 -374 14q-53 1 -95.5 0.5t-75.5 -6t-56.5 -17.5t-39 -34t-23 -54.5t-7.5 -80.5q0 -96 38.5 -138t120.5 -53l322 -47q113 -19 169 -79.5t56 -176.5q0 -53 -9 -94t-24 -70.5 t-42.5 -49.5t-56.5 -32.5t-73.5 -19.5t-87.5 -9t-104 -2q-197 0 -367 25l9 59q177 -15 350 -12q97 1 153 8t98 29t58 62t16 106q0 91 -44 131.5t-126 54.5l-321 47q-111 18 -163 78t-52 183zM319 -477l13 47q99 -4 160 47t61 127q0 51 -26 72t-95 22l10 43q90 6 133.5 -25.5 t42.5 -107.5q-2 -113 -84.5 -177.5t-214.5 -47.5z" />
<glyph unicode="&#x160;" horiz-adv-x="1138" d="M129 1071q0 63 6 113t21 87.5t33 64.5t47.5 45.5t60 30t75.5 17t88 7t103 0.5q211 -3 393 -29l-8 -61q-282 14 -383 14q-64 0 -98 -1t-78 -6.5t-66 -17t-47 -32t-35.5 -52t-18 -76.5t-7.5 -106q0 -143 48 -207.5t163 -83.5l307 -51q156 -23 220.5 -109.5t64.5 -267.5 q0 -71 -9.5 -126t-26.5 -94t-47 -67t-63 -44.5t-82.5 -26t-98 -12.5t-116.5 -3q-229 0 -421 27l6 64q254 -17 420 -15q70 1 116.5 5.5t89 16t67.5 31.5t44.5 53t27 79.5t7.5 111.5q0 153 -48.5 216.5t-170.5 82.5l-307 51q-149 23 -213 111.5t-64 259.5zM266 1780l35 37 l266 -201h17l264 201l35 -37l-285 -246h-47z" />
<glyph unicode="&#x161;" horiz-adv-x="1026" d="M121 748q0 73 15.5 122t41.5 77.5t75.5 43.5t101 18.5t134.5 2.5q214 -3 392 -27l-9 -59q-236 12 -374 14q-53 1 -95.5 0.5t-75.5 -6t-56.5 -17.5t-39 -34t-23 -54.5t-7.5 -80.5q0 -96 38.5 -138t120.5 -53l322 -47q113 -19 169 -79.5t56 -176.5q0 -53 -9 -94t-24 -70.5 t-42.5 -49.5t-56.5 -32.5t-73.5 -19.5t-87.5 -9t-104 -2q-197 0 -367 25l9 59q177 -15 350 -12q97 1 153 8t98 29t58 62t16 106q0 91 -44 131.5t-126 54.5l-321 47q-111 18 -163 78t-52 183zM215 1407l35 39l264 -201h16l267 201l34 -39l-284 -244h-49z" />
<glyph unicode="&#x162;" horiz-adv-x="1163" d="M53 1339v74h1057v-74h-487v-1339h-84v1339h-486zM391 -455l15 47q98 -4 158.5 47.5t60.5 127.5q0 51 -26 72t-95 22l10 43q91 6 135 -25.5t41 -107.5q-2 -113 -84.5 -178t-214.5 -48z" />
<glyph unicode="&#x163;" horiz-adv-x="729" d="M66 918v59l178 8v307h82v-305h352v-69h-352v-701q0 -156 157 -156h172l11 -59q-91 -16 -189 -16q-116 0 -174.5 57.5t-58.5 165.5v709h-178zM229 -467l15 45q98 -3 158.5 47.5t60.5 126.5q1 52 -25 72t-96 22l10 43q91 6 135 -25.5t43 -107.5q-3 -113 -86 -177t-215 -46z " />
<glyph unicode="&#x164;" horiz-adv-x="1163" d="M53 1339v74h1057v-74h-487v-1339h-84v1339h-486zM279 1780l34 37l265 -201h16l266 201l33 -37l-283 -246h-49z" />
<glyph unicode="&#x165;" horiz-adv-x="729" d="M66 918v59l178 8v307h82v-305h352v-69h-352v-701q0 -156 157 -156h172l11 -59q-91 -16 -189 -16q-116 0 -174.5 57.5t-58.5 165.5v709h-178zM528 1395v116q-3 31 31 31h25q30 0 30 -31v-118q-4 -135 -41 -246l-36 12q10 92 10 209q-10 0 -16 8t-3 19z" />
<glyph unicode="&#x166;" horiz-adv-x="1163" d="M53 1339v74h1057v-74h-487v-471h301v-57h-301v-811h-84v811h-310v57h310v471h-486z" />
<glyph unicode="&#x167;" horiz-adv-x="729" d="M66 918v59l178 8v307h82v-305h352v-69h-352v-230h307v-55h-307v-416q0 -156 157 -156h172l11 -59q-91 -16 -189 -16q-116 0 -174.5 57.5t-58.5 165.5v424h-146v55h146v230h-178z" />
<glyph unicode="&#x16a;" horiz-adv-x="1366" d="M193 526v887h83v-887q0 -262 91.5 -368.5t316.5 -106.5q222 0 314 106.5t92 368.5v887h84v-887q0 -299 -111 -425t-377 -126q-270 0 -381.5 126t-111.5 425zM414 1636v70h542v-70h-542z" />
<glyph unicode="&#x16b;" d="M178 246v741h82v-725q-1 -110 50 -161.5t157 -51.5q94 0 186 43t232 141v754h82v-987h-64l-8 170q-239 -195 -451 -195q-132 0 -199 68.5t-67 202.5zM305 1268v67h543v-67h-543z" />
<glyph unicode="&#x16e;" horiz-adv-x="1366" d="M193 526v887h83v-887q0 -262 91.5 -368.5t316.5 -106.5q222 0 314 106.5t92 368.5v887h84v-887q0 -299 -111 -425t-377 -126q-270 0 -381.5 126t-111.5 425zM483 1669q0 83 59 142t144 59q83 0 143 -59t60 -142t-59.5 -141t-143.5 -58q-85 0 -144 58t-59 141zM541 1669 q0 -64 41 -105.5t104 -41.5q62 0 103.5 41.5t41.5 105.5t-41.5 107t-103.5 43q-63 0 -104 -42.5t-41 -107.5z" />
<glyph unicode="&#x16f;" d="M178 246v741h82v-725q-1 -110 50 -161.5t157 -51.5q94 0 186 43t232 141v754h82v-987h-64l-8 170q-239 -195 -451 -195q-132 0 -199 68.5t-67 202.5zM375 1300q0 83 59 141t144 58q84 0 143 -58t59 -141q0 -84 -59 -142t-143 -58q-85 0 -144 58t-59 142zM432 1300 q0 -64 41.5 -105.5t104.5 -41.5q62 0 103.5 41.5t41.5 105.5q0 63 -41.5 105.5t-103.5 42.5q-63 0 -104.5 -42.5t-41.5 -105.5z" />
<glyph unicode="&#x170;" horiz-adv-x="1366" d="M193 526v887h83v-887q0 -262 91.5 -368.5t316.5 -106.5q222 0 314 106.5t92 368.5v887h84v-887q0 -299 -111 -425t-377 -126q-270 0 -381.5 126t-111.5 425zM469 1528l227 330l66 -46l-250 -315zM768 1528l227 330l66 -46l-248 -315z" />
<glyph unicode="&#x171;" d="M178 246v741h82v-725q-1 -110 50 -161.5t157 -51.5q94 0 186 43t232 141v754h82v-987h-64l-8 170q-239 -195 -451 -195q-132 0 -199 68.5t-67 202.5zM360 1157l228 332l65 -47l-247 -316zM659 1157l228 332l65 -47l-247 -316z" />
<glyph unicode="&#x172;" horiz-adv-x="1366" d="M193 526v887h83v-887q0 -262 91.5 -368.5t316.5 -106.5q222 0 314 106.5t92 368.5v887h84v-887q0 -277 -94.5 -404.5t-317.5 -144.5q-125 -132 -168 -247q-32 -90 19.5 -119t164.5 10l8 -37q-64 -29 -116.5 -36.5t-84 5t-51 38.5t-18.5 63t14 78q40 120 177 243h-21 q-270 0 -381.5 126t-111.5 425z" />
<glyph unicode="&#x173;" d="M178 246v741h82v-725q-1 -110 50 -161.5t157 -51.5q94 0 186 43t232 141v754h82l2 -987q-125 -125 -172 -252q-33 -90 18 -118.5t164 10.5l10 -37q-65 -29 -117.5 -36.5t-84 5t-51 38t-18.5 62.5t13 78q46 128 184 250h-12l-8 170q-239 -195 -451 -195q-132 0 -199 68.5 t-67 202.5z" />
<glyph unicode="&#x174;" horiz-adv-x="1914" d="M66 1413h90l299 -1194l34 -149h56q25 104 35 147l284 1163q7 33 39 33h109q29 0 39 -33l284 -1161q20 -83 33 -149h55l35 147l301 1196h88l-352 -1384q-3 -12 -13.5 -20.5t-25.5 -8.5h-117q-32 0 -39 31l-280 1155l-39 160h-47q-19 -73 -39 -160l-281 -1155 q-3 -13 -14 -22t-25 -9h-116q-30 0 -41 29zM651 1565l277 245h59l277 -245l-33 -37l-266 207h-17l-264 -207z" />
<glyph unicode="&#x175;" horiz-adv-x="1669" d="M66 987h86l262 -788q1 -1 43 -138h26l43 140l234 757q3 12 13.5 20.5t23.5 8.5h75q13 0 23.5 -8.5t13.5 -20.5l236 -757l41 -140h26q8 23 21.5 69.5t21.5 70.5l263 786h86l-328 -960q-10 -27 -37 -27h-80q-28 0 -39 29l-231 747q-2 8 -18.5 64t-24.5 86h-23l-45 -150 l-229 -747q-11 -29 -39 -29h-80q-27 0 -37 27zM526 1194l277 246h59l279 -246l-33 -37l-266 207h-17l-264 -207z" />
<glyph unicode="&#x176;" horiz-adv-x="1122" d="M39 1413h92l350 -659q12 -24 37 -73.5t37 -72.5h12q36 74 72 144l350 661h92l-477 -895v-518h-86v520zM254 1567l276 243h60l276 -243l-32 -39l-265 207h-16l-266 -207z" />
<glyph unicode="&#x177;" horiz-adv-x="1048" d="M55 987h88l324 -809q4 -11 20 -50t23 -60h27l45 112l325 807h86l-438 -1073q-28 -69 -56.5 -119t-69 -97.5t-96 -79t-126.5 -46.5l-12 51q113 41 177 116.5t109 190.5l29 70h-27q-25 0 -34 25zM221 1194l277 246h61l277 -246l-33 -37l-266 207h-17l-264 -207z" />
<glyph unicode="&#x178;" horiz-adv-x="1122" d="M39 1413h92l350 -659q12 -24 37 -73.5t37 -72.5h12q36 74 72 144l350 661h92l-477 -895v-518h-86v520zM338 1618v113q0 30 27 30h30q27 0 27 -30v-113q0 -31 -27 -31h-30q-27 0 -27 31zM700 1618v113q0 30 27 30h31q26 0 26 -30v-113q0 -31 -26 -31h-31q-27 0 -27 31z " />
<glyph unicode="&#x179;" horiz-adv-x="1146" d="M104 0v74l834 1265h-825v74h921v-74l-835 -1265h845v-74h-940zM467 1544l317 297l54 -59l-334 -279z" />
<glyph unicode="&#x17a;" horiz-adv-x="1028" d="M106 0v70l711 845h-704v72h802v-72l-712 -845h719v-70h-816zM403 1171l318 299l51 -61l-332 -279z" />
<glyph unicode="&#x17b;" horiz-adv-x="1146" d="M104 0v74l834 1265h-825v74h921v-74l-835 -1265h845v-74h-940zM528 1610v123q0 32 31 32h31q33 0 33 -32v-123q0 -33 -33 -33h-31q-31 0 -31 33z" />
<glyph unicode="&#x17c;" horiz-adv-x="1028" d="M106 0v70l711 845h-704v72h802v-72l-712 -845h719v-70h-816zM463 1237v125q0 31 33 31h28q33 0 33 -31v-125q0 -31 -33 -31h-28q-33 0 -33 31z" />
<glyph unicode="&#x17d;" horiz-adv-x="1146" d="M104 0v74l834 1265h-825v74h921v-74l-835 -1265h845v-74h-940zM268 1780l35 37l266 -201h17l264 201l35 -37l-285 -246h-47z" />
<glyph unicode="&#x17e;" horiz-adv-x="1028" d="M106 0v70l711 845h-704v72h802v-72l-712 -845h719v-70h-816zM205 1407l35 39l264 -201h16l266 201l35 -39l-284 -244h-50z" />
<glyph unicode="&#x192;" horiz-adv-x="847" d="M-119 -264l8 59h142q106 0 153 48t58 165l69 717h-196l4 61l198 9l35 360q12 139 81 208t208 69q101 0 172 -9l-8 -61h-143q-116 0 -167 -47t-63 -166l-33 -354h330l-8 -70h-328l-69 -723q-12 -139 -76 -207.5t-195 -68.5q-113 0 -172 10z" />
<glyph unicode="&#x218;" horiz-adv-x="1138" d="M129 1071q0 63 6 113t21 87.5t33 64.5t47.5 45.5t60 30t75.5 17t88 7t103 0.5q211 -3 393 -29l-8 -61q-282 14 -383 14q-64 0 -98 -1t-78 -6.5t-66 -17t-47 -32t-35.5 -52t-18 -76.5t-7.5 -106q0 -143 48 -207.5t163 -83.5l307 -51q156 -23 220.5 -109.5t64.5 -267.5 q0 -71 -9.5 -126t-26.5 -94t-47 -67t-63 -44.5t-82.5 -26t-98 -12.5t-116.5 -3q-229 0 -421 27l6 64q254 -17 420 -15q70 1 116.5 5.5t89 16t67.5 31.5t44.5 53t27 79.5t7.5 111.5q0 153 -48.5 216.5t-170.5 82.5l-307 51q-149 23 -213 111.5t-64 259.5zM551 -160 q0 31 31 31h24q33 0 33 -31v-119q-4 -134 -43 -245l-35 12q10 123 10 211q-9 0 -15 7.5t-5 19.5v114z" />
<glyph unicode="&#x219;" horiz-adv-x="1026" d="M121 748q0 73 15.5 122t41.5 77.5t75.5 43.5t101 18.5t134.5 2.5q214 -3 392 -27l-9 -59q-236 12 -374 14q-53 1 -95.5 0.5t-75.5 -6t-56.5 -17.5t-39 -34t-23 -54.5t-7.5 -80.5q0 -96 38.5 -138t120.5 -53l322 -47q113 -19 169 -79.5t56 -176.5q0 -53 -9 -94t-24 -70.5 t-42.5 -49.5t-56.5 -32.5t-73.5 -19.5t-87.5 -9t-104 -2q-197 0 -367 25l9 59q177 -15 350 -12q97 1 153 8t98 29t58 62t16 106q0 91 -44 131.5t-126 54.5l-321 47q-111 18 -163 78t-52 183zM492 -160q-1 17 5.5 24t24.5 7h25q17 0 24 -7t7 -24v-119q-3 -131 -41 -245 l-37 12q10 92 10 211q-9 0 -15 7.5t-3 19.5v114z" />
<glyph unicode="&#x21a;" horiz-adv-x="1163" d="M53 1339v74h1057v-74h-487v-1339h-84v1339h-486zM520 -160q-3 31 31 31h24q31 0 31 -31v-119q-3 -131 -41 -245l-37 12q11 102 11 211q-10 0 -16 8t-3 19v114z" />
<glyph unicode="&#x21b;" horiz-adv-x="729" d="M66 918v59l178 8v307h82v-305h352v-69h-352v-701q0 -156 157 -156h172l11 -59q-91 -16 -189 -16q-116 0 -174.5 57.5t-58.5 165.5v709h-178zM428 -160q-3 31 31 31h24q17 0 24 -7t7 -24v-119q-3 -131 -41 -245l-37 12q10 92 10 211q-9 0 -15 7.5t-3 19.5v114z" />
<glyph unicode="&#x2c6;" horiz-adv-x="817" d="M102 1202l277 244h59l277 -244l-31 -39l-266 207h-17l-264 -207z" />
<glyph unicode="&#x2c7;" horiz-adv-x="817" d="M100 1415l37 37l264 -201h17l266 201l33 -37l-283 -246h-49z" />
<glyph unicode="&#x2d8;" horiz-adv-x="741" d="M86 1403l49 8q0 -86 63.5 -134t174.5 -48q108 0 170.5 48t62.5 134l51 -8q2 -113 -74.5 -178.5t-209.5 -65.5q-134 0 -212 66t-75 178z" />
<glyph unicode="&#x2d9;" horiz-adv-x="430" d="M168 1233v125q0 31 33 31h28q33 0 33 -31v-125q0 -31 -33 -31h-28q-33 0 -33 31z" />
<glyph unicode="&#x2da;" horiz-adv-x="602" d="M98 1307q0 83 59.5 140.5t143.5 57.5t143.5 -57.5t59.5 -140.5q0 -85 -59 -143t-144 -58t-144 58t-59 143zM156 1307q0 -65 41.5 -106.5t103.5 -41.5t103.5 41.5t41.5 106.5q0 63 -41.5 105t-103.5 42q-63 0 -104 -42t-41 -105z" />
<glyph unicode="&#x2db;" horiz-adv-x="518" d="M96 -328q1 37 13 78q46 129 188 254l49 -4q-125 -125 -172 -252q-33 -89 19 -118.5t163 10.5l11 -37q-65 -29 -117.5 -36.5t-84 5t-51 38t-18.5 62.5z" />
<glyph unicode="&#x2dc;" horiz-adv-x="829" d="M111 1219q-4 99 38 149.5t117 44.5q41 -3 80.5 -23t66.5 -42.5t65.5 -43t78.5 -24.5q62 -4 88.5 24.5t26.5 98.5h47q6 -94 -37.5 -144.5t-118.5 -44.5q-46 3 -89 23.5t-70.5 43.5t-63.5 43.5t-70 23.5q-60 6 -86 -25.5t-26 -103.5h-47z" />
<glyph unicode="&#x2dd;" horiz-adv-x="864" d="M127 1145l227 330l66 -45l-248 -316zM426 1145l227 330l66 -45l-248 -316z" />
<glyph unicode="&#x394;" horiz-adv-x="1263" d="M70 0v53l518 1360h88l518 -1360v-53h-1124zM162 72h938l-418 1112q-8 24 -24.5 72t-24.5 71q-8 -25 -25.5 -73t-25.5 -72z" />
<glyph unicode="&#x3a9;" horiz-adv-x="1470" d="M111 0v74h260q88 0 129 -2q-171 116 -246.5 271t-75.5 396q0 353 132 526t425 173q289 0 423 -174t134 -525q0 -245 -75 -397t-246 -270q43 2 129 2h260v-74h-479v72q178 119 250.5 270t74.5 389q-2 326 -113.5 478.5t-357.5 152.5q-250 0 -359.5 -152t-109.5 -483 q0 -168 36 -286.5t103 -200.5t185 -168v-72h-479z" />
<glyph unicode="&#x3bc;" horiz-adv-x="1189" d="M197 -426v1413h79v-725q0 -107 52.5 -158t160.5 -51q94 0 186.5 42t227.5 138v754h82v-987h-61l-11 174q-235 -199 -442 -199q-136 0 -209 76q10 -66 10 -164v-313h-75z" />
<glyph unicode="&#x3c0;" horiz-adv-x="1312" d="M61 918v69h1190v-69h-219v-918h-82v918h-590v-918h-79v918h-220z" />
<glyph unicode="&#x401;" horiz-adv-x="1132" d="M190 217v979q0 95 63 156t163 61q405 0 602 -8l-4 -64h-584q-71 0 -113.5 -43.5t-42.5 -115.5v-394h656v-69h-656v-488q0 -72 42.5 -115.5t113.5 -43.5h584l4 -64q-197 -8 -602 -8q-100 0 -163 61t-63 156zM410 1665v115q0 28 26 28h31q29 0 29 -28v-115q0 -29 -29 -29 h-31q-26 0 -26 29zM772 1665v115q0 28 29 28h28q29 0 29 -28v-115q0 -29 -29 -29h-28q-29 0 -29 29z" />
<glyph unicode="&#x402;" horiz-adv-x="1533" d="M53 1339v74h1057v-74h-487v-604q124 87 229.5 121.5t228.5 34.5q171 0 256.5 -98t85.5 -328q0 -485 -518 -465l-8 59q86 4 150.5 17t121.5 41t93 71.5t56.5 111.5t20.5 159q0 105 -17.5 175t-54.5 109.5t-86 55.5t-120 16q-124 0 -217 -34.5t-221 -116.5v-664h-84v1339 h-486z" />
<glyph unicode="&#x403;" horiz-adv-x="1054" d="M197 0v1190q0 98 62.5 160.5t158.5 62.5q391 0 586 -10l-7 -62h-557q-72 0 -115.5 -44t-43.5 -119v-1178h-84zM500 1544l317 297l53 -59l-333 -279z" />
<glyph unicode="&#x404;" horiz-adv-x="1171" d="M147 707q0 164 18.5 283.5t57.5 206.5t104.5 139.5t155 77t213.5 24.5q220 0 369 -37l-14 -64q-163 25 -355 25q-163 0 -260 -55.5t-144.5 -180t-53.5 -338.5h636v-67h-638v-14q0 -186 23.5 -308.5t78.5 -201.5t141.5 -112.5t216.5 -33.5q208 0 371 27l14 -64 q-160 -39 -385 -39q-206 0 -324 71.5t-171.5 229.5t-53.5 431z" />
<glyph unicode="&#x405;" horiz-adv-x="1138" d="M129 1071q0 63 6 113t21 87.5t33 64.5t47.5 45.5t60 30t75.5 17t88 7t103 0.5q211 -3 393 -29l-8 -61q-282 14 -383 14q-64 0 -98 -1t-78 -6.5t-66 -17t-47 -32t-35.5 -52t-18 -76.5t-7.5 -106q0 -143 48 -207.5t163 -83.5l307 -51q156 -23 220.5 -109.5t64.5 -267.5 q0 -71 -9.5 -126t-26.5 -94t-47 -67t-63 -44.5t-82.5 -26t-98 -12.5t-116.5 -3q-229 0 -421 27l6 64q254 -17 420 -15q70 1 116.5 5.5t89 16t67.5 31.5t44.5 53t27 79.5t7.5 111.5q0 153 -48.5 216.5t-170.5 82.5l-307 51q-149 23 -213 111.5t-64 259.5z" />
<glyph unicode="&#x406;" horiz-adv-x="489" d="M203 0v1413h84v-1413h-84z" />
<glyph unicode="&#x407;" horiz-adv-x="489" d="M18 1616v115q0 28 29 28h31q26 0 26 -28v-115q0 -29 -26 -29h-31q-29 0 -29 29zM203 0v1413h84v-1413h-84zM381 1616v115q0 28 29 28h30q27 0 27 -28v-115q0 -29 -27 -29h-30q-29 0 -29 29z" />
<glyph unicode="&#x408;" horiz-adv-x="671" d="M74 2l10 57h115q192 0 192 193v1161h84v-1161q0 -132 -64.5 -199.5t-191.5 -66.5q-67 0 -145 16z" />
<glyph unicode="&#x409;" horiz-adv-x="1978" d="M51 59q55 28 102.5 73.5t98.5 133.5q74 128 99.5 267t60.5 545q2 24 3.5 37t3 34t3.5 39q15 225 235 225h420v-612h355q167 0 261 -41.5t133.5 -129t39.5 -239.5q0 -121 -22.5 -199.5t-76 -125t-130.5 -64.5t-197 -18q-284 0 -447 16v1341h-325q-154 0 -166 -163 q-40 -471 -61 -599q-29 -188 -96 -315q-6 -12 -13 -24q-119 -215 -271 -240zM1077 63q152 -4 355 -4q101 0 163.5 14t106 51.5t61 101.5t17.5 167q0 188 -73.5 261t-274.5 73h-355v-664z" />
<glyph unicode="&#x40a;" horiz-adv-x="2011" d="M203 0v1413h84v-616h739v616h84v-616h354q167 0 261 -41t133.5 -127.5t39.5 -237.5q0 -121 -23 -199.5t-76.5 -125t-131 -64.5t-197.5 -18q-281 0 -444 16v725h-739v-725h-84zM1110 63q148 -4 354 -4q101 0 163.5 14t106 51t61 101t17.5 166q0 187 -74 260.5t-274 73.5 h-354v-662z" />
<glyph unicode="&#x40b;" horiz-adv-x="1609" d="M53 1339v74h1057v-74h-487v-606q268 158 548 158q304 0 304 -303v-588h-84v573q0 126 -58 184t-184 58q-140 0 -256.5 -34.5t-269.5 -121.5v-659h-84v1339h-486z" />
<glyph unicode="&#x40c;" horiz-adv-x="1187" d="M203 0v1413h82v-473q0 -82 -9 -168h199q53 0 101.5 18t86.5 46.5t75 76t64.5 93.5t58.5 113t52.5 120t51.5 128q12 31 18 46h88q-102 -255 -130 -313q-110 -240 -229 -317q-57 -38 -122 -44v-4q49 -3 92.5 -22.5t78.5 -47.5t70 -76t61 -92t57.5 -114t53.5 -124t55 -138 q31 -80 48 -121h-90q-16 39 -45 113q-37 95 -56 140.5t-53.5 121t-59 112.5t-62.5 86.5t-75 72t-85.5 39.5t-104.5 17h-196q6 -89 6 -170v-532h-82zM489 1544l318 297l53 -59l-334 -279z" />
<glyph unicode="&#x40d;" horiz-adv-x="1394" d="M203 0v1413h82v-1145q0 -100 -2 -151h4q11 18 39 68t43 73l739 1155h86v-1413h-84v1151q0 96 2 145h-4q-5 -9 -31 -58.5t-41 -72.5l-749 -1165h-84zM418 1782l53 59l317 -297l-36 -41z" />
<glyph unicode="&#x40e;" horiz-adv-x="1114" d="M66 1413h88l329 -881q16 -43 60 -43h98l344 924h88l-405 -1079q-61 -160 -96 -218q-73 -121 -179 -128q-108 -7 -211 24l11 60q42 -6 72.5 -10t60 -3.5t49 1.5t40.5 10.5t33.5 17t29 28.5t26 37t25.5 50t27 61t30 76l28 78h-88q-84 0 -112 78zM272 1784l52 10 q0 -87 63 -134.5t174 -47.5q109 0 171.5 47.5t62.5 134.5l49 -10q3 -112 -73.5 -177t-209.5 -65q-134 0 -212 65t-77 177z" />
<glyph unicode="&#x40f;" horiz-adv-x="1368" d="M203 0v1413h84v-1341h794v1341h84v-1413h-444l-4 -309h-60l-8 309h-446z" />
<glyph unicode="&#x410;" horiz-adv-x="1245" d="M35 0l493 1386q10 27 37 27h115q27 0 37 -27l493 -1386h-88l-174 498h-651l-174 -498h-88zM324 571h598l-230 658l-41 114h-57l-41 -114z" />
<glyph unicode="&#x411;" horiz-adv-x="1216" d="M203 0v1413q228 10 415 10q181 0 406 -10l-8 -70h-729v-573h372q167 0 261 -39.5t134 -123.5t40 -232q0 -120 -24.5 -196.5t-81.5 -119.5t-135.5 -59t-201.5 -16q-277 0 -448 16zM287 61q156 -4 372 -4q80 0 135 8.5t98 29t67.5 57.5t36.5 91.5t12 133.5 q0 182 -73.5 251.5t-275.5 69.5h-372v-637z" />
<glyph unicode="&#x412;" horiz-adv-x="1257" d="M203 0v1413q159 17 413 17q131 0 214.5 -16.5t140.5 -59t80.5 -113t23.5 -180.5q0 -154 -57 -233t-182 -91v-8q152 -13 216 -106.5t64 -270.5q0 -110 -23 -180.5t-77.5 -112.5t-134 -58.5t-203.5 -16.5q-304 0 -475 16zM287 61q160 -4 383 -4q104 0 169 12.5t110 47 t63 92.5t18 151q0 100 -19.5 164t-66 102.5t-115.5 54t-178 17.5h-364v-637zM287 766h364q98 1 159 13.5t103 45.5t59 88t17 142q0 93 -19 151t-66 91.5t-114 46t-176 12.5q-183 0 -327 -4v-586z" />
<glyph unicode="&#x413;" horiz-adv-x="1054" d="M197 0v1190q0 98 62.5 160.5t158.5 62.5q391 0 586 -10l-7 -62h-557q-72 0 -115.5 -44t-43.5 -119v-1178h-84z" />
<glyph unicode="&#x414;" horiz-adv-x="1361" d="M49 72h121q121 223 172 500t61 616q1 109 61 167t169 58h485v-1341h168v-381h-59l-13 309h-1091l-14 -309h-60v381zM256 72h776v1269h-387q-156 0 -162 -159q-10 -345 -59 -616t-168 -494z" />
<glyph unicode="&#x415;" horiz-adv-x="1132" d="M190 217v979q0 95 63 156t163 61q405 0 602 -8l-4 -64h-584q-71 0 -113.5 -43.5t-42.5 -115.5v-394h656v-69h-656v-488q0 -72 42.5 -115.5t113.5 -43.5h584l4 -64q-197 -8 -602 -8q-100 0 -163 61t-63 156z" />
<glyph unicode="&#x416;" horiz-adv-x="1814" d="M82 0q15 37 43 110q105 268 163 373q103 187 228 234q39 15 82 18v4q-65 6 -124.5 48.5t-99 89t-89.5 145t-73 154t-72 179.5q-5 13 -8 20t-7 18t-8 20h88q99 -244 132 -315q107 -220 228 -288q67 -38 144 -38h174q-9 64 -9 168v473h80v-473q0 -111 -8 -168h158 q36 0 69.5 7.5t63.5 25t56 36t52 50.5t46.5 58.5t43.5 70t39 74.5t38.5 83t35.5 84t36 88q17 43 26 64h88q-103 -256 -135 -324q-112 -239 -234 -312q-54 -32 -112 -38v-4q49 -3 93 -22t80.5 -50.5t70 -75.5t62.5 -96t57 -114t54.5 -128t55.5 -139q28 -73 43 -110h-91 q-15 38 -45 112q-37 94 -56 140t-53.5 122t-58.5 113t-62.5 86t-75 72t-84.5 40t-103 17h-158q8 -79 8 -170v-532h-80v532q0 81 9 170h-174q-76 -1 -140 -34.5t-106 -73.5t-92.5 -134.5t-75.5 -154t-79 -195.5q-29 -73 -44 -110h-90z" />
<glyph unicode="&#x417;" horiz-adv-x="1118" d="M86 16l10 62q7 0 88.5 -6.5t167.5 -10.5t176 -4q104 0 168.5 12.5t109.5 46.5t63 92t18 152q0 195 -83 266.5t-294 71.5h-215v68h215q190 0 263 60t73 229q0 93 -19 151t-65.5 91.5t-113.5 46t-175 12.5q-74 0 -146.5 -3.5t-128.5 -8t-73 -5.5l-10 62q175 29 360 29 q130 0 213.5 -16.5t140 -59t80 -113t23.5 -180.5q0 -154 -57.5 -233t-182.5 -91v-8q152 -13 216.5 -106.5t64.5 -270.5q0 -110 -22.5 -180.5t-76.5 -112.5t-133.5 -58.5t-203.5 -16.5q-269 0 -451 32z" />
<glyph unicode="&#x418;" horiz-adv-x="1394" d="M203 0v1413h82v-1145q0 -100 -2 -151h4q11 18 39 68t43 73l739 1155h86v-1413h-84v1151q0 96 2 145h-4q-5 -9 -31 -58.5t-41 -72.5l-749 -1165h-84z" />
<glyph unicode="&#x419;" horiz-adv-x="1394" d="M203 0v1413h82v-1145q0 -100 -2 -151h4q11 18 39 68t43 73l739 1155h86v-1413h-84v1151q0 96 2 145h-4q-5 -9 -31 -58.5t-41 -72.5l-749 -1165h-84zM414 1798h69q0 -96 59 -150.5t158 -54.5q97 0 155 54.5t58 150.5h72q2 -112 -76 -184t-209 -72q-132 0 -210.5 72 t-75.5 184z" />
<glyph unicode="&#x41a;" horiz-adv-x="1187" d="M203 0v1413h82v-473q0 -82 -9 -168h199q53 0 101.5 18t86.5 46.5t75 76t64.5 93.5t58.5 113t52.5 120t51.5 128q12 31 18 46h88q-102 -255 -130 -313q-110 -240 -229 -317q-57 -38 -122 -44v-4q49 -3 92.5 -22.5t78.5 -47.5t70 -76t61 -92t57.5 -114t53.5 -124t55 -138 q31 -80 48 -121h-90q-16 39 -45 113q-37 95 -56 140.5t-53.5 121t-59 112.5t-62.5 86.5t-75 72t-85.5 39.5t-104.5 17h-196q6 -89 6 -170v-532h-82z" />
<glyph unicode="&#x41b;" horiz-adv-x="1304" d="M27 66q57 27 105.5 71.5t96.5 128.5q75 135 101 287.5t67 636.5q21 223 234 223h471v-1413h-84v1341h-369q-158 0 -170 -163q-3 -29 -7 -85q-37 -422 -59 -550q-32 -175 -104 -300q-1 -2 -2 -3q-50 -93 -119.5 -157.5t-150.5 -82.5z" />
<glyph unicode="&#x41c;" horiz-adv-x="1761" d="M172 0l59 1370q3 43 43 43h117q29 0 39 -29l358 -991q14 -36 37.5 -104t30.5 -86h49l68 194l356 987q10 29 41 29h117q19 0 30 -11.5t11 -31.5l61 -1370h-84l-59 1341h-47l-426 -1179q-10 -29 -39 -29h-107q-31 0 -41 29l-424 1179h-47l-59 -1341h-84z" />
<glyph unicode="&#x41d;" horiz-adv-x="1351" d="M203 0v1413h84v-618h778v618h84v-1413h-84v721h-778v-721h-84z" />
<glyph unicode="&#x41e;" horiz-adv-x="1359" d="M147 707q0 207 27.5 344t92 224.5t164 125t249.5 37.5t249 -37.5t163 -125t91 -224.5t27 -344t-27 -344t-91 -225t-163 -125.5t-249 -37.5q-199 0 -314 70.5t-167 228.5t-52 433zM236 707q0 -186 22.5 -308.5t76 -201.5t136.5 -112.5t209 -33.5q101 0 173 22t124.5 68.5 t84 124.5t46 185t14.5 256q0 247 -42.5 388t-137.5 204t-262 63t-262.5 -63t-138.5 -204t-43 -388z" />
<glyph unicode="&#x41f;" horiz-adv-x="1357" d="M203 0v1413h952v-1413h-84v1341h-784v-1341h-84z" />
<glyph unicode="&#x420;" horiz-adv-x="1193" d="M203 0v1413q176 17 461 17q120 0 196.5 -19.5t128 -68t73 -129t21.5 -205.5q0 -126 -21 -207t-72.5 -129t-126.5 -67t-193 -19q-219 0 -383 12v-598h-84zM287 659h377q96 2 156.5 17.5t101.5 55t58 105.5t17 171q0 139 -33 214t-103 104.5t-197 29.5q-217 0 -377 -4v-693 z" />
<glyph unicode="&#x421;" d="M147 707q0 205 27.5 342t91.5 225t163.5 126t248.5 38q215 0 364 -37l-14 -62q-168 23 -350 23q-167 0 -262 -63t-137.5 -204t-42.5 -388q0 -149 14.5 -256t46 -185t84 -124.5t124.5 -68.5t173 -22q216 0 379 27l14 -64q-160 -39 -393 -39q-198 0 -312.5 71.5 t-166.5 229.5t-52 431z" />
<glyph unicode="&#x422;" horiz-adv-x="1163" d="M53 1339v74h1057v-74h-487v-1339h-84v1339h-486z" />
<glyph unicode="&#x423;" horiz-adv-x="1114" d="M66 1413h88l329 -881q16 -43 60 -43h98l344 924h88l-405 -1079q-61 -160 -96 -218q-73 -121 -179 -128q-108 -7 -211 24l11 60q42 -6 72.5 -10t60 -3.5t49 1.5t40.5 10.5t33.5 17t29 28.5t26 37t25.5 50t27 61t30 76l28 78h-88q-84 0 -112 78z" />
<glyph unicode="&#x424;" horiz-adv-x="1681" d="M141 725q0 223 65 353.5t207 190.5t386 64v213h84v-213q183 -3 306 -36t202.5 -106.5t114 -186t34.5 -279.5q0 -328 -147.5 -463t-509.5 -141v-213h-84v213q-362 6 -510 141t-148 463zM227 725q0 -151 29.5 -250.5t99.5 -162.5t176.5 -90t268.5 -29v1069 q-162 -3 -268 -30.5t-176.5 -90.5t-100 -163t-29.5 -253zM881 193q162 3 268 30t176 89.5t99.5 162t29.5 250.5q0 153 -29.5 253t-99.5 163t-176 90.5t-268 30.5v-1069z" />
<glyph unicode="&#x425;" horiz-adv-x="1234" d="M76 0l436 735l-410 678h97l383 -641h69l385 641h97l-410 -678l436 -735h-98l-414 702h-61l-414 -702h-96z" />
<glyph unicode="&#x426;" horiz-adv-x="1386" d="M203 0v1413h84v-1341h770v1341h84v-1341h170v-381h-60l-14 309h-1034z" />
<glyph unicode="&#x427;" horiz-adv-x="1249" d="M139 842v571h84v-557q0 -124 56 -182t176 -58q137 0 249.5 34t258.5 120v643h84v-1413h-84v698q-252 -157 -533 -157q-148 0 -219.5 74.5t-71.5 226.5z" />
<glyph unicode="&#x428;" horiz-adv-x="1859" d="M203 0v1413h84v-1341h602v1341h82v-1341h604v1341h82v-1413h-1454z" />
<glyph unicode="&#x429;" horiz-adv-x="1882" d="M203 0v1413h84v-1341h592v1341h84v-1341h593v1341h82v-1341h170v-381h-59l-14 309h-1532z" />
<glyph unicode="&#x42a;" horiz-adv-x="1525" d="M53 1339v74h555v-612h371q167 0 261 -41.5t133.5 -129t39.5 -239.5q0 -121 -23 -199.5t-76.5 -125t-131 -64.5t-197.5 -18q-292 0 -463 16v1339h-469zM608 63q156 -4 371 -4q101 0 163.5 14t106 51t61 101t17.5 166q0 188 -73.5 262t-274.5 74h-371v-664z" />
<glyph unicode="&#x42b;" horiz-adv-x="1677" d="M203 0v1413h84v-612h372q246 0 340.5 -92t94.5 -318q0 -121 -23 -199.5t-76.5 -125t-131 -64.5t-197.5 -18q-292 0 -463 16zM287 63q156 -4 372 -4q100 0 162.5 14t106.5 51t62 101t18 166q0 188 -74 262t-275 74h-372v-664zM1391 0v1413h84v-1413h-84z" />
<glyph unicode="&#x42c;" horiz-adv-x="1206" d="M203 0v1413h84v-612h372q246 0 340.5 -92t94.5 -318q0 -121 -23 -199.5t-76.5 -125t-131 -64.5t-197.5 -18q-292 0 -463 16zM287 63q156 -4 372 -4q100 0 162.5 14t106.5 51t62 101t18 166q0 188 -74 262t-275 74h-372v-664z" />
<glyph unicode="&#x42d;" horiz-adv-x="1171" d="M90 14l14 64q163 -27 369 -27q131 0 218 33.5t142.5 112.5t79 201.5t23.5 308.5v16h-641v68h639q-9 315 -113 443t-348 128q-191 0 -354 -25l-15 64q152 37 369 37q155 0 258 -38t169 -126t94 -224.5t28 -342.5t-28 -342.5t-94 -225t-169 -126.5t-258 -38q-223 0 -383 39 z" />
<glyph unicode="&#x42e;" horiz-adv-x="1847" d="M205 0v1413h84v-641h368q5 248 57.5 392.5t160.5 209t292 64.5q120 0 206.5 -24.5t150 -76t101 -139t55.5 -207t18 -284.5q0 -207 -27.5 -344t-91 -225t-163 -125.5t-249.5 -37.5q-144 0 -239.5 37t-156.5 124.5t-87.5 223t-26.5 340.5h-368v-700h-84zM743 707 q0 -247 40.5 -388t131.5 -204.5t252 -63.5q126 0 209 33.5t136 112.5t75.5 201.5t22.5 308.5q0 247 -42.5 388t-138 204t-262.5 63q-121 0 -200.5 -33.5t-130 -112t-72 -201t-21.5 -308.5z" />
<glyph unicode="&#x42f;" horiz-adv-x="1239" d="M104 0l150 432q57 161 168 197l-2 10q-122 19 -185 124.5t-61 250.5q0 229 98.5 322.5t319.5 93.5q273 0 444 -17v-1413h-84v610q-120 -6 -391 -6q-80 0 -133.5 -42.5t-85.5 -135.5l-145 -426h-93zM260 1010q0 -153 72 -242.5t231 -89.5h389v674q-156 4 -360 4 q-176 0 -254 -76t-78 -270z" />
<glyph unicode="&#x430;" horiz-adv-x="1110" d="M129 242v123q0 113 64 174t182 61h475v125q0 102 -50 157.5t-169 55.5q-170 0 -455 -31l-8 62q14 2 66.5 9l75 10t72 9t84 8.5t82 4.5t93.5 2q142 0 216.5 -68t74.5 -219v-725h-64l-14 182q-72 -72 -202 -134t-257 -62q-125 0 -195.5 67t-70.5 189zM211 248 q0 -184 192 -187q103 -3 230.5 51.5t216.5 137.5v285l-467 -7q-172 -3 -172 -170v-110z" />
<glyph unicode="&#x431;" horiz-adv-x="1155" d="M168 604q0 91 2.5 158.5t10 135.5t20 117.5t33.5 98t50 83.5t69 66.5t91.5 55.5t116.5 43q32 9 92.5 24t93.5 25t87 33.5t108 58.5l21 -61q-52 -34 -108.5 -60t-88 -36.5t-97.5 -27.5t-83 -22q-96 -28 -160.5 -69t-101 -98.5t-53.5 -119.5t-25 -151q-6 -48 -10 -141h2 q11 37 24.5 66.5t43.5 63.5t70 57t105.5 38.5t149.5 15.5q216 0 301.5 -109t85.5 -378q0 -96 -10 -166.5t-37 -135.5t-73.5 -105.5t-122.5 -64.5t-181 -24q-84 0 -148.5 16t-109.5 41.5t-76.5 71t-49 92t-27.5 118t-12.5 134.5t-2.5 156zM252 477q0 -240 78 -334t268 -94 q126 0 197 39.5t104 132.5t33 258q0 230 -69 319t-249 89q-75 0 -133 -13t-97.5 -39t-65.5 -60t-40.5 -82.5t-20 -99t-5.5 -116.5z" />
<glyph unicode="&#x432;" horiz-adv-x="1124" d="M184 0v985q140 12 365 12q230 0 318.5 -55t88.5 -209q0 -105 -51 -159.5t-162 -63.5v-4q135 -10 191.5 -74.5t56.5 -187.5q0 -148 -84.5 -202t-302.5 -54q-260 0 -420 12zM262 57q72 -2 334 -2q177 0 245 41t68 160q0 126 -72 173.5t-255 47.5h-320v-420zM262 539h320 q86 1 138.5 9t89.5 29t52 57.5t15 94.5q0 118 -71.5 158.5t-258.5 40.5q-187 3 -285 0v-389z" />
<glyph unicode="&#x433;" horiz-adv-x="909" d="M180 0v788q0 95 51.5 147t145.5 52q317 0 475 -8v-61h-449q-73 0 -107 -35.5t-34 -110.5v-772h-82z" />
<glyph unicode="&#x434;" horiz-adv-x="1144" d="M61 68h95q92 151 133 328t51 392q12 199 207 199h379v-919h118v-365h-57l-12 297h-846l-12 -297h-56v365zM238 68h610v852h-289q-135 0 -141 -140q-10 -215 -50 -390t-130 -322z" />
<glyph unicode="&#x435;" horiz-adv-x="1085" d="M135 498q0 283 98.5 398.5t331.5 115.5q395 0 398 -291q3 -135 -48 -201.5t-170 -66.5h-526q7 -225 94 -314.5t279 -89.5q167 0 338 25l10 -58q-51 -18 -160.5 -29.5t-197.5 -11.5q-240 0 -343.5 120.5t-103.5 402.5zM219 520h514q81 0 115.5 50.5t32.5 146.5 q-3 116 -78.5 168.5t-233.5 52.5q-191 0 -269 -92.5t-81 -325.5z" />
<glyph unicode="&#x436;" horiz-adv-x="1570" d="M88 0q94 222 126 284q81 156 177 204q45 22 98 26v2q-53 5 -101 35.5t-78 61t-70.5 105.5t-56.5 111t-58 135q-7 15 -10 23h86q83 -195 127 -266q94 -152 216 -171q19 -3 40 -3h176q-6 39 -6 119v321h75v-321q0 -80 -6 -119h164q32 0 61.5 8t53.5 19t48.5 34.5t42 41.5 t39.5 54t35 58.5t34 67.5t31 68.5t32 74.5q4 9 6 14h86q-86 -209 -135 -289q-100 -165 -230 -181q-4 -1 -8 -1v-2q56 -4 105 -33.5t80 -59t73 -106.5t60 -117t64 -151q13 -31 20 -47h-88q-93 213 -119 263q-75 143 -161 189q-55 28 -124 29h-172q8 -52 8 -112v-369h-75v369 q0 53 6 112h-180q-71 -1 -124 -26t-101 -96t-73 -120.5t-80 -175.5q-18 -41 -28 -63h-86z" />
<glyph unicode="&#x437;" horiz-adv-x="978" d="M92 10l8 62q229 -15 336 -15q182 0 253 45.5t71 153.5q0 125 -69.5 170.5t-248.5 48.5h-202v64h202q169 2 230 40.5t61 151.5q0 63 -16.5 101t-59.5 59.5t-105 29t-167 7.5q-168 0 -264 -13l-8 62q122 22 280 22q240 0 331 -53.5t91 -204.5q0 -110 -46.5 -165.5 t-164.5 -65.5v-4q128 -10 185 -72.5t57 -189.5q0 -138 -91 -198t-313 -60q-211 0 -350 24z" />
<glyph unicode="&#x438;" horiz-adv-x="1193" d="M184 0v987h78v-762q0 -78 -2 -119h2q22 37 70 97l606 784h70v-987h-76v768v113h-2q-9 -16 -62 -93l-614 -788h-70z" />
<glyph unicode="&#x439;" horiz-adv-x="1193" d="M184 0v987h78v-762q0 -78 -2 -119h2q22 37 70 97l606 784h70v-987h-76v768v113h-2q-9 -16 -62 -93l-614 -788h-70zM291 1427h69q0 -97 60 -150.5t160 -53.5q97 0 155 53.5t58 150.5h69q2 -114 -75 -186t-207 -72q-133 0 -212 72t-77 186z" />
<glyph unicode="&#x43a;" horiz-adv-x="1064" d="M184 0v987h82v-321q0 -60 -6 -119h189q45 0 85 12t71.5 31.5t61.5 52t53 64.5t48.5 79t44 85.5t43.5 93.5q7 15 10 22h86q-24 -54 -35 -78.5t-34 -73t-36.5 -72.5t-37.5 -63t-42 -59t-44.5 -46.5t-51.5 -40t-56 -24.5t-64 -14v-2q45 -3 84 -17.5t71 -38t61 -57t54 -73 t50 -88.5t48.5 -100.5t49.5 -111.5q8 -19 12 -28h-88q-94 206 -124 260q-79 141 -172 188q-62 32 -144 33h-193q6 -59 6 -112v-369h-82z" />
<glyph unicode="&#x43b;" horiz-adv-x="1112" d="M45 55q125 49 178 164q27 56 48.5 145.5t30 148t20 164t12.5 114.5q12 99 63.5 147.5t153.5 48.5h375v-987h-80v920h-289q-70 0 -103.5 -34t-41.5 -106q-2 -18 -11 -97.5t-13 -110t-14.5 -98.5t-20 -107t-25 -89t-33.5 -88q-75 -167 -240 -200z" />
<glyph unicode="&#x43c;" horiz-adv-x="1488" d="M162 0l49 950q0 37 39 37h102q27 0 37 -29l281 -665q38 -90 55 -137h39q37 96 55 137l281 665q10 29 39 29h100q17 0 28 -10t11 -27l49 -950h-78l-47 920h-39l-338 -797q-13 -29 -37 -29h-90q-21 0 -34 29l-338 797h-39l-47 -920h-78z" />
<glyph unicode="&#x43d;" horiz-adv-x="1167" d="M184 0v987h82v-428h635v428h82v-987h-82v494h-635v-494h-82z" />
<glyph unicode="&#x43e;" d="M135 494q0 285 99.5 401.5t343.5 116.5q242 0 340 -116.5t98 -401.5q0 -286 -97.5 -402.5t-340.5 -116.5q-244 0 -343.5 116.5t-99.5 402.5zM221 494q0 -252 79 -349.5t278 -97.5q198 0 276 97.5t78 349.5t-78 348t-276 96q-200 0 -278.5 -96t-78.5 -348z" />
<glyph unicode="&#x43f;" horiz-adv-x="1161" d="M184 0v987h793v-987h-82v918h-631v-918h-80z" />
<glyph unicode="&#x440;" horiz-adv-x="1161" d="M186 -426v1413h64l10 -174q208 199 410 199q189 0 270.5 -121.5t81.5 -398.5q0 -280 -83.5 -398.5t-276.5 -118.5t-400 109q6 -72 6 -193v-317h-82zM268 139q130 -48 212.5 -69t168.5 -21q157 0 223 99t66 344q0 244 -65 345t-218 101q-91 0 -178.5 -43t-208.5 -143v-613 z" />
<glyph unicode="&#x441;" horiz-adv-x="987" d="M135 494q0 285 102.5 401.5t352.5 116.5q176 0 287 -39l-15 -55q-109 20 -260 20q-145 0 -226 -39.5t-119 -135.5t-38 -269t38 -269t119.5 -136t225.5 -40q167 0 287 23l10 -58q-144 -39 -309 -39q-249 0 -352 117t-103 402z" />
<glyph unicode="&#x442;" horiz-adv-x="972" d="M59 915v72h854v-72h-385v-915h-84v915h-385z" />
<glyph unicode="&#x443;" horiz-adv-x="1050" d="M55 987h88l326 -809q7 -18 21.5 -54.5t21.5 -55.5h27l45 112l323 807h88l-438 -1073q-80 -196 -176 -274q-119 -86 -293 -60l6 53q147 -7 242 60q77 67 147 237l27 70h-25q-27 0 -36 25z" />
<glyph unicode="&#x444;" horiz-adv-x="1437" d="M133 494q0 271 125.5 391t421.5 127v422h80v-422q295 -7 420 -127t125 -391t-125 -391.5t-420 -127.5v-401h-80v401q-297 7 -422 127t-125 392zM213 494q0 -124 25 -206.5t82 -135.5t144 -77t218 -26v889q-131 -2 -218 -25.5t-144 -76.5t-82 -135.5t-25 -206.5zM758 49 q257 6 361 104t104 341t-104 340.5t-361 103.5v-889z" />
<glyph unicode="&#x445;" horiz-adv-x="1048" d="M68 0l362 512l-336 475h94l310 -438h53l309 438h94l-336 -475l363 -512h-94l-338 481h-49l-338 -481h-94z" />
<glyph unicode="&#x446;" horiz-adv-x="1173" d="M186 0v987h80v-919h611v919h81v-919h115v-361h-55l-14 293h-818z" />
<glyph unicode="&#x447;" horiz-adv-x="1048" d="M127 578v409h82v-389q0 -84 38.5 -122t121.5 -38q110 0 203 22t210 77v450h80v-987h-80v467q-208 -100 -436 -100q-219 0 -219 211z" />
<glyph unicode="&#x448;" horiz-adv-x="1611" d="M184 0v987h82v-919h500v919h80v-919h502v919h79v-987h-1243z" />
<glyph unicode="&#x449;" horiz-adv-x="1646" d="M186 0v987h80v-919h502v919h78v-919h506v919h78v-919h116v-361h-57l-10 293h-1293z" />
<glyph unicode="&#x44a;" horiz-adv-x="1282" d="M59 918v69h451v-422h299q210 0 289.5 -64.5t79.5 -224.5q0 -166 -81 -227t-280 -61q-239 0 -387 12v918h-371zM510 59q66 -2 299 -2q159 0 221 45.5t62 176.5q0 124 -60.5 172.5t-222.5 48.5h-299v-441z" />
<glyph unicode="&#x44b;" horiz-adv-x="1404" d="M184 0v987h80v-422h303q189 0 261.5 -64.5t72.5 -224.5q0 -166 -73 -227t-253 -61q-241 0 -391 12zM264 59q68 -2 303 -2q139 0 193.5 45.5t54.5 176.5q0 125 -52.5 173t-195.5 48h-303v-441zM1137 0v987h82v-987h-82z" />
<glyph unicode="&#x44c;" horiz-adv-x="1038" d="M184 0v987h80v-422h303q208 0 287.5 -64.5t79.5 -224.5q0 -166 -80 -227t-279 -61q-241 0 -391 12zM264 59q68 -2 303 -2q157 0 219 45.5t62 176.5q0 125 -59.5 173t-221.5 48h-303v-441z" />
<glyph unicode="&#x44d;" horiz-adv-x="1001" d="M92 12l12 62q146 -19 308 -19q204 0 285.5 91.5t84.5 326.5h-518v64h516q-6 216 -88.5 301.5t-279.5 85.5q-148 0 -295 -15l-13 60q120 26 308 26q252 0 353 -112.5t101 -393.5q0 -280 -101 -393.5t-353 -113.5q-182 0 -320 30z" />
<glyph unicode="&#x44e;" horiz-adv-x="1585" d="M186 0v987h82v-444h303q3 134 27 222.5t76 144t130 79t195 23.5q252 0 351.5 -112.5t99.5 -401.5t-99.5 -401.5t-351.5 -112.5q-236 0 -331.5 108t-98.5 385h-301v-477h-82zM653 498q0 -250 75.5 -346.5t270.5 -96.5q204 0 284.5 97t80.5 346t-80.5 345.5t-284.5 96.5 q-195 0 -270.5 -96t-75.5 -346z" />
<glyph unicode="&#x44f;" horiz-adv-x="1085" d="M106 0l93 289q37 113 196 131v6q-123 6 -182 83t-59 206q0 126 78 202t253 76q261 0 414 -14v-979h-80v391h-311q-96 0 -155.5 -33.5t-78.5 -93.5l-79 -264h-89zM236 702q0 -123 63.5 -184t210.5 -61h309v463q-140 4 -332 4q-136 0 -193.5 -59t-57.5 -163z" />
<glyph unicode="&#x451;" horiz-adv-x="1085" d="M135 498q0 283 98.5 398.5t331.5 115.5q395 0 398 -291q3 -135 -48 -201.5t-170 -66.5h-526q7 -225 94 -314.5t279 -89.5q167 0 338 25l10 -58q-51 -18 -160.5 -29.5t-197.5 -11.5q-240 0 -343.5 120.5t-103.5 402.5zM219 520h514q81 0 115.5 50.5t32.5 146.5 q-3 116 -78.5 168.5t-233.5 52.5q-191 0 -269 -92.5t-81 -325.5zM344 1245v115q0 29 29 29h30q27 0 27 -29v-115q0 -28 -27 -28h-30q-29 0 -29 28zM707 1245v115q0 29 28 29h31q27 0 27 -29v-115q0 -28 -27 -28h-31q-28 0 -28 28z" />
<glyph unicode="&#x452;" horiz-adv-x="1169" d="M63 1038v56h164v340h84v-340h430v-56h-430v-237q0 -121 -10 -187q268 195 469 195q132 0 199 -69t67 -201v-539h-82v522q0 109 -51 160t-160 51q-98 0 -194.5 -42.5t-239.5 -139.5v-551h-82v1038h-164z" />
<glyph unicode="&#x453;" horiz-adv-x="909" d="M180 0v788q0 95 51.5 147t145.5 52q317 0 475 -8v-61h-449q-73 0 -107 -35.5t-34 -110.5v-772h-82zM424 1171l317 299l54 -61l-334 -279z" />
<glyph unicode="&#x454;" horiz-adv-x="1003" d="M137 489q0 281 101.5 393.5t353.5 112.5q187 0 307 -26l-12 -60q-147 15 -295 15q-198 0 -281 -86t-90 -303h518v-64h-518q3 -233 85 -324.5t286 -91.5q162 0 305 19l12 -62q-135 -30 -317 -30q-252 0 -353.5 113.5t-101.5 393.5z" />
<glyph unicode="&#x455;" horiz-adv-x="1028" d="M121 748q0 72 16 121.5t42.5 78t76 43.5t101.5 18.5t135 2.5q211 -3 389 -27l-7 -59q-243 12 -376 14q-53 1 -95.5 0.5t-75.5 -6t-56.5 -17.5t-39 -34t-23 -54.5t-7.5 -80.5q0 -96 38.5 -138t120.5 -53l322 -47q114 -19 169.5 -79t55.5 -177q0 -53 -9 -94t-24 -70.5 t-42.5 -49.5t-56.5 -32.5t-73.5 -19.5t-87.5 -9t-104 -2q-198 0 -365 25l9 59q177 -15 348 -12q78 1 127.5 5.5t91 16.5t62.5 35.5t32.5 59t11.5 88.5q0 91 -43.5 132t-126.5 54l-319 47q-111 18 -164 78.5t-53 182.5z" />
<glyph unicode="&#x456;" horiz-adv-x="466" d="M184 1243v123q0 33 31 33h37q31 0 31 -33v-123q0 -33 -31 -33h-37q-31 0 -31 33zM193 0v987h81v-987h-81z" />
<glyph unicode="&#x457;" horiz-adv-x="466" d="M6 1245v115q0 29 29 29h31q26 0 26 -29v-115q0 -28 -26 -28h-31q-29 0 -29 28zM193 0v987h81v-987h-81zM369 1245v115q0 29 28 29h31q27 0 27 -29v-115q0 -28 -27 -28h-31q-28 0 -28 28z" />
<glyph unicode="&#x458;" horiz-adv-x="466" d="M80 -391q57 73 85 146.5t28 168.5v1063h81v-1063q0 -204 -149 -350zM184 1243v123q0 33 31 33h37q33 0 33 -33v-123q0 -33 -33 -33h-37q-31 0 -31 33z" />
<glyph unicode="&#x459;" horiz-adv-x="1593" d="M63 57q57 32 92.5 61.5t67.5 82.5q59 97 77 192t52 426q15 168 195 168h327v-403h267q197 0 271.5 -67t74.5 -232q0 -66 -9.5 -114t-32 -81t-50.5 -53t-74.5 -31t-94 -14.5t-118.5 -3.5q-182 0 -313 12v922h-236q-61 0 -92 -27t-37 -88q-32 -318 -52.5 -425t-78.5 -204 q-73 -140 -223 -180zM874 57q61 -2 222 -2q61 0 101 2.5t78 11t60 24t39 41.5t24 63.5t7 89.5q0 130 -56.5 181.5t-207.5 51.5h-267v-463z" />
<glyph unicode="&#x45a;" horiz-adv-x="1619" d="M186 0v987h78v-409h555v409h80v-407h270q195 0 269.5 -66t74.5 -227q0 -173 -75 -236t-260 -63q-221 0 -359 12v514h-555v-514h-78zM899 57q59 -2 270 -2q146 0 203.5 47.5t57.5 184.5q0 129 -55.5 179t-205.5 50h-270v-459z" />
<glyph unicode="&#x45b;" horiz-adv-x="1169" d="M63 1038v56h164v340h84v-340h430v-56h-430v-237q0 -121 -10 -187q268 195 469 195q132 0 199 -69t67 -201v-615q0 -204 -149 -350l-45 35q57 72 84.5 146.5t27.5 168.5v598q0 109 -51 160t-160 51q-98 0 -194.5 -42.5t-239.5 -139.5v-551h-82v1038h-164z" />
<glyph unicode="&#x45c;" horiz-adv-x="1064" d="M184 0v987h82v-321q0 -60 -6 -119h189q45 0 85 12t71.5 31.5t61.5 52t53 64.5t48.5 79t44 85.5t43.5 93.5q7 15 10 22h86q-24 -54 -35 -78.5t-34 -73t-36.5 -72.5t-37.5 -63t-42 -59t-44.5 -46.5t-51.5 -40t-56 -24.5t-64 -14v-2q45 -3 84 -17.5t71 -38t61 -57t54 -73 t50 -88.5t48.5 -100.5t49.5 -111.5q8 -19 12 -28h-88q-94 206 -124 260q-79 141 -172 188q-62 32 -144 33h-193q6 -59 6 -112v-369h-82zM457 1171l317 299l53 -61l-333 -279z" />
<glyph unicode="&#x45d;" horiz-adv-x="1193" d="M184 0v987h78v-762q0 -78 -2 -119h2q22 37 70 97l606 784h70v-987h-76v768v113h-2q-9 -16 -62 -93l-614 -788h-70zM295 1409l53 61l318 -299l-37 -41z" />
<glyph unicode="&#x45e;" horiz-adv-x="1050" d="M55 987h88l326 -809q7 -18 21.5 -54.5t21.5 -55.5h27l45 112l323 807h88l-438 -1073q-80 -196 -176 -274q-119 -86 -293 -60l6 53q147 -7 242 60q77 67 147 237l27 70h-25q-27 0 -36 25zM244 1427h71q0 -97 58.5 -150.5t158.5 -53.5q97 0 155 53.5t58 150.5h72 q2 -114 -76 -186t-209 -72q-132 0 -211 72t-77 186z" />
<glyph unicode="&#x45f;" horiz-adv-x="1165" d="M186 0v987h84v-919h625v919h84v-987h-358l-9 -342h-57l-12 342h-357z" />
<glyph unicode="&#x490;" horiz-adv-x="1056" d="M197 0v1190q0 98 62.5 160.5t158.5 62.5q346 0 516 -8l14 317h56v-321l-5 -60h-559q-72 0 -115.5 -44t-43.5 -119v-1178h-84z" />
<glyph unicode="&#x491;" horiz-adv-x="911" d="M180 0v788q0 95 51.5 147t145.5 52q266 0 407 -4l13 305h57v-309h-2v-61h-449q-72 1 -106.5 -35t-34.5 -111v-772h-82z" />
<glyph unicode="&#x4b0;" horiz-adv-x="1150" d="M55 1413h92l351 -659q13 -24 36.5 -73.5t36.5 -72.5h13q59 120 71 144l351 661h92l-465 -868h311v-58h-326v-487h-83v487h-328v58h313z" />
<glyph unicode="&#x4b1;" horiz-adv-x="1163" d="M59 987h93l350 -659q13 -23 37 -72.5t36 -71.5h13q62 122 74 142l348 661h92l-463 -868h311v-58h-325v-487h-84v487h-328v58h313z" />
<glyph unicode="&#x4b6;" horiz-adv-x="1286" d="M139 842v571h86v-557q-1 -124 57 -182t183 -58q134 0 245 34t253 118v645h86v-1347h159v-375h-59l-14 309h-172v694q-246 -153 -521 -153q-154 0 -228.5 74.5t-74.5 226.5z" />
<glyph unicode="&#x4b7;" horiz-adv-x="1079" d="M127 578v409h82v-389q0 -84 38.5 -122t121.5 -38q110 0 203 22t210 77v450h80v-919h117v-361h-55l-15 293h-127v467q-208 -100 -436 -100q-219 0 -219 211z" />
<glyph unicode="&#x4ba;" horiz-adv-x="1249" d="M203 0v1413h84v-694q246 153 522 153q152 0 226.5 -74.5t74.5 -226.5v-571h-84v557q0 125 -58 182.5t-184 57.5q-133 0 -244 -34t-253 -118v-645h-84z" />
<glyph unicode="&#x4c0;" horiz-adv-x="489" d="M203 0v1413h84v-1413h-84z" />
<glyph unicode="&#x1e80;" horiz-adv-x="1914" d="M66 1413h90l299 -1194l34 -149h56q25 104 35 147l284 1163q7 33 39 33h109q29 0 39 -33l284 -1161q20 -83 33 -149h55l35 147l301 1196h88l-352 -1384q-3 -12 -13.5 -20.5t-25.5 -8.5h-117q-32 0 -39 31l-280 1155l-39 160h-47q-19 -73 -39 -160l-281 -1155 q-3 -13 -14 -22t-25 -9h-116q-30 0 -41 29zM674 1780l53 61l317 -299l-36 -39z" />
<glyph unicode="&#x1e81;" horiz-adv-x="1669" d="M66 987h86l262 -788q1 -1 43 -138h26l43 140l234 757q3 12 13.5 20.5t23.5 8.5h75q13 0 23.5 -8.5t13.5 -20.5l236 -757l41 -140h26q8 23 21.5 69.5t21.5 70.5l263 786h86l-328 -960q-10 -27 -37 -27h-80q-28 0 -39 29l-231 747q-2 8 -18.5 64t-24.5 86h-23l-45 -150 l-229 -747q-11 -29 -39 -29h-80q-27 0 -37 27zM551 1409l51 61l318 -299l-37 -41z" />
<glyph unicode="&#x1e82;" horiz-adv-x="1914" d="M66 1413h90l299 -1194l34 -149h56q25 104 35 147l284 1163q7 33 39 33h109q29 0 39 -33l284 -1161q20 -83 33 -149h55l35 147l301 1196h88l-352 -1384q-3 -12 -13.5 -20.5t-25.5 -8.5h-117q-32 0 -39 31l-280 1155l-39 160h-47q-19 -73 -39 -160l-281 -1155 q-3 -13 -14 -22t-25 -9h-116q-30 0 -41 29zM852 1542l317 299l54 -61l-334 -277z" />
<glyph unicode="&#x1e83;" horiz-adv-x="1669" d="M66 987h86l262 -788q1 -1 43 -138h26l43 140l234 757q3 12 13.5 20.5t23.5 8.5h75q13 0 23.5 -8.5t13.5 -20.5l236 -757l41 -140h26q8 23 21.5 69.5t21.5 70.5l263 786h86l-328 -960q-10 -27 -37 -27h-80q-28 0 -39 29l-231 747q-2 8 -18.5 64t-24.5 86h-23l-45 -150 l-229 -747q-11 -29 -39 -29h-80q-27 0 -37 27zM727 1171l317 299l54 -61l-334 -279z" />
<glyph unicode="&#x1e84;" horiz-adv-x="1914" d="M66 1413h90l299 -1194l34 -149h56q25 104 35 147l284 1163q7 33 39 33h109q29 0 39 -33l284 -1161q20 -83 33 -149h55l35 147l301 1196h88l-352 -1384q-3 -12 -13.5 -20.5t-25.5 -8.5h-117q-32 0 -39 31l-280 1155l-39 160h-47q-19 -73 -39 -160l-281 -1155 q-3 -13 -14 -22t-25 -9h-116q-30 0 -41 29zM733 1616v115q0 28 29 28h31q26 0 26 -28v-115q0 -29 -26 -29h-31q-29 0 -29 29zM1096 1616v115q0 28 28 28h31q27 0 27 -28v-115q0 -29 -27 -29h-31q-28 0 -28 29z" />
<glyph unicode="&#x1e85;" horiz-adv-x="1669" d="M66 987h86l262 -788q1 -1 43 -138h26l43 140l234 757q3 12 13.5 20.5t23.5 8.5h75q13 0 23.5 -8.5t13.5 -20.5l236 -757l41 -140h26q8 23 21.5 69.5t21.5 70.5l263 786h86l-328 -960q-10 -27 -37 -27h-80q-28 0 -39 29l-231 747q-2 8 -18.5 64t-24.5 86h-23l-45 -150 l-229 -747q-11 -29 -39 -29h-80q-27 0 -37 27zM610 1245v115q0 29 27 29h31q28 0 28 -29v-115q0 -28 -28 -28h-31q-27 0 -27 28zM973 1245v115q0 29 26 29h31q29 0 29 -29v-115q0 -28 -29 -28h-31q-26 0 -26 28z" />
<glyph unicode="&#x1ef2;" horiz-adv-x="1122" d="M39 1413h92l350 -659q12 -24 37 -73.5t37 -72.5h12q36 74 72 144l350 661h92l-477 -895v-518h-86v520zM276 1782l54 59l317 -297l-37 -41z" />
<glyph unicode="&#x1ef3;" horiz-adv-x="1048" d="M55 987h88l324 -809q4 -11 20 -50t23 -60h27l45 112l325 807h86l-438 -1073q-28 -69 -56.5 -119t-69 -97.5t-96 -79t-126.5 -46.5l-12 51q113 41 177 116.5t109 190.5l29 70h-27q-25 0 -34 25zM246 1409l53 61l317 -299l-36 -41z" />
<glyph unicode="&#x2000;" horiz-adv-x="945" />
<glyph unicode="&#x2001;" horiz-adv-x="1890" />
<glyph unicode="&#x2002;" horiz-adv-x="945" />
<glyph unicode="&#x2003;" horiz-adv-x="1890" />
<glyph unicode="&#x2004;" horiz-adv-x="630" />
<glyph unicode="&#x2005;" horiz-adv-x="472" />
<glyph unicode="&#x2006;" horiz-adv-x="315" />
<glyph unicode="&#x2007;" horiz-adv-x="315" />
<glyph unicode="&#x2008;" horiz-adv-x="236" />
<glyph unicode="&#x2009;" horiz-adv-x="378" />
<glyph unicode="&#x200a;" horiz-adv-x="105" />
<glyph unicode="&#x2010;" horiz-adv-x="970" d="M168 481v68h635v-68h-635z" />
<glyph unicode="&#x2011;" horiz-adv-x="970" d="M168 481v68h635v-68h-635z" />
<glyph unicode="&#x2012;" horiz-adv-x="970" d="M168 481v68h635v-68h-635z" />
<glyph unicode="&#x2013;" horiz-adv-x="1259" d="M168 481v68h924v-68h-924z" />
<glyph unicode="&#x2014;" horiz-adv-x="1890" d="M168 481v68h1554v-68h-1554z" />
<glyph unicode="&#x2018;" horiz-adv-x="413" d="M162 1098v129q4 150 43 270l39 -14q-13 -130 -13 -230q11 0 17.5 -7.5t3.5 -20.5v-127q3 -35 -33 -35h-24q-18 0 -25.5 8t-7.5 27z" />
<glyph unicode="&#x2019;" horiz-adv-x="409" d="M160 1317v127q0 35 33 35h26q18 0 25.5 -8t7.5 -27v-129q-4 -151 -43 -271l-39 15q12 123 12 229q-11 0 -17 8.5t-5 20.5z" />
<glyph unicode="&#x201a;" horiz-adv-x="436" d="M172 29v127q0 19 8 26.5t27 7.5h26q19 0 27 -7.5t8 -26.5v-129q-4 -148 -47 -271l-39 15q13 133 13 229q-11 0 -18.5 8.5t-4.5 20.5z" />
<glyph unicode="&#x201c;" horiz-adv-x="667" d="M162 1098v129q4 150 43 270l39 -14q-13 -130 -13 -230q11 0 17.5 -7.5t3.5 -20.5v-127q3 -35 -33 -35h-24q-18 0 -25.5 8t-7.5 27zM416 1098v129q0 139 43 270l39 -14q-13 -130 -13 -230q11 0 17.5 -7.5t3.5 -20.5v-127q3 -35 -33 -35h-24q-18 0 -25.5 8t-7.5 27z" />
<glyph unicode="&#x201d;" horiz-adv-x="663" d="M160 1317v127q0 35 33 35h26q18 0 25.5 -8t7.5 -27v-129q-4 -151 -43 -271l-39 15q12 123 12 229q-11 0 -17 8.5t-5 20.5zM414 1317v127q0 35 32 35h27q18 0 25.5 -8t7.5 -27v-129q-4 -151 -43 -271l-39 15q12 123 12 229q-11 0 -17 8.5t-5 20.5z" />
<glyph unicode="&#x201e;" horiz-adv-x="688" d="M172 29v127q0 18 8 26t25 8h26q17 0 25 -8t8 -26v-129q-4 -154 -45 -271l-37 15q11 113 11 229q-10 0 -17 9t-4 20zM426 29v127q0 18 8 26t25 8h26q17 0 25 -8t8 -26v-129q-4 -154 -45 -271l-37 15q10 102 10 229q-10 0 -16.5 9t-3.5 20z" />
<glyph unicode="&#x2020;" horiz-adv-x="894" d="M106 907v80h273v-67zM408 977v438h77v-1640h-73v1159zM518 920v67h273v-80z" />
<glyph unicode="&#x2021;" horiz-adv-x="970" d="M143 203v80l273 -13v-67h-273zM143 907v80h273v-67zM444 -225v1640h78v-1640h-78zM555 203v67l272 13v-80h-272zM555 920v67h272v-80z" />
<glyph unicode="&#x2022;" horiz-adv-x="724" d="M209 539v22q0 78 31 108.5t114 30.5h21q79 0 110 -30.5t31 -108.5v-22q0 -82 -30.5 -113t-110.5 -31h-21q-83 0 -114 31t-31 113z" />
<glyph unicode="&#x2026;" horiz-adv-x="1615" d="M166 35v123q0 19 8 27t27 8h30q35 0 35 -35v-123q0 -35 -35 -35h-30q-19 0 -27 8t-8 27zM758 35v123q0 19 8 27t27 8h28q19 0 27 -8t8 -27v-123q0 -19 -8 -27t-27 -8h-28q-19 0 -27 8t-8 27zM1348 35v123q0 19 7.5 27t26.5 8h31q19 0 27 -8t8 -27v-123q0 -19 -8 -27 t-27 -8h-31q-19 0 -26.5 8t-7.5 27z" />
<glyph unicode="&#x202f;" horiz-adv-x="378" />
<glyph unicode="&#x2030;" horiz-adv-x="2555" d="M117 1020q0 222 70.5 320t242.5 98t242.5 -98t70.5 -320t-70.5 -320t-242.5 -98t-242.5 98t-70.5 320zM186 1020q0 -194 54 -277.5t190 -83.5t190 83.5t54 277.5t-54 277t-190 83t-190 -83t-54 -277zM387 0l965 1413h69l-966 -1413h-68zM1071 403q0 221 70.5 319.5 t242.5 98.5q170 0 241 -98.5t71 -319.5q0 -222 -70.5 -320.5t-241.5 -98.5q-172 0 -242.5 98.5t-70.5 320.5zM1141 403q0 -195 53 -278.5t188 -83.5q136 0 190 84t54 278t-54 277.5t-190 83.5q-135 0 -188 -83t-53 -278zM1810 403q0 221 70.5 319.5t241.5 98.5 q172 0 242.5 -98.5t70.5 -319.5q0 -222 -70.5 -320.5t-242.5 -98.5t-242 98t-70 321zM1880 403q0 -195 53.5 -278.5t188.5 -83.5t189 83.5t54 278.5q0 194 -54 277.5t-189 83.5t-188.5 -83t-53.5 -278z" />
<glyph unicode="&#x2039;" horiz-adv-x="491" d="M51 502v24l332 406l43 -31l-293 -387l295 -393l-43 -31z" />
<glyph unicode="&#x203a;" horiz-adv-x="495" d="M66 121l292 393l-290 387l41 31l333 -406v-24l-336 -412z" />
<glyph unicode="&#x2044;" horiz-adv-x="327" d="M-354 0l964 1413h70l-967 -1413h-67z" />
<glyph unicode="&#x205f;" horiz-adv-x="472" />
<glyph unicode="&#x20ac;" horiz-adv-x="1323" d="M131 557v59h191l-3 91q0 80 5 131h-193v59h197q27 274 151 407.5t373 133.5q185 0 330 -37l-15 -64q-139 25 -317 25q-203 -1 -306 -116t-128 -349h573l-14 -59h-563q-4 -41 -4 -131v-91h481l-17 -59h-460q21 -256 123.5 -380.5t314.5 -125.5q192 0 336 27l14 -64 q-150 -39 -348 -39q-257 0 -381.5 144t-146.5 438h-193z" />
<glyph unicode="&#x2122;" horiz-adv-x="1947" d="M154 1370v55h641v-55h-289v-723h-66v723h-286zM911 647l35 748q3 30 31 30h80q22 0 28 -22l207 -522q6 -18 18.5 -54t18.5 -53h29l41 109l203 520q6 22 28 22h82q14 0 22.5 -8.5t8.5 -21.5l35 -748h-64l-35 725h-26l-246 -624q-7 -23 -31 -23h-65q-26 0 -29 23l-246 624 h-26l-35 -725h-64z" />
<glyph unicode="&#x2202;" horiz-adv-x="1163" d="M133 449q9 216 119.5 337t300.5 121q247 0 375 -209q9 140 0 243.5t-39.5 179.5t-78 124t-124.5 77t-169.5 40.5t-221.5 11.5v64q137 1 234.5 -9.5t187.5 -39.5t146 -82t96 -135.5t52 -202.5t1 -281q-6 -91 -15 -163t-25.5 -148.5t-39 -133.5t-57.5 -109.5t-80.5 -86 t-107.5 -53t-138 -19.5q-115 0 -199.5 38.5t-131.5 105.5t-68 149.5t-17 180.5zM215 451q-3 -83 14 -153t55.5 -127t106.5 -89.5t160 -32.5q59 0 108 16.5t85 45t64.5 72t47.5 91t33 110.5t21.5 121.5t13.5 131.5q-142 199 -365 199q-156 0 -246 -103.5t-98 -281.5z" />
<glyph unicode="&#x2205;" horiz-adv-x="1402" d="M102 698q0 122 47.5 232.5t127.5 190.5t191.5 127.5t233.5 47.5t232.5 -47.5t190.5 -127.5t127.5 -190.5t47.5 -232.5t-47.5 -233.5t-127.5 -191.5t-190.5 -127.5t-232.5 -47.5t-233.5 47.5t-191.5 127.5t-127.5 191.5t-47.5 233.5zM453 1094l6 -93q130 19 243 19 q64 0 100 -25t36 -69q0 -36 -20.5 -72.5t-50 -70.5t-58.5 -72.5t-49.5 -95t-20.5 -121.5h111q0 59 20 108.5t48 84t56 68t48 77t20 94.5q0 190 -240 190q-39 0 -68.5 -1t-56 -3.5t-39.5 -4.5t-42.5 -6.5t-42.5 -6.5zM641 258q0 -14 14 -14h80q17 0 17 14v76q0 16 -17 16h-80 q-14 0 -14 -16v-76z" />
<glyph unicode="&#x220f;" horiz-adv-x="1490" d="M90 1343v70h1311v-70h-240v-1564h-80v1564h-671v-1564h-80v1564h-240z" />
<glyph unicode="&#x2211;" horiz-adv-x="1193" d="M111 -113l401 846l-377 608v72h920v-72h-824l375 -608l-403 -846h872v-71h-964v71z" />
<glyph unicode="&#x2212;" horiz-adv-x="1204" d="M170 571v68h864v-68h-864z" />
<glyph unicode="&#x221a;" horiz-adv-x="1136" d="M90 987h76l244 -924h26l555 1731h78l-573 -1778q-6 -16 -27 -16h-94q-24 0 -27 16z" />
<glyph unicode="&#x221e;" horiz-adv-x="1615" d="M147 639q0 129 76.5 195.5t198.5 66.5q64 0 121.5 -17.5t105.5 -51t85.5 -70.5t76.5 -86q36 43 70 75.5t84.5 70t111.5 58.5t127 21q116 0 190 -66.5t74 -195.5q0 -132 -80.5 -206.5t-205.5 -74.5q-65 0 -122 19.5t-104.5 56.5t-77.5 67.5t-67 76.5q-86 -102 -176 -161 t-203 -59q-123 0 -204 74.5t-81 206.5zM221 639q0 -105 60 -160t165 -55q101 0 173 50.5t153 152.5q-39 49 -70.5 82t-73.5 64.5t-92 47t-108 15.5q-98 0 -152.5 -48t-54.5 -149zM850 623q27 -38 52 -66t65.5 -62t92.5 -52.5t111 -18.5q103 0 163.5 55.5t60.5 161.5 q0 99 -53.5 147t-145.5 48q-57 0 -108.5 -18t-96.5 -54t-74 -66t-67 -75z" />
<glyph unicode="&#x222b;" horiz-adv-x="786" d="M84 -446l6 59h135q97 0 137.5 48t34.5 165l-84 1364q-18 272 219 272q102 0 170 -8l-8 -59h-135q-97 0 -137 -48.5t-33 -164.5l84 -1364q8 -137 -45 -205t-176 -68q-104 0 -168 9z" />
<glyph unicode="&#x2248;" horiz-adv-x="1210" d="M172 305q-4 109 40.5 155t127.5 44q57 0 130 -20t132.5 -44.5t134.5 -46t135 -22.5q56 0 81.5 25t25.5 98h61q5 -99 -36 -145t-138 -46q-77 0 -174 32.5t-191 65.5t-161 35q-56 0 -81.5 -26.5t-25.5 -104.5h-61zM172 696q-4 109 40.5 154t127.5 45q57 -1 130 -21.5 t132.5 -45t134.5 -45t135 -21.5q56 0 81.5 24.5t25.5 98.5h61q5 -101 -36 -147t-138 -46q-61 0 -136 20.5t-134.5 45t-130.5 45.5t-125 22q-56 0 -81.5 -26t-25.5 -103h-61z" />
<glyph unicode="&#x2260;" horiz-adv-x="1259" d="M231 344v68h265l221 366h-486v68h527l133 219l45 -21l-123 -198h285v-68h-324l-223 -366h547v-68h-588l-154 -252l-43 21l142 231h-224z" />
<glyph unicode="&#x2264;" horiz-adv-x="1193" d="M168 201v65h860v-65h-860zM188 680v70l816 307v-72l-738 -270l738 -242v-70z" />
<glyph unicode="&#x2265;" horiz-adv-x="1193" d="M166 201v65h860v-65h-860zM193 403v70l735 242l-735 272v70l813 -307v-70z" />
<glyph unicode="&#x25ca;" horiz-adv-x="1206" d="M94 694q-9 15 0 29l496 696q14 17 28 0l492 -696q9 -15 0 -29l-492 -700q-14 -17 -28 0zM170 709l434 -629l432 629l-432 624z" />
<glyph unicode="&#x25fc;" horiz-adv-x="983" d="M0 0v983h983v-983h-983z" />
<glyph unicode="&#xfb00;" horiz-adv-x="1376" d="M68 918v59l178 8v164q0 140 63 209t203 69q127 0 244 -10l-4 -61h-213q-116 0 -163.5 -46.5t-47.5 -164.5v-158h555v199q0 141 61 209.5t205 68.5q160 0 250 -10l-2 -61h-221q-117 0 -164 -47t-47 -164v-195h352v-69h-352v-918h-82v918h-555v-918h-82v918h-178z" />
<glyph unicode="&#xfb03;" horiz-adv-x="1785" d="M68 918v59l176 8v164q0 140 62.5 209t201.5 69q127 0 244 -10l-4 -61h-211q-118 0 -165.5 -46.5t-47.5 -164.5v-158h555v195q0 142 62 212t204 70q153 0 241 -10v-61h-215q-116 0 -163 -48t-47 -169v-189h632v-987h-82v918h-550v-918h-82v918h-555v-918h-80v918h-176z M1503 1243v123q0 33 31 33h37q15 0 24 -9t9 -24v-123q0 -33 -33 -33h-37q-31 0 -31 33z" />
<glyph unicode="&#xfb04;" horiz-adv-x="1925" d="M68 918v59l178 8v164q0 140 63 209t203 69q127 0 244 -10l-4 -61h-213q-116 0 -163.5 -46.5t-47.5 -164.5v-158h555v195q0 143 61.5 212.5t204.5 69.5q78 0 248.5 -4.5t228.5 -11.5v-1237q0 -76 40.5 -116t115.5 -40h112l11 -53q-50 -16 -146 -16q-99 0 -157 56.5 t-58 158.5v1194h-368q-117 1 -164 -48t-47 -171v-189h348v-69h-348v-918h-82v918h-555v-918h-82v918h-178z" />
<glyph unicode="&#xfb06;" horiz-adv-x="1722" d="M121 748q0 54 9.5 93.5t31.5 66t49 42.5t73 24t91 10.5t114 2.5h750v305h80v-305h354v-69h-354v-701q0 -156 158 -156h172l10 -59q-91 -16 -186 -16q-116 0 -175 57.5t-59 165.5v709h-741h-60t-51.5 -1.5t-46 -3.5t-37.5 -6.5t-33 -10.5t-25 -15.5t-20 -22t-13 -28.5 t-9 -36.5t-2 -45.5q0 -96 38.5 -138t120.5 -53l322 -47q115 -19 170 -79t55 -177q0 -53 -9 -94t-24 -70.5t-42.5 -49.5t-56.5 -32.5t-73.5 -19.5t-87.5 -9t-104 -2q-197 0 -367 25l9 59q177 -15 350 -12q97 1 153 8t98 29t58 62t16 106q0 91 -44 131.5t-126 54.5l-321 47 q-111 18 -163 78t-52 183z" />
<glyph horiz-adv-x="1628" d="M133 494q0 267 104.5 380t350.5 113h557v305h80v-305h352v-69h-352v-701q0 -156 157 -156h172l11 -59q-91 -16 -189 -16q-116 0 -173.5 57t-57.5 166v709h-543q-144 0 -225.5 -39t-119.5 -130.5t-38 -254.5q0 -173 36.5 -269t114 -136t216.5 -40q143 0 248 23l10 -58 q-125 -39 -271 -39q-242 0 -341 116.5t-99 402.5z" />
<glyph horiz-adv-x="2349" d="M68 918v59l178 8v164q0 140 63 209t203 69q127 0 244 -10l-4 -61h-213q-116 0 -163.5 -46.5t-47.5 -164.5v-158h555v199q0 141 62 209.5t204 68.5q162 0 252 -10l-4 -61h-221q-116 0 -163.5 -47t-47.5 -164v-195h311q86 0 141.5 -38t87.5 -118l264 -653q7 -18 21.5 -55 t21.5 -55h27l43 112l326 807h88l-441 -1073q-22 -55 -43.5 -96t-51.5 -83.5t-65 -72.5t-82.5 -54t-105.5 -36l-12 51q113 41 175 114.5t112 192.5l28 70h-26q-26 0 -35 25l-322 784q-46 109 -163 109h-299v-918h-82v918h-555v-918h-82v918h-178z" />
<glyph horiz-adv-x="1388" d="M68 918v59l178 8v201q0 141 62 209.5t204 68.5q158 0 248 -10l-4 -61h-217q-116 0 -163.5 -47t-47.5 -164v-195h575v305h82v-305h352v-69h-352v-701q0 -156 156 -156h174l10 -59q-94 -16 -188 -16q-116 0 -175 57.5t-59 165.5v709h-575v-918h-82v918h-178z" />
<glyph horiz-adv-x="1712" d="M68 918v59l178 8v201q0 141 62 209.5t204 68.5q162 0 252 -10l-4 -61h-221q-116 0 -163.5 -47t-47.5 -164v-195h311q86 0 141.5 -38t87.5 -118l265 -653q7 -18 21.5 -55t21.5 -55h24l27 69l344 850h88l-440 -1073q-28 -69 -56 -119t-69 -98t-96 -79t-126 -46l-14 51 q114 41 178 116t109 191l29 70h-27q-26 0 -35 25l-321 784q-43 109 -164 109h-299v-918h-82v918h-178z" />
<glyph horiz-adv-x="1392" d="M66 918v59l178 8v307h82v-305h583v305h82v-305h352v-69h-352v-701q0 -156 156 -156h172l10 -59q-91 -16 -186 -16q-116 0 -175 57.5t-59 165.5v709h-583v-701q0 -156 157 -156h172l11 -59q-91 -16 -189 -16q-116 0 -174.5 57.5t-58.5 165.5v709h-178z" />
<glyph horiz-adv-x="1765" d="M66 918v59l178 8v307h82v-305h370q166 0 226 -153l264 -656q4 -11 20 -50t23 -60h26l35 88l334 831h88l-438 -1073q-29 -70 -57 -119t-69 -97.5t-96 -79.5t-126 -46l-15 51q113 41 176.5 115t112.5 192l29 70h-27q-24 0 -37 25l-319 784q-46 109 -164 109h-356v-701 q0 -156 157 -156h172l11 -59q-91 -16 -189 -16q-116 0 -174.5 57.5t-58.5 165.5v709h-178z" />
<glyph horiz-adv-x="741" d="M86 1417h70q0 -97 58.5 -151t158.5 -54q97 0 155 54t58 151h71q2 -114 -75 -186t-209 -72t-211 72t-76 186z" />
</font>
</defs>
</svg>
